G04 #@! TF.GenerationSoftware,KiCad,Pcbnew,(5.1.0)-1*
G04 #@! TF.CreationDate,2019-04-28T20:51:49+02:00*
G04 #@! TF.ProjectId,diyaltimeter.de,64697961-6c74-4696-9d65-7465722e6465,rev?*
G04 #@! TF.SameCoordinates,Original*
G04 #@! TF.FileFunction,Copper,L2,Bot*
G04 #@! TF.FilePolarity,Positive*
%FSLAX46Y46*%
G04 Gerber Fmt 4.6, Leading zero omitted, Abs format (unit mm)*
G04 Created by KiCad (PCBNEW (5.1.0)-1) date 2019-04-28 20:51:49*
%MOMM*%
%LPD*%
G04 APERTURE LIST*
%ADD10O,1.727200X3.048000*%
%ADD11R,1.700000X1.700000*%
%ADD12O,1.700000X1.700000*%
%ADD13C,1.600000*%
%ADD14C,0.250000*%
G04 APERTURE END LIST*
D10*
X78740000Y-100130000D03*
X73740000Y-100130000D03*
X78740000Y-87630000D03*
X73740000Y-87630000D03*
X86440000Y-87630000D03*
X91440000Y-87630000D03*
X86440000Y-100130000D03*
X91440000Y-100130000D03*
D11*
X71120000Y-109220000D03*
D12*
X73660000Y-109220000D03*
X76200000Y-109220000D03*
X78740000Y-109220000D03*
D11*
X81280000Y-111760000D03*
D12*
X83820000Y-111760000D03*
X86360000Y-111760000D03*
X88900000Y-111760000D03*
X91440000Y-111760000D03*
X93980000Y-111760000D03*
X96520000Y-111760000D03*
X71120000Y-129540000D03*
X71120000Y-132080000D03*
X71120000Y-134620000D03*
X71120000Y-137160000D03*
X71120000Y-139700000D03*
X71120000Y-142240000D03*
X71120000Y-144780000D03*
X71120000Y-147320000D03*
X71120000Y-149860000D03*
X71120000Y-152400000D03*
X71120000Y-154940000D03*
X71120000Y-157480000D03*
X71120000Y-160020000D03*
X71120000Y-162560000D03*
X71120000Y-165100000D03*
D11*
X71120000Y-167640000D03*
X93980000Y-129540000D03*
D12*
X93980000Y-132080000D03*
X93980000Y-134620000D03*
X93980000Y-137160000D03*
X93980000Y-139700000D03*
X93980000Y-142240000D03*
X93980000Y-144780000D03*
X93980000Y-147320000D03*
X93980000Y-149860000D03*
X93980000Y-152400000D03*
X93980000Y-154940000D03*
X93980000Y-157480000D03*
X93980000Y-160020000D03*
X93980000Y-162560000D03*
X93980000Y-165100000D03*
X93980000Y-167640000D03*
D11*
X99060000Y-160020000D03*
D12*
X99060000Y-157480000D03*
X99060000Y-154940000D03*
X99060000Y-152400000D03*
X99060000Y-149860000D03*
X99060000Y-147320000D03*
X99060000Y-129540000D03*
X99060000Y-132080000D03*
X99060000Y-134620000D03*
X99060000Y-137160000D03*
X99060000Y-139700000D03*
D11*
X99060000Y-142240000D03*
X109220000Y-177800000D03*
D12*
X109220000Y-175260000D03*
X109220000Y-172720000D03*
X109220000Y-170180000D03*
X109220000Y-167640000D03*
D13*
X71120000Y-121920000D03*
X71120000Y-114420000D03*
D11*
X78740000Y-104140000D03*
D12*
X76200000Y-104140000D03*
X73660000Y-104140000D03*
X71120000Y-104140000D03*
D10*
X104140000Y-100130000D03*
X99140000Y-100130000D03*
X104140000Y-87630000D03*
X99140000Y-87630000D03*
D14*
X76080000Y-114420000D02*
X71120000Y-114420000D01*
X78740000Y-109220000D02*
X78740000Y-111760000D01*
X78740000Y-111760000D02*
X76080000Y-114420000D01*
X71120000Y-114420000D02*
X71120000Y-116840000D01*
X71120000Y-116840000D02*
X68580000Y-119380000D01*
X68580000Y-119380000D02*
X68580000Y-167640000D01*
X68580000Y-167640000D02*
X71120000Y-170180000D01*
X71120000Y-170180000D02*
X91440000Y-170180000D01*
X91440000Y-170180000D02*
X93980000Y-167640000D01*
X83820000Y-111760000D02*
X83820000Y-121920000D01*
X76200000Y-129540000D02*
X71120000Y-129540000D01*
X83820000Y-121920000D02*
X76200000Y-129540000D01*
X100160000Y-142240000D02*
X101600000Y-140800000D01*
X99060000Y-142240000D02*
X100160000Y-142240000D01*
X101600000Y-140800000D02*
X101600000Y-132080000D01*
X101600000Y-132080000D02*
X99060000Y-129540000D01*
X83820000Y-111760000D02*
X86360000Y-109220000D01*
X86360000Y-109220000D02*
X96520000Y-109220000D01*
X96520000Y-109220000D02*
X99060000Y-111760000D01*
X99060000Y-111760000D02*
X99060000Y-129540000D01*
X99060000Y-142240000D02*
X99060000Y-147320000D01*
X109220000Y-157480000D02*
X109220000Y-167640000D01*
X99060000Y-147320000D02*
X109220000Y-157480000D01*
X88900000Y-147320000D02*
X93980000Y-147320000D01*
X86360000Y-111760000D02*
X86360000Y-144780000D01*
X86360000Y-144780000D02*
X88900000Y-147320000D01*
X93980000Y-132080000D02*
X88900000Y-127000000D01*
X88900000Y-127000000D02*
X88900000Y-111760000D01*
X99060000Y-134620000D02*
X96520000Y-137160000D01*
X96520000Y-137160000D02*
X96520000Y-149860000D01*
X96520000Y-149860000D02*
X99060000Y-152400000D01*
X99060000Y-154940000D02*
X106680000Y-162560000D01*
X106680000Y-167640000D02*
X109220000Y-170180000D01*
X106680000Y-162560000D02*
X106680000Y-167640000D01*
X76200000Y-104140000D02*
X76200000Y-99060000D01*
X76200000Y-99060000D02*
X77470000Y-97790000D01*
X98026400Y-100130000D02*
X99140000Y-100130000D01*
X95686400Y-97790000D02*
X98026400Y-100130000D01*
X77470000Y-97790000D02*
X95686400Y-97790000D01*
X99140000Y-100130000D02*
X99140000Y-87630000D01*
X86440000Y-91360000D02*
X86440000Y-87630000D01*
X85090000Y-92710000D02*
X86440000Y-91360000D01*
X77470000Y-92710000D02*
X85090000Y-92710000D01*
X71120000Y-99060000D02*
X77470000Y-92710000D01*
X73660000Y-104140000D02*
X71120000Y-101600000D01*
X71120000Y-101600000D02*
X71120000Y-99060000D01*
M02*
