G04 #@! TF.GenerationSoftware,KiCad,Pcbnew,(5.1.0)-1*
G04 #@! TF.CreationDate,2019-04-28T20:51:49+02:00*
G04 #@! TF.ProjectId,diyaltimeter.de,64697961-6c74-4696-9d65-7465722e6465,rev?*
G04 #@! TF.SameCoordinates,Original*
G04 #@! TF.FileFunction,Soldermask,Bot*
G04 #@! TF.FilePolarity,Negative*
%FSLAX46Y46*%
G04 Gerber Fmt 4.6, Leading zero omitted, Abs format (unit mm)*
G04 Created by KiCad (PCBNEW (5.1.0)-1) date 2019-04-28 20:51:49*
%MOMM*%
%LPD*%
G04 APERTURE LIST*
%ADD10C,0.100000*%
G04 APERTURE END LIST*
D10*
G36*
X110121000Y-178701000D02*
G01*
X108319000Y-178701000D01*
X108319000Y-176899000D01*
X110121000Y-176899000D01*
X110121000Y-178701000D01*
X110121000Y-178701000D01*
G37*
G36*
X109330442Y-174365518D02*
G01*
X109396627Y-174372037D01*
X109566466Y-174423557D01*
X109722991Y-174507222D01*
X109758729Y-174536552D01*
X109860186Y-174619814D01*
X109943448Y-174721271D01*
X109972778Y-174757009D01*
X110056443Y-174913534D01*
X110107963Y-175083373D01*
X110125359Y-175260000D01*
X110107963Y-175436627D01*
X110056443Y-175606466D01*
X109972778Y-175762991D01*
X109943448Y-175798729D01*
X109860186Y-175900186D01*
X109758729Y-175983448D01*
X109722991Y-176012778D01*
X109566466Y-176096443D01*
X109396627Y-176147963D01*
X109330443Y-176154481D01*
X109264260Y-176161000D01*
X109175740Y-176161000D01*
X109109557Y-176154481D01*
X109043373Y-176147963D01*
X108873534Y-176096443D01*
X108717009Y-176012778D01*
X108681271Y-175983448D01*
X108579814Y-175900186D01*
X108496552Y-175798729D01*
X108467222Y-175762991D01*
X108383557Y-175606466D01*
X108332037Y-175436627D01*
X108314641Y-175260000D01*
X108332037Y-175083373D01*
X108383557Y-174913534D01*
X108467222Y-174757009D01*
X108496552Y-174721271D01*
X108579814Y-174619814D01*
X108681271Y-174536552D01*
X108717009Y-174507222D01*
X108873534Y-174423557D01*
X109043373Y-174372037D01*
X109109558Y-174365518D01*
X109175740Y-174359000D01*
X109264260Y-174359000D01*
X109330442Y-174365518D01*
X109330442Y-174365518D01*
G37*
G36*
X109330443Y-171825519D02*
G01*
X109396627Y-171832037D01*
X109566466Y-171883557D01*
X109722991Y-171967222D01*
X109758729Y-171996552D01*
X109860186Y-172079814D01*
X109943448Y-172181271D01*
X109972778Y-172217009D01*
X110056443Y-172373534D01*
X110107963Y-172543373D01*
X110125359Y-172720000D01*
X110107963Y-172896627D01*
X110056443Y-173066466D01*
X109972778Y-173222991D01*
X109943448Y-173258729D01*
X109860186Y-173360186D01*
X109758729Y-173443448D01*
X109722991Y-173472778D01*
X109566466Y-173556443D01*
X109396627Y-173607963D01*
X109330443Y-173614481D01*
X109264260Y-173621000D01*
X109175740Y-173621000D01*
X109109557Y-173614481D01*
X109043373Y-173607963D01*
X108873534Y-173556443D01*
X108717009Y-173472778D01*
X108681271Y-173443448D01*
X108579814Y-173360186D01*
X108496552Y-173258729D01*
X108467222Y-173222991D01*
X108383557Y-173066466D01*
X108332037Y-172896627D01*
X108314641Y-172720000D01*
X108332037Y-172543373D01*
X108383557Y-172373534D01*
X108467222Y-172217009D01*
X108496552Y-172181271D01*
X108579814Y-172079814D01*
X108681271Y-171996552D01*
X108717009Y-171967222D01*
X108873534Y-171883557D01*
X109043373Y-171832037D01*
X109109557Y-171825519D01*
X109175740Y-171819000D01*
X109264260Y-171819000D01*
X109330443Y-171825519D01*
X109330443Y-171825519D01*
G37*
G36*
X109330443Y-169285519D02*
G01*
X109396627Y-169292037D01*
X109566466Y-169343557D01*
X109722991Y-169427222D01*
X109758729Y-169456552D01*
X109860186Y-169539814D01*
X109943448Y-169641271D01*
X109972778Y-169677009D01*
X110056443Y-169833534D01*
X110107963Y-170003373D01*
X110125359Y-170180000D01*
X110107963Y-170356627D01*
X110056443Y-170526466D01*
X109972778Y-170682991D01*
X109943448Y-170718729D01*
X109860186Y-170820186D01*
X109758729Y-170903448D01*
X109722991Y-170932778D01*
X109566466Y-171016443D01*
X109396627Y-171067963D01*
X109330443Y-171074481D01*
X109264260Y-171081000D01*
X109175740Y-171081000D01*
X109109557Y-171074481D01*
X109043373Y-171067963D01*
X108873534Y-171016443D01*
X108717009Y-170932778D01*
X108681271Y-170903448D01*
X108579814Y-170820186D01*
X108496552Y-170718729D01*
X108467222Y-170682991D01*
X108383557Y-170526466D01*
X108332037Y-170356627D01*
X108314641Y-170180000D01*
X108332037Y-170003373D01*
X108383557Y-169833534D01*
X108467222Y-169677009D01*
X108496552Y-169641271D01*
X108579814Y-169539814D01*
X108681271Y-169456552D01*
X108717009Y-169427222D01*
X108873534Y-169343557D01*
X109043373Y-169292037D01*
X109109557Y-169285519D01*
X109175740Y-169279000D01*
X109264260Y-169279000D01*
X109330443Y-169285519D01*
X109330443Y-169285519D01*
G37*
G36*
X109330442Y-166745518D02*
G01*
X109396627Y-166752037D01*
X109566466Y-166803557D01*
X109722991Y-166887222D01*
X109758729Y-166916552D01*
X109860186Y-166999814D01*
X109943448Y-167101271D01*
X109972778Y-167137009D01*
X110056443Y-167293534D01*
X110107963Y-167463373D01*
X110125359Y-167640000D01*
X110107963Y-167816627D01*
X110056443Y-167986466D01*
X109972778Y-168142991D01*
X109943448Y-168178729D01*
X109860186Y-168280186D01*
X109758729Y-168363448D01*
X109722991Y-168392778D01*
X109566466Y-168476443D01*
X109396627Y-168527963D01*
X109330442Y-168534482D01*
X109264260Y-168541000D01*
X109175740Y-168541000D01*
X109109558Y-168534482D01*
X109043373Y-168527963D01*
X108873534Y-168476443D01*
X108717009Y-168392778D01*
X108681271Y-168363448D01*
X108579814Y-168280186D01*
X108496552Y-168178729D01*
X108467222Y-168142991D01*
X108383557Y-167986466D01*
X108332037Y-167816627D01*
X108314641Y-167640000D01*
X108332037Y-167463373D01*
X108383557Y-167293534D01*
X108467222Y-167137009D01*
X108496552Y-167101271D01*
X108579814Y-166999814D01*
X108681271Y-166916552D01*
X108717009Y-166887222D01*
X108873534Y-166803557D01*
X109043373Y-166752037D01*
X109109558Y-166745518D01*
X109175740Y-166739000D01*
X109264260Y-166739000D01*
X109330442Y-166745518D01*
X109330442Y-166745518D01*
G37*
G36*
X72021000Y-168541000D02*
G01*
X70219000Y-168541000D01*
X70219000Y-166739000D01*
X72021000Y-166739000D01*
X72021000Y-168541000D01*
X72021000Y-168541000D01*
G37*
G36*
X94090442Y-166745518D02*
G01*
X94156627Y-166752037D01*
X94326466Y-166803557D01*
X94482991Y-166887222D01*
X94518729Y-166916552D01*
X94620186Y-166999814D01*
X94703448Y-167101271D01*
X94732778Y-167137009D01*
X94816443Y-167293534D01*
X94867963Y-167463373D01*
X94885359Y-167640000D01*
X94867963Y-167816627D01*
X94816443Y-167986466D01*
X94732778Y-168142991D01*
X94703448Y-168178729D01*
X94620186Y-168280186D01*
X94518729Y-168363448D01*
X94482991Y-168392778D01*
X94326466Y-168476443D01*
X94156627Y-168527963D01*
X94090442Y-168534482D01*
X94024260Y-168541000D01*
X93935740Y-168541000D01*
X93869558Y-168534482D01*
X93803373Y-168527963D01*
X93633534Y-168476443D01*
X93477009Y-168392778D01*
X93441271Y-168363448D01*
X93339814Y-168280186D01*
X93256552Y-168178729D01*
X93227222Y-168142991D01*
X93143557Y-167986466D01*
X93092037Y-167816627D01*
X93074641Y-167640000D01*
X93092037Y-167463373D01*
X93143557Y-167293534D01*
X93227222Y-167137009D01*
X93256552Y-167101271D01*
X93339814Y-166999814D01*
X93441271Y-166916552D01*
X93477009Y-166887222D01*
X93633534Y-166803557D01*
X93803373Y-166752037D01*
X93869558Y-166745518D01*
X93935740Y-166739000D01*
X94024260Y-166739000D01*
X94090442Y-166745518D01*
X94090442Y-166745518D01*
G37*
G36*
X94090442Y-164205518D02*
G01*
X94156627Y-164212037D01*
X94326466Y-164263557D01*
X94482991Y-164347222D01*
X94518729Y-164376552D01*
X94620186Y-164459814D01*
X94703448Y-164561271D01*
X94732778Y-164597009D01*
X94816443Y-164753534D01*
X94867963Y-164923373D01*
X94885359Y-165100000D01*
X94867963Y-165276627D01*
X94816443Y-165446466D01*
X94732778Y-165602991D01*
X94703448Y-165638729D01*
X94620186Y-165740186D01*
X94518729Y-165823448D01*
X94482991Y-165852778D01*
X94326466Y-165936443D01*
X94156627Y-165987963D01*
X94090443Y-165994481D01*
X94024260Y-166001000D01*
X93935740Y-166001000D01*
X93869557Y-165994481D01*
X93803373Y-165987963D01*
X93633534Y-165936443D01*
X93477009Y-165852778D01*
X93441271Y-165823448D01*
X93339814Y-165740186D01*
X93256552Y-165638729D01*
X93227222Y-165602991D01*
X93143557Y-165446466D01*
X93092037Y-165276627D01*
X93074641Y-165100000D01*
X93092037Y-164923373D01*
X93143557Y-164753534D01*
X93227222Y-164597009D01*
X93256552Y-164561271D01*
X93339814Y-164459814D01*
X93441271Y-164376552D01*
X93477009Y-164347222D01*
X93633534Y-164263557D01*
X93803373Y-164212037D01*
X93869558Y-164205518D01*
X93935740Y-164199000D01*
X94024260Y-164199000D01*
X94090442Y-164205518D01*
X94090442Y-164205518D01*
G37*
G36*
X71230442Y-164205518D02*
G01*
X71296627Y-164212037D01*
X71466466Y-164263557D01*
X71622991Y-164347222D01*
X71658729Y-164376552D01*
X71760186Y-164459814D01*
X71843448Y-164561271D01*
X71872778Y-164597009D01*
X71956443Y-164753534D01*
X72007963Y-164923373D01*
X72025359Y-165100000D01*
X72007963Y-165276627D01*
X71956443Y-165446466D01*
X71872778Y-165602991D01*
X71843448Y-165638729D01*
X71760186Y-165740186D01*
X71658729Y-165823448D01*
X71622991Y-165852778D01*
X71466466Y-165936443D01*
X71296627Y-165987963D01*
X71230443Y-165994481D01*
X71164260Y-166001000D01*
X71075740Y-166001000D01*
X71009557Y-165994481D01*
X70943373Y-165987963D01*
X70773534Y-165936443D01*
X70617009Y-165852778D01*
X70581271Y-165823448D01*
X70479814Y-165740186D01*
X70396552Y-165638729D01*
X70367222Y-165602991D01*
X70283557Y-165446466D01*
X70232037Y-165276627D01*
X70214641Y-165100000D01*
X70232037Y-164923373D01*
X70283557Y-164753534D01*
X70367222Y-164597009D01*
X70396552Y-164561271D01*
X70479814Y-164459814D01*
X70581271Y-164376552D01*
X70617009Y-164347222D01*
X70773534Y-164263557D01*
X70943373Y-164212037D01*
X71009558Y-164205518D01*
X71075740Y-164199000D01*
X71164260Y-164199000D01*
X71230442Y-164205518D01*
X71230442Y-164205518D01*
G37*
G36*
X71230442Y-161665518D02*
G01*
X71296627Y-161672037D01*
X71466466Y-161723557D01*
X71622991Y-161807222D01*
X71658729Y-161836552D01*
X71760186Y-161919814D01*
X71843448Y-162021271D01*
X71872778Y-162057009D01*
X71956443Y-162213534D01*
X72007963Y-162383373D01*
X72025359Y-162560000D01*
X72007963Y-162736627D01*
X71956443Y-162906466D01*
X71872778Y-163062991D01*
X71843448Y-163098729D01*
X71760186Y-163200186D01*
X71658729Y-163283448D01*
X71622991Y-163312778D01*
X71466466Y-163396443D01*
X71296627Y-163447963D01*
X71230442Y-163454482D01*
X71164260Y-163461000D01*
X71075740Y-163461000D01*
X71009558Y-163454482D01*
X70943373Y-163447963D01*
X70773534Y-163396443D01*
X70617009Y-163312778D01*
X70581271Y-163283448D01*
X70479814Y-163200186D01*
X70396552Y-163098729D01*
X70367222Y-163062991D01*
X70283557Y-162906466D01*
X70232037Y-162736627D01*
X70214641Y-162560000D01*
X70232037Y-162383373D01*
X70283557Y-162213534D01*
X70367222Y-162057009D01*
X70396552Y-162021271D01*
X70479814Y-161919814D01*
X70581271Y-161836552D01*
X70617009Y-161807222D01*
X70773534Y-161723557D01*
X70943373Y-161672037D01*
X71009558Y-161665518D01*
X71075740Y-161659000D01*
X71164260Y-161659000D01*
X71230442Y-161665518D01*
X71230442Y-161665518D01*
G37*
G36*
X94090442Y-161665518D02*
G01*
X94156627Y-161672037D01*
X94326466Y-161723557D01*
X94482991Y-161807222D01*
X94518729Y-161836552D01*
X94620186Y-161919814D01*
X94703448Y-162021271D01*
X94732778Y-162057009D01*
X94816443Y-162213534D01*
X94867963Y-162383373D01*
X94885359Y-162560000D01*
X94867963Y-162736627D01*
X94816443Y-162906466D01*
X94732778Y-163062991D01*
X94703448Y-163098729D01*
X94620186Y-163200186D01*
X94518729Y-163283448D01*
X94482991Y-163312778D01*
X94326466Y-163396443D01*
X94156627Y-163447963D01*
X94090442Y-163454482D01*
X94024260Y-163461000D01*
X93935740Y-163461000D01*
X93869558Y-163454482D01*
X93803373Y-163447963D01*
X93633534Y-163396443D01*
X93477009Y-163312778D01*
X93441271Y-163283448D01*
X93339814Y-163200186D01*
X93256552Y-163098729D01*
X93227222Y-163062991D01*
X93143557Y-162906466D01*
X93092037Y-162736627D01*
X93074641Y-162560000D01*
X93092037Y-162383373D01*
X93143557Y-162213534D01*
X93227222Y-162057009D01*
X93256552Y-162021271D01*
X93339814Y-161919814D01*
X93441271Y-161836552D01*
X93477009Y-161807222D01*
X93633534Y-161723557D01*
X93803373Y-161672037D01*
X93869558Y-161665518D01*
X93935740Y-161659000D01*
X94024260Y-161659000D01*
X94090442Y-161665518D01*
X94090442Y-161665518D01*
G37*
G36*
X71230442Y-159125518D02*
G01*
X71296627Y-159132037D01*
X71466466Y-159183557D01*
X71622991Y-159267222D01*
X71658729Y-159296552D01*
X71760186Y-159379814D01*
X71843448Y-159481271D01*
X71872778Y-159517009D01*
X71956443Y-159673534D01*
X72007963Y-159843373D01*
X72025359Y-160020000D01*
X72007963Y-160196627D01*
X71956443Y-160366466D01*
X71872778Y-160522991D01*
X71843448Y-160558729D01*
X71760186Y-160660186D01*
X71658729Y-160743448D01*
X71622991Y-160772778D01*
X71466466Y-160856443D01*
X71296627Y-160907963D01*
X71230442Y-160914482D01*
X71164260Y-160921000D01*
X71075740Y-160921000D01*
X71009558Y-160914482D01*
X70943373Y-160907963D01*
X70773534Y-160856443D01*
X70617009Y-160772778D01*
X70581271Y-160743448D01*
X70479814Y-160660186D01*
X70396552Y-160558729D01*
X70367222Y-160522991D01*
X70283557Y-160366466D01*
X70232037Y-160196627D01*
X70214641Y-160020000D01*
X70232037Y-159843373D01*
X70283557Y-159673534D01*
X70367222Y-159517009D01*
X70396552Y-159481271D01*
X70479814Y-159379814D01*
X70581271Y-159296552D01*
X70617009Y-159267222D01*
X70773534Y-159183557D01*
X70943373Y-159132037D01*
X71009558Y-159125518D01*
X71075740Y-159119000D01*
X71164260Y-159119000D01*
X71230442Y-159125518D01*
X71230442Y-159125518D01*
G37*
G36*
X99961000Y-160921000D02*
G01*
X98159000Y-160921000D01*
X98159000Y-159119000D01*
X99961000Y-159119000D01*
X99961000Y-160921000D01*
X99961000Y-160921000D01*
G37*
G36*
X94090442Y-159125518D02*
G01*
X94156627Y-159132037D01*
X94326466Y-159183557D01*
X94482991Y-159267222D01*
X94518729Y-159296552D01*
X94620186Y-159379814D01*
X94703448Y-159481271D01*
X94732778Y-159517009D01*
X94816443Y-159673534D01*
X94867963Y-159843373D01*
X94885359Y-160020000D01*
X94867963Y-160196627D01*
X94816443Y-160366466D01*
X94732778Y-160522991D01*
X94703448Y-160558729D01*
X94620186Y-160660186D01*
X94518729Y-160743448D01*
X94482991Y-160772778D01*
X94326466Y-160856443D01*
X94156627Y-160907963D01*
X94090442Y-160914482D01*
X94024260Y-160921000D01*
X93935740Y-160921000D01*
X93869558Y-160914482D01*
X93803373Y-160907963D01*
X93633534Y-160856443D01*
X93477009Y-160772778D01*
X93441271Y-160743448D01*
X93339814Y-160660186D01*
X93256552Y-160558729D01*
X93227222Y-160522991D01*
X93143557Y-160366466D01*
X93092037Y-160196627D01*
X93074641Y-160020000D01*
X93092037Y-159843373D01*
X93143557Y-159673534D01*
X93227222Y-159517009D01*
X93256552Y-159481271D01*
X93339814Y-159379814D01*
X93441271Y-159296552D01*
X93477009Y-159267222D01*
X93633534Y-159183557D01*
X93803373Y-159132037D01*
X93869558Y-159125518D01*
X93935740Y-159119000D01*
X94024260Y-159119000D01*
X94090442Y-159125518D01*
X94090442Y-159125518D01*
G37*
G36*
X99170443Y-156585519D02*
G01*
X99236627Y-156592037D01*
X99406466Y-156643557D01*
X99562991Y-156727222D01*
X99598729Y-156756552D01*
X99700186Y-156839814D01*
X99783448Y-156941271D01*
X99812778Y-156977009D01*
X99896443Y-157133534D01*
X99947963Y-157303373D01*
X99965359Y-157480000D01*
X99947963Y-157656627D01*
X99896443Y-157826466D01*
X99812778Y-157982991D01*
X99783448Y-158018729D01*
X99700186Y-158120186D01*
X99598729Y-158203448D01*
X99562991Y-158232778D01*
X99406466Y-158316443D01*
X99236627Y-158367963D01*
X99170442Y-158374482D01*
X99104260Y-158381000D01*
X99015740Y-158381000D01*
X98949558Y-158374482D01*
X98883373Y-158367963D01*
X98713534Y-158316443D01*
X98557009Y-158232778D01*
X98521271Y-158203448D01*
X98419814Y-158120186D01*
X98336552Y-158018729D01*
X98307222Y-157982991D01*
X98223557Y-157826466D01*
X98172037Y-157656627D01*
X98154641Y-157480000D01*
X98172037Y-157303373D01*
X98223557Y-157133534D01*
X98307222Y-156977009D01*
X98336552Y-156941271D01*
X98419814Y-156839814D01*
X98521271Y-156756552D01*
X98557009Y-156727222D01*
X98713534Y-156643557D01*
X98883373Y-156592037D01*
X98949557Y-156585519D01*
X99015740Y-156579000D01*
X99104260Y-156579000D01*
X99170443Y-156585519D01*
X99170443Y-156585519D01*
G37*
G36*
X94090443Y-156585519D02*
G01*
X94156627Y-156592037D01*
X94326466Y-156643557D01*
X94482991Y-156727222D01*
X94518729Y-156756552D01*
X94620186Y-156839814D01*
X94703448Y-156941271D01*
X94732778Y-156977009D01*
X94816443Y-157133534D01*
X94867963Y-157303373D01*
X94885359Y-157480000D01*
X94867963Y-157656627D01*
X94816443Y-157826466D01*
X94732778Y-157982991D01*
X94703448Y-158018729D01*
X94620186Y-158120186D01*
X94518729Y-158203448D01*
X94482991Y-158232778D01*
X94326466Y-158316443D01*
X94156627Y-158367963D01*
X94090442Y-158374482D01*
X94024260Y-158381000D01*
X93935740Y-158381000D01*
X93869558Y-158374482D01*
X93803373Y-158367963D01*
X93633534Y-158316443D01*
X93477009Y-158232778D01*
X93441271Y-158203448D01*
X93339814Y-158120186D01*
X93256552Y-158018729D01*
X93227222Y-157982991D01*
X93143557Y-157826466D01*
X93092037Y-157656627D01*
X93074641Y-157480000D01*
X93092037Y-157303373D01*
X93143557Y-157133534D01*
X93227222Y-156977009D01*
X93256552Y-156941271D01*
X93339814Y-156839814D01*
X93441271Y-156756552D01*
X93477009Y-156727222D01*
X93633534Y-156643557D01*
X93803373Y-156592037D01*
X93869557Y-156585519D01*
X93935740Y-156579000D01*
X94024260Y-156579000D01*
X94090443Y-156585519D01*
X94090443Y-156585519D01*
G37*
G36*
X71230443Y-156585519D02*
G01*
X71296627Y-156592037D01*
X71466466Y-156643557D01*
X71622991Y-156727222D01*
X71658729Y-156756552D01*
X71760186Y-156839814D01*
X71843448Y-156941271D01*
X71872778Y-156977009D01*
X71956443Y-157133534D01*
X72007963Y-157303373D01*
X72025359Y-157480000D01*
X72007963Y-157656627D01*
X71956443Y-157826466D01*
X71872778Y-157982991D01*
X71843448Y-158018729D01*
X71760186Y-158120186D01*
X71658729Y-158203448D01*
X71622991Y-158232778D01*
X71466466Y-158316443D01*
X71296627Y-158367963D01*
X71230442Y-158374482D01*
X71164260Y-158381000D01*
X71075740Y-158381000D01*
X71009558Y-158374482D01*
X70943373Y-158367963D01*
X70773534Y-158316443D01*
X70617009Y-158232778D01*
X70581271Y-158203448D01*
X70479814Y-158120186D01*
X70396552Y-158018729D01*
X70367222Y-157982991D01*
X70283557Y-157826466D01*
X70232037Y-157656627D01*
X70214641Y-157480000D01*
X70232037Y-157303373D01*
X70283557Y-157133534D01*
X70367222Y-156977009D01*
X70396552Y-156941271D01*
X70479814Y-156839814D01*
X70581271Y-156756552D01*
X70617009Y-156727222D01*
X70773534Y-156643557D01*
X70943373Y-156592037D01*
X71009557Y-156585519D01*
X71075740Y-156579000D01*
X71164260Y-156579000D01*
X71230443Y-156585519D01*
X71230443Y-156585519D01*
G37*
G36*
X99170442Y-154045518D02*
G01*
X99236627Y-154052037D01*
X99406466Y-154103557D01*
X99562991Y-154187222D01*
X99598729Y-154216552D01*
X99700186Y-154299814D01*
X99783448Y-154401271D01*
X99812778Y-154437009D01*
X99896443Y-154593534D01*
X99947963Y-154763373D01*
X99965359Y-154940000D01*
X99947963Y-155116627D01*
X99896443Y-155286466D01*
X99812778Y-155442991D01*
X99783448Y-155478729D01*
X99700186Y-155580186D01*
X99598729Y-155663448D01*
X99562991Y-155692778D01*
X99406466Y-155776443D01*
X99236627Y-155827963D01*
X99170442Y-155834482D01*
X99104260Y-155841000D01*
X99015740Y-155841000D01*
X98949558Y-155834482D01*
X98883373Y-155827963D01*
X98713534Y-155776443D01*
X98557009Y-155692778D01*
X98521271Y-155663448D01*
X98419814Y-155580186D01*
X98336552Y-155478729D01*
X98307222Y-155442991D01*
X98223557Y-155286466D01*
X98172037Y-155116627D01*
X98154641Y-154940000D01*
X98172037Y-154763373D01*
X98223557Y-154593534D01*
X98307222Y-154437009D01*
X98336552Y-154401271D01*
X98419814Y-154299814D01*
X98521271Y-154216552D01*
X98557009Y-154187222D01*
X98713534Y-154103557D01*
X98883373Y-154052037D01*
X98949558Y-154045518D01*
X99015740Y-154039000D01*
X99104260Y-154039000D01*
X99170442Y-154045518D01*
X99170442Y-154045518D01*
G37*
G36*
X94090442Y-154045518D02*
G01*
X94156627Y-154052037D01*
X94326466Y-154103557D01*
X94482991Y-154187222D01*
X94518729Y-154216552D01*
X94620186Y-154299814D01*
X94703448Y-154401271D01*
X94732778Y-154437009D01*
X94816443Y-154593534D01*
X94867963Y-154763373D01*
X94885359Y-154940000D01*
X94867963Y-155116627D01*
X94816443Y-155286466D01*
X94732778Y-155442991D01*
X94703448Y-155478729D01*
X94620186Y-155580186D01*
X94518729Y-155663448D01*
X94482991Y-155692778D01*
X94326466Y-155776443D01*
X94156627Y-155827963D01*
X94090442Y-155834482D01*
X94024260Y-155841000D01*
X93935740Y-155841000D01*
X93869558Y-155834482D01*
X93803373Y-155827963D01*
X93633534Y-155776443D01*
X93477009Y-155692778D01*
X93441271Y-155663448D01*
X93339814Y-155580186D01*
X93256552Y-155478729D01*
X93227222Y-155442991D01*
X93143557Y-155286466D01*
X93092037Y-155116627D01*
X93074641Y-154940000D01*
X93092037Y-154763373D01*
X93143557Y-154593534D01*
X93227222Y-154437009D01*
X93256552Y-154401271D01*
X93339814Y-154299814D01*
X93441271Y-154216552D01*
X93477009Y-154187222D01*
X93633534Y-154103557D01*
X93803373Y-154052037D01*
X93869558Y-154045518D01*
X93935740Y-154039000D01*
X94024260Y-154039000D01*
X94090442Y-154045518D01*
X94090442Y-154045518D01*
G37*
G36*
X71230442Y-154045518D02*
G01*
X71296627Y-154052037D01*
X71466466Y-154103557D01*
X71622991Y-154187222D01*
X71658729Y-154216552D01*
X71760186Y-154299814D01*
X71843448Y-154401271D01*
X71872778Y-154437009D01*
X71956443Y-154593534D01*
X72007963Y-154763373D01*
X72025359Y-154940000D01*
X72007963Y-155116627D01*
X71956443Y-155286466D01*
X71872778Y-155442991D01*
X71843448Y-155478729D01*
X71760186Y-155580186D01*
X71658729Y-155663448D01*
X71622991Y-155692778D01*
X71466466Y-155776443D01*
X71296627Y-155827963D01*
X71230442Y-155834482D01*
X71164260Y-155841000D01*
X71075740Y-155841000D01*
X71009558Y-155834482D01*
X70943373Y-155827963D01*
X70773534Y-155776443D01*
X70617009Y-155692778D01*
X70581271Y-155663448D01*
X70479814Y-155580186D01*
X70396552Y-155478729D01*
X70367222Y-155442991D01*
X70283557Y-155286466D01*
X70232037Y-155116627D01*
X70214641Y-154940000D01*
X70232037Y-154763373D01*
X70283557Y-154593534D01*
X70367222Y-154437009D01*
X70396552Y-154401271D01*
X70479814Y-154299814D01*
X70581271Y-154216552D01*
X70617009Y-154187222D01*
X70773534Y-154103557D01*
X70943373Y-154052037D01*
X71009558Y-154045518D01*
X71075740Y-154039000D01*
X71164260Y-154039000D01*
X71230442Y-154045518D01*
X71230442Y-154045518D01*
G37*
G36*
X99170443Y-151505519D02*
G01*
X99236627Y-151512037D01*
X99406466Y-151563557D01*
X99562991Y-151647222D01*
X99598729Y-151676552D01*
X99700186Y-151759814D01*
X99783448Y-151861271D01*
X99812778Y-151897009D01*
X99896443Y-152053534D01*
X99947963Y-152223373D01*
X99965359Y-152400000D01*
X99947963Y-152576627D01*
X99896443Y-152746466D01*
X99812778Y-152902991D01*
X99783448Y-152938729D01*
X99700186Y-153040186D01*
X99598729Y-153123448D01*
X99562991Y-153152778D01*
X99406466Y-153236443D01*
X99236627Y-153287963D01*
X99170443Y-153294481D01*
X99104260Y-153301000D01*
X99015740Y-153301000D01*
X98949557Y-153294481D01*
X98883373Y-153287963D01*
X98713534Y-153236443D01*
X98557009Y-153152778D01*
X98521271Y-153123448D01*
X98419814Y-153040186D01*
X98336552Y-152938729D01*
X98307222Y-152902991D01*
X98223557Y-152746466D01*
X98172037Y-152576627D01*
X98154641Y-152400000D01*
X98172037Y-152223373D01*
X98223557Y-152053534D01*
X98307222Y-151897009D01*
X98336552Y-151861271D01*
X98419814Y-151759814D01*
X98521271Y-151676552D01*
X98557009Y-151647222D01*
X98713534Y-151563557D01*
X98883373Y-151512037D01*
X98949557Y-151505519D01*
X99015740Y-151499000D01*
X99104260Y-151499000D01*
X99170443Y-151505519D01*
X99170443Y-151505519D01*
G37*
G36*
X94090443Y-151505519D02*
G01*
X94156627Y-151512037D01*
X94326466Y-151563557D01*
X94482991Y-151647222D01*
X94518729Y-151676552D01*
X94620186Y-151759814D01*
X94703448Y-151861271D01*
X94732778Y-151897009D01*
X94816443Y-152053534D01*
X94867963Y-152223373D01*
X94885359Y-152400000D01*
X94867963Y-152576627D01*
X94816443Y-152746466D01*
X94732778Y-152902991D01*
X94703448Y-152938729D01*
X94620186Y-153040186D01*
X94518729Y-153123448D01*
X94482991Y-153152778D01*
X94326466Y-153236443D01*
X94156627Y-153287963D01*
X94090443Y-153294481D01*
X94024260Y-153301000D01*
X93935740Y-153301000D01*
X93869557Y-153294481D01*
X93803373Y-153287963D01*
X93633534Y-153236443D01*
X93477009Y-153152778D01*
X93441271Y-153123448D01*
X93339814Y-153040186D01*
X93256552Y-152938729D01*
X93227222Y-152902991D01*
X93143557Y-152746466D01*
X93092037Y-152576627D01*
X93074641Y-152400000D01*
X93092037Y-152223373D01*
X93143557Y-152053534D01*
X93227222Y-151897009D01*
X93256552Y-151861271D01*
X93339814Y-151759814D01*
X93441271Y-151676552D01*
X93477009Y-151647222D01*
X93633534Y-151563557D01*
X93803373Y-151512037D01*
X93869557Y-151505519D01*
X93935740Y-151499000D01*
X94024260Y-151499000D01*
X94090443Y-151505519D01*
X94090443Y-151505519D01*
G37*
G36*
X71230443Y-151505519D02*
G01*
X71296627Y-151512037D01*
X71466466Y-151563557D01*
X71622991Y-151647222D01*
X71658729Y-151676552D01*
X71760186Y-151759814D01*
X71843448Y-151861271D01*
X71872778Y-151897009D01*
X71956443Y-152053534D01*
X72007963Y-152223373D01*
X72025359Y-152400000D01*
X72007963Y-152576627D01*
X71956443Y-152746466D01*
X71872778Y-152902991D01*
X71843448Y-152938729D01*
X71760186Y-153040186D01*
X71658729Y-153123448D01*
X71622991Y-153152778D01*
X71466466Y-153236443D01*
X71296627Y-153287963D01*
X71230443Y-153294481D01*
X71164260Y-153301000D01*
X71075740Y-153301000D01*
X71009557Y-153294481D01*
X70943373Y-153287963D01*
X70773534Y-153236443D01*
X70617009Y-153152778D01*
X70581271Y-153123448D01*
X70479814Y-153040186D01*
X70396552Y-152938729D01*
X70367222Y-152902991D01*
X70283557Y-152746466D01*
X70232037Y-152576627D01*
X70214641Y-152400000D01*
X70232037Y-152223373D01*
X70283557Y-152053534D01*
X70367222Y-151897009D01*
X70396552Y-151861271D01*
X70479814Y-151759814D01*
X70581271Y-151676552D01*
X70617009Y-151647222D01*
X70773534Y-151563557D01*
X70943373Y-151512037D01*
X71009557Y-151505519D01*
X71075740Y-151499000D01*
X71164260Y-151499000D01*
X71230443Y-151505519D01*
X71230443Y-151505519D01*
G37*
G36*
X94090443Y-148965519D02*
G01*
X94156627Y-148972037D01*
X94326466Y-149023557D01*
X94482991Y-149107222D01*
X94518729Y-149136552D01*
X94620186Y-149219814D01*
X94703448Y-149321271D01*
X94732778Y-149357009D01*
X94816443Y-149513534D01*
X94867963Y-149683373D01*
X94885359Y-149860000D01*
X94867963Y-150036627D01*
X94816443Y-150206466D01*
X94732778Y-150362991D01*
X94703448Y-150398729D01*
X94620186Y-150500186D01*
X94518729Y-150583448D01*
X94482991Y-150612778D01*
X94326466Y-150696443D01*
X94156627Y-150747963D01*
X94090443Y-150754481D01*
X94024260Y-150761000D01*
X93935740Y-150761000D01*
X93869557Y-150754481D01*
X93803373Y-150747963D01*
X93633534Y-150696443D01*
X93477009Y-150612778D01*
X93441271Y-150583448D01*
X93339814Y-150500186D01*
X93256552Y-150398729D01*
X93227222Y-150362991D01*
X93143557Y-150206466D01*
X93092037Y-150036627D01*
X93074641Y-149860000D01*
X93092037Y-149683373D01*
X93143557Y-149513534D01*
X93227222Y-149357009D01*
X93256552Y-149321271D01*
X93339814Y-149219814D01*
X93441271Y-149136552D01*
X93477009Y-149107222D01*
X93633534Y-149023557D01*
X93803373Y-148972037D01*
X93869557Y-148965519D01*
X93935740Y-148959000D01*
X94024260Y-148959000D01*
X94090443Y-148965519D01*
X94090443Y-148965519D01*
G37*
G36*
X71230443Y-148965519D02*
G01*
X71296627Y-148972037D01*
X71466466Y-149023557D01*
X71622991Y-149107222D01*
X71658729Y-149136552D01*
X71760186Y-149219814D01*
X71843448Y-149321271D01*
X71872778Y-149357009D01*
X71956443Y-149513534D01*
X72007963Y-149683373D01*
X72025359Y-149860000D01*
X72007963Y-150036627D01*
X71956443Y-150206466D01*
X71872778Y-150362991D01*
X71843448Y-150398729D01*
X71760186Y-150500186D01*
X71658729Y-150583448D01*
X71622991Y-150612778D01*
X71466466Y-150696443D01*
X71296627Y-150747963D01*
X71230443Y-150754481D01*
X71164260Y-150761000D01*
X71075740Y-150761000D01*
X71009557Y-150754481D01*
X70943373Y-150747963D01*
X70773534Y-150696443D01*
X70617009Y-150612778D01*
X70581271Y-150583448D01*
X70479814Y-150500186D01*
X70396552Y-150398729D01*
X70367222Y-150362991D01*
X70283557Y-150206466D01*
X70232037Y-150036627D01*
X70214641Y-149860000D01*
X70232037Y-149683373D01*
X70283557Y-149513534D01*
X70367222Y-149357009D01*
X70396552Y-149321271D01*
X70479814Y-149219814D01*
X70581271Y-149136552D01*
X70617009Y-149107222D01*
X70773534Y-149023557D01*
X70943373Y-148972037D01*
X71009557Y-148965519D01*
X71075740Y-148959000D01*
X71164260Y-148959000D01*
X71230443Y-148965519D01*
X71230443Y-148965519D01*
G37*
G36*
X99170443Y-148965519D02*
G01*
X99236627Y-148972037D01*
X99406466Y-149023557D01*
X99562991Y-149107222D01*
X99598729Y-149136552D01*
X99700186Y-149219814D01*
X99783448Y-149321271D01*
X99812778Y-149357009D01*
X99896443Y-149513534D01*
X99947963Y-149683373D01*
X99965359Y-149860000D01*
X99947963Y-150036627D01*
X99896443Y-150206466D01*
X99812778Y-150362991D01*
X99783448Y-150398729D01*
X99700186Y-150500186D01*
X99598729Y-150583448D01*
X99562991Y-150612778D01*
X99406466Y-150696443D01*
X99236627Y-150747963D01*
X99170443Y-150754481D01*
X99104260Y-150761000D01*
X99015740Y-150761000D01*
X98949557Y-150754481D01*
X98883373Y-150747963D01*
X98713534Y-150696443D01*
X98557009Y-150612778D01*
X98521271Y-150583448D01*
X98419814Y-150500186D01*
X98336552Y-150398729D01*
X98307222Y-150362991D01*
X98223557Y-150206466D01*
X98172037Y-150036627D01*
X98154641Y-149860000D01*
X98172037Y-149683373D01*
X98223557Y-149513534D01*
X98307222Y-149357009D01*
X98336552Y-149321271D01*
X98419814Y-149219814D01*
X98521271Y-149136552D01*
X98557009Y-149107222D01*
X98713534Y-149023557D01*
X98883373Y-148972037D01*
X98949557Y-148965519D01*
X99015740Y-148959000D01*
X99104260Y-148959000D01*
X99170443Y-148965519D01*
X99170443Y-148965519D01*
G37*
G36*
X94090442Y-146425518D02*
G01*
X94156627Y-146432037D01*
X94326466Y-146483557D01*
X94482991Y-146567222D01*
X94518729Y-146596552D01*
X94620186Y-146679814D01*
X94703448Y-146781271D01*
X94732778Y-146817009D01*
X94816443Y-146973534D01*
X94867963Y-147143373D01*
X94885359Y-147320000D01*
X94867963Y-147496627D01*
X94816443Y-147666466D01*
X94732778Y-147822991D01*
X94703448Y-147858729D01*
X94620186Y-147960186D01*
X94518729Y-148043448D01*
X94482991Y-148072778D01*
X94326466Y-148156443D01*
X94156627Y-148207963D01*
X94090442Y-148214482D01*
X94024260Y-148221000D01*
X93935740Y-148221000D01*
X93869558Y-148214482D01*
X93803373Y-148207963D01*
X93633534Y-148156443D01*
X93477009Y-148072778D01*
X93441271Y-148043448D01*
X93339814Y-147960186D01*
X93256552Y-147858729D01*
X93227222Y-147822991D01*
X93143557Y-147666466D01*
X93092037Y-147496627D01*
X93074641Y-147320000D01*
X93092037Y-147143373D01*
X93143557Y-146973534D01*
X93227222Y-146817009D01*
X93256552Y-146781271D01*
X93339814Y-146679814D01*
X93441271Y-146596552D01*
X93477009Y-146567222D01*
X93633534Y-146483557D01*
X93803373Y-146432037D01*
X93869558Y-146425518D01*
X93935740Y-146419000D01*
X94024260Y-146419000D01*
X94090442Y-146425518D01*
X94090442Y-146425518D01*
G37*
G36*
X71230442Y-146425518D02*
G01*
X71296627Y-146432037D01*
X71466466Y-146483557D01*
X71622991Y-146567222D01*
X71658729Y-146596552D01*
X71760186Y-146679814D01*
X71843448Y-146781271D01*
X71872778Y-146817009D01*
X71956443Y-146973534D01*
X72007963Y-147143373D01*
X72025359Y-147320000D01*
X72007963Y-147496627D01*
X71956443Y-147666466D01*
X71872778Y-147822991D01*
X71843448Y-147858729D01*
X71760186Y-147960186D01*
X71658729Y-148043448D01*
X71622991Y-148072778D01*
X71466466Y-148156443D01*
X71296627Y-148207963D01*
X71230442Y-148214482D01*
X71164260Y-148221000D01*
X71075740Y-148221000D01*
X71009558Y-148214482D01*
X70943373Y-148207963D01*
X70773534Y-148156443D01*
X70617009Y-148072778D01*
X70581271Y-148043448D01*
X70479814Y-147960186D01*
X70396552Y-147858729D01*
X70367222Y-147822991D01*
X70283557Y-147666466D01*
X70232037Y-147496627D01*
X70214641Y-147320000D01*
X70232037Y-147143373D01*
X70283557Y-146973534D01*
X70367222Y-146817009D01*
X70396552Y-146781271D01*
X70479814Y-146679814D01*
X70581271Y-146596552D01*
X70617009Y-146567222D01*
X70773534Y-146483557D01*
X70943373Y-146432037D01*
X71009558Y-146425518D01*
X71075740Y-146419000D01*
X71164260Y-146419000D01*
X71230442Y-146425518D01*
X71230442Y-146425518D01*
G37*
G36*
X99170442Y-146425518D02*
G01*
X99236627Y-146432037D01*
X99406466Y-146483557D01*
X99562991Y-146567222D01*
X99598729Y-146596552D01*
X99700186Y-146679814D01*
X99783448Y-146781271D01*
X99812778Y-146817009D01*
X99896443Y-146973534D01*
X99947963Y-147143373D01*
X99965359Y-147320000D01*
X99947963Y-147496627D01*
X99896443Y-147666466D01*
X99812778Y-147822991D01*
X99783448Y-147858729D01*
X99700186Y-147960186D01*
X99598729Y-148043448D01*
X99562991Y-148072778D01*
X99406466Y-148156443D01*
X99236627Y-148207963D01*
X99170442Y-148214482D01*
X99104260Y-148221000D01*
X99015740Y-148221000D01*
X98949558Y-148214482D01*
X98883373Y-148207963D01*
X98713534Y-148156443D01*
X98557009Y-148072778D01*
X98521271Y-148043448D01*
X98419814Y-147960186D01*
X98336552Y-147858729D01*
X98307222Y-147822991D01*
X98223557Y-147666466D01*
X98172037Y-147496627D01*
X98154641Y-147320000D01*
X98172037Y-147143373D01*
X98223557Y-146973534D01*
X98307222Y-146817009D01*
X98336552Y-146781271D01*
X98419814Y-146679814D01*
X98521271Y-146596552D01*
X98557009Y-146567222D01*
X98713534Y-146483557D01*
X98883373Y-146432037D01*
X98949558Y-146425518D01*
X99015740Y-146419000D01*
X99104260Y-146419000D01*
X99170442Y-146425518D01*
X99170442Y-146425518D01*
G37*
G36*
X94090443Y-143885519D02*
G01*
X94156627Y-143892037D01*
X94326466Y-143943557D01*
X94482991Y-144027222D01*
X94518729Y-144056552D01*
X94620186Y-144139814D01*
X94703448Y-144241271D01*
X94732778Y-144277009D01*
X94816443Y-144433534D01*
X94867963Y-144603373D01*
X94885359Y-144780000D01*
X94867963Y-144956627D01*
X94816443Y-145126466D01*
X94732778Y-145282991D01*
X94703448Y-145318729D01*
X94620186Y-145420186D01*
X94518729Y-145503448D01*
X94482991Y-145532778D01*
X94326466Y-145616443D01*
X94156627Y-145667963D01*
X94090443Y-145674481D01*
X94024260Y-145681000D01*
X93935740Y-145681000D01*
X93869557Y-145674481D01*
X93803373Y-145667963D01*
X93633534Y-145616443D01*
X93477009Y-145532778D01*
X93441271Y-145503448D01*
X93339814Y-145420186D01*
X93256552Y-145318729D01*
X93227222Y-145282991D01*
X93143557Y-145126466D01*
X93092037Y-144956627D01*
X93074641Y-144780000D01*
X93092037Y-144603373D01*
X93143557Y-144433534D01*
X93227222Y-144277009D01*
X93256552Y-144241271D01*
X93339814Y-144139814D01*
X93441271Y-144056552D01*
X93477009Y-144027222D01*
X93633534Y-143943557D01*
X93803373Y-143892037D01*
X93869557Y-143885519D01*
X93935740Y-143879000D01*
X94024260Y-143879000D01*
X94090443Y-143885519D01*
X94090443Y-143885519D01*
G37*
G36*
X71230443Y-143885519D02*
G01*
X71296627Y-143892037D01*
X71466466Y-143943557D01*
X71622991Y-144027222D01*
X71658729Y-144056552D01*
X71760186Y-144139814D01*
X71843448Y-144241271D01*
X71872778Y-144277009D01*
X71956443Y-144433534D01*
X72007963Y-144603373D01*
X72025359Y-144780000D01*
X72007963Y-144956627D01*
X71956443Y-145126466D01*
X71872778Y-145282991D01*
X71843448Y-145318729D01*
X71760186Y-145420186D01*
X71658729Y-145503448D01*
X71622991Y-145532778D01*
X71466466Y-145616443D01*
X71296627Y-145667963D01*
X71230443Y-145674481D01*
X71164260Y-145681000D01*
X71075740Y-145681000D01*
X71009557Y-145674481D01*
X70943373Y-145667963D01*
X70773534Y-145616443D01*
X70617009Y-145532778D01*
X70581271Y-145503448D01*
X70479814Y-145420186D01*
X70396552Y-145318729D01*
X70367222Y-145282991D01*
X70283557Y-145126466D01*
X70232037Y-144956627D01*
X70214641Y-144780000D01*
X70232037Y-144603373D01*
X70283557Y-144433534D01*
X70367222Y-144277009D01*
X70396552Y-144241271D01*
X70479814Y-144139814D01*
X70581271Y-144056552D01*
X70617009Y-144027222D01*
X70773534Y-143943557D01*
X70943373Y-143892037D01*
X71009557Y-143885519D01*
X71075740Y-143879000D01*
X71164260Y-143879000D01*
X71230443Y-143885519D01*
X71230443Y-143885519D01*
G37*
G36*
X71230442Y-141345518D02*
G01*
X71296627Y-141352037D01*
X71466466Y-141403557D01*
X71622991Y-141487222D01*
X71658729Y-141516552D01*
X71760186Y-141599814D01*
X71843448Y-141701271D01*
X71872778Y-141737009D01*
X71956443Y-141893534D01*
X72007963Y-142063373D01*
X72025359Y-142240000D01*
X72007963Y-142416627D01*
X71956443Y-142586466D01*
X71872778Y-142742991D01*
X71843448Y-142778729D01*
X71760186Y-142880186D01*
X71658729Y-142963448D01*
X71622991Y-142992778D01*
X71466466Y-143076443D01*
X71296627Y-143127963D01*
X71230443Y-143134481D01*
X71164260Y-143141000D01*
X71075740Y-143141000D01*
X71009557Y-143134481D01*
X70943373Y-143127963D01*
X70773534Y-143076443D01*
X70617009Y-142992778D01*
X70581271Y-142963448D01*
X70479814Y-142880186D01*
X70396552Y-142778729D01*
X70367222Y-142742991D01*
X70283557Y-142586466D01*
X70232037Y-142416627D01*
X70214641Y-142240000D01*
X70232037Y-142063373D01*
X70283557Y-141893534D01*
X70367222Y-141737009D01*
X70396552Y-141701271D01*
X70479814Y-141599814D01*
X70581271Y-141516552D01*
X70617009Y-141487222D01*
X70773534Y-141403557D01*
X70943373Y-141352037D01*
X71009558Y-141345518D01*
X71075740Y-141339000D01*
X71164260Y-141339000D01*
X71230442Y-141345518D01*
X71230442Y-141345518D01*
G37*
G36*
X99961000Y-143141000D02*
G01*
X98159000Y-143141000D01*
X98159000Y-141339000D01*
X99961000Y-141339000D01*
X99961000Y-143141000D01*
X99961000Y-143141000D01*
G37*
G36*
X94090442Y-141345518D02*
G01*
X94156627Y-141352037D01*
X94326466Y-141403557D01*
X94482991Y-141487222D01*
X94518729Y-141516552D01*
X94620186Y-141599814D01*
X94703448Y-141701271D01*
X94732778Y-141737009D01*
X94816443Y-141893534D01*
X94867963Y-142063373D01*
X94885359Y-142240000D01*
X94867963Y-142416627D01*
X94816443Y-142586466D01*
X94732778Y-142742991D01*
X94703448Y-142778729D01*
X94620186Y-142880186D01*
X94518729Y-142963448D01*
X94482991Y-142992778D01*
X94326466Y-143076443D01*
X94156627Y-143127963D01*
X94090443Y-143134481D01*
X94024260Y-143141000D01*
X93935740Y-143141000D01*
X93869557Y-143134481D01*
X93803373Y-143127963D01*
X93633534Y-143076443D01*
X93477009Y-142992778D01*
X93441271Y-142963448D01*
X93339814Y-142880186D01*
X93256552Y-142778729D01*
X93227222Y-142742991D01*
X93143557Y-142586466D01*
X93092037Y-142416627D01*
X93074641Y-142240000D01*
X93092037Y-142063373D01*
X93143557Y-141893534D01*
X93227222Y-141737009D01*
X93256552Y-141701271D01*
X93339814Y-141599814D01*
X93441271Y-141516552D01*
X93477009Y-141487222D01*
X93633534Y-141403557D01*
X93803373Y-141352037D01*
X93869558Y-141345518D01*
X93935740Y-141339000D01*
X94024260Y-141339000D01*
X94090442Y-141345518D01*
X94090442Y-141345518D01*
G37*
G36*
X71230442Y-138805518D02*
G01*
X71296627Y-138812037D01*
X71466466Y-138863557D01*
X71622991Y-138947222D01*
X71658729Y-138976552D01*
X71760186Y-139059814D01*
X71843448Y-139161271D01*
X71872778Y-139197009D01*
X71956443Y-139353534D01*
X72007963Y-139523373D01*
X72025359Y-139700000D01*
X72007963Y-139876627D01*
X71956443Y-140046466D01*
X71872778Y-140202991D01*
X71843448Y-140238729D01*
X71760186Y-140340186D01*
X71658729Y-140423448D01*
X71622991Y-140452778D01*
X71466466Y-140536443D01*
X71296627Y-140587963D01*
X71230442Y-140594482D01*
X71164260Y-140601000D01*
X71075740Y-140601000D01*
X71009558Y-140594482D01*
X70943373Y-140587963D01*
X70773534Y-140536443D01*
X70617009Y-140452778D01*
X70581271Y-140423448D01*
X70479814Y-140340186D01*
X70396552Y-140238729D01*
X70367222Y-140202991D01*
X70283557Y-140046466D01*
X70232037Y-139876627D01*
X70214641Y-139700000D01*
X70232037Y-139523373D01*
X70283557Y-139353534D01*
X70367222Y-139197009D01*
X70396552Y-139161271D01*
X70479814Y-139059814D01*
X70581271Y-138976552D01*
X70617009Y-138947222D01*
X70773534Y-138863557D01*
X70943373Y-138812037D01*
X71009558Y-138805518D01*
X71075740Y-138799000D01*
X71164260Y-138799000D01*
X71230442Y-138805518D01*
X71230442Y-138805518D01*
G37*
G36*
X99170442Y-138805518D02*
G01*
X99236627Y-138812037D01*
X99406466Y-138863557D01*
X99562991Y-138947222D01*
X99598729Y-138976552D01*
X99700186Y-139059814D01*
X99783448Y-139161271D01*
X99812778Y-139197009D01*
X99896443Y-139353534D01*
X99947963Y-139523373D01*
X99965359Y-139700000D01*
X99947963Y-139876627D01*
X99896443Y-140046466D01*
X99812778Y-140202991D01*
X99783448Y-140238729D01*
X99700186Y-140340186D01*
X99598729Y-140423448D01*
X99562991Y-140452778D01*
X99406466Y-140536443D01*
X99236627Y-140587963D01*
X99170442Y-140594482D01*
X99104260Y-140601000D01*
X99015740Y-140601000D01*
X98949558Y-140594482D01*
X98883373Y-140587963D01*
X98713534Y-140536443D01*
X98557009Y-140452778D01*
X98521271Y-140423448D01*
X98419814Y-140340186D01*
X98336552Y-140238729D01*
X98307222Y-140202991D01*
X98223557Y-140046466D01*
X98172037Y-139876627D01*
X98154641Y-139700000D01*
X98172037Y-139523373D01*
X98223557Y-139353534D01*
X98307222Y-139197009D01*
X98336552Y-139161271D01*
X98419814Y-139059814D01*
X98521271Y-138976552D01*
X98557009Y-138947222D01*
X98713534Y-138863557D01*
X98883373Y-138812037D01*
X98949558Y-138805518D01*
X99015740Y-138799000D01*
X99104260Y-138799000D01*
X99170442Y-138805518D01*
X99170442Y-138805518D01*
G37*
G36*
X94090442Y-138805518D02*
G01*
X94156627Y-138812037D01*
X94326466Y-138863557D01*
X94482991Y-138947222D01*
X94518729Y-138976552D01*
X94620186Y-139059814D01*
X94703448Y-139161271D01*
X94732778Y-139197009D01*
X94816443Y-139353534D01*
X94867963Y-139523373D01*
X94885359Y-139700000D01*
X94867963Y-139876627D01*
X94816443Y-140046466D01*
X94732778Y-140202991D01*
X94703448Y-140238729D01*
X94620186Y-140340186D01*
X94518729Y-140423448D01*
X94482991Y-140452778D01*
X94326466Y-140536443D01*
X94156627Y-140587963D01*
X94090442Y-140594482D01*
X94024260Y-140601000D01*
X93935740Y-140601000D01*
X93869558Y-140594482D01*
X93803373Y-140587963D01*
X93633534Y-140536443D01*
X93477009Y-140452778D01*
X93441271Y-140423448D01*
X93339814Y-140340186D01*
X93256552Y-140238729D01*
X93227222Y-140202991D01*
X93143557Y-140046466D01*
X93092037Y-139876627D01*
X93074641Y-139700000D01*
X93092037Y-139523373D01*
X93143557Y-139353534D01*
X93227222Y-139197009D01*
X93256552Y-139161271D01*
X93339814Y-139059814D01*
X93441271Y-138976552D01*
X93477009Y-138947222D01*
X93633534Y-138863557D01*
X93803373Y-138812037D01*
X93869558Y-138805518D01*
X93935740Y-138799000D01*
X94024260Y-138799000D01*
X94090442Y-138805518D01*
X94090442Y-138805518D01*
G37*
G36*
X99170443Y-136265519D02*
G01*
X99236627Y-136272037D01*
X99406466Y-136323557D01*
X99562991Y-136407222D01*
X99598729Y-136436552D01*
X99700186Y-136519814D01*
X99783448Y-136621271D01*
X99812778Y-136657009D01*
X99896443Y-136813534D01*
X99947963Y-136983373D01*
X99965359Y-137160000D01*
X99947963Y-137336627D01*
X99896443Y-137506466D01*
X99812778Y-137662991D01*
X99783448Y-137698729D01*
X99700186Y-137800186D01*
X99598729Y-137883448D01*
X99562991Y-137912778D01*
X99406466Y-137996443D01*
X99236627Y-138047963D01*
X99170442Y-138054482D01*
X99104260Y-138061000D01*
X99015740Y-138061000D01*
X98949558Y-138054482D01*
X98883373Y-138047963D01*
X98713534Y-137996443D01*
X98557009Y-137912778D01*
X98521271Y-137883448D01*
X98419814Y-137800186D01*
X98336552Y-137698729D01*
X98307222Y-137662991D01*
X98223557Y-137506466D01*
X98172037Y-137336627D01*
X98154641Y-137160000D01*
X98172037Y-136983373D01*
X98223557Y-136813534D01*
X98307222Y-136657009D01*
X98336552Y-136621271D01*
X98419814Y-136519814D01*
X98521271Y-136436552D01*
X98557009Y-136407222D01*
X98713534Y-136323557D01*
X98883373Y-136272037D01*
X98949557Y-136265519D01*
X99015740Y-136259000D01*
X99104260Y-136259000D01*
X99170443Y-136265519D01*
X99170443Y-136265519D01*
G37*
G36*
X71230443Y-136265519D02*
G01*
X71296627Y-136272037D01*
X71466466Y-136323557D01*
X71622991Y-136407222D01*
X71658729Y-136436552D01*
X71760186Y-136519814D01*
X71843448Y-136621271D01*
X71872778Y-136657009D01*
X71956443Y-136813534D01*
X72007963Y-136983373D01*
X72025359Y-137160000D01*
X72007963Y-137336627D01*
X71956443Y-137506466D01*
X71872778Y-137662991D01*
X71843448Y-137698729D01*
X71760186Y-137800186D01*
X71658729Y-137883448D01*
X71622991Y-137912778D01*
X71466466Y-137996443D01*
X71296627Y-138047963D01*
X71230442Y-138054482D01*
X71164260Y-138061000D01*
X71075740Y-138061000D01*
X71009558Y-138054482D01*
X70943373Y-138047963D01*
X70773534Y-137996443D01*
X70617009Y-137912778D01*
X70581271Y-137883448D01*
X70479814Y-137800186D01*
X70396552Y-137698729D01*
X70367222Y-137662991D01*
X70283557Y-137506466D01*
X70232037Y-137336627D01*
X70214641Y-137160000D01*
X70232037Y-136983373D01*
X70283557Y-136813534D01*
X70367222Y-136657009D01*
X70396552Y-136621271D01*
X70479814Y-136519814D01*
X70581271Y-136436552D01*
X70617009Y-136407222D01*
X70773534Y-136323557D01*
X70943373Y-136272037D01*
X71009557Y-136265519D01*
X71075740Y-136259000D01*
X71164260Y-136259000D01*
X71230443Y-136265519D01*
X71230443Y-136265519D01*
G37*
G36*
X94090443Y-136265519D02*
G01*
X94156627Y-136272037D01*
X94326466Y-136323557D01*
X94482991Y-136407222D01*
X94518729Y-136436552D01*
X94620186Y-136519814D01*
X94703448Y-136621271D01*
X94732778Y-136657009D01*
X94816443Y-136813534D01*
X94867963Y-136983373D01*
X94885359Y-137160000D01*
X94867963Y-137336627D01*
X94816443Y-137506466D01*
X94732778Y-137662991D01*
X94703448Y-137698729D01*
X94620186Y-137800186D01*
X94518729Y-137883448D01*
X94482991Y-137912778D01*
X94326466Y-137996443D01*
X94156627Y-138047963D01*
X94090442Y-138054482D01*
X94024260Y-138061000D01*
X93935740Y-138061000D01*
X93869558Y-138054482D01*
X93803373Y-138047963D01*
X93633534Y-137996443D01*
X93477009Y-137912778D01*
X93441271Y-137883448D01*
X93339814Y-137800186D01*
X93256552Y-137698729D01*
X93227222Y-137662991D01*
X93143557Y-137506466D01*
X93092037Y-137336627D01*
X93074641Y-137160000D01*
X93092037Y-136983373D01*
X93143557Y-136813534D01*
X93227222Y-136657009D01*
X93256552Y-136621271D01*
X93339814Y-136519814D01*
X93441271Y-136436552D01*
X93477009Y-136407222D01*
X93633534Y-136323557D01*
X93803373Y-136272037D01*
X93869557Y-136265519D01*
X93935740Y-136259000D01*
X94024260Y-136259000D01*
X94090443Y-136265519D01*
X94090443Y-136265519D01*
G37*
G36*
X94090443Y-133725519D02*
G01*
X94156627Y-133732037D01*
X94326466Y-133783557D01*
X94482991Y-133867222D01*
X94518729Y-133896552D01*
X94620186Y-133979814D01*
X94703448Y-134081271D01*
X94732778Y-134117009D01*
X94816443Y-134273534D01*
X94867963Y-134443373D01*
X94885359Y-134620000D01*
X94867963Y-134796627D01*
X94816443Y-134966466D01*
X94732778Y-135122991D01*
X94703448Y-135158729D01*
X94620186Y-135260186D01*
X94518729Y-135343448D01*
X94482991Y-135372778D01*
X94326466Y-135456443D01*
X94156627Y-135507963D01*
X94090443Y-135514481D01*
X94024260Y-135521000D01*
X93935740Y-135521000D01*
X93869557Y-135514481D01*
X93803373Y-135507963D01*
X93633534Y-135456443D01*
X93477009Y-135372778D01*
X93441271Y-135343448D01*
X93339814Y-135260186D01*
X93256552Y-135158729D01*
X93227222Y-135122991D01*
X93143557Y-134966466D01*
X93092037Y-134796627D01*
X93074641Y-134620000D01*
X93092037Y-134443373D01*
X93143557Y-134273534D01*
X93227222Y-134117009D01*
X93256552Y-134081271D01*
X93339814Y-133979814D01*
X93441271Y-133896552D01*
X93477009Y-133867222D01*
X93633534Y-133783557D01*
X93803373Y-133732037D01*
X93869557Y-133725519D01*
X93935740Y-133719000D01*
X94024260Y-133719000D01*
X94090443Y-133725519D01*
X94090443Y-133725519D01*
G37*
G36*
X99170443Y-133725519D02*
G01*
X99236627Y-133732037D01*
X99406466Y-133783557D01*
X99562991Y-133867222D01*
X99598729Y-133896552D01*
X99700186Y-133979814D01*
X99783448Y-134081271D01*
X99812778Y-134117009D01*
X99896443Y-134273534D01*
X99947963Y-134443373D01*
X99965359Y-134620000D01*
X99947963Y-134796627D01*
X99896443Y-134966466D01*
X99812778Y-135122991D01*
X99783448Y-135158729D01*
X99700186Y-135260186D01*
X99598729Y-135343448D01*
X99562991Y-135372778D01*
X99406466Y-135456443D01*
X99236627Y-135507963D01*
X99170443Y-135514481D01*
X99104260Y-135521000D01*
X99015740Y-135521000D01*
X98949557Y-135514481D01*
X98883373Y-135507963D01*
X98713534Y-135456443D01*
X98557009Y-135372778D01*
X98521271Y-135343448D01*
X98419814Y-135260186D01*
X98336552Y-135158729D01*
X98307222Y-135122991D01*
X98223557Y-134966466D01*
X98172037Y-134796627D01*
X98154641Y-134620000D01*
X98172037Y-134443373D01*
X98223557Y-134273534D01*
X98307222Y-134117009D01*
X98336552Y-134081271D01*
X98419814Y-133979814D01*
X98521271Y-133896552D01*
X98557009Y-133867222D01*
X98713534Y-133783557D01*
X98883373Y-133732037D01*
X98949557Y-133725519D01*
X99015740Y-133719000D01*
X99104260Y-133719000D01*
X99170443Y-133725519D01*
X99170443Y-133725519D01*
G37*
G36*
X71230443Y-133725519D02*
G01*
X71296627Y-133732037D01*
X71466466Y-133783557D01*
X71622991Y-133867222D01*
X71658729Y-133896552D01*
X71760186Y-133979814D01*
X71843448Y-134081271D01*
X71872778Y-134117009D01*
X71956443Y-134273534D01*
X72007963Y-134443373D01*
X72025359Y-134620000D01*
X72007963Y-134796627D01*
X71956443Y-134966466D01*
X71872778Y-135122991D01*
X71843448Y-135158729D01*
X71760186Y-135260186D01*
X71658729Y-135343448D01*
X71622991Y-135372778D01*
X71466466Y-135456443D01*
X71296627Y-135507963D01*
X71230443Y-135514481D01*
X71164260Y-135521000D01*
X71075740Y-135521000D01*
X71009557Y-135514481D01*
X70943373Y-135507963D01*
X70773534Y-135456443D01*
X70617009Y-135372778D01*
X70581271Y-135343448D01*
X70479814Y-135260186D01*
X70396552Y-135158729D01*
X70367222Y-135122991D01*
X70283557Y-134966466D01*
X70232037Y-134796627D01*
X70214641Y-134620000D01*
X70232037Y-134443373D01*
X70283557Y-134273534D01*
X70367222Y-134117009D01*
X70396552Y-134081271D01*
X70479814Y-133979814D01*
X70581271Y-133896552D01*
X70617009Y-133867222D01*
X70773534Y-133783557D01*
X70943373Y-133732037D01*
X71009557Y-133725519D01*
X71075740Y-133719000D01*
X71164260Y-133719000D01*
X71230443Y-133725519D01*
X71230443Y-133725519D01*
G37*
G36*
X71230442Y-131185518D02*
G01*
X71296627Y-131192037D01*
X71466466Y-131243557D01*
X71622991Y-131327222D01*
X71658729Y-131356552D01*
X71760186Y-131439814D01*
X71843448Y-131541271D01*
X71872778Y-131577009D01*
X71956443Y-131733534D01*
X72007963Y-131903373D01*
X72025359Y-132080000D01*
X72007963Y-132256627D01*
X71956443Y-132426466D01*
X71872778Y-132582991D01*
X71843448Y-132618729D01*
X71760186Y-132720186D01*
X71658729Y-132803448D01*
X71622991Y-132832778D01*
X71466466Y-132916443D01*
X71296627Y-132967963D01*
X71230443Y-132974481D01*
X71164260Y-132981000D01*
X71075740Y-132981000D01*
X71009557Y-132974481D01*
X70943373Y-132967963D01*
X70773534Y-132916443D01*
X70617009Y-132832778D01*
X70581271Y-132803448D01*
X70479814Y-132720186D01*
X70396552Y-132618729D01*
X70367222Y-132582991D01*
X70283557Y-132426466D01*
X70232037Y-132256627D01*
X70214641Y-132080000D01*
X70232037Y-131903373D01*
X70283557Y-131733534D01*
X70367222Y-131577009D01*
X70396552Y-131541271D01*
X70479814Y-131439814D01*
X70581271Y-131356552D01*
X70617009Y-131327222D01*
X70773534Y-131243557D01*
X70943373Y-131192037D01*
X71009558Y-131185518D01*
X71075740Y-131179000D01*
X71164260Y-131179000D01*
X71230442Y-131185518D01*
X71230442Y-131185518D01*
G37*
G36*
X94090442Y-131185518D02*
G01*
X94156627Y-131192037D01*
X94326466Y-131243557D01*
X94482991Y-131327222D01*
X94518729Y-131356552D01*
X94620186Y-131439814D01*
X94703448Y-131541271D01*
X94732778Y-131577009D01*
X94816443Y-131733534D01*
X94867963Y-131903373D01*
X94885359Y-132080000D01*
X94867963Y-132256627D01*
X94816443Y-132426466D01*
X94732778Y-132582991D01*
X94703448Y-132618729D01*
X94620186Y-132720186D01*
X94518729Y-132803448D01*
X94482991Y-132832778D01*
X94326466Y-132916443D01*
X94156627Y-132967963D01*
X94090443Y-132974481D01*
X94024260Y-132981000D01*
X93935740Y-132981000D01*
X93869557Y-132974481D01*
X93803373Y-132967963D01*
X93633534Y-132916443D01*
X93477009Y-132832778D01*
X93441271Y-132803448D01*
X93339814Y-132720186D01*
X93256552Y-132618729D01*
X93227222Y-132582991D01*
X93143557Y-132426466D01*
X93092037Y-132256627D01*
X93074641Y-132080000D01*
X93092037Y-131903373D01*
X93143557Y-131733534D01*
X93227222Y-131577009D01*
X93256552Y-131541271D01*
X93339814Y-131439814D01*
X93441271Y-131356552D01*
X93477009Y-131327222D01*
X93633534Y-131243557D01*
X93803373Y-131192037D01*
X93869558Y-131185518D01*
X93935740Y-131179000D01*
X94024260Y-131179000D01*
X94090442Y-131185518D01*
X94090442Y-131185518D01*
G37*
G36*
X99170442Y-131185518D02*
G01*
X99236627Y-131192037D01*
X99406466Y-131243557D01*
X99562991Y-131327222D01*
X99598729Y-131356552D01*
X99700186Y-131439814D01*
X99783448Y-131541271D01*
X99812778Y-131577009D01*
X99896443Y-131733534D01*
X99947963Y-131903373D01*
X99965359Y-132080000D01*
X99947963Y-132256627D01*
X99896443Y-132426466D01*
X99812778Y-132582991D01*
X99783448Y-132618729D01*
X99700186Y-132720186D01*
X99598729Y-132803448D01*
X99562991Y-132832778D01*
X99406466Y-132916443D01*
X99236627Y-132967963D01*
X99170443Y-132974481D01*
X99104260Y-132981000D01*
X99015740Y-132981000D01*
X98949557Y-132974481D01*
X98883373Y-132967963D01*
X98713534Y-132916443D01*
X98557009Y-132832778D01*
X98521271Y-132803448D01*
X98419814Y-132720186D01*
X98336552Y-132618729D01*
X98307222Y-132582991D01*
X98223557Y-132426466D01*
X98172037Y-132256627D01*
X98154641Y-132080000D01*
X98172037Y-131903373D01*
X98223557Y-131733534D01*
X98307222Y-131577009D01*
X98336552Y-131541271D01*
X98419814Y-131439814D01*
X98521271Y-131356552D01*
X98557009Y-131327222D01*
X98713534Y-131243557D01*
X98883373Y-131192037D01*
X98949558Y-131185518D01*
X99015740Y-131179000D01*
X99104260Y-131179000D01*
X99170442Y-131185518D01*
X99170442Y-131185518D01*
G37*
G36*
X94881000Y-130441000D02*
G01*
X93079000Y-130441000D01*
X93079000Y-128639000D01*
X94881000Y-128639000D01*
X94881000Y-130441000D01*
X94881000Y-130441000D01*
G37*
G36*
X99170443Y-128645519D02*
G01*
X99236627Y-128652037D01*
X99406466Y-128703557D01*
X99562991Y-128787222D01*
X99598729Y-128816552D01*
X99700186Y-128899814D01*
X99783448Y-129001271D01*
X99812778Y-129037009D01*
X99896443Y-129193534D01*
X99947963Y-129363373D01*
X99965359Y-129540000D01*
X99947963Y-129716627D01*
X99896443Y-129886466D01*
X99812778Y-130042991D01*
X99783448Y-130078729D01*
X99700186Y-130180186D01*
X99598729Y-130263448D01*
X99562991Y-130292778D01*
X99406466Y-130376443D01*
X99236627Y-130427963D01*
X99170443Y-130434481D01*
X99104260Y-130441000D01*
X99015740Y-130441000D01*
X98949557Y-130434481D01*
X98883373Y-130427963D01*
X98713534Y-130376443D01*
X98557009Y-130292778D01*
X98521271Y-130263448D01*
X98419814Y-130180186D01*
X98336552Y-130078729D01*
X98307222Y-130042991D01*
X98223557Y-129886466D01*
X98172037Y-129716627D01*
X98154641Y-129540000D01*
X98172037Y-129363373D01*
X98223557Y-129193534D01*
X98307222Y-129037009D01*
X98336552Y-129001271D01*
X98419814Y-128899814D01*
X98521271Y-128816552D01*
X98557009Y-128787222D01*
X98713534Y-128703557D01*
X98883373Y-128652037D01*
X98949557Y-128645519D01*
X99015740Y-128639000D01*
X99104260Y-128639000D01*
X99170443Y-128645519D01*
X99170443Y-128645519D01*
G37*
G36*
X71230443Y-128645519D02*
G01*
X71296627Y-128652037D01*
X71466466Y-128703557D01*
X71622991Y-128787222D01*
X71658729Y-128816552D01*
X71760186Y-128899814D01*
X71843448Y-129001271D01*
X71872778Y-129037009D01*
X71956443Y-129193534D01*
X72007963Y-129363373D01*
X72025359Y-129540000D01*
X72007963Y-129716627D01*
X71956443Y-129886466D01*
X71872778Y-130042991D01*
X71843448Y-130078729D01*
X71760186Y-130180186D01*
X71658729Y-130263448D01*
X71622991Y-130292778D01*
X71466466Y-130376443D01*
X71296627Y-130427963D01*
X71230443Y-130434481D01*
X71164260Y-130441000D01*
X71075740Y-130441000D01*
X71009557Y-130434481D01*
X70943373Y-130427963D01*
X70773534Y-130376443D01*
X70617009Y-130292778D01*
X70581271Y-130263448D01*
X70479814Y-130180186D01*
X70396552Y-130078729D01*
X70367222Y-130042991D01*
X70283557Y-129886466D01*
X70232037Y-129716627D01*
X70214641Y-129540000D01*
X70232037Y-129363373D01*
X70283557Y-129193534D01*
X70367222Y-129037009D01*
X70396552Y-129001271D01*
X70479814Y-128899814D01*
X70581271Y-128816552D01*
X70617009Y-128787222D01*
X70773534Y-128703557D01*
X70943373Y-128652037D01*
X71009557Y-128645519D01*
X71075740Y-128639000D01*
X71164260Y-128639000D01*
X71230443Y-128645519D01*
X71230443Y-128645519D01*
G37*
G36*
X71368228Y-121101703D02*
G01*
X71523100Y-121165853D01*
X71662481Y-121258985D01*
X71781015Y-121377519D01*
X71874147Y-121516900D01*
X71938297Y-121671772D01*
X71971000Y-121836184D01*
X71971000Y-122003816D01*
X71938297Y-122168228D01*
X71874147Y-122323100D01*
X71781015Y-122462481D01*
X71662481Y-122581015D01*
X71523100Y-122674147D01*
X71368228Y-122738297D01*
X71203816Y-122771000D01*
X71036184Y-122771000D01*
X70871772Y-122738297D01*
X70716900Y-122674147D01*
X70577519Y-122581015D01*
X70458985Y-122462481D01*
X70365853Y-122323100D01*
X70301703Y-122168228D01*
X70269000Y-122003816D01*
X70269000Y-121836184D01*
X70301703Y-121671772D01*
X70365853Y-121516900D01*
X70458985Y-121377519D01*
X70577519Y-121258985D01*
X70716900Y-121165853D01*
X70871772Y-121101703D01*
X71036184Y-121069000D01*
X71203816Y-121069000D01*
X71368228Y-121101703D01*
X71368228Y-121101703D01*
G37*
G36*
X71368228Y-113601703D02*
G01*
X71523100Y-113665853D01*
X71662481Y-113758985D01*
X71781015Y-113877519D01*
X71874147Y-114016900D01*
X71938297Y-114171772D01*
X71971000Y-114336184D01*
X71971000Y-114503816D01*
X71938297Y-114668228D01*
X71874147Y-114823100D01*
X71781015Y-114962481D01*
X71662481Y-115081015D01*
X71523100Y-115174147D01*
X71368228Y-115238297D01*
X71203816Y-115271000D01*
X71036184Y-115271000D01*
X70871772Y-115238297D01*
X70716900Y-115174147D01*
X70577519Y-115081015D01*
X70458985Y-114962481D01*
X70365853Y-114823100D01*
X70301703Y-114668228D01*
X70269000Y-114503816D01*
X70269000Y-114336184D01*
X70301703Y-114171772D01*
X70365853Y-114016900D01*
X70458985Y-113877519D01*
X70577519Y-113758985D01*
X70716900Y-113665853D01*
X70871772Y-113601703D01*
X71036184Y-113569000D01*
X71203816Y-113569000D01*
X71368228Y-113601703D01*
X71368228Y-113601703D01*
G37*
G36*
X83930442Y-110865518D02*
G01*
X83996627Y-110872037D01*
X84166466Y-110923557D01*
X84322991Y-111007222D01*
X84358729Y-111036552D01*
X84460186Y-111119814D01*
X84543448Y-111221271D01*
X84572778Y-111257009D01*
X84656443Y-111413534D01*
X84707963Y-111583373D01*
X84725359Y-111760000D01*
X84707963Y-111936627D01*
X84656443Y-112106466D01*
X84572778Y-112262991D01*
X84543448Y-112298729D01*
X84460186Y-112400186D01*
X84358729Y-112483448D01*
X84322991Y-112512778D01*
X84166466Y-112596443D01*
X83996627Y-112647963D01*
X83930442Y-112654482D01*
X83864260Y-112661000D01*
X83775740Y-112661000D01*
X83709558Y-112654482D01*
X83643373Y-112647963D01*
X83473534Y-112596443D01*
X83317009Y-112512778D01*
X83281271Y-112483448D01*
X83179814Y-112400186D01*
X83096552Y-112298729D01*
X83067222Y-112262991D01*
X82983557Y-112106466D01*
X82932037Y-111936627D01*
X82914641Y-111760000D01*
X82932037Y-111583373D01*
X82983557Y-111413534D01*
X83067222Y-111257009D01*
X83096552Y-111221271D01*
X83179814Y-111119814D01*
X83281271Y-111036552D01*
X83317009Y-111007222D01*
X83473534Y-110923557D01*
X83643373Y-110872037D01*
X83709558Y-110865518D01*
X83775740Y-110859000D01*
X83864260Y-110859000D01*
X83930442Y-110865518D01*
X83930442Y-110865518D01*
G37*
G36*
X94090442Y-110865518D02*
G01*
X94156627Y-110872037D01*
X94326466Y-110923557D01*
X94482991Y-111007222D01*
X94518729Y-111036552D01*
X94620186Y-111119814D01*
X94703448Y-111221271D01*
X94732778Y-111257009D01*
X94816443Y-111413534D01*
X94867963Y-111583373D01*
X94885359Y-111760000D01*
X94867963Y-111936627D01*
X94816443Y-112106466D01*
X94732778Y-112262991D01*
X94703448Y-112298729D01*
X94620186Y-112400186D01*
X94518729Y-112483448D01*
X94482991Y-112512778D01*
X94326466Y-112596443D01*
X94156627Y-112647963D01*
X94090442Y-112654482D01*
X94024260Y-112661000D01*
X93935740Y-112661000D01*
X93869558Y-112654482D01*
X93803373Y-112647963D01*
X93633534Y-112596443D01*
X93477009Y-112512778D01*
X93441271Y-112483448D01*
X93339814Y-112400186D01*
X93256552Y-112298729D01*
X93227222Y-112262991D01*
X93143557Y-112106466D01*
X93092037Y-111936627D01*
X93074641Y-111760000D01*
X93092037Y-111583373D01*
X93143557Y-111413534D01*
X93227222Y-111257009D01*
X93256552Y-111221271D01*
X93339814Y-111119814D01*
X93441271Y-111036552D01*
X93477009Y-111007222D01*
X93633534Y-110923557D01*
X93803373Y-110872037D01*
X93869558Y-110865518D01*
X93935740Y-110859000D01*
X94024260Y-110859000D01*
X94090442Y-110865518D01*
X94090442Y-110865518D01*
G37*
G36*
X82181000Y-112661000D02*
G01*
X80379000Y-112661000D01*
X80379000Y-110859000D01*
X82181000Y-110859000D01*
X82181000Y-112661000D01*
X82181000Y-112661000D01*
G37*
G36*
X96630442Y-110865518D02*
G01*
X96696627Y-110872037D01*
X96866466Y-110923557D01*
X97022991Y-111007222D01*
X97058729Y-111036552D01*
X97160186Y-111119814D01*
X97243448Y-111221271D01*
X97272778Y-111257009D01*
X97356443Y-111413534D01*
X97407963Y-111583373D01*
X97425359Y-111760000D01*
X97407963Y-111936627D01*
X97356443Y-112106466D01*
X97272778Y-112262991D01*
X97243448Y-112298729D01*
X97160186Y-112400186D01*
X97058729Y-112483448D01*
X97022991Y-112512778D01*
X96866466Y-112596443D01*
X96696627Y-112647963D01*
X96630442Y-112654482D01*
X96564260Y-112661000D01*
X96475740Y-112661000D01*
X96409558Y-112654482D01*
X96343373Y-112647963D01*
X96173534Y-112596443D01*
X96017009Y-112512778D01*
X95981271Y-112483448D01*
X95879814Y-112400186D01*
X95796552Y-112298729D01*
X95767222Y-112262991D01*
X95683557Y-112106466D01*
X95632037Y-111936627D01*
X95614641Y-111760000D01*
X95632037Y-111583373D01*
X95683557Y-111413534D01*
X95767222Y-111257009D01*
X95796552Y-111221271D01*
X95879814Y-111119814D01*
X95981271Y-111036552D01*
X96017009Y-111007222D01*
X96173534Y-110923557D01*
X96343373Y-110872037D01*
X96409558Y-110865518D01*
X96475740Y-110859000D01*
X96564260Y-110859000D01*
X96630442Y-110865518D01*
X96630442Y-110865518D01*
G37*
G36*
X86470442Y-110865518D02*
G01*
X86536627Y-110872037D01*
X86706466Y-110923557D01*
X86862991Y-111007222D01*
X86898729Y-111036552D01*
X87000186Y-111119814D01*
X87083448Y-111221271D01*
X87112778Y-111257009D01*
X87196443Y-111413534D01*
X87247963Y-111583373D01*
X87265359Y-111760000D01*
X87247963Y-111936627D01*
X87196443Y-112106466D01*
X87112778Y-112262991D01*
X87083448Y-112298729D01*
X87000186Y-112400186D01*
X86898729Y-112483448D01*
X86862991Y-112512778D01*
X86706466Y-112596443D01*
X86536627Y-112647963D01*
X86470442Y-112654482D01*
X86404260Y-112661000D01*
X86315740Y-112661000D01*
X86249558Y-112654482D01*
X86183373Y-112647963D01*
X86013534Y-112596443D01*
X85857009Y-112512778D01*
X85821271Y-112483448D01*
X85719814Y-112400186D01*
X85636552Y-112298729D01*
X85607222Y-112262991D01*
X85523557Y-112106466D01*
X85472037Y-111936627D01*
X85454641Y-111760000D01*
X85472037Y-111583373D01*
X85523557Y-111413534D01*
X85607222Y-111257009D01*
X85636552Y-111221271D01*
X85719814Y-111119814D01*
X85821271Y-111036552D01*
X85857009Y-111007222D01*
X86013534Y-110923557D01*
X86183373Y-110872037D01*
X86249558Y-110865518D01*
X86315740Y-110859000D01*
X86404260Y-110859000D01*
X86470442Y-110865518D01*
X86470442Y-110865518D01*
G37*
G36*
X89010442Y-110865518D02*
G01*
X89076627Y-110872037D01*
X89246466Y-110923557D01*
X89402991Y-111007222D01*
X89438729Y-111036552D01*
X89540186Y-111119814D01*
X89623448Y-111221271D01*
X89652778Y-111257009D01*
X89736443Y-111413534D01*
X89787963Y-111583373D01*
X89805359Y-111760000D01*
X89787963Y-111936627D01*
X89736443Y-112106466D01*
X89652778Y-112262991D01*
X89623448Y-112298729D01*
X89540186Y-112400186D01*
X89438729Y-112483448D01*
X89402991Y-112512778D01*
X89246466Y-112596443D01*
X89076627Y-112647963D01*
X89010442Y-112654482D01*
X88944260Y-112661000D01*
X88855740Y-112661000D01*
X88789558Y-112654482D01*
X88723373Y-112647963D01*
X88553534Y-112596443D01*
X88397009Y-112512778D01*
X88361271Y-112483448D01*
X88259814Y-112400186D01*
X88176552Y-112298729D01*
X88147222Y-112262991D01*
X88063557Y-112106466D01*
X88012037Y-111936627D01*
X87994641Y-111760000D01*
X88012037Y-111583373D01*
X88063557Y-111413534D01*
X88147222Y-111257009D01*
X88176552Y-111221271D01*
X88259814Y-111119814D01*
X88361271Y-111036552D01*
X88397009Y-111007222D01*
X88553534Y-110923557D01*
X88723373Y-110872037D01*
X88789558Y-110865518D01*
X88855740Y-110859000D01*
X88944260Y-110859000D01*
X89010442Y-110865518D01*
X89010442Y-110865518D01*
G37*
G36*
X91550442Y-110865518D02*
G01*
X91616627Y-110872037D01*
X91786466Y-110923557D01*
X91942991Y-111007222D01*
X91978729Y-111036552D01*
X92080186Y-111119814D01*
X92163448Y-111221271D01*
X92192778Y-111257009D01*
X92276443Y-111413534D01*
X92327963Y-111583373D01*
X92345359Y-111760000D01*
X92327963Y-111936627D01*
X92276443Y-112106466D01*
X92192778Y-112262991D01*
X92163448Y-112298729D01*
X92080186Y-112400186D01*
X91978729Y-112483448D01*
X91942991Y-112512778D01*
X91786466Y-112596443D01*
X91616627Y-112647963D01*
X91550442Y-112654482D01*
X91484260Y-112661000D01*
X91395740Y-112661000D01*
X91329558Y-112654482D01*
X91263373Y-112647963D01*
X91093534Y-112596443D01*
X90937009Y-112512778D01*
X90901271Y-112483448D01*
X90799814Y-112400186D01*
X90716552Y-112298729D01*
X90687222Y-112262991D01*
X90603557Y-112106466D01*
X90552037Y-111936627D01*
X90534641Y-111760000D01*
X90552037Y-111583373D01*
X90603557Y-111413534D01*
X90687222Y-111257009D01*
X90716552Y-111221271D01*
X90799814Y-111119814D01*
X90901271Y-111036552D01*
X90937009Y-111007222D01*
X91093534Y-110923557D01*
X91263373Y-110872037D01*
X91329558Y-110865518D01*
X91395740Y-110859000D01*
X91484260Y-110859000D01*
X91550442Y-110865518D01*
X91550442Y-110865518D01*
G37*
G36*
X76310443Y-108325519D02*
G01*
X76376627Y-108332037D01*
X76546466Y-108383557D01*
X76702991Y-108467222D01*
X76738729Y-108496552D01*
X76840186Y-108579814D01*
X76923448Y-108681271D01*
X76952778Y-108717009D01*
X77036443Y-108873534D01*
X77087963Y-109043373D01*
X77105359Y-109220000D01*
X77087963Y-109396627D01*
X77036443Y-109566466D01*
X76952778Y-109722991D01*
X76923448Y-109758729D01*
X76840186Y-109860186D01*
X76738729Y-109943448D01*
X76702991Y-109972778D01*
X76546466Y-110056443D01*
X76376627Y-110107963D01*
X76310443Y-110114481D01*
X76244260Y-110121000D01*
X76155740Y-110121000D01*
X76089557Y-110114481D01*
X76023373Y-110107963D01*
X75853534Y-110056443D01*
X75697009Y-109972778D01*
X75661271Y-109943448D01*
X75559814Y-109860186D01*
X75476552Y-109758729D01*
X75447222Y-109722991D01*
X75363557Y-109566466D01*
X75312037Y-109396627D01*
X75294641Y-109220000D01*
X75312037Y-109043373D01*
X75363557Y-108873534D01*
X75447222Y-108717009D01*
X75476552Y-108681271D01*
X75559814Y-108579814D01*
X75661271Y-108496552D01*
X75697009Y-108467222D01*
X75853534Y-108383557D01*
X76023373Y-108332037D01*
X76089557Y-108325519D01*
X76155740Y-108319000D01*
X76244260Y-108319000D01*
X76310443Y-108325519D01*
X76310443Y-108325519D01*
G37*
G36*
X78850443Y-108325519D02*
G01*
X78916627Y-108332037D01*
X79086466Y-108383557D01*
X79242991Y-108467222D01*
X79278729Y-108496552D01*
X79380186Y-108579814D01*
X79463448Y-108681271D01*
X79492778Y-108717009D01*
X79576443Y-108873534D01*
X79627963Y-109043373D01*
X79645359Y-109220000D01*
X79627963Y-109396627D01*
X79576443Y-109566466D01*
X79492778Y-109722991D01*
X79463448Y-109758729D01*
X79380186Y-109860186D01*
X79278729Y-109943448D01*
X79242991Y-109972778D01*
X79086466Y-110056443D01*
X78916627Y-110107963D01*
X78850443Y-110114481D01*
X78784260Y-110121000D01*
X78695740Y-110121000D01*
X78629557Y-110114481D01*
X78563373Y-110107963D01*
X78393534Y-110056443D01*
X78237009Y-109972778D01*
X78201271Y-109943448D01*
X78099814Y-109860186D01*
X78016552Y-109758729D01*
X77987222Y-109722991D01*
X77903557Y-109566466D01*
X77852037Y-109396627D01*
X77834641Y-109220000D01*
X77852037Y-109043373D01*
X77903557Y-108873534D01*
X77987222Y-108717009D01*
X78016552Y-108681271D01*
X78099814Y-108579814D01*
X78201271Y-108496552D01*
X78237009Y-108467222D01*
X78393534Y-108383557D01*
X78563373Y-108332037D01*
X78629557Y-108325519D01*
X78695740Y-108319000D01*
X78784260Y-108319000D01*
X78850443Y-108325519D01*
X78850443Y-108325519D01*
G37*
G36*
X73770443Y-108325519D02*
G01*
X73836627Y-108332037D01*
X74006466Y-108383557D01*
X74162991Y-108467222D01*
X74198729Y-108496552D01*
X74300186Y-108579814D01*
X74383448Y-108681271D01*
X74412778Y-108717009D01*
X74496443Y-108873534D01*
X74547963Y-109043373D01*
X74565359Y-109220000D01*
X74547963Y-109396627D01*
X74496443Y-109566466D01*
X74412778Y-109722991D01*
X74383448Y-109758729D01*
X74300186Y-109860186D01*
X74198729Y-109943448D01*
X74162991Y-109972778D01*
X74006466Y-110056443D01*
X73836627Y-110107963D01*
X73770443Y-110114481D01*
X73704260Y-110121000D01*
X73615740Y-110121000D01*
X73549557Y-110114481D01*
X73483373Y-110107963D01*
X73313534Y-110056443D01*
X73157009Y-109972778D01*
X73121271Y-109943448D01*
X73019814Y-109860186D01*
X72936552Y-109758729D01*
X72907222Y-109722991D01*
X72823557Y-109566466D01*
X72772037Y-109396627D01*
X72754641Y-109220000D01*
X72772037Y-109043373D01*
X72823557Y-108873534D01*
X72907222Y-108717009D01*
X72936552Y-108681271D01*
X73019814Y-108579814D01*
X73121271Y-108496552D01*
X73157009Y-108467222D01*
X73313534Y-108383557D01*
X73483373Y-108332037D01*
X73549557Y-108325519D01*
X73615740Y-108319000D01*
X73704260Y-108319000D01*
X73770443Y-108325519D01*
X73770443Y-108325519D01*
G37*
G36*
X72021000Y-110121000D02*
G01*
X70219000Y-110121000D01*
X70219000Y-108319000D01*
X72021000Y-108319000D01*
X72021000Y-110121000D01*
X72021000Y-110121000D01*
G37*
G36*
X76310443Y-103245519D02*
G01*
X76376627Y-103252037D01*
X76546466Y-103303557D01*
X76702991Y-103387222D01*
X76738729Y-103416552D01*
X76840186Y-103499814D01*
X76923448Y-103601271D01*
X76952778Y-103637009D01*
X77036443Y-103793534D01*
X77087963Y-103963373D01*
X77105359Y-104140000D01*
X77087963Y-104316627D01*
X77036443Y-104486466D01*
X76952778Y-104642991D01*
X76923448Y-104678729D01*
X76840186Y-104780186D01*
X76738729Y-104863448D01*
X76702991Y-104892778D01*
X76546466Y-104976443D01*
X76376627Y-105027963D01*
X76310442Y-105034482D01*
X76244260Y-105041000D01*
X76155740Y-105041000D01*
X76089557Y-105034481D01*
X76023373Y-105027963D01*
X75853534Y-104976443D01*
X75697009Y-104892778D01*
X75661271Y-104863448D01*
X75559814Y-104780186D01*
X75476552Y-104678729D01*
X75447222Y-104642991D01*
X75363557Y-104486466D01*
X75312037Y-104316627D01*
X75294641Y-104140000D01*
X75312037Y-103963373D01*
X75363557Y-103793534D01*
X75447222Y-103637009D01*
X75476552Y-103601271D01*
X75559814Y-103499814D01*
X75661271Y-103416552D01*
X75697009Y-103387222D01*
X75853534Y-103303557D01*
X76023373Y-103252037D01*
X76089558Y-103245518D01*
X76155740Y-103239000D01*
X76244260Y-103239000D01*
X76310443Y-103245519D01*
X76310443Y-103245519D01*
G37*
G36*
X79641000Y-105041000D02*
G01*
X77839000Y-105041000D01*
X77839000Y-103239000D01*
X79641000Y-103239000D01*
X79641000Y-105041000D01*
X79641000Y-105041000D01*
G37*
G36*
X73770443Y-103245519D02*
G01*
X73836627Y-103252037D01*
X74006466Y-103303557D01*
X74162991Y-103387222D01*
X74198729Y-103416552D01*
X74300186Y-103499814D01*
X74383448Y-103601271D01*
X74412778Y-103637009D01*
X74496443Y-103793534D01*
X74547963Y-103963373D01*
X74565359Y-104140000D01*
X74547963Y-104316627D01*
X74496443Y-104486466D01*
X74412778Y-104642991D01*
X74383448Y-104678729D01*
X74300186Y-104780186D01*
X74198729Y-104863448D01*
X74162991Y-104892778D01*
X74006466Y-104976443D01*
X73836627Y-105027963D01*
X73770442Y-105034482D01*
X73704260Y-105041000D01*
X73615740Y-105041000D01*
X73549557Y-105034481D01*
X73483373Y-105027963D01*
X73313534Y-104976443D01*
X73157009Y-104892778D01*
X73121271Y-104863448D01*
X73019814Y-104780186D01*
X72936552Y-104678729D01*
X72907222Y-104642991D01*
X72823557Y-104486466D01*
X72772037Y-104316627D01*
X72754641Y-104140000D01*
X72772037Y-103963373D01*
X72823557Y-103793534D01*
X72907222Y-103637009D01*
X72936552Y-103601271D01*
X73019814Y-103499814D01*
X73121271Y-103416552D01*
X73157009Y-103387222D01*
X73313534Y-103303557D01*
X73483373Y-103252037D01*
X73549558Y-103245518D01*
X73615740Y-103239000D01*
X73704260Y-103239000D01*
X73770443Y-103245519D01*
X73770443Y-103245519D01*
G37*
G36*
X71230443Y-103245519D02*
G01*
X71296627Y-103252037D01*
X71466466Y-103303557D01*
X71622991Y-103387222D01*
X71658729Y-103416552D01*
X71760186Y-103499814D01*
X71843448Y-103601271D01*
X71872778Y-103637009D01*
X71956443Y-103793534D01*
X72007963Y-103963373D01*
X72025359Y-104140000D01*
X72007963Y-104316627D01*
X71956443Y-104486466D01*
X71872778Y-104642991D01*
X71843448Y-104678729D01*
X71760186Y-104780186D01*
X71658729Y-104863448D01*
X71622991Y-104892778D01*
X71466466Y-104976443D01*
X71296627Y-105027963D01*
X71230442Y-105034482D01*
X71164260Y-105041000D01*
X71075740Y-105041000D01*
X71009557Y-105034481D01*
X70943373Y-105027963D01*
X70773534Y-104976443D01*
X70617009Y-104892778D01*
X70581271Y-104863448D01*
X70479814Y-104780186D01*
X70396552Y-104678729D01*
X70367222Y-104642991D01*
X70283557Y-104486466D01*
X70232037Y-104316627D01*
X70214641Y-104140000D01*
X70232037Y-103963373D01*
X70283557Y-103793534D01*
X70367222Y-103637009D01*
X70396552Y-103601271D01*
X70479814Y-103499814D01*
X70581271Y-103416552D01*
X70617009Y-103387222D01*
X70773534Y-103303557D01*
X70943373Y-103252037D01*
X71009558Y-103245518D01*
X71075740Y-103239000D01*
X71164260Y-103239000D01*
X71230443Y-103245519D01*
X71230443Y-103245519D01*
G37*
G36*
X86619294Y-98568233D02*
G01*
X86791695Y-98620531D01*
X86950583Y-98705458D01*
X87089849Y-98819751D01*
X87204142Y-98959017D01*
X87289069Y-99117905D01*
X87341367Y-99290306D01*
X87354600Y-99424669D01*
X87354600Y-100835331D01*
X87341367Y-100969694D01*
X87289069Y-101142095D01*
X87204142Y-101300983D01*
X87089849Y-101440249D01*
X86950583Y-101554542D01*
X86791694Y-101639469D01*
X86619293Y-101691767D01*
X86440000Y-101709425D01*
X86260706Y-101691767D01*
X86088305Y-101639469D01*
X85929417Y-101554542D01*
X85790151Y-101440249D01*
X85675858Y-101300983D01*
X85590931Y-101142094D01*
X85538633Y-100969693D01*
X85525400Y-100835330D01*
X85525401Y-99424669D01*
X85538634Y-99290306D01*
X85590932Y-99117905D01*
X85675859Y-98959017D01*
X85790152Y-98819751D01*
X85929418Y-98705458D01*
X86088306Y-98620531D01*
X86260707Y-98568233D01*
X86440000Y-98550575D01*
X86619294Y-98568233D01*
X86619294Y-98568233D01*
G37*
G36*
X73919294Y-98568233D02*
G01*
X74091695Y-98620531D01*
X74250583Y-98705458D01*
X74389849Y-98819751D01*
X74504142Y-98959017D01*
X74589069Y-99117905D01*
X74641367Y-99290306D01*
X74654600Y-99424669D01*
X74654600Y-100835331D01*
X74641367Y-100969694D01*
X74589069Y-101142095D01*
X74504142Y-101300983D01*
X74389849Y-101440249D01*
X74250583Y-101554542D01*
X74091694Y-101639469D01*
X73919293Y-101691767D01*
X73740000Y-101709425D01*
X73560706Y-101691767D01*
X73388305Y-101639469D01*
X73229417Y-101554542D01*
X73090151Y-101440249D01*
X72975858Y-101300983D01*
X72890931Y-101142094D01*
X72838633Y-100969693D01*
X72825400Y-100835330D01*
X72825401Y-99424669D01*
X72838634Y-99290306D01*
X72890932Y-99117905D01*
X72975859Y-98959017D01*
X73090152Y-98819751D01*
X73229418Y-98705458D01*
X73388306Y-98620531D01*
X73560707Y-98568233D01*
X73740000Y-98550575D01*
X73919294Y-98568233D01*
X73919294Y-98568233D01*
G37*
G36*
X91619294Y-98568233D02*
G01*
X91791695Y-98620531D01*
X91950583Y-98705458D01*
X92089849Y-98819751D01*
X92204142Y-98959017D01*
X92289069Y-99117905D01*
X92341367Y-99290306D01*
X92354600Y-99424669D01*
X92354600Y-100835331D01*
X92341367Y-100969694D01*
X92289069Y-101142095D01*
X92204142Y-101300983D01*
X92089849Y-101440249D01*
X91950583Y-101554542D01*
X91791694Y-101639469D01*
X91619293Y-101691767D01*
X91440000Y-101709425D01*
X91260706Y-101691767D01*
X91088305Y-101639469D01*
X90929417Y-101554542D01*
X90790151Y-101440249D01*
X90675858Y-101300983D01*
X90590931Y-101142094D01*
X90538633Y-100969693D01*
X90525400Y-100835330D01*
X90525401Y-99424669D01*
X90538634Y-99290306D01*
X90590932Y-99117905D01*
X90675859Y-98959017D01*
X90790152Y-98819751D01*
X90929418Y-98705458D01*
X91088306Y-98620531D01*
X91260707Y-98568233D01*
X91440000Y-98550575D01*
X91619294Y-98568233D01*
X91619294Y-98568233D01*
G37*
G36*
X78919294Y-98568233D02*
G01*
X79091695Y-98620531D01*
X79250583Y-98705458D01*
X79389849Y-98819751D01*
X79504142Y-98959017D01*
X79589069Y-99117905D01*
X79641367Y-99290306D01*
X79654600Y-99424669D01*
X79654600Y-100835331D01*
X79641367Y-100969694D01*
X79589069Y-101142095D01*
X79504142Y-101300983D01*
X79389849Y-101440249D01*
X79250583Y-101554542D01*
X79091694Y-101639469D01*
X78919293Y-101691767D01*
X78740000Y-101709425D01*
X78560706Y-101691767D01*
X78388305Y-101639469D01*
X78229417Y-101554542D01*
X78090151Y-101440249D01*
X77975858Y-101300983D01*
X77890931Y-101142094D01*
X77838633Y-100969693D01*
X77825400Y-100835330D01*
X77825401Y-99424669D01*
X77838634Y-99290306D01*
X77890932Y-99117905D01*
X77975859Y-98959017D01*
X78090152Y-98819751D01*
X78229418Y-98705458D01*
X78388306Y-98620531D01*
X78560707Y-98568233D01*
X78740000Y-98550575D01*
X78919294Y-98568233D01*
X78919294Y-98568233D01*
G37*
G36*
X104319294Y-98568233D02*
G01*
X104491695Y-98620531D01*
X104650583Y-98705458D01*
X104789849Y-98819751D01*
X104904142Y-98959017D01*
X104989069Y-99117905D01*
X105041367Y-99290306D01*
X105054600Y-99424669D01*
X105054600Y-100835331D01*
X105041367Y-100969694D01*
X104989069Y-101142095D01*
X104904142Y-101300983D01*
X104789849Y-101440249D01*
X104650583Y-101554542D01*
X104491694Y-101639469D01*
X104319293Y-101691767D01*
X104140000Y-101709425D01*
X103960706Y-101691767D01*
X103788305Y-101639469D01*
X103629417Y-101554542D01*
X103490151Y-101440249D01*
X103375858Y-101300983D01*
X103290931Y-101142094D01*
X103238633Y-100969693D01*
X103225400Y-100835330D01*
X103225401Y-99424669D01*
X103238634Y-99290306D01*
X103290932Y-99117905D01*
X103375859Y-98959017D01*
X103490152Y-98819751D01*
X103629418Y-98705458D01*
X103788306Y-98620531D01*
X103960707Y-98568233D01*
X104140000Y-98550575D01*
X104319294Y-98568233D01*
X104319294Y-98568233D01*
G37*
G36*
X99319294Y-98568233D02*
G01*
X99491695Y-98620531D01*
X99650583Y-98705458D01*
X99789849Y-98819751D01*
X99904142Y-98959017D01*
X99989069Y-99117905D01*
X100041367Y-99290306D01*
X100054600Y-99424669D01*
X100054600Y-100835331D01*
X100041367Y-100969694D01*
X99989069Y-101142095D01*
X99904142Y-101300983D01*
X99789849Y-101440249D01*
X99650583Y-101554542D01*
X99491694Y-101639469D01*
X99319293Y-101691767D01*
X99140000Y-101709425D01*
X98960706Y-101691767D01*
X98788305Y-101639469D01*
X98629417Y-101554542D01*
X98490151Y-101440249D01*
X98375858Y-101300983D01*
X98290931Y-101142094D01*
X98238633Y-100969693D01*
X98225400Y-100835330D01*
X98225401Y-99424669D01*
X98238634Y-99290306D01*
X98290932Y-99117905D01*
X98375859Y-98959017D01*
X98490152Y-98819751D01*
X98629418Y-98705458D01*
X98788306Y-98620531D01*
X98960707Y-98568233D01*
X99140000Y-98550575D01*
X99319294Y-98568233D01*
X99319294Y-98568233D01*
G37*
G36*
X99319294Y-86068233D02*
G01*
X99491695Y-86120531D01*
X99650583Y-86205458D01*
X99789849Y-86319751D01*
X99904142Y-86459017D01*
X99989069Y-86617905D01*
X100041367Y-86790306D01*
X100054600Y-86924669D01*
X100054600Y-88335331D01*
X100041367Y-88469694D01*
X99989069Y-88642095D01*
X99904142Y-88800983D01*
X99789849Y-88940249D01*
X99650583Y-89054542D01*
X99491694Y-89139469D01*
X99319293Y-89191767D01*
X99140000Y-89209425D01*
X98960706Y-89191767D01*
X98788305Y-89139469D01*
X98629417Y-89054542D01*
X98490151Y-88940249D01*
X98375858Y-88800983D01*
X98290931Y-88642094D01*
X98238633Y-88469693D01*
X98225400Y-88335330D01*
X98225401Y-86924669D01*
X98238634Y-86790306D01*
X98290932Y-86617905D01*
X98375859Y-86459017D01*
X98490152Y-86319751D01*
X98629418Y-86205458D01*
X98788306Y-86120531D01*
X98960707Y-86068233D01*
X99140000Y-86050575D01*
X99319294Y-86068233D01*
X99319294Y-86068233D01*
G37*
G36*
X104319294Y-86068233D02*
G01*
X104491695Y-86120531D01*
X104650583Y-86205458D01*
X104789849Y-86319751D01*
X104904142Y-86459017D01*
X104989069Y-86617905D01*
X105041367Y-86790306D01*
X105054600Y-86924669D01*
X105054600Y-88335331D01*
X105041367Y-88469694D01*
X104989069Y-88642095D01*
X104904142Y-88800983D01*
X104789849Y-88940249D01*
X104650583Y-89054542D01*
X104491694Y-89139469D01*
X104319293Y-89191767D01*
X104140000Y-89209425D01*
X103960706Y-89191767D01*
X103788305Y-89139469D01*
X103629417Y-89054542D01*
X103490151Y-88940249D01*
X103375858Y-88800983D01*
X103290931Y-88642094D01*
X103238633Y-88469693D01*
X103225400Y-88335330D01*
X103225401Y-86924669D01*
X103238634Y-86790306D01*
X103290932Y-86617905D01*
X103375859Y-86459017D01*
X103490152Y-86319751D01*
X103629418Y-86205458D01*
X103788306Y-86120531D01*
X103960707Y-86068233D01*
X104140000Y-86050575D01*
X104319294Y-86068233D01*
X104319294Y-86068233D01*
G37*
G36*
X73919294Y-86068233D02*
G01*
X74091695Y-86120531D01*
X74250583Y-86205458D01*
X74389849Y-86319751D01*
X74504142Y-86459017D01*
X74589069Y-86617905D01*
X74641367Y-86790306D01*
X74654600Y-86924669D01*
X74654600Y-88335331D01*
X74641367Y-88469694D01*
X74589069Y-88642095D01*
X74504142Y-88800983D01*
X74389849Y-88940249D01*
X74250583Y-89054542D01*
X74091694Y-89139469D01*
X73919293Y-89191767D01*
X73740000Y-89209425D01*
X73560706Y-89191767D01*
X73388305Y-89139469D01*
X73229417Y-89054542D01*
X73090151Y-88940249D01*
X72975858Y-88800983D01*
X72890931Y-88642094D01*
X72838633Y-88469693D01*
X72825400Y-88335330D01*
X72825401Y-86924669D01*
X72838634Y-86790306D01*
X72890932Y-86617905D01*
X72975859Y-86459017D01*
X73090152Y-86319751D01*
X73229418Y-86205458D01*
X73388306Y-86120531D01*
X73560707Y-86068233D01*
X73740000Y-86050575D01*
X73919294Y-86068233D01*
X73919294Y-86068233D01*
G37*
G36*
X78919294Y-86068233D02*
G01*
X79091695Y-86120531D01*
X79250583Y-86205458D01*
X79389849Y-86319751D01*
X79504142Y-86459017D01*
X79589069Y-86617905D01*
X79641367Y-86790306D01*
X79654600Y-86924669D01*
X79654600Y-88335331D01*
X79641367Y-88469694D01*
X79589069Y-88642095D01*
X79504142Y-88800983D01*
X79389849Y-88940249D01*
X79250583Y-89054542D01*
X79091694Y-89139469D01*
X78919293Y-89191767D01*
X78740000Y-89209425D01*
X78560706Y-89191767D01*
X78388305Y-89139469D01*
X78229417Y-89054542D01*
X78090151Y-88940249D01*
X77975858Y-88800983D01*
X77890931Y-88642094D01*
X77838633Y-88469693D01*
X77825400Y-88335330D01*
X77825401Y-86924669D01*
X77838634Y-86790306D01*
X77890932Y-86617905D01*
X77975859Y-86459017D01*
X78090152Y-86319751D01*
X78229418Y-86205458D01*
X78388306Y-86120531D01*
X78560707Y-86068233D01*
X78740000Y-86050575D01*
X78919294Y-86068233D01*
X78919294Y-86068233D01*
G37*
G36*
X86619294Y-86068233D02*
G01*
X86791695Y-86120531D01*
X86950583Y-86205458D01*
X87089849Y-86319751D01*
X87204142Y-86459017D01*
X87289069Y-86617905D01*
X87341367Y-86790306D01*
X87354600Y-86924669D01*
X87354600Y-88335331D01*
X87341367Y-88469694D01*
X87289069Y-88642095D01*
X87204142Y-88800983D01*
X87089849Y-88940249D01*
X86950583Y-89054542D01*
X86791694Y-89139469D01*
X86619293Y-89191767D01*
X86440000Y-89209425D01*
X86260706Y-89191767D01*
X86088305Y-89139469D01*
X85929417Y-89054542D01*
X85790151Y-88940249D01*
X85675858Y-88800983D01*
X85590931Y-88642094D01*
X85538633Y-88469693D01*
X85525400Y-88335330D01*
X85525401Y-86924669D01*
X85538634Y-86790306D01*
X85590932Y-86617905D01*
X85675859Y-86459017D01*
X85790152Y-86319751D01*
X85929418Y-86205458D01*
X86088306Y-86120531D01*
X86260707Y-86068233D01*
X86440000Y-86050575D01*
X86619294Y-86068233D01*
X86619294Y-86068233D01*
G37*
G36*
X91619294Y-86068233D02*
G01*
X91791695Y-86120531D01*
X91950583Y-86205458D01*
X92089849Y-86319751D01*
X92204142Y-86459017D01*
X92289069Y-86617905D01*
X92341367Y-86790306D01*
X92354600Y-86924669D01*
X92354600Y-88335331D01*
X92341367Y-88469694D01*
X92289069Y-88642095D01*
X92204142Y-88800983D01*
X92089849Y-88940249D01*
X91950583Y-89054542D01*
X91791694Y-89139469D01*
X91619293Y-89191767D01*
X91440000Y-89209425D01*
X91260706Y-89191767D01*
X91088305Y-89139469D01*
X90929417Y-89054542D01*
X90790151Y-88940249D01*
X90675858Y-88800983D01*
X90590931Y-88642094D01*
X90538633Y-88469693D01*
X90525400Y-88335330D01*
X90525401Y-86924669D01*
X90538634Y-86790306D01*
X90590932Y-86617905D01*
X90675859Y-86459017D01*
X90790152Y-86319751D01*
X90929418Y-86205458D01*
X91088306Y-86120531D01*
X91260707Y-86068233D01*
X91440000Y-86050575D01*
X91619294Y-86068233D01*
X91619294Y-86068233D01*
G37*
M02*
