M48
; DRILL file {KiCad (5.1.0)-1} date 29.04.2019 20:29:26
; FORMAT={-:-/ absolute / metric / decimal}
; #@! TF.CreationDate,2019-04-29T20:29:26+02:00
; #@! TF.GenerationSoftware,Kicad,Pcbnew,(5.1.0)-1
; #@! TF.FileFunction,Plated,1,2,PTH
FMAT,2
METRIC
T1C0.400
T2C0.800
T3C0.813
T4C1.000
%
G90
G05
T1
X83.82Y-111.76
T2
X71.12Y-114.42
X71.12Y-121.92
T3
X86.44Y-85.29
X86.44Y-97.79
X91.44Y-85.29
X91.44Y-97.79
X73.74Y-85.29
X73.74Y-97.79
X78.74Y-85.29
X78.74Y-97.79
X99.14Y-85.29
X99.14Y-97.79
X104.14Y-85.29
X104.14Y-97.79
T4
X71.12Y-109.22
X73.66Y-109.22
X76.2Y-109.22
X78.74Y-109.22
X81.28Y-111.76
X83.82Y-111.76
X86.36Y-111.76
X88.9Y-111.76
X91.44Y-111.76
X93.98Y-111.76
X96.52Y-111.76
X109.22Y-167.64
X109.22Y-170.18
X109.22Y-172.72
X109.22Y-175.26
X109.22Y-177.8
X99.06Y-129.54
X99.06Y-132.08
X99.06Y-134.62
X99.06Y-137.16
X99.06Y-139.7
X99.06Y-142.24
X71.12Y-129.54
X71.12Y-132.08
X71.12Y-134.62
X71.12Y-137.16
X71.12Y-139.7
X71.12Y-142.24
X71.12Y-144.78
X71.12Y-147.32
X71.12Y-149.86
X71.12Y-152.4
X71.12Y-154.94
X71.12Y-157.48
X71.12Y-160.02
X71.12Y-162.56
X71.12Y-165.1
X71.12Y-167.64
X93.98Y-129.54
X93.98Y-132.08
X93.98Y-134.62
X93.98Y-137.16
X93.98Y-139.7
X93.98Y-142.24
X93.98Y-144.78
X93.98Y-147.32
X93.98Y-149.86
X93.98Y-152.4
X93.98Y-154.94
X93.98Y-157.48
X93.98Y-160.02
X93.98Y-162.56
X93.98Y-165.1
X93.98Y-167.64
X71.12Y-101.6
X73.66Y-101.6
X76.2Y-101.6
X78.74Y-101.6
X99.06Y-147.32
X99.06Y-149.86
X99.06Y-152.4
X99.06Y-154.94
X99.06Y-157.48
X99.06Y-160.02
T0
M30
