G04 #@! TF.GenerationSoftware,KiCad,Pcbnew,(5.1.0)-1*
G04 #@! TF.CreationDate,2019-04-29T20:29:36+02:00*
G04 #@! TF.ProjectId,diyaltimeter.de,64697961-6c74-4696-9d65-7465722e6465,rev?*
G04 #@! TF.SameCoordinates,Original*
G04 #@! TF.FileFunction,Copper,L2,Bot*
G04 #@! TF.FilePolarity,Positive*
%FSLAX46Y46*%
G04 Gerber Fmt 4.6, Leading zero omitted, Abs format (unit mm)*
G04 Created by KiCad (PCBNEW (5.1.0)-1) date 2019-04-29 20:29:36*
%MOMM*%
%LPD*%
G04 APERTURE LIST*
%ADD10O,1.727200X3.048000*%
%ADD11R,1.700000X1.700000*%
%ADD12O,1.700000X1.700000*%
%ADD13C,1.600000*%
%ADD14C,0.800000*%
%ADD15C,0.800000*%
%ADD16C,0.254000*%
G04 APERTURE END LIST*
D10*
X78740000Y-85290000D03*
X73740000Y-85290000D03*
X78740000Y-97790000D03*
X73740000Y-97790000D03*
X104140000Y-85290000D03*
X99140000Y-85290000D03*
X104140000Y-97790000D03*
X99140000Y-97790000D03*
X86440000Y-97790000D03*
X91440000Y-97790000D03*
X86440000Y-85290000D03*
X91440000Y-85290000D03*
D11*
X71120000Y-109220000D03*
D12*
X73660000Y-109220000D03*
X76200000Y-109220000D03*
X78740000Y-109220000D03*
D11*
X81280000Y-111760000D03*
D12*
X83820000Y-111760000D03*
X86360000Y-111760000D03*
X88900000Y-111760000D03*
X91440000Y-111760000D03*
X93980000Y-111760000D03*
X96520000Y-111760000D03*
X71120000Y-129540000D03*
X71120000Y-132080000D03*
X71120000Y-134620000D03*
X71120000Y-137160000D03*
X71120000Y-139700000D03*
X71120000Y-142240000D03*
X71120000Y-144780000D03*
X71120000Y-147320000D03*
X71120000Y-149860000D03*
X71120000Y-152400000D03*
X71120000Y-154940000D03*
X71120000Y-157480000D03*
X71120000Y-160020000D03*
X71120000Y-162560000D03*
X71120000Y-165100000D03*
D11*
X71120000Y-167640000D03*
X93980000Y-129540000D03*
D12*
X93980000Y-132080000D03*
X93980000Y-134620000D03*
X93980000Y-137160000D03*
X93980000Y-139700000D03*
X93980000Y-142240000D03*
X93980000Y-144780000D03*
X93980000Y-147320000D03*
X93980000Y-149860000D03*
X93980000Y-152400000D03*
X93980000Y-154940000D03*
X93980000Y-157480000D03*
X93980000Y-160020000D03*
X93980000Y-162560000D03*
X93980000Y-165100000D03*
X93980000Y-167640000D03*
D11*
X99060000Y-160020000D03*
D12*
X99060000Y-157480000D03*
X99060000Y-154940000D03*
X99060000Y-152400000D03*
X99060000Y-149860000D03*
X99060000Y-147320000D03*
X99060000Y-129540000D03*
X99060000Y-132080000D03*
X99060000Y-134620000D03*
X99060000Y-137160000D03*
X99060000Y-139700000D03*
D11*
X99060000Y-142240000D03*
X109220000Y-177800000D03*
D12*
X109220000Y-175260000D03*
X109220000Y-172720000D03*
X109220000Y-170180000D03*
X109220000Y-167640000D03*
D13*
X71120000Y-121920000D03*
X71120000Y-114420000D03*
D11*
X78740000Y-101600000D03*
D12*
X76200000Y-101600000D03*
X73660000Y-101600000D03*
X71120000Y-101600000D03*
D14*
X83820000Y-111760000D03*
D15*
X71120000Y-109220000D02*
X67310000Y-113030000D01*
X67310000Y-113030000D02*
X67310000Y-140970000D01*
X67310000Y-140970000D02*
X68580000Y-142240000D01*
X68580000Y-142240000D02*
X71120000Y-142240000D01*
X91440000Y-111760000D02*
X91440000Y-121920000D01*
X91440000Y-121920000D02*
X87630000Y-125730000D01*
X87630000Y-125730000D02*
X87630000Y-153670000D01*
X87630000Y-153670000D02*
X86360000Y-154940000D01*
X86360000Y-154940000D02*
X71120000Y-154940000D01*
X71120000Y-157480000D02*
X88900000Y-157480000D01*
X88900000Y-157480000D02*
X90170000Y-156210000D01*
X90170000Y-156210000D02*
X90170000Y-127000000D01*
X93980000Y-123190000D02*
X93980000Y-111760000D01*
X90170000Y-127000000D02*
X93980000Y-123190000D01*
X96520000Y-111760000D02*
X96520000Y-124460000D01*
X96520000Y-124460000D02*
X93980000Y-127000000D01*
X93980000Y-127000000D02*
X92710000Y-127000000D01*
X92710000Y-127000000D02*
X91440000Y-128270000D01*
X91440000Y-147320000D02*
X93980000Y-149860000D01*
X91440000Y-128270000D02*
X91440000Y-147320000D01*
X109220000Y-172720000D02*
X104140000Y-172720000D01*
X104140000Y-172720000D02*
X101600000Y-170180000D01*
X101600000Y-154940000D02*
X99060000Y-152400000D01*
X101600000Y-170180000D02*
X101600000Y-154940000D01*
X99060000Y-134620000D02*
X93980000Y-134620000D01*
X93980000Y-142240000D02*
X95250000Y-142240000D01*
X95250000Y-142240000D02*
X96520000Y-143510000D01*
X96520000Y-152400000D02*
X99060000Y-154940000D01*
X96520000Y-143510000D02*
X96520000Y-152400000D01*
X95250000Y-142240000D02*
X96520000Y-140970000D01*
X96520000Y-140970000D02*
X96520000Y-138430000D01*
X96520000Y-138430000D02*
X97790000Y-137160000D01*
X97790000Y-137160000D02*
X99060000Y-137160000D01*
D16*
G36*
X73163736Y-83238375D02*
G01*
X72903394Y-83377531D01*
X72675203Y-83564803D01*
X72487931Y-83792995D01*
X72348775Y-84053337D01*
X72263084Y-84335824D01*
X72241400Y-84555982D01*
X72241400Y-86024019D01*
X72263084Y-86244177D01*
X72348775Y-86526664D01*
X72487932Y-86787006D01*
X72675204Y-87015197D01*
X72903395Y-87202469D01*
X73163737Y-87341625D01*
X73446224Y-87427316D01*
X73740000Y-87456251D01*
X74033777Y-87427316D01*
X74316264Y-87341625D01*
X74576606Y-87202469D01*
X74804797Y-87015197D01*
X74992069Y-86787006D01*
X75131225Y-86526664D01*
X75216916Y-86244177D01*
X75238600Y-86024019D01*
X75238600Y-85417000D01*
X77241400Y-85417000D01*
X77241400Y-86077400D01*
X77294972Y-86367322D01*
X77404075Y-86641222D01*
X77564517Y-86888574D01*
X77770132Y-87099873D01*
X78013019Y-87266998D01*
X78283843Y-87383527D01*
X78380974Y-87405358D01*
X78613000Y-87284217D01*
X78613000Y-85417000D01*
X78867000Y-85417000D01*
X78867000Y-87284217D01*
X79099026Y-87405358D01*
X79196157Y-87383527D01*
X79466981Y-87266998D01*
X79709868Y-87099873D01*
X79915483Y-86888574D01*
X80075925Y-86641222D01*
X80185028Y-86367322D01*
X80238600Y-86077400D01*
X80238600Y-85417000D01*
X78867000Y-85417000D01*
X78613000Y-85417000D01*
X77241400Y-85417000D01*
X75238600Y-85417000D01*
X75238600Y-84555981D01*
X75216916Y-84335823D01*
X75131225Y-84053336D01*
X74992069Y-83792994D01*
X74804797Y-83564803D01*
X74576605Y-83377531D01*
X74316263Y-83238375D01*
X74305137Y-83235000D01*
X78194303Y-83235000D01*
X78013019Y-83313002D01*
X77770132Y-83480127D01*
X77564517Y-83691426D01*
X77404075Y-83938778D01*
X77294972Y-84212678D01*
X77241400Y-84502600D01*
X77241400Y-85163000D01*
X78613000Y-85163000D01*
X78613000Y-85143000D01*
X78867000Y-85143000D01*
X78867000Y-85163000D01*
X80238600Y-85163000D01*
X80238600Y-84502600D01*
X80185028Y-84212678D01*
X80075925Y-83938778D01*
X79915483Y-83691426D01*
X79709868Y-83480127D01*
X79466981Y-83313002D01*
X79285697Y-83235000D01*
X85874862Y-83235000D01*
X85863736Y-83238375D01*
X85603394Y-83377531D01*
X85375203Y-83564803D01*
X85187931Y-83792995D01*
X85048775Y-84053337D01*
X84963084Y-84335824D01*
X84941400Y-84555982D01*
X84941400Y-86024019D01*
X84963084Y-86244177D01*
X85048775Y-86526664D01*
X85187932Y-86787006D01*
X85375204Y-87015197D01*
X85603395Y-87202469D01*
X85863737Y-87341625D01*
X86146224Y-87427316D01*
X86440000Y-87456251D01*
X86733777Y-87427316D01*
X87016264Y-87341625D01*
X87276606Y-87202469D01*
X87504797Y-87015197D01*
X87692069Y-86787006D01*
X87831225Y-86526664D01*
X87916916Y-86244177D01*
X87938600Y-86024019D01*
X87938600Y-85417000D01*
X89941400Y-85417000D01*
X89941400Y-86077400D01*
X89994972Y-86367322D01*
X90104075Y-86641222D01*
X90264517Y-86888574D01*
X90470132Y-87099873D01*
X90713019Y-87266998D01*
X90983843Y-87383527D01*
X91080974Y-87405358D01*
X91313000Y-87284217D01*
X91313000Y-85417000D01*
X91567000Y-85417000D01*
X91567000Y-87284217D01*
X91799026Y-87405358D01*
X91896157Y-87383527D01*
X92166981Y-87266998D01*
X92409868Y-87099873D01*
X92615483Y-86888574D01*
X92775925Y-86641222D01*
X92885028Y-86367322D01*
X92938600Y-86077400D01*
X92938600Y-85417000D01*
X91567000Y-85417000D01*
X91313000Y-85417000D01*
X89941400Y-85417000D01*
X87938600Y-85417000D01*
X87938600Y-84555981D01*
X87916916Y-84335823D01*
X87831225Y-84053336D01*
X87692069Y-83792994D01*
X87504797Y-83564803D01*
X87276605Y-83377531D01*
X87016263Y-83238375D01*
X87005137Y-83235000D01*
X90894303Y-83235000D01*
X90713019Y-83313002D01*
X90470132Y-83480127D01*
X90264517Y-83691426D01*
X90104075Y-83938778D01*
X89994972Y-84212678D01*
X89941400Y-84502600D01*
X89941400Y-85163000D01*
X91313000Y-85163000D01*
X91313000Y-85143000D01*
X91567000Y-85143000D01*
X91567000Y-85163000D01*
X92938600Y-85163000D01*
X92938600Y-84502600D01*
X92885028Y-84212678D01*
X92775925Y-83938778D01*
X92615483Y-83691426D01*
X92409868Y-83480127D01*
X92166981Y-83313002D01*
X91985697Y-83235000D01*
X98574862Y-83235000D01*
X98563736Y-83238375D01*
X98303394Y-83377531D01*
X98075203Y-83564803D01*
X97887931Y-83792995D01*
X97748775Y-84053337D01*
X97663084Y-84335824D01*
X97641400Y-84555982D01*
X97641400Y-86024019D01*
X97663084Y-86244177D01*
X97748775Y-86526664D01*
X97887932Y-86787006D01*
X98075204Y-87015197D01*
X98303395Y-87202469D01*
X98563737Y-87341625D01*
X98846224Y-87427316D01*
X99140000Y-87456251D01*
X99433777Y-87427316D01*
X99716264Y-87341625D01*
X99976606Y-87202469D01*
X100204797Y-87015197D01*
X100392069Y-86787006D01*
X100531225Y-86526664D01*
X100616916Y-86244177D01*
X100638600Y-86024019D01*
X100638600Y-85417000D01*
X102641400Y-85417000D01*
X102641400Y-86077400D01*
X102694972Y-86367322D01*
X102804075Y-86641222D01*
X102964517Y-86888574D01*
X103170132Y-87099873D01*
X103413019Y-87266998D01*
X103683843Y-87383527D01*
X103780974Y-87405358D01*
X104013000Y-87284217D01*
X104013000Y-85417000D01*
X104267000Y-85417000D01*
X104267000Y-87284217D01*
X104499026Y-87405358D01*
X104596157Y-87383527D01*
X104866981Y-87266998D01*
X105109868Y-87099873D01*
X105315483Y-86888574D01*
X105475925Y-86641222D01*
X105585028Y-86367322D01*
X105638600Y-86077400D01*
X105638600Y-85417000D01*
X104267000Y-85417000D01*
X104013000Y-85417000D01*
X102641400Y-85417000D01*
X100638600Y-85417000D01*
X100638600Y-84555981D01*
X100616916Y-84335823D01*
X100531225Y-84053336D01*
X100392069Y-83792994D01*
X100204797Y-83564803D01*
X99976605Y-83377531D01*
X99716263Y-83238375D01*
X99705137Y-83235000D01*
X103594303Y-83235000D01*
X103413019Y-83313002D01*
X103170132Y-83480127D01*
X102964517Y-83691426D01*
X102804075Y-83938778D01*
X102694972Y-84212678D01*
X102641400Y-84502600D01*
X102641400Y-85163000D01*
X104013000Y-85163000D01*
X104013000Y-85143000D01*
X104267000Y-85143000D01*
X104267000Y-85163000D01*
X105638600Y-85163000D01*
X105638600Y-84502600D01*
X105585028Y-84212678D01*
X105475925Y-83938778D01*
X105315483Y-83691426D01*
X105109868Y-83480127D01*
X104866981Y-83313002D01*
X104685697Y-83235000D01*
X111075000Y-83235000D01*
X111075001Y-103455000D01*
X66725000Y-103455000D01*
X66725000Y-101600000D01*
X69627815Y-101600000D01*
X69656487Y-101891111D01*
X69741401Y-102171034D01*
X69879294Y-102429014D01*
X70064866Y-102655134D01*
X70290986Y-102840706D01*
X70548966Y-102978599D01*
X70828889Y-103063513D01*
X71047050Y-103085000D01*
X71192950Y-103085000D01*
X71411111Y-103063513D01*
X71691034Y-102978599D01*
X71949014Y-102840706D01*
X72175134Y-102655134D01*
X72360706Y-102429014D01*
X72395201Y-102364477D01*
X72464822Y-102481355D01*
X72659731Y-102697588D01*
X72893080Y-102871641D01*
X73155901Y-102996825D01*
X73303110Y-103041476D01*
X73533000Y-102920155D01*
X73533000Y-101727000D01*
X73513000Y-101727000D01*
X73513000Y-101473000D01*
X73533000Y-101473000D01*
X73533000Y-100279845D01*
X73787000Y-100279845D01*
X73787000Y-101473000D01*
X73807000Y-101473000D01*
X73807000Y-101727000D01*
X73787000Y-101727000D01*
X73787000Y-102920155D01*
X74016890Y-103041476D01*
X74164099Y-102996825D01*
X74426920Y-102871641D01*
X74660269Y-102697588D01*
X74855178Y-102481355D01*
X74924799Y-102364477D01*
X74959294Y-102429014D01*
X75144866Y-102655134D01*
X75370986Y-102840706D01*
X75628966Y-102978599D01*
X75908889Y-103063513D01*
X76127050Y-103085000D01*
X76272950Y-103085000D01*
X76491111Y-103063513D01*
X76771034Y-102978599D01*
X77029014Y-102840706D01*
X77255134Y-102655134D01*
X77279607Y-102625313D01*
X77300498Y-102694180D01*
X77359463Y-102804494D01*
X77438815Y-102901185D01*
X77535506Y-102980537D01*
X77645820Y-103039502D01*
X77765518Y-103075812D01*
X77890000Y-103088072D01*
X79590000Y-103088072D01*
X79714482Y-103075812D01*
X79834180Y-103039502D01*
X79944494Y-102980537D01*
X80041185Y-102901185D01*
X80120537Y-102804494D01*
X80179502Y-102694180D01*
X80215812Y-102574482D01*
X80228072Y-102450000D01*
X80228072Y-100750000D01*
X80215812Y-100625518D01*
X80179502Y-100505820D01*
X80120537Y-100395506D01*
X80041185Y-100298815D01*
X79944494Y-100219463D01*
X79834180Y-100160498D01*
X79714482Y-100124188D01*
X79590000Y-100111928D01*
X77890000Y-100111928D01*
X77765518Y-100124188D01*
X77645820Y-100160498D01*
X77535506Y-100219463D01*
X77438815Y-100298815D01*
X77359463Y-100395506D01*
X77300498Y-100505820D01*
X77279607Y-100574687D01*
X77255134Y-100544866D01*
X77029014Y-100359294D01*
X76771034Y-100221401D01*
X76491111Y-100136487D01*
X76272950Y-100115000D01*
X76127050Y-100115000D01*
X75908889Y-100136487D01*
X75628966Y-100221401D01*
X75370986Y-100359294D01*
X75144866Y-100544866D01*
X74959294Y-100770986D01*
X74924799Y-100835523D01*
X74855178Y-100718645D01*
X74660269Y-100502412D01*
X74426920Y-100328359D01*
X74164099Y-100203175D01*
X74016890Y-100158524D01*
X73787000Y-100279845D01*
X73533000Y-100279845D01*
X73303110Y-100158524D01*
X73155901Y-100203175D01*
X72893080Y-100328359D01*
X72659731Y-100502412D01*
X72464822Y-100718645D01*
X72395201Y-100835523D01*
X72360706Y-100770986D01*
X72175134Y-100544866D01*
X71949014Y-100359294D01*
X71691034Y-100221401D01*
X71411111Y-100136487D01*
X71192950Y-100115000D01*
X71047050Y-100115000D01*
X70828889Y-100136487D01*
X70548966Y-100221401D01*
X70290986Y-100359294D01*
X70064866Y-100544866D01*
X69879294Y-100770986D01*
X69741401Y-101028966D01*
X69656487Y-101308889D01*
X69627815Y-101600000D01*
X66725000Y-101600000D01*
X66725000Y-97055982D01*
X72241400Y-97055982D01*
X72241400Y-98524019D01*
X72263084Y-98744177D01*
X72348775Y-99026664D01*
X72487932Y-99287006D01*
X72675204Y-99515197D01*
X72903395Y-99702469D01*
X73163737Y-99841625D01*
X73446224Y-99927316D01*
X73740000Y-99956251D01*
X74033777Y-99927316D01*
X74316264Y-99841625D01*
X74576606Y-99702469D01*
X74804797Y-99515197D01*
X74992069Y-99287006D01*
X75131225Y-99026664D01*
X75216916Y-98744177D01*
X75238600Y-98524019D01*
X75238600Y-97917000D01*
X77241400Y-97917000D01*
X77241400Y-98577400D01*
X77294972Y-98867322D01*
X77404075Y-99141222D01*
X77564517Y-99388574D01*
X77770132Y-99599873D01*
X78013019Y-99766998D01*
X78283843Y-99883527D01*
X78380974Y-99905358D01*
X78613000Y-99784217D01*
X78613000Y-97917000D01*
X78867000Y-97917000D01*
X78867000Y-99784217D01*
X79099026Y-99905358D01*
X79196157Y-99883527D01*
X79466981Y-99766998D01*
X79709868Y-99599873D01*
X79915483Y-99388574D01*
X80075925Y-99141222D01*
X80185028Y-98867322D01*
X80238600Y-98577400D01*
X80238600Y-97917000D01*
X78867000Y-97917000D01*
X78613000Y-97917000D01*
X77241400Y-97917000D01*
X75238600Y-97917000D01*
X75238600Y-97055981D01*
X75233343Y-97002600D01*
X77241400Y-97002600D01*
X77241400Y-97663000D01*
X78613000Y-97663000D01*
X78613000Y-95795783D01*
X78867000Y-95795783D01*
X78867000Y-97663000D01*
X80238600Y-97663000D01*
X80238600Y-97055982D01*
X84941400Y-97055982D01*
X84941400Y-98524019D01*
X84963084Y-98744177D01*
X85048775Y-99026664D01*
X85187932Y-99287006D01*
X85375204Y-99515197D01*
X85603395Y-99702469D01*
X85863737Y-99841625D01*
X86146224Y-99927316D01*
X86440000Y-99956251D01*
X86733777Y-99927316D01*
X87016264Y-99841625D01*
X87276606Y-99702469D01*
X87504797Y-99515197D01*
X87692069Y-99287006D01*
X87831225Y-99026664D01*
X87916916Y-98744177D01*
X87938600Y-98524019D01*
X87938600Y-97917000D01*
X89941400Y-97917000D01*
X89941400Y-98577400D01*
X89994972Y-98867322D01*
X90104075Y-99141222D01*
X90264517Y-99388574D01*
X90470132Y-99599873D01*
X90713019Y-99766998D01*
X90983843Y-99883527D01*
X91080974Y-99905358D01*
X91313000Y-99784217D01*
X91313000Y-97917000D01*
X91567000Y-97917000D01*
X91567000Y-99784217D01*
X91799026Y-99905358D01*
X91896157Y-99883527D01*
X92166981Y-99766998D01*
X92409868Y-99599873D01*
X92615483Y-99388574D01*
X92775925Y-99141222D01*
X92885028Y-98867322D01*
X92938600Y-98577400D01*
X92938600Y-97917000D01*
X91567000Y-97917000D01*
X91313000Y-97917000D01*
X89941400Y-97917000D01*
X87938600Y-97917000D01*
X87938600Y-97055981D01*
X87933343Y-97002600D01*
X89941400Y-97002600D01*
X89941400Y-97663000D01*
X91313000Y-97663000D01*
X91313000Y-95795783D01*
X91567000Y-95795783D01*
X91567000Y-97663000D01*
X92938600Y-97663000D01*
X92938600Y-97055982D01*
X97641400Y-97055982D01*
X97641400Y-98524019D01*
X97663084Y-98744177D01*
X97748775Y-99026664D01*
X97887932Y-99287006D01*
X98075204Y-99515197D01*
X98303395Y-99702469D01*
X98563737Y-99841625D01*
X98846224Y-99927316D01*
X99140000Y-99956251D01*
X99433777Y-99927316D01*
X99716264Y-99841625D01*
X99976606Y-99702469D01*
X100204797Y-99515197D01*
X100392069Y-99287006D01*
X100531225Y-99026664D01*
X100616916Y-98744177D01*
X100638600Y-98524019D01*
X100638600Y-97917000D01*
X102641400Y-97917000D01*
X102641400Y-98577400D01*
X102694972Y-98867322D01*
X102804075Y-99141222D01*
X102964517Y-99388574D01*
X103170132Y-99599873D01*
X103413019Y-99766998D01*
X103683843Y-99883527D01*
X103780974Y-99905358D01*
X104013000Y-99784217D01*
X104013000Y-97917000D01*
X104267000Y-97917000D01*
X104267000Y-99784217D01*
X104499026Y-99905358D01*
X104596157Y-99883527D01*
X104866981Y-99766998D01*
X105109868Y-99599873D01*
X105315483Y-99388574D01*
X105475925Y-99141222D01*
X105585028Y-98867322D01*
X105638600Y-98577400D01*
X105638600Y-97917000D01*
X104267000Y-97917000D01*
X104013000Y-97917000D01*
X102641400Y-97917000D01*
X100638600Y-97917000D01*
X100638600Y-97055981D01*
X100633343Y-97002600D01*
X102641400Y-97002600D01*
X102641400Y-97663000D01*
X104013000Y-97663000D01*
X104013000Y-95795783D01*
X104267000Y-95795783D01*
X104267000Y-97663000D01*
X105638600Y-97663000D01*
X105638600Y-97002600D01*
X105585028Y-96712678D01*
X105475925Y-96438778D01*
X105315483Y-96191426D01*
X105109868Y-95980127D01*
X104866981Y-95813002D01*
X104596157Y-95696473D01*
X104499026Y-95674642D01*
X104267000Y-95795783D01*
X104013000Y-95795783D01*
X103780974Y-95674642D01*
X103683843Y-95696473D01*
X103413019Y-95813002D01*
X103170132Y-95980127D01*
X102964517Y-96191426D01*
X102804075Y-96438778D01*
X102694972Y-96712678D01*
X102641400Y-97002600D01*
X100633343Y-97002600D01*
X100616916Y-96835823D01*
X100531225Y-96553336D01*
X100392069Y-96292994D01*
X100204797Y-96064803D01*
X99976605Y-95877531D01*
X99716263Y-95738375D01*
X99433776Y-95652684D01*
X99140000Y-95623749D01*
X98846223Y-95652684D01*
X98563736Y-95738375D01*
X98303394Y-95877531D01*
X98075203Y-96064803D01*
X97887931Y-96292995D01*
X97748775Y-96553337D01*
X97663084Y-96835824D01*
X97641400Y-97055982D01*
X92938600Y-97055982D01*
X92938600Y-97002600D01*
X92885028Y-96712678D01*
X92775925Y-96438778D01*
X92615483Y-96191426D01*
X92409868Y-95980127D01*
X92166981Y-95813002D01*
X91896157Y-95696473D01*
X91799026Y-95674642D01*
X91567000Y-95795783D01*
X91313000Y-95795783D01*
X91080974Y-95674642D01*
X90983843Y-95696473D01*
X90713019Y-95813002D01*
X90470132Y-95980127D01*
X90264517Y-96191426D01*
X90104075Y-96438778D01*
X89994972Y-96712678D01*
X89941400Y-97002600D01*
X87933343Y-97002600D01*
X87916916Y-96835823D01*
X87831225Y-96553336D01*
X87692069Y-96292994D01*
X87504797Y-96064803D01*
X87276605Y-95877531D01*
X87016263Y-95738375D01*
X86733776Y-95652684D01*
X86440000Y-95623749D01*
X86146223Y-95652684D01*
X85863736Y-95738375D01*
X85603394Y-95877531D01*
X85375203Y-96064803D01*
X85187931Y-96292995D01*
X85048775Y-96553337D01*
X84963084Y-96835824D01*
X84941400Y-97055982D01*
X80238600Y-97055982D01*
X80238600Y-97002600D01*
X80185028Y-96712678D01*
X80075925Y-96438778D01*
X79915483Y-96191426D01*
X79709868Y-95980127D01*
X79466981Y-95813002D01*
X79196157Y-95696473D01*
X79099026Y-95674642D01*
X78867000Y-95795783D01*
X78613000Y-95795783D01*
X78380974Y-95674642D01*
X78283843Y-95696473D01*
X78013019Y-95813002D01*
X77770132Y-95980127D01*
X77564517Y-96191426D01*
X77404075Y-96438778D01*
X77294972Y-96712678D01*
X77241400Y-97002600D01*
X75233343Y-97002600D01*
X75216916Y-96835823D01*
X75131225Y-96553336D01*
X74992069Y-96292994D01*
X74804797Y-96064803D01*
X74576605Y-95877531D01*
X74316263Y-95738375D01*
X74033776Y-95652684D01*
X73740000Y-95623749D01*
X73446223Y-95652684D01*
X73163736Y-95738375D01*
X72903394Y-95877531D01*
X72675203Y-96064803D01*
X72487931Y-96292995D01*
X72348775Y-96553337D01*
X72263084Y-96835824D01*
X72241400Y-97055982D01*
X66725000Y-97055982D01*
X66725000Y-83235000D01*
X73174862Y-83235000D01*
X73163736Y-83238375D01*
X73163736Y-83238375D01*
G37*
X73163736Y-83238375D02*
X72903394Y-83377531D01*
X72675203Y-83564803D01*
X72487931Y-83792995D01*
X72348775Y-84053337D01*
X72263084Y-84335824D01*
X72241400Y-84555982D01*
X72241400Y-86024019D01*
X72263084Y-86244177D01*
X72348775Y-86526664D01*
X72487932Y-86787006D01*
X72675204Y-87015197D01*
X72903395Y-87202469D01*
X73163737Y-87341625D01*
X73446224Y-87427316D01*
X73740000Y-87456251D01*
X74033777Y-87427316D01*
X74316264Y-87341625D01*
X74576606Y-87202469D01*
X74804797Y-87015197D01*
X74992069Y-86787006D01*
X75131225Y-86526664D01*
X75216916Y-86244177D01*
X75238600Y-86024019D01*
X75238600Y-85417000D01*
X77241400Y-85417000D01*
X77241400Y-86077400D01*
X77294972Y-86367322D01*
X77404075Y-86641222D01*
X77564517Y-86888574D01*
X77770132Y-87099873D01*
X78013019Y-87266998D01*
X78283843Y-87383527D01*
X78380974Y-87405358D01*
X78613000Y-87284217D01*
X78613000Y-85417000D01*
X78867000Y-85417000D01*
X78867000Y-87284217D01*
X79099026Y-87405358D01*
X79196157Y-87383527D01*
X79466981Y-87266998D01*
X79709868Y-87099873D01*
X79915483Y-86888574D01*
X80075925Y-86641222D01*
X80185028Y-86367322D01*
X80238600Y-86077400D01*
X80238600Y-85417000D01*
X78867000Y-85417000D01*
X78613000Y-85417000D01*
X77241400Y-85417000D01*
X75238600Y-85417000D01*
X75238600Y-84555981D01*
X75216916Y-84335823D01*
X75131225Y-84053336D01*
X74992069Y-83792994D01*
X74804797Y-83564803D01*
X74576605Y-83377531D01*
X74316263Y-83238375D01*
X74305137Y-83235000D01*
X78194303Y-83235000D01*
X78013019Y-83313002D01*
X77770132Y-83480127D01*
X77564517Y-83691426D01*
X77404075Y-83938778D01*
X77294972Y-84212678D01*
X77241400Y-84502600D01*
X77241400Y-85163000D01*
X78613000Y-85163000D01*
X78613000Y-85143000D01*
X78867000Y-85143000D01*
X78867000Y-85163000D01*
X80238600Y-85163000D01*
X80238600Y-84502600D01*
X80185028Y-84212678D01*
X80075925Y-83938778D01*
X79915483Y-83691426D01*
X79709868Y-83480127D01*
X79466981Y-83313002D01*
X79285697Y-83235000D01*
X85874862Y-83235000D01*
X85863736Y-83238375D01*
X85603394Y-83377531D01*
X85375203Y-83564803D01*
X85187931Y-83792995D01*
X85048775Y-84053337D01*
X84963084Y-84335824D01*
X84941400Y-84555982D01*
X84941400Y-86024019D01*
X84963084Y-86244177D01*
X85048775Y-86526664D01*
X85187932Y-86787006D01*
X85375204Y-87015197D01*
X85603395Y-87202469D01*
X85863737Y-87341625D01*
X86146224Y-87427316D01*
X86440000Y-87456251D01*
X86733777Y-87427316D01*
X87016264Y-87341625D01*
X87276606Y-87202469D01*
X87504797Y-87015197D01*
X87692069Y-86787006D01*
X87831225Y-86526664D01*
X87916916Y-86244177D01*
X87938600Y-86024019D01*
X87938600Y-85417000D01*
X89941400Y-85417000D01*
X89941400Y-86077400D01*
X89994972Y-86367322D01*
X90104075Y-86641222D01*
X90264517Y-86888574D01*
X90470132Y-87099873D01*
X90713019Y-87266998D01*
X90983843Y-87383527D01*
X91080974Y-87405358D01*
X91313000Y-87284217D01*
X91313000Y-85417000D01*
X91567000Y-85417000D01*
X91567000Y-87284217D01*
X91799026Y-87405358D01*
X91896157Y-87383527D01*
X92166981Y-87266998D01*
X92409868Y-87099873D01*
X92615483Y-86888574D01*
X92775925Y-86641222D01*
X92885028Y-86367322D01*
X92938600Y-86077400D01*
X92938600Y-85417000D01*
X91567000Y-85417000D01*
X91313000Y-85417000D01*
X89941400Y-85417000D01*
X87938600Y-85417000D01*
X87938600Y-84555981D01*
X87916916Y-84335823D01*
X87831225Y-84053336D01*
X87692069Y-83792994D01*
X87504797Y-83564803D01*
X87276605Y-83377531D01*
X87016263Y-83238375D01*
X87005137Y-83235000D01*
X90894303Y-83235000D01*
X90713019Y-83313002D01*
X90470132Y-83480127D01*
X90264517Y-83691426D01*
X90104075Y-83938778D01*
X89994972Y-84212678D01*
X89941400Y-84502600D01*
X89941400Y-85163000D01*
X91313000Y-85163000D01*
X91313000Y-85143000D01*
X91567000Y-85143000D01*
X91567000Y-85163000D01*
X92938600Y-85163000D01*
X92938600Y-84502600D01*
X92885028Y-84212678D01*
X92775925Y-83938778D01*
X92615483Y-83691426D01*
X92409868Y-83480127D01*
X92166981Y-83313002D01*
X91985697Y-83235000D01*
X98574862Y-83235000D01*
X98563736Y-83238375D01*
X98303394Y-83377531D01*
X98075203Y-83564803D01*
X97887931Y-83792995D01*
X97748775Y-84053337D01*
X97663084Y-84335824D01*
X97641400Y-84555982D01*
X97641400Y-86024019D01*
X97663084Y-86244177D01*
X97748775Y-86526664D01*
X97887932Y-86787006D01*
X98075204Y-87015197D01*
X98303395Y-87202469D01*
X98563737Y-87341625D01*
X98846224Y-87427316D01*
X99140000Y-87456251D01*
X99433777Y-87427316D01*
X99716264Y-87341625D01*
X99976606Y-87202469D01*
X100204797Y-87015197D01*
X100392069Y-86787006D01*
X100531225Y-86526664D01*
X100616916Y-86244177D01*
X100638600Y-86024019D01*
X100638600Y-85417000D01*
X102641400Y-85417000D01*
X102641400Y-86077400D01*
X102694972Y-86367322D01*
X102804075Y-86641222D01*
X102964517Y-86888574D01*
X103170132Y-87099873D01*
X103413019Y-87266998D01*
X103683843Y-87383527D01*
X103780974Y-87405358D01*
X104013000Y-87284217D01*
X104013000Y-85417000D01*
X104267000Y-85417000D01*
X104267000Y-87284217D01*
X104499026Y-87405358D01*
X104596157Y-87383527D01*
X104866981Y-87266998D01*
X105109868Y-87099873D01*
X105315483Y-86888574D01*
X105475925Y-86641222D01*
X105585028Y-86367322D01*
X105638600Y-86077400D01*
X105638600Y-85417000D01*
X104267000Y-85417000D01*
X104013000Y-85417000D01*
X102641400Y-85417000D01*
X100638600Y-85417000D01*
X100638600Y-84555981D01*
X100616916Y-84335823D01*
X100531225Y-84053336D01*
X100392069Y-83792994D01*
X100204797Y-83564803D01*
X99976605Y-83377531D01*
X99716263Y-83238375D01*
X99705137Y-83235000D01*
X103594303Y-83235000D01*
X103413019Y-83313002D01*
X103170132Y-83480127D01*
X102964517Y-83691426D01*
X102804075Y-83938778D01*
X102694972Y-84212678D01*
X102641400Y-84502600D01*
X102641400Y-85163000D01*
X104013000Y-85163000D01*
X104013000Y-85143000D01*
X104267000Y-85143000D01*
X104267000Y-85163000D01*
X105638600Y-85163000D01*
X105638600Y-84502600D01*
X105585028Y-84212678D01*
X105475925Y-83938778D01*
X105315483Y-83691426D01*
X105109868Y-83480127D01*
X104866981Y-83313002D01*
X104685697Y-83235000D01*
X111075000Y-83235000D01*
X111075001Y-103455000D01*
X66725000Y-103455000D01*
X66725000Y-101600000D01*
X69627815Y-101600000D01*
X69656487Y-101891111D01*
X69741401Y-102171034D01*
X69879294Y-102429014D01*
X70064866Y-102655134D01*
X70290986Y-102840706D01*
X70548966Y-102978599D01*
X70828889Y-103063513D01*
X71047050Y-103085000D01*
X71192950Y-103085000D01*
X71411111Y-103063513D01*
X71691034Y-102978599D01*
X71949014Y-102840706D01*
X72175134Y-102655134D01*
X72360706Y-102429014D01*
X72395201Y-102364477D01*
X72464822Y-102481355D01*
X72659731Y-102697588D01*
X72893080Y-102871641D01*
X73155901Y-102996825D01*
X73303110Y-103041476D01*
X73533000Y-102920155D01*
X73533000Y-101727000D01*
X73513000Y-101727000D01*
X73513000Y-101473000D01*
X73533000Y-101473000D01*
X73533000Y-100279845D01*
X73787000Y-100279845D01*
X73787000Y-101473000D01*
X73807000Y-101473000D01*
X73807000Y-101727000D01*
X73787000Y-101727000D01*
X73787000Y-102920155D01*
X74016890Y-103041476D01*
X74164099Y-102996825D01*
X74426920Y-102871641D01*
X74660269Y-102697588D01*
X74855178Y-102481355D01*
X74924799Y-102364477D01*
X74959294Y-102429014D01*
X75144866Y-102655134D01*
X75370986Y-102840706D01*
X75628966Y-102978599D01*
X75908889Y-103063513D01*
X76127050Y-103085000D01*
X76272950Y-103085000D01*
X76491111Y-103063513D01*
X76771034Y-102978599D01*
X77029014Y-102840706D01*
X77255134Y-102655134D01*
X77279607Y-102625313D01*
X77300498Y-102694180D01*
X77359463Y-102804494D01*
X77438815Y-102901185D01*
X77535506Y-102980537D01*
X77645820Y-103039502D01*
X77765518Y-103075812D01*
X77890000Y-103088072D01*
X79590000Y-103088072D01*
X79714482Y-103075812D01*
X79834180Y-103039502D01*
X79944494Y-102980537D01*
X80041185Y-102901185D01*
X80120537Y-102804494D01*
X80179502Y-102694180D01*
X80215812Y-102574482D01*
X80228072Y-102450000D01*
X80228072Y-100750000D01*
X80215812Y-100625518D01*
X80179502Y-100505820D01*
X80120537Y-100395506D01*
X80041185Y-100298815D01*
X79944494Y-100219463D01*
X79834180Y-100160498D01*
X79714482Y-100124188D01*
X79590000Y-100111928D01*
X77890000Y-100111928D01*
X77765518Y-100124188D01*
X77645820Y-100160498D01*
X77535506Y-100219463D01*
X77438815Y-100298815D01*
X77359463Y-100395506D01*
X77300498Y-100505820D01*
X77279607Y-100574687D01*
X77255134Y-100544866D01*
X77029014Y-100359294D01*
X76771034Y-100221401D01*
X76491111Y-100136487D01*
X76272950Y-100115000D01*
X76127050Y-100115000D01*
X75908889Y-100136487D01*
X75628966Y-100221401D01*
X75370986Y-100359294D01*
X75144866Y-100544866D01*
X74959294Y-100770986D01*
X74924799Y-100835523D01*
X74855178Y-100718645D01*
X74660269Y-100502412D01*
X74426920Y-100328359D01*
X74164099Y-100203175D01*
X74016890Y-100158524D01*
X73787000Y-100279845D01*
X73533000Y-100279845D01*
X73303110Y-100158524D01*
X73155901Y-100203175D01*
X72893080Y-100328359D01*
X72659731Y-100502412D01*
X72464822Y-100718645D01*
X72395201Y-100835523D01*
X72360706Y-100770986D01*
X72175134Y-100544866D01*
X71949014Y-100359294D01*
X71691034Y-100221401D01*
X71411111Y-100136487D01*
X71192950Y-100115000D01*
X71047050Y-100115000D01*
X70828889Y-100136487D01*
X70548966Y-100221401D01*
X70290986Y-100359294D01*
X70064866Y-100544866D01*
X69879294Y-100770986D01*
X69741401Y-101028966D01*
X69656487Y-101308889D01*
X69627815Y-101600000D01*
X66725000Y-101600000D01*
X66725000Y-97055982D01*
X72241400Y-97055982D01*
X72241400Y-98524019D01*
X72263084Y-98744177D01*
X72348775Y-99026664D01*
X72487932Y-99287006D01*
X72675204Y-99515197D01*
X72903395Y-99702469D01*
X73163737Y-99841625D01*
X73446224Y-99927316D01*
X73740000Y-99956251D01*
X74033777Y-99927316D01*
X74316264Y-99841625D01*
X74576606Y-99702469D01*
X74804797Y-99515197D01*
X74992069Y-99287006D01*
X75131225Y-99026664D01*
X75216916Y-98744177D01*
X75238600Y-98524019D01*
X75238600Y-97917000D01*
X77241400Y-97917000D01*
X77241400Y-98577400D01*
X77294972Y-98867322D01*
X77404075Y-99141222D01*
X77564517Y-99388574D01*
X77770132Y-99599873D01*
X78013019Y-99766998D01*
X78283843Y-99883527D01*
X78380974Y-99905358D01*
X78613000Y-99784217D01*
X78613000Y-97917000D01*
X78867000Y-97917000D01*
X78867000Y-99784217D01*
X79099026Y-99905358D01*
X79196157Y-99883527D01*
X79466981Y-99766998D01*
X79709868Y-99599873D01*
X79915483Y-99388574D01*
X80075925Y-99141222D01*
X80185028Y-98867322D01*
X80238600Y-98577400D01*
X80238600Y-97917000D01*
X78867000Y-97917000D01*
X78613000Y-97917000D01*
X77241400Y-97917000D01*
X75238600Y-97917000D01*
X75238600Y-97055981D01*
X75233343Y-97002600D01*
X77241400Y-97002600D01*
X77241400Y-97663000D01*
X78613000Y-97663000D01*
X78613000Y-95795783D01*
X78867000Y-95795783D01*
X78867000Y-97663000D01*
X80238600Y-97663000D01*
X80238600Y-97055982D01*
X84941400Y-97055982D01*
X84941400Y-98524019D01*
X84963084Y-98744177D01*
X85048775Y-99026664D01*
X85187932Y-99287006D01*
X85375204Y-99515197D01*
X85603395Y-99702469D01*
X85863737Y-99841625D01*
X86146224Y-99927316D01*
X86440000Y-99956251D01*
X86733777Y-99927316D01*
X87016264Y-99841625D01*
X87276606Y-99702469D01*
X87504797Y-99515197D01*
X87692069Y-99287006D01*
X87831225Y-99026664D01*
X87916916Y-98744177D01*
X87938600Y-98524019D01*
X87938600Y-97917000D01*
X89941400Y-97917000D01*
X89941400Y-98577400D01*
X89994972Y-98867322D01*
X90104075Y-99141222D01*
X90264517Y-99388574D01*
X90470132Y-99599873D01*
X90713019Y-99766998D01*
X90983843Y-99883527D01*
X91080974Y-99905358D01*
X91313000Y-99784217D01*
X91313000Y-97917000D01*
X91567000Y-97917000D01*
X91567000Y-99784217D01*
X91799026Y-99905358D01*
X91896157Y-99883527D01*
X92166981Y-99766998D01*
X92409868Y-99599873D01*
X92615483Y-99388574D01*
X92775925Y-99141222D01*
X92885028Y-98867322D01*
X92938600Y-98577400D01*
X92938600Y-97917000D01*
X91567000Y-97917000D01*
X91313000Y-97917000D01*
X89941400Y-97917000D01*
X87938600Y-97917000D01*
X87938600Y-97055981D01*
X87933343Y-97002600D01*
X89941400Y-97002600D01*
X89941400Y-97663000D01*
X91313000Y-97663000D01*
X91313000Y-95795783D01*
X91567000Y-95795783D01*
X91567000Y-97663000D01*
X92938600Y-97663000D01*
X92938600Y-97055982D01*
X97641400Y-97055982D01*
X97641400Y-98524019D01*
X97663084Y-98744177D01*
X97748775Y-99026664D01*
X97887932Y-99287006D01*
X98075204Y-99515197D01*
X98303395Y-99702469D01*
X98563737Y-99841625D01*
X98846224Y-99927316D01*
X99140000Y-99956251D01*
X99433777Y-99927316D01*
X99716264Y-99841625D01*
X99976606Y-99702469D01*
X100204797Y-99515197D01*
X100392069Y-99287006D01*
X100531225Y-99026664D01*
X100616916Y-98744177D01*
X100638600Y-98524019D01*
X100638600Y-97917000D01*
X102641400Y-97917000D01*
X102641400Y-98577400D01*
X102694972Y-98867322D01*
X102804075Y-99141222D01*
X102964517Y-99388574D01*
X103170132Y-99599873D01*
X103413019Y-99766998D01*
X103683843Y-99883527D01*
X103780974Y-99905358D01*
X104013000Y-99784217D01*
X104013000Y-97917000D01*
X104267000Y-97917000D01*
X104267000Y-99784217D01*
X104499026Y-99905358D01*
X104596157Y-99883527D01*
X104866981Y-99766998D01*
X105109868Y-99599873D01*
X105315483Y-99388574D01*
X105475925Y-99141222D01*
X105585028Y-98867322D01*
X105638600Y-98577400D01*
X105638600Y-97917000D01*
X104267000Y-97917000D01*
X104013000Y-97917000D01*
X102641400Y-97917000D01*
X100638600Y-97917000D01*
X100638600Y-97055981D01*
X100633343Y-97002600D01*
X102641400Y-97002600D01*
X102641400Y-97663000D01*
X104013000Y-97663000D01*
X104013000Y-95795783D01*
X104267000Y-95795783D01*
X104267000Y-97663000D01*
X105638600Y-97663000D01*
X105638600Y-97002600D01*
X105585028Y-96712678D01*
X105475925Y-96438778D01*
X105315483Y-96191426D01*
X105109868Y-95980127D01*
X104866981Y-95813002D01*
X104596157Y-95696473D01*
X104499026Y-95674642D01*
X104267000Y-95795783D01*
X104013000Y-95795783D01*
X103780974Y-95674642D01*
X103683843Y-95696473D01*
X103413019Y-95813002D01*
X103170132Y-95980127D01*
X102964517Y-96191426D01*
X102804075Y-96438778D01*
X102694972Y-96712678D01*
X102641400Y-97002600D01*
X100633343Y-97002600D01*
X100616916Y-96835823D01*
X100531225Y-96553336D01*
X100392069Y-96292994D01*
X100204797Y-96064803D01*
X99976605Y-95877531D01*
X99716263Y-95738375D01*
X99433776Y-95652684D01*
X99140000Y-95623749D01*
X98846223Y-95652684D01*
X98563736Y-95738375D01*
X98303394Y-95877531D01*
X98075203Y-96064803D01*
X97887931Y-96292995D01*
X97748775Y-96553337D01*
X97663084Y-96835824D01*
X97641400Y-97055982D01*
X92938600Y-97055982D01*
X92938600Y-97002600D01*
X92885028Y-96712678D01*
X92775925Y-96438778D01*
X92615483Y-96191426D01*
X92409868Y-95980127D01*
X92166981Y-95813002D01*
X91896157Y-95696473D01*
X91799026Y-95674642D01*
X91567000Y-95795783D01*
X91313000Y-95795783D01*
X91080974Y-95674642D01*
X90983843Y-95696473D01*
X90713019Y-95813002D01*
X90470132Y-95980127D01*
X90264517Y-96191426D01*
X90104075Y-96438778D01*
X89994972Y-96712678D01*
X89941400Y-97002600D01*
X87933343Y-97002600D01*
X87916916Y-96835823D01*
X87831225Y-96553336D01*
X87692069Y-96292994D01*
X87504797Y-96064803D01*
X87276605Y-95877531D01*
X87016263Y-95738375D01*
X86733776Y-95652684D01*
X86440000Y-95623749D01*
X86146223Y-95652684D01*
X85863736Y-95738375D01*
X85603394Y-95877531D01*
X85375203Y-96064803D01*
X85187931Y-96292995D01*
X85048775Y-96553337D01*
X84963084Y-96835824D01*
X84941400Y-97055982D01*
X80238600Y-97055982D01*
X80238600Y-97002600D01*
X80185028Y-96712678D01*
X80075925Y-96438778D01*
X79915483Y-96191426D01*
X79709868Y-95980127D01*
X79466981Y-95813002D01*
X79196157Y-95696473D01*
X79099026Y-95674642D01*
X78867000Y-95795783D01*
X78613000Y-95795783D01*
X78380974Y-95674642D01*
X78283843Y-95696473D01*
X78013019Y-95813002D01*
X77770132Y-95980127D01*
X77564517Y-96191426D01*
X77404075Y-96438778D01*
X77294972Y-96712678D01*
X77241400Y-97002600D01*
X75233343Y-97002600D01*
X75216916Y-96835823D01*
X75131225Y-96553336D01*
X74992069Y-96292994D01*
X74804797Y-96064803D01*
X74576605Y-95877531D01*
X74316263Y-95738375D01*
X74033776Y-95652684D01*
X73740000Y-95623749D01*
X73446223Y-95652684D01*
X73163736Y-95738375D01*
X72903394Y-95877531D01*
X72675203Y-96064803D01*
X72487931Y-96292995D01*
X72348775Y-96553337D01*
X72263084Y-96835824D01*
X72241400Y-97055982D01*
X66725000Y-97055982D01*
X66725000Y-83235000D01*
X73174862Y-83235000D01*
X73163736Y-83238375D01*
G36*
X111075000Y-179655000D02*
G01*
X66725000Y-179655000D01*
X66725000Y-141848710D01*
X67812196Y-142935907D01*
X67844604Y-142975396D01*
X67884092Y-143007803D01*
X68002202Y-143104734D01*
X68098309Y-143156104D01*
X68182007Y-143200841D01*
X68377105Y-143260024D01*
X68529162Y-143275000D01*
X68529171Y-143275000D01*
X68579999Y-143280006D01*
X68630827Y-143275000D01*
X70048342Y-143275000D01*
X70064866Y-143295134D01*
X70290986Y-143480706D01*
X70345791Y-143510000D01*
X70290986Y-143539294D01*
X70064866Y-143724866D01*
X69879294Y-143950986D01*
X69741401Y-144208966D01*
X69656487Y-144488889D01*
X69627815Y-144780000D01*
X69656487Y-145071111D01*
X69741401Y-145351034D01*
X69879294Y-145609014D01*
X70064866Y-145835134D01*
X70290986Y-146020706D01*
X70345791Y-146050000D01*
X70290986Y-146079294D01*
X70064866Y-146264866D01*
X69879294Y-146490986D01*
X69741401Y-146748966D01*
X69656487Y-147028889D01*
X69627815Y-147320000D01*
X69656487Y-147611111D01*
X69741401Y-147891034D01*
X69879294Y-148149014D01*
X70064866Y-148375134D01*
X70290986Y-148560706D01*
X70345791Y-148590000D01*
X70290986Y-148619294D01*
X70064866Y-148804866D01*
X69879294Y-149030986D01*
X69741401Y-149288966D01*
X69656487Y-149568889D01*
X69627815Y-149860000D01*
X69656487Y-150151111D01*
X69741401Y-150431034D01*
X69879294Y-150689014D01*
X70064866Y-150915134D01*
X70290986Y-151100706D01*
X70345791Y-151130000D01*
X70290986Y-151159294D01*
X70064866Y-151344866D01*
X69879294Y-151570986D01*
X69741401Y-151828966D01*
X69656487Y-152108889D01*
X69627815Y-152400000D01*
X69656487Y-152691111D01*
X69741401Y-152971034D01*
X69879294Y-153229014D01*
X70064866Y-153455134D01*
X70290986Y-153640706D01*
X70345791Y-153670000D01*
X70290986Y-153699294D01*
X70064866Y-153884866D01*
X69879294Y-154110986D01*
X69741401Y-154368966D01*
X69656487Y-154648889D01*
X69627815Y-154940000D01*
X69656487Y-155231111D01*
X69741401Y-155511034D01*
X69879294Y-155769014D01*
X70064866Y-155995134D01*
X70290986Y-156180706D01*
X70345791Y-156210000D01*
X70290986Y-156239294D01*
X70064866Y-156424866D01*
X69879294Y-156650986D01*
X69741401Y-156908966D01*
X69656487Y-157188889D01*
X69627815Y-157480000D01*
X69656487Y-157771111D01*
X69741401Y-158051034D01*
X69879294Y-158309014D01*
X70064866Y-158535134D01*
X70290986Y-158720706D01*
X70345791Y-158750000D01*
X70290986Y-158779294D01*
X70064866Y-158964866D01*
X69879294Y-159190986D01*
X69741401Y-159448966D01*
X69656487Y-159728889D01*
X69627815Y-160020000D01*
X69656487Y-160311111D01*
X69741401Y-160591034D01*
X69879294Y-160849014D01*
X70064866Y-161075134D01*
X70290986Y-161260706D01*
X70345791Y-161290000D01*
X70290986Y-161319294D01*
X70064866Y-161504866D01*
X69879294Y-161730986D01*
X69741401Y-161988966D01*
X69656487Y-162268889D01*
X69627815Y-162560000D01*
X69656487Y-162851111D01*
X69741401Y-163131034D01*
X69879294Y-163389014D01*
X70064866Y-163615134D01*
X70290986Y-163800706D01*
X70345791Y-163830000D01*
X70290986Y-163859294D01*
X70064866Y-164044866D01*
X69879294Y-164270986D01*
X69741401Y-164528966D01*
X69656487Y-164808889D01*
X69627815Y-165100000D01*
X69656487Y-165391111D01*
X69741401Y-165671034D01*
X69879294Y-165929014D01*
X70064866Y-166155134D01*
X70094687Y-166179607D01*
X70025820Y-166200498D01*
X69915506Y-166259463D01*
X69818815Y-166338815D01*
X69739463Y-166435506D01*
X69680498Y-166545820D01*
X69644188Y-166665518D01*
X69631928Y-166790000D01*
X69631928Y-168490000D01*
X69644188Y-168614482D01*
X69680498Y-168734180D01*
X69739463Y-168844494D01*
X69818815Y-168941185D01*
X69915506Y-169020537D01*
X70025820Y-169079502D01*
X70145518Y-169115812D01*
X70270000Y-169128072D01*
X71970000Y-169128072D01*
X72094482Y-169115812D01*
X72214180Y-169079502D01*
X72324494Y-169020537D01*
X72421185Y-168941185D01*
X72500537Y-168844494D01*
X72559502Y-168734180D01*
X72595812Y-168614482D01*
X72608072Y-168490000D01*
X72608072Y-166790000D01*
X72595812Y-166665518D01*
X72559502Y-166545820D01*
X72500537Y-166435506D01*
X72421185Y-166338815D01*
X72324494Y-166259463D01*
X72214180Y-166200498D01*
X72145313Y-166179607D01*
X72175134Y-166155134D01*
X72360706Y-165929014D01*
X72498599Y-165671034D01*
X72583513Y-165391111D01*
X72612185Y-165100000D01*
X72583513Y-164808889D01*
X72498599Y-164528966D01*
X72360706Y-164270986D01*
X72175134Y-164044866D01*
X71949014Y-163859294D01*
X71894209Y-163830000D01*
X71949014Y-163800706D01*
X72175134Y-163615134D01*
X72360706Y-163389014D01*
X72498599Y-163131034D01*
X72583513Y-162851111D01*
X72612185Y-162560000D01*
X72583513Y-162268889D01*
X72498599Y-161988966D01*
X72360706Y-161730986D01*
X72175134Y-161504866D01*
X71949014Y-161319294D01*
X71894209Y-161290000D01*
X71949014Y-161260706D01*
X72175134Y-161075134D01*
X72360706Y-160849014D01*
X72498599Y-160591034D01*
X72583513Y-160311111D01*
X72612185Y-160020000D01*
X72583513Y-159728889D01*
X72498599Y-159448966D01*
X72360706Y-159190986D01*
X72175134Y-158964866D01*
X71949014Y-158779294D01*
X71894209Y-158750000D01*
X71949014Y-158720706D01*
X72175134Y-158535134D01*
X72191658Y-158515000D01*
X88849172Y-158515000D01*
X88900000Y-158520006D01*
X88950828Y-158515000D01*
X88950838Y-158515000D01*
X89102895Y-158500024D01*
X89297993Y-158440841D01*
X89477797Y-158344734D01*
X89635396Y-158215396D01*
X89667807Y-158175903D01*
X90865908Y-156977803D01*
X90905396Y-156945396D01*
X90940844Y-156902203D01*
X91034734Y-156787798D01*
X91107861Y-156650986D01*
X91130841Y-156607993D01*
X91190024Y-156412895D01*
X91205000Y-156260838D01*
X91205000Y-156260829D01*
X91210006Y-156210001D01*
X91205000Y-156159173D01*
X91205000Y-148548710D01*
X92490368Y-149834079D01*
X92487815Y-149860000D01*
X92516487Y-150151111D01*
X92601401Y-150431034D01*
X92739294Y-150689014D01*
X92924866Y-150915134D01*
X93150986Y-151100706D01*
X93205791Y-151130000D01*
X93150986Y-151159294D01*
X92924866Y-151344866D01*
X92739294Y-151570986D01*
X92601401Y-151828966D01*
X92516487Y-152108889D01*
X92487815Y-152400000D01*
X92516487Y-152691111D01*
X92601401Y-152971034D01*
X92739294Y-153229014D01*
X92924866Y-153455134D01*
X93150986Y-153640706D01*
X93205791Y-153670000D01*
X93150986Y-153699294D01*
X92924866Y-153884866D01*
X92739294Y-154110986D01*
X92601401Y-154368966D01*
X92516487Y-154648889D01*
X92487815Y-154940000D01*
X92516487Y-155231111D01*
X92601401Y-155511034D01*
X92739294Y-155769014D01*
X92924866Y-155995134D01*
X93150986Y-156180706D01*
X93205791Y-156210000D01*
X93150986Y-156239294D01*
X92924866Y-156424866D01*
X92739294Y-156650986D01*
X92601401Y-156908966D01*
X92516487Y-157188889D01*
X92487815Y-157480000D01*
X92516487Y-157771111D01*
X92601401Y-158051034D01*
X92739294Y-158309014D01*
X92924866Y-158535134D01*
X93150986Y-158720706D01*
X93205791Y-158750000D01*
X93150986Y-158779294D01*
X92924866Y-158964866D01*
X92739294Y-159190986D01*
X92601401Y-159448966D01*
X92516487Y-159728889D01*
X92487815Y-160020000D01*
X92516487Y-160311111D01*
X92601401Y-160591034D01*
X92739294Y-160849014D01*
X92924866Y-161075134D01*
X93150986Y-161260706D01*
X93205791Y-161290000D01*
X93150986Y-161319294D01*
X92924866Y-161504866D01*
X92739294Y-161730986D01*
X92601401Y-161988966D01*
X92516487Y-162268889D01*
X92487815Y-162560000D01*
X92516487Y-162851111D01*
X92601401Y-163131034D01*
X92739294Y-163389014D01*
X92924866Y-163615134D01*
X93150986Y-163800706D01*
X93205791Y-163830000D01*
X93150986Y-163859294D01*
X92924866Y-164044866D01*
X92739294Y-164270986D01*
X92601401Y-164528966D01*
X92516487Y-164808889D01*
X92487815Y-165100000D01*
X92516487Y-165391111D01*
X92601401Y-165671034D01*
X92739294Y-165929014D01*
X92924866Y-166155134D01*
X93150986Y-166340706D01*
X93205791Y-166370000D01*
X93150986Y-166399294D01*
X92924866Y-166584866D01*
X92739294Y-166810986D01*
X92601401Y-167068966D01*
X92516487Y-167348889D01*
X92487815Y-167640000D01*
X92516487Y-167931111D01*
X92601401Y-168211034D01*
X92739294Y-168469014D01*
X92924866Y-168695134D01*
X93150986Y-168880706D01*
X93408966Y-169018599D01*
X93688889Y-169103513D01*
X93907050Y-169125000D01*
X94052950Y-169125000D01*
X94271111Y-169103513D01*
X94551034Y-169018599D01*
X94809014Y-168880706D01*
X95035134Y-168695134D01*
X95220706Y-168469014D01*
X95358599Y-168211034D01*
X95443513Y-167931111D01*
X95472185Y-167640000D01*
X95443513Y-167348889D01*
X95358599Y-167068966D01*
X95220706Y-166810986D01*
X95035134Y-166584866D01*
X94809014Y-166399294D01*
X94754209Y-166370000D01*
X94809014Y-166340706D01*
X95035134Y-166155134D01*
X95220706Y-165929014D01*
X95358599Y-165671034D01*
X95443513Y-165391111D01*
X95472185Y-165100000D01*
X95443513Y-164808889D01*
X95358599Y-164528966D01*
X95220706Y-164270986D01*
X95035134Y-164044866D01*
X94809014Y-163859294D01*
X94754209Y-163830000D01*
X94809014Y-163800706D01*
X95035134Y-163615134D01*
X95220706Y-163389014D01*
X95358599Y-163131034D01*
X95443513Y-162851111D01*
X95472185Y-162560000D01*
X95443513Y-162268889D01*
X95358599Y-161988966D01*
X95220706Y-161730986D01*
X95035134Y-161504866D01*
X94809014Y-161319294D01*
X94754209Y-161290000D01*
X94809014Y-161260706D01*
X95035134Y-161075134D01*
X95220706Y-160849014D01*
X95358599Y-160591034D01*
X95443513Y-160311111D01*
X95472185Y-160020000D01*
X95443513Y-159728889D01*
X95358599Y-159448966D01*
X95220706Y-159190986D01*
X95035134Y-158964866D01*
X94809014Y-158779294D01*
X94754209Y-158750000D01*
X94809014Y-158720706D01*
X95035134Y-158535134D01*
X95220706Y-158309014D01*
X95358599Y-158051034D01*
X95443513Y-157771111D01*
X95472185Y-157480000D01*
X95443513Y-157188889D01*
X95358599Y-156908966D01*
X95220706Y-156650986D01*
X95035134Y-156424866D01*
X94809014Y-156239294D01*
X94754209Y-156210000D01*
X94809014Y-156180706D01*
X95035134Y-155995134D01*
X95220706Y-155769014D01*
X95358599Y-155511034D01*
X95443513Y-155231111D01*
X95472185Y-154940000D01*
X95443513Y-154648889D01*
X95358599Y-154368966D01*
X95220706Y-154110986D01*
X95035134Y-153884866D01*
X94809014Y-153699294D01*
X94754209Y-153670000D01*
X94809014Y-153640706D01*
X95035134Y-153455134D01*
X95220706Y-153229014D01*
X95358599Y-152971034D01*
X95443513Y-152691111D01*
X95472185Y-152400000D01*
X95443513Y-152108889D01*
X95358599Y-151828966D01*
X95220706Y-151570986D01*
X95035134Y-151344866D01*
X94809014Y-151159294D01*
X94754209Y-151130000D01*
X94809014Y-151100706D01*
X95035134Y-150915134D01*
X95220706Y-150689014D01*
X95358599Y-150431034D01*
X95443513Y-150151111D01*
X95472185Y-149860000D01*
X95443513Y-149568889D01*
X95358599Y-149288966D01*
X95220706Y-149030986D01*
X95035134Y-148804866D01*
X94809014Y-148619294D01*
X94754209Y-148590000D01*
X94809014Y-148560706D01*
X95035134Y-148375134D01*
X95220706Y-148149014D01*
X95358599Y-147891034D01*
X95443513Y-147611111D01*
X95472185Y-147320000D01*
X95443513Y-147028889D01*
X95358599Y-146748966D01*
X95220706Y-146490986D01*
X95035134Y-146264866D01*
X94809014Y-146079294D01*
X94754209Y-146050000D01*
X94809014Y-146020706D01*
X95035134Y-145835134D01*
X95220706Y-145609014D01*
X95358599Y-145351034D01*
X95443513Y-145071111D01*
X95472185Y-144780000D01*
X95443513Y-144488889D01*
X95358599Y-144208966D01*
X95220706Y-143950986D01*
X95035134Y-143724866D01*
X94809014Y-143539294D01*
X94754209Y-143510000D01*
X94809014Y-143480706D01*
X94928739Y-143382450D01*
X95485000Y-143938711D01*
X95485001Y-152349162D01*
X95479994Y-152400000D01*
X95499977Y-152602895D01*
X95559160Y-152797993D01*
X95655266Y-152977797D01*
X95749157Y-153092203D01*
X95784605Y-153135396D01*
X95824092Y-153167802D01*
X97570368Y-154914079D01*
X97567815Y-154940000D01*
X97596487Y-155231111D01*
X97681401Y-155511034D01*
X97819294Y-155769014D01*
X98004866Y-155995134D01*
X98230986Y-156180706D01*
X98285791Y-156210000D01*
X98230986Y-156239294D01*
X98004866Y-156424866D01*
X97819294Y-156650986D01*
X97681401Y-156908966D01*
X97596487Y-157188889D01*
X97567815Y-157480000D01*
X97596487Y-157771111D01*
X97681401Y-158051034D01*
X97819294Y-158309014D01*
X98004866Y-158535134D01*
X98034687Y-158559607D01*
X97965820Y-158580498D01*
X97855506Y-158639463D01*
X97758815Y-158718815D01*
X97679463Y-158815506D01*
X97620498Y-158925820D01*
X97584188Y-159045518D01*
X97571928Y-159170000D01*
X97571928Y-160870000D01*
X97584188Y-160994482D01*
X97620498Y-161114180D01*
X97679463Y-161224494D01*
X97758815Y-161321185D01*
X97855506Y-161400537D01*
X97965820Y-161459502D01*
X98085518Y-161495812D01*
X98210000Y-161508072D01*
X99910000Y-161508072D01*
X100034482Y-161495812D01*
X100154180Y-161459502D01*
X100264494Y-161400537D01*
X100361185Y-161321185D01*
X100440537Y-161224494D01*
X100499502Y-161114180D01*
X100535812Y-160994482D01*
X100548072Y-160870000D01*
X100548072Y-159170000D01*
X100535812Y-159045518D01*
X100499502Y-158925820D01*
X100440537Y-158815506D01*
X100361185Y-158718815D01*
X100264494Y-158639463D01*
X100154180Y-158580498D01*
X100085313Y-158559607D01*
X100115134Y-158535134D01*
X100300706Y-158309014D01*
X100438599Y-158051034D01*
X100523513Y-157771111D01*
X100552185Y-157480000D01*
X100523513Y-157188889D01*
X100438599Y-156908966D01*
X100300706Y-156650986D01*
X100115134Y-156424866D01*
X99889014Y-156239294D01*
X99834209Y-156210000D01*
X99889014Y-156180706D01*
X100115134Y-155995134D01*
X100300706Y-155769014D01*
X100438599Y-155511034D01*
X100501143Y-155304854D01*
X100565001Y-155368712D01*
X100565000Y-170129172D01*
X100559994Y-170180000D01*
X100565000Y-170230828D01*
X100565000Y-170230837D01*
X100579976Y-170382894D01*
X100639159Y-170577992D01*
X100735266Y-170757797D01*
X100864604Y-170915396D01*
X100904097Y-170947807D01*
X103372197Y-173415908D01*
X103404604Y-173455396D01*
X103444092Y-173487803D01*
X103562202Y-173584734D01*
X103658309Y-173636104D01*
X103742007Y-173680841D01*
X103937105Y-173740024D01*
X104089162Y-173755000D01*
X104089171Y-173755000D01*
X104139999Y-173760006D01*
X104190827Y-173755000D01*
X108148342Y-173755000D01*
X108164866Y-173775134D01*
X108390986Y-173960706D01*
X108445791Y-173990000D01*
X108390986Y-174019294D01*
X108164866Y-174204866D01*
X107979294Y-174430986D01*
X107841401Y-174688966D01*
X107756487Y-174968889D01*
X107727815Y-175260000D01*
X107756487Y-175551111D01*
X107841401Y-175831034D01*
X107979294Y-176089014D01*
X108164866Y-176315134D01*
X108194687Y-176339607D01*
X108125820Y-176360498D01*
X108015506Y-176419463D01*
X107918815Y-176498815D01*
X107839463Y-176595506D01*
X107780498Y-176705820D01*
X107744188Y-176825518D01*
X107731928Y-176950000D01*
X107731928Y-178650000D01*
X107744188Y-178774482D01*
X107780498Y-178894180D01*
X107839463Y-179004494D01*
X107918815Y-179101185D01*
X108015506Y-179180537D01*
X108125820Y-179239502D01*
X108245518Y-179275812D01*
X108370000Y-179288072D01*
X110070000Y-179288072D01*
X110194482Y-179275812D01*
X110314180Y-179239502D01*
X110424494Y-179180537D01*
X110521185Y-179101185D01*
X110600537Y-179004494D01*
X110659502Y-178894180D01*
X110695812Y-178774482D01*
X110708072Y-178650000D01*
X110708072Y-176950000D01*
X110695812Y-176825518D01*
X110659502Y-176705820D01*
X110600537Y-176595506D01*
X110521185Y-176498815D01*
X110424494Y-176419463D01*
X110314180Y-176360498D01*
X110245313Y-176339607D01*
X110275134Y-176315134D01*
X110460706Y-176089014D01*
X110598599Y-175831034D01*
X110683513Y-175551111D01*
X110712185Y-175260000D01*
X110683513Y-174968889D01*
X110598599Y-174688966D01*
X110460706Y-174430986D01*
X110275134Y-174204866D01*
X110049014Y-174019294D01*
X109994209Y-173990000D01*
X110049014Y-173960706D01*
X110275134Y-173775134D01*
X110460706Y-173549014D01*
X110598599Y-173291034D01*
X110683513Y-173011111D01*
X110712185Y-172720000D01*
X110683513Y-172428889D01*
X110598599Y-172148966D01*
X110460706Y-171890986D01*
X110275134Y-171664866D01*
X110049014Y-171479294D01*
X109994209Y-171450000D01*
X110049014Y-171420706D01*
X110275134Y-171235134D01*
X110460706Y-171009014D01*
X110598599Y-170751034D01*
X110683513Y-170471111D01*
X110712185Y-170180000D01*
X110683513Y-169888889D01*
X110598599Y-169608966D01*
X110460706Y-169350986D01*
X110275134Y-169124866D01*
X110049014Y-168939294D01*
X109984477Y-168904799D01*
X110101355Y-168835178D01*
X110317588Y-168640269D01*
X110491641Y-168406920D01*
X110616825Y-168144099D01*
X110661476Y-167996890D01*
X110540155Y-167767000D01*
X109347000Y-167767000D01*
X109347000Y-167787000D01*
X109093000Y-167787000D01*
X109093000Y-167767000D01*
X107899845Y-167767000D01*
X107778524Y-167996890D01*
X107823175Y-168144099D01*
X107948359Y-168406920D01*
X108122412Y-168640269D01*
X108338645Y-168835178D01*
X108455523Y-168904799D01*
X108390986Y-168939294D01*
X108164866Y-169124866D01*
X107979294Y-169350986D01*
X107841401Y-169608966D01*
X107756487Y-169888889D01*
X107727815Y-170180000D01*
X107756487Y-170471111D01*
X107841401Y-170751034D01*
X107979294Y-171009014D01*
X108164866Y-171235134D01*
X108390986Y-171420706D01*
X108445791Y-171450000D01*
X108390986Y-171479294D01*
X108164866Y-171664866D01*
X108148342Y-171685000D01*
X104568711Y-171685000D01*
X102635000Y-169751290D01*
X102635000Y-167283110D01*
X107778524Y-167283110D01*
X107899845Y-167513000D01*
X109093000Y-167513000D01*
X109093000Y-166319186D01*
X109347000Y-166319186D01*
X109347000Y-167513000D01*
X110540155Y-167513000D01*
X110661476Y-167283110D01*
X110616825Y-167135901D01*
X110491641Y-166873080D01*
X110317588Y-166639731D01*
X110101355Y-166444822D01*
X109851252Y-166295843D01*
X109576891Y-166198519D01*
X109347000Y-166319186D01*
X109093000Y-166319186D01*
X108863109Y-166198519D01*
X108588748Y-166295843D01*
X108338645Y-166444822D01*
X108122412Y-166639731D01*
X107948359Y-166873080D01*
X107823175Y-167135901D01*
X107778524Y-167283110D01*
X102635000Y-167283110D01*
X102635000Y-154990827D01*
X102640006Y-154939999D01*
X102635000Y-154889171D01*
X102635000Y-154889162D01*
X102620024Y-154737105D01*
X102560841Y-154542007D01*
X102468349Y-154368966D01*
X102464734Y-154362202D01*
X102367803Y-154244092D01*
X102335396Y-154204604D01*
X102295908Y-154172197D01*
X100549632Y-152425922D01*
X100552185Y-152400000D01*
X100523513Y-152108889D01*
X100438599Y-151828966D01*
X100300706Y-151570986D01*
X100115134Y-151344866D01*
X99889014Y-151159294D01*
X99834209Y-151130000D01*
X99889014Y-151100706D01*
X100115134Y-150915134D01*
X100300706Y-150689014D01*
X100438599Y-150431034D01*
X100523513Y-150151111D01*
X100552185Y-149860000D01*
X100523513Y-149568889D01*
X100438599Y-149288966D01*
X100300706Y-149030986D01*
X100115134Y-148804866D01*
X99889014Y-148619294D01*
X99824477Y-148584799D01*
X99941355Y-148515178D01*
X100157588Y-148320269D01*
X100331641Y-148086920D01*
X100456825Y-147824099D01*
X100501476Y-147676890D01*
X100380155Y-147447000D01*
X99187000Y-147447000D01*
X99187000Y-147467000D01*
X98933000Y-147467000D01*
X98933000Y-147447000D01*
X97739845Y-147447000D01*
X97618524Y-147676890D01*
X97663175Y-147824099D01*
X97788359Y-148086920D01*
X97962412Y-148320269D01*
X98178645Y-148515178D01*
X98295523Y-148584799D01*
X98230986Y-148619294D01*
X98004866Y-148804866D01*
X97819294Y-149030986D01*
X97681401Y-149288966D01*
X97596487Y-149568889D01*
X97567815Y-149860000D01*
X97596487Y-150151111D01*
X97681401Y-150431034D01*
X97819294Y-150689014D01*
X98004866Y-150915134D01*
X98230986Y-151100706D01*
X98285791Y-151130000D01*
X98230986Y-151159294D01*
X98004866Y-151344866D01*
X97819294Y-151570986D01*
X97681401Y-151828966D01*
X97618857Y-152035146D01*
X97555000Y-151971290D01*
X97555000Y-146963110D01*
X97618524Y-146963110D01*
X97739845Y-147193000D01*
X98933000Y-147193000D01*
X98933000Y-145999186D01*
X99187000Y-145999186D01*
X99187000Y-147193000D01*
X100380155Y-147193000D01*
X100501476Y-146963110D01*
X100456825Y-146815901D01*
X100331641Y-146553080D01*
X100157588Y-146319731D01*
X99941355Y-146124822D01*
X99691252Y-145975843D01*
X99416891Y-145878519D01*
X99187000Y-145999186D01*
X98933000Y-145999186D01*
X98703109Y-145878519D01*
X98428748Y-145975843D01*
X98178645Y-146124822D01*
X97962412Y-146319731D01*
X97788359Y-146553080D01*
X97663175Y-146815901D01*
X97618524Y-146963110D01*
X97555000Y-146963110D01*
X97555000Y-143560827D01*
X97560006Y-143509999D01*
X97555000Y-143459171D01*
X97555000Y-143459162D01*
X97540024Y-143307105D01*
X97480841Y-143112007D01*
X97469079Y-143090000D01*
X97571928Y-143090000D01*
X97584188Y-143214482D01*
X97620498Y-143334180D01*
X97679463Y-143444494D01*
X97758815Y-143541185D01*
X97855506Y-143620537D01*
X97965820Y-143679502D01*
X98085518Y-143715812D01*
X98210000Y-143728072D01*
X98774250Y-143725000D01*
X98933000Y-143566250D01*
X98933000Y-142367000D01*
X99187000Y-142367000D01*
X99187000Y-143566250D01*
X99345750Y-143725000D01*
X99910000Y-143728072D01*
X100034482Y-143715812D01*
X100154180Y-143679502D01*
X100264494Y-143620537D01*
X100361185Y-143541185D01*
X100440537Y-143444494D01*
X100499502Y-143334180D01*
X100535812Y-143214482D01*
X100548072Y-143090000D01*
X100545000Y-142525750D01*
X100386250Y-142367000D01*
X99187000Y-142367000D01*
X98933000Y-142367000D01*
X97733750Y-142367000D01*
X97575000Y-142525750D01*
X97571928Y-143090000D01*
X97469079Y-143090000D01*
X97386714Y-142935907D01*
X97384734Y-142932202D01*
X97287803Y-142814092D01*
X97255396Y-142774604D01*
X97215908Y-142742197D01*
X96713711Y-142240000D01*
X97215908Y-141737803D01*
X97255396Y-141705396D01*
X97290844Y-141662202D01*
X97384734Y-141547798D01*
X97469078Y-141390000D01*
X97480841Y-141367993D01*
X97540024Y-141172895D01*
X97555000Y-141020838D01*
X97555000Y-141020829D01*
X97560006Y-140970001D01*
X97555000Y-140919173D01*
X97555000Y-138858710D01*
X98111261Y-138302450D01*
X98230986Y-138400706D01*
X98285791Y-138430000D01*
X98230986Y-138459294D01*
X98004866Y-138644866D01*
X97819294Y-138870986D01*
X97681401Y-139128966D01*
X97596487Y-139408889D01*
X97567815Y-139700000D01*
X97596487Y-139991111D01*
X97681401Y-140271034D01*
X97819294Y-140529014D01*
X98004866Y-140755134D01*
X98034687Y-140779607D01*
X97965820Y-140800498D01*
X97855506Y-140859463D01*
X97758815Y-140938815D01*
X97679463Y-141035506D01*
X97620498Y-141145820D01*
X97584188Y-141265518D01*
X97571928Y-141390000D01*
X97575000Y-141954250D01*
X97733750Y-142113000D01*
X98933000Y-142113000D01*
X98933000Y-142093000D01*
X99187000Y-142093000D01*
X99187000Y-142113000D01*
X100386250Y-142113000D01*
X100545000Y-141954250D01*
X100548072Y-141390000D01*
X100535812Y-141265518D01*
X100499502Y-141145820D01*
X100440537Y-141035506D01*
X100361185Y-140938815D01*
X100264494Y-140859463D01*
X100154180Y-140800498D01*
X100085313Y-140779607D01*
X100115134Y-140755134D01*
X100300706Y-140529014D01*
X100438599Y-140271034D01*
X100523513Y-139991111D01*
X100552185Y-139700000D01*
X100523513Y-139408889D01*
X100438599Y-139128966D01*
X100300706Y-138870986D01*
X100115134Y-138644866D01*
X99889014Y-138459294D01*
X99834209Y-138430000D01*
X99889014Y-138400706D01*
X100115134Y-138215134D01*
X100300706Y-137989014D01*
X100438599Y-137731034D01*
X100523513Y-137451111D01*
X100552185Y-137160000D01*
X100523513Y-136868889D01*
X100438599Y-136588966D01*
X100300706Y-136330986D01*
X100115134Y-136104866D01*
X99889014Y-135919294D01*
X99834209Y-135890000D01*
X99889014Y-135860706D01*
X100115134Y-135675134D01*
X100300706Y-135449014D01*
X100438599Y-135191034D01*
X100523513Y-134911111D01*
X100552185Y-134620000D01*
X100523513Y-134328889D01*
X100438599Y-134048966D01*
X100300706Y-133790986D01*
X100115134Y-133564866D01*
X99889014Y-133379294D01*
X99834209Y-133350000D01*
X99889014Y-133320706D01*
X100115134Y-133135134D01*
X100300706Y-132909014D01*
X100438599Y-132651034D01*
X100523513Y-132371111D01*
X100552185Y-132080000D01*
X100523513Y-131788889D01*
X100438599Y-131508966D01*
X100300706Y-131250986D01*
X100115134Y-131024866D01*
X99889014Y-130839294D01*
X99824477Y-130804799D01*
X99941355Y-130735178D01*
X100157588Y-130540269D01*
X100331641Y-130306920D01*
X100456825Y-130044099D01*
X100501476Y-129896890D01*
X100380155Y-129667000D01*
X99187000Y-129667000D01*
X99187000Y-129687000D01*
X98933000Y-129687000D01*
X98933000Y-129667000D01*
X97739845Y-129667000D01*
X97618524Y-129896890D01*
X97663175Y-130044099D01*
X97788359Y-130306920D01*
X97962412Y-130540269D01*
X98178645Y-130735178D01*
X98295523Y-130804799D01*
X98230986Y-130839294D01*
X98004866Y-131024866D01*
X97819294Y-131250986D01*
X97681401Y-131508966D01*
X97596487Y-131788889D01*
X97567815Y-132080000D01*
X97596487Y-132371111D01*
X97681401Y-132651034D01*
X97819294Y-132909014D01*
X98004866Y-133135134D01*
X98230986Y-133320706D01*
X98285791Y-133350000D01*
X98230986Y-133379294D01*
X98004866Y-133564866D01*
X97988342Y-133585000D01*
X95051658Y-133585000D01*
X95035134Y-133564866D01*
X94809014Y-133379294D01*
X94754209Y-133350000D01*
X94809014Y-133320706D01*
X95035134Y-133135134D01*
X95220706Y-132909014D01*
X95358599Y-132651034D01*
X95443513Y-132371111D01*
X95472185Y-132080000D01*
X95443513Y-131788889D01*
X95358599Y-131508966D01*
X95220706Y-131250986D01*
X95035134Y-131024866D01*
X95005313Y-131000393D01*
X95074180Y-130979502D01*
X95184494Y-130920537D01*
X95281185Y-130841185D01*
X95360537Y-130744494D01*
X95419502Y-130634180D01*
X95455812Y-130514482D01*
X95468072Y-130390000D01*
X95468072Y-129183110D01*
X97618524Y-129183110D01*
X97739845Y-129413000D01*
X98933000Y-129413000D01*
X98933000Y-128219186D01*
X99187000Y-128219186D01*
X99187000Y-129413000D01*
X100380155Y-129413000D01*
X100501476Y-129183110D01*
X100456825Y-129035901D01*
X100331641Y-128773080D01*
X100157588Y-128539731D01*
X99941355Y-128344822D01*
X99691252Y-128195843D01*
X99416891Y-128098519D01*
X99187000Y-128219186D01*
X98933000Y-128219186D01*
X98703109Y-128098519D01*
X98428748Y-128195843D01*
X98178645Y-128344822D01*
X97962412Y-128539731D01*
X97788359Y-128773080D01*
X97663175Y-129035901D01*
X97618524Y-129183110D01*
X95468072Y-129183110D01*
X95468072Y-128690000D01*
X95455812Y-128565518D01*
X95419502Y-128445820D01*
X95360537Y-128335506D01*
X95281185Y-128238815D01*
X95184494Y-128159463D01*
X95074180Y-128100498D01*
X94954482Y-128064188D01*
X94830000Y-128051928D01*
X93130000Y-128051928D01*
X93120885Y-128052826D01*
X93138711Y-128035000D01*
X93929172Y-128035000D01*
X93980000Y-128040006D01*
X94030828Y-128035000D01*
X94030838Y-128035000D01*
X94182895Y-128020024D01*
X94377993Y-127960841D01*
X94557797Y-127864734D01*
X94715396Y-127735396D01*
X94747807Y-127695903D01*
X97215908Y-125227803D01*
X97255396Y-125195396D01*
X97290844Y-125152203D01*
X97384734Y-125037798D01*
X97436104Y-124941691D01*
X97480841Y-124857993D01*
X97540024Y-124662895D01*
X97555000Y-124510838D01*
X97555000Y-124510829D01*
X97560006Y-124460001D01*
X97555000Y-124409173D01*
X97555000Y-112831658D01*
X97575134Y-112815134D01*
X97760706Y-112589014D01*
X97898599Y-112331034D01*
X97983513Y-112051111D01*
X98012185Y-111760000D01*
X97983513Y-111468889D01*
X97898599Y-111188966D01*
X97760706Y-110930986D01*
X97575134Y-110704866D01*
X97349014Y-110519294D01*
X97091034Y-110381401D01*
X96811111Y-110296487D01*
X96592950Y-110275000D01*
X96447050Y-110275000D01*
X96228889Y-110296487D01*
X95948966Y-110381401D01*
X95690986Y-110519294D01*
X95464866Y-110704866D01*
X95279294Y-110930986D01*
X95250000Y-110985791D01*
X95220706Y-110930986D01*
X95035134Y-110704866D01*
X94809014Y-110519294D01*
X94551034Y-110381401D01*
X94271111Y-110296487D01*
X94052950Y-110275000D01*
X93907050Y-110275000D01*
X93688889Y-110296487D01*
X93408966Y-110381401D01*
X93150986Y-110519294D01*
X92924866Y-110704866D01*
X92739294Y-110930986D01*
X92710000Y-110985791D01*
X92680706Y-110930986D01*
X92495134Y-110704866D01*
X92269014Y-110519294D01*
X92011034Y-110381401D01*
X91731111Y-110296487D01*
X91512950Y-110275000D01*
X91367050Y-110275000D01*
X91148889Y-110296487D01*
X90868966Y-110381401D01*
X90610986Y-110519294D01*
X90384866Y-110704866D01*
X90199294Y-110930986D01*
X90170000Y-110985791D01*
X90140706Y-110930986D01*
X89955134Y-110704866D01*
X89729014Y-110519294D01*
X89471034Y-110381401D01*
X89191111Y-110296487D01*
X88972950Y-110275000D01*
X88827050Y-110275000D01*
X88608889Y-110296487D01*
X88328966Y-110381401D01*
X88070986Y-110519294D01*
X87844866Y-110704866D01*
X87659294Y-110930986D01*
X87630000Y-110985791D01*
X87600706Y-110930986D01*
X87415134Y-110704866D01*
X87189014Y-110519294D01*
X86931034Y-110381401D01*
X86651111Y-110296487D01*
X86432950Y-110275000D01*
X86287050Y-110275000D01*
X86068889Y-110296487D01*
X85788966Y-110381401D01*
X85530986Y-110519294D01*
X85304866Y-110704866D01*
X85119294Y-110930986D01*
X85084799Y-110995523D01*
X85015178Y-110878645D01*
X84820269Y-110662412D01*
X84586920Y-110488359D01*
X84324099Y-110363175D01*
X84176890Y-110318524D01*
X83947000Y-110439845D01*
X83947000Y-111633000D01*
X83967000Y-111633000D01*
X83967000Y-111887000D01*
X83947000Y-111887000D01*
X83947000Y-113080155D01*
X84176890Y-113201476D01*
X84324099Y-113156825D01*
X84586920Y-113031641D01*
X84820269Y-112857588D01*
X85015178Y-112641355D01*
X85084799Y-112524477D01*
X85119294Y-112589014D01*
X85304866Y-112815134D01*
X85530986Y-113000706D01*
X85788966Y-113138599D01*
X86068889Y-113223513D01*
X86287050Y-113245000D01*
X86432950Y-113245000D01*
X86651111Y-113223513D01*
X86931034Y-113138599D01*
X87189014Y-113000706D01*
X87415134Y-112815134D01*
X87600706Y-112589014D01*
X87630000Y-112534209D01*
X87659294Y-112589014D01*
X87844866Y-112815134D01*
X88070986Y-113000706D01*
X88328966Y-113138599D01*
X88608889Y-113223513D01*
X88827050Y-113245000D01*
X88972950Y-113245000D01*
X89191111Y-113223513D01*
X89471034Y-113138599D01*
X89729014Y-113000706D01*
X89955134Y-112815134D01*
X90140706Y-112589014D01*
X90170000Y-112534209D01*
X90199294Y-112589014D01*
X90384866Y-112815134D01*
X90405000Y-112831658D01*
X90405001Y-121491288D01*
X86934097Y-124962193D01*
X86894604Y-124994604D01*
X86765266Y-125152203D01*
X86669159Y-125332008D01*
X86609976Y-125527106D01*
X86595000Y-125679163D01*
X86595000Y-125679172D01*
X86589994Y-125730000D01*
X86595000Y-125780828D01*
X86595001Y-153241288D01*
X85931290Y-153905000D01*
X72191658Y-153905000D01*
X72175134Y-153884866D01*
X71949014Y-153699294D01*
X71894209Y-153670000D01*
X71949014Y-153640706D01*
X72175134Y-153455134D01*
X72360706Y-153229014D01*
X72498599Y-152971034D01*
X72583513Y-152691111D01*
X72612185Y-152400000D01*
X72583513Y-152108889D01*
X72498599Y-151828966D01*
X72360706Y-151570986D01*
X72175134Y-151344866D01*
X71949014Y-151159294D01*
X71894209Y-151130000D01*
X71949014Y-151100706D01*
X72175134Y-150915134D01*
X72360706Y-150689014D01*
X72498599Y-150431034D01*
X72583513Y-150151111D01*
X72612185Y-149860000D01*
X72583513Y-149568889D01*
X72498599Y-149288966D01*
X72360706Y-149030986D01*
X72175134Y-148804866D01*
X71949014Y-148619294D01*
X71894209Y-148590000D01*
X71949014Y-148560706D01*
X72175134Y-148375134D01*
X72360706Y-148149014D01*
X72498599Y-147891034D01*
X72583513Y-147611111D01*
X72612185Y-147320000D01*
X72583513Y-147028889D01*
X72498599Y-146748966D01*
X72360706Y-146490986D01*
X72175134Y-146264866D01*
X71949014Y-146079294D01*
X71894209Y-146050000D01*
X71949014Y-146020706D01*
X72175134Y-145835134D01*
X72360706Y-145609014D01*
X72498599Y-145351034D01*
X72583513Y-145071111D01*
X72612185Y-144780000D01*
X72583513Y-144488889D01*
X72498599Y-144208966D01*
X72360706Y-143950986D01*
X72175134Y-143724866D01*
X71949014Y-143539294D01*
X71894209Y-143510000D01*
X71949014Y-143480706D01*
X72175134Y-143295134D01*
X72360706Y-143069014D01*
X72498599Y-142811034D01*
X72583513Y-142531111D01*
X72612185Y-142240000D01*
X72583513Y-141948889D01*
X72498599Y-141668966D01*
X72360706Y-141410986D01*
X72175134Y-141184866D01*
X71949014Y-140999294D01*
X71894209Y-140970000D01*
X71949014Y-140940706D01*
X72175134Y-140755134D01*
X72360706Y-140529014D01*
X72498599Y-140271034D01*
X72583513Y-139991111D01*
X72612185Y-139700000D01*
X72583513Y-139408889D01*
X72498599Y-139128966D01*
X72360706Y-138870986D01*
X72175134Y-138644866D01*
X71949014Y-138459294D01*
X71894209Y-138430000D01*
X71949014Y-138400706D01*
X72175134Y-138215134D01*
X72360706Y-137989014D01*
X72498599Y-137731034D01*
X72583513Y-137451111D01*
X72612185Y-137160000D01*
X72583513Y-136868889D01*
X72498599Y-136588966D01*
X72360706Y-136330986D01*
X72175134Y-136104866D01*
X71949014Y-135919294D01*
X71894209Y-135890000D01*
X71949014Y-135860706D01*
X72175134Y-135675134D01*
X72360706Y-135449014D01*
X72498599Y-135191034D01*
X72583513Y-134911111D01*
X72612185Y-134620000D01*
X72583513Y-134328889D01*
X72498599Y-134048966D01*
X72360706Y-133790986D01*
X72175134Y-133564866D01*
X71949014Y-133379294D01*
X71894209Y-133350000D01*
X71949014Y-133320706D01*
X72175134Y-133135134D01*
X72360706Y-132909014D01*
X72498599Y-132651034D01*
X72583513Y-132371111D01*
X72612185Y-132080000D01*
X72583513Y-131788889D01*
X72498599Y-131508966D01*
X72360706Y-131250986D01*
X72175134Y-131024866D01*
X71949014Y-130839294D01*
X71884477Y-130804799D01*
X72001355Y-130735178D01*
X72217588Y-130540269D01*
X72391641Y-130306920D01*
X72516825Y-130044099D01*
X72561476Y-129896890D01*
X72440155Y-129667000D01*
X71247000Y-129667000D01*
X71247000Y-129687000D01*
X70993000Y-129687000D01*
X70993000Y-129667000D01*
X69799845Y-129667000D01*
X69678524Y-129896890D01*
X69723175Y-130044099D01*
X69848359Y-130306920D01*
X70022412Y-130540269D01*
X70238645Y-130735178D01*
X70355523Y-130804799D01*
X70290986Y-130839294D01*
X70064866Y-131024866D01*
X69879294Y-131250986D01*
X69741401Y-131508966D01*
X69656487Y-131788889D01*
X69627815Y-132080000D01*
X69656487Y-132371111D01*
X69741401Y-132651034D01*
X69879294Y-132909014D01*
X70064866Y-133135134D01*
X70290986Y-133320706D01*
X70345791Y-133350000D01*
X70290986Y-133379294D01*
X70064866Y-133564866D01*
X69879294Y-133790986D01*
X69741401Y-134048966D01*
X69656487Y-134328889D01*
X69627815Y-134620000D01*
X69656487Y-134911111D01*
X69741401Y-135191034D01*
X69879294Y-135449014D01*
X70064866Y-135675134D01*
X70290986Y-135860706D01*
X70345791Y-135890000D01*
X70290986Y-135919294D01*
X70064866Y-136104866D01*
X69879294Y-136330986D01*
X69741401Y-136588966D01*
X69656487Y-136868889D01*
X69627815Y-137160000D01*
X69656487Y-137451111D01*
X69741401Y-137731034D01*
X69879294Y-137989014D01*
X70064866Y-138215134D01*
X70290986Y-138400706D01*
X70345791Y-138430000D01*
X70290986Y-138459294D01*
X70064866Y-138644866D01*
X69879294Y-138870986D01*
X69741401Y-139128966D01*
X69656487Y-139408889D01*
X69627815Y-139700000D01*
X69656487Y-139991111D01*
X69741401Y-140271034D01*
X69879294Y-140529014D01*
X70064866Y-140755134D01*
X70290986Y-140940706D01*
X70345791Y-140970000D01*
X70290986Y-140999294D01*
X70064866Y-141184866D01*
X70048342Y-141205000D01*
X69008711Y-141205000D01*
X68345000Y-140541290D01*
X68345000Y-129183110D01*
X69678524Y-129183110D01*
X69799845Y-129413000D01*
X70993000Y-129413000D01*
X70993000Y-128219186D01*
X71247000Y-128219186D01*
X71247000Y-129413000D01*
X72440155Y-129413000D01*
X72561476Y-129183110D01*
X72516825Y-129035901D01*
X72391641Y-128773080D01*
X72217588Y-128539731D01*
X72001355Y-128344822D01*
X71751252Y-128195843D01*
X71476891Y-128098519D01*
X71247000Y-128219186D01*
X70993000Y-128219186D01*
X70763109Y-128098519D01*
X70488748Y-128195843D01*
X70238645Y-128344822D01*
X70022412Y-128539731D01*
X69848359Y-128773080D01*
X69723175Y-129035901D01*
X69678524Y-129183110D01*
X68345000Y-129183110D01*
X68345000Y-121778665D01*
X69685000Y-121778665D01*
X69685000Y-122061335D01*
X69740147Y-122338574D01*
X69848320Y-122599727D01*
X70005363Y-122834759D01*
X70205241Y-123034637D01*
X70440273Y-123191680D01*
X70701426Y-123299853D01*
X70978665Y-123355000D01*
X71261335Y-123355000D01*
X71538574Y-123299853D01*
X71799727Y-123191680D01*
X72034759Y-123034637D01*
X72234637Y-122834759D01*
X72391680Y-122599727D01*
X72499853Y-122338574D01*
X72555000Y-122061335D01*
X72555000Y-121778665D01*
X72499853Y-121501426D01*
X72391680Y-121240273D01*
X72234637Y-121005241D01*
X72034759Y-120805363D01*
X71799727Y-120648320D01*
X71538574Y-120540147D01*
X71261335Y-120485000D01*
X70978665Y-120485000D01*
X70701426Y-120540147D01*
X70440273Y-120648320D01*
X70205241Y-120805363D01*
X70005363Y-121005241D01*
X69848320Y-121240273D01*
X69740147Y-121501426D01*
X69685000Y-121778665D01*
X68345000Y-121778665D01*
X68345000Y-114278665D01*
X69685000Y-114278665D01*
X69685000Y-114561335D01*
X69740147Y-114838574D01*
X69848320Y-115099727D01*
X70005363Y-115334759D01*
X70205241Y-115534637D01*
X70440273Y-115691680D01*
X70701426Y-115799853D01*
X70978665Y-115855000D01*
X71261335Y-115855000D01*
X71538574Y-115799853D01*
X71799727Y-115691680D01*
X72034759Y-115534637D01*
X72234637Y-115334759D01*
X72391680Y-115099727D01*
X72499853Y-114838574D01*
X72555000Y-114561335D01*
X72555000Y-114278665D01*
X72499853Y-114001426D01*
X72391680Y-113740273D01*
X72234637Y-113505241D01*
X72034759Y-113305363D01*
X71799727Y-113148320D01*
X71538574Y-113040147D01*
X71261335Y-112985000D01*
X70978665Y-112985000D01*
X70701426Y-113040147D01*
X70440273Y-113148320D01*
X70205241Y-113305363D01*
X70005363Y-113505241D01*
X69848320Y-113740273D01*
X69740147Y-114001426D01*
X69685000Y-114278665D01*
X68345000Y-114278665D01*
X68345000Y-113458710D01*
X70893710Y-110910000D01*
X79791928Y-110910000D01*
X79791928Y-112610000D01*
X79804188Y-112734482D01*
X79840498Y-112854180D01*
X79899463Y-112964494D01*
X79978815Y-113061185D01*
X80075506Y-113140537D01*
X80185820Y-113199502D01*
X80305518Y-113235812D01*
X80430000Y-113248072D01*
X82130000Y-113248072D01*
X82254482Y-113235812D01*
X82374180Y-113199502D01*
X82484494Y-113140537D01*
X82581185Y-113061185D01*
X82660537Y-112964494D01*
X82719502Y-112854180D01*
X82743966Y-112773534D01*
X82819731Y-112857588D01*
X83053080Y-113031641D01*
X83315901Y-113156825D01*
X83463110Y-113201476D01*
X83693000Y-113080155D01*
X83693000Y-111887000D01*
X83673000Y-111887000D01*
X83673000Y-111633000D01*
X83693000Y-111633000D01*
X83693000Y-110439845D01*
X83463110Y-110318524D01*
X83315901Y-110363175D01*
X83053080Y-110488359D01*
X82819731Y-110662412D01*
X82743966Y-110746466D01*
X82719502Y-110665820D01*
X82660537Y-110555506D01*
X82581185Y-110458815D01*
X82484494Y-110379463D01*
X82374180Y-110320498D01*
X82254482Y-110284188D01*
X82130000Y-110271928D01*
X80430000Y-110271928D01*
X80305518Y-110284188D01*
X80185820Y-110320498D01*
X80075506Y-110379463D01*
X79978815Y-110458815D01*
X79899463Y-110555506D01*
X79840498Y-110665820D01*
X79804188Y-110785518D01*
X79791928Y-110910000D01*
X70893710Y-110910000D01*
X71095639Y-110708072D01*
X71970000Y-110708072D01*
X72094482Y-110695812D01*
X72214180Y-110659502D01*
X72324494Y-110600537D01*
X72421185Y-110521185D01*
X72500537Y-110424494D01*
X72559502Y-110314180D01*
X72580393Y-110245313D01*
X72604866Y-110275134D01*
X72830986Y-110460706D01*
X73088966Y-110598599D01*
X73368889Y-110683513D01*
X73587050Y-110705000D01*
X73732950Y-110705000D01*
X73951111Y-110683513D01*
X74231034Y-110598599D01*
X74489014Y-110460706D01*
X74715134Y-110275134D01*
X74900706Y-110049014D01*
X74930000Y-109994209D01*
X74959294Y-110049014D01*
X75144866Y-110275134D01*
X75370986Y-110460706D01*
X75628966Y-110598599D01*
X75908889Y-110683513D01*
X76127050Y-110705000D01*
X76272950Y-110705000D01*
X76491111Y-110683513D01*
X76771034Y-110598599D01*
X77029014Y-110460706D01*
X77255134Y-110275134D01*
X77440706Y-110049014D01*
X77470000Y-109994209D01*
X77499294Y-110049014D01*
X77684866Y-110275134D01*
X77910986Y-110460706D01*
X78168966Y-110598599D01*
X78448889Y-110683513D01*
X78667050Y-110705000D01*
X78812950Y-110705000D01*
X79031111Y-110683513D01*
X79311034Y-110598599D01*
X79569014Y-110460706D01*
X79795134Y-110275134D01*
X79980706Y-110049014D01*
X80118599Y-109791034D01*
X80203513Y-109511111D01*
X80232185Y-109220000D01*
X80203513Y-108928889D01*
X80118599Y-108648966D01*
X79980706Y-108390986D01*
X79795134Y-108164866D01*
X79569014Y-107979294D01*
X79311034Y-107841401D01*
X79031111Y-107756487D01*
X78812950Y-107735000D01*
X78667050Y-107735000D01*
X78448889Y-107756487D01*
X78168966Y-107841401D01*
X77910986Y-107979294D01*
X77684866Y-108164866D01*
X77499294Y-108390986D01*
X77470000Y-108445791D01*
X77440706Y-108390986D01*
X77255134Y-108164866D01*
X77029014Y-107979294D01*
X76771034Y-107841401D01*
X76491111Y-107756487D01*
X76272950Y-107735000D01*
X76127050Y-107735000D01*
X75908889Y-107756487D01*
X75628966Y-107841401D01*
X75370986Y-107979294D01*
X75144866Y-108164866D01*
X74959294Y-108390986D01*
X74930000Y-108445791D01*
X74900706Y-108390986D01*
X74715134Y-108164866D01*
X74489014Y-107979294D01*
X74231034Y-107841401D01*
X73951111Y-107756487D01*
X73732950Y-107735000D01*
X73587050Y-107735000D01*
X73368889Y-107756487D01*
X73088966Y-107841401D01*
X72830986Y-107979294D01*
X72604866Y-108164866D01*
X72580393Y-108194687D01*
X72559502Y-108125820D01*
X72500537Y-108015506D01*
X72421185Y-107918815D01*
X72324494Y-107839463D01*
X72214180Y-107780498D01*
X72094482Y-107744188D01*
X71970000Y-107731928D01*
X70270000Y-107731928D01*
X70145518Y-107744188D01*
X70025820Y-107780498D01*
X69915506Y-107839463D01*
X69818815Y-107918815D01*
X69739463Y-108015506D01*
X69680498Y-108125820D01*
X69644188Y-108245518D01*
X69631928Y-108370000D01*
X69631928Y-109244361D01*
X66725000Y-112151290D01*
X66725000Y-107365000D01*
X111075001Y-107365000D01*
X111075000Y-179655000D01*
X111075000Y-179655000D01*
G37*
X111075000Y-179655000D02*
X66725000Y-179655000D01*
X66725000Y-141848710D01*
X67812196Y-142935907D01*
X67844604Y-142975396D01*
X67884092Y-143007803D01*
X68002202Y-143104734D01*
X68098309Y-143156104D01*
X68182007Y-143200841D01*
X68377105Y-143260024D01*
X68529162Y-143275000D01*
X68529171Y-143275000D01*
X68579999Y-143280006D01*
X68630827Y-143275000D01*
X70048342Y-143275000D01*
X70064866Y-143295134D01*
X70290986Y-143480706D01*
X70345791Y-143510000D01*
X70290986Y-143539294D01*
X70064866Y-143724866D01*
X69879294Y-143950986D01*
X69741401Y-144208966D01*
X69656487Y-144488889D01*
X69627815Y-144780000D01*
X69656487Y-145071111D01*
X69741401Y-145351034D01*
X69879294Y-145609014D01*
X70064866Y-145835134D01*
X70290986Y-146020706D01*
X70345791Y-146050000D01*
X70290986Y-146079294D01*
X70064866Y-146264866D01*
X69879294Y-146490986D01*
X69741401Y-146748966D01*
X69656487Y-147028889D01*
X69627815Y-147320000D01*
X69656487Y-147611111D01*
X69741401Y-147891034D01*
X69879294Y-148149014D01*
X70064866Y-148375134D01*
X70290986Y-148560706D01*
X70345791Y-148590000D01*
X70290986Y-148619294D01*
X70064866Y-148804866D01*
X69879294Y-149030986D01*
X69741401Y-149288966D01*
X69656487Y-149568889D01*
X69627815Y-149860000D01*
X69656487Y-150151111D01*
X69741401Y-150431034D01*
X69879294Y-150689014D01*
X70064866Y-150915134D01*
X70290986Y-151100706D01*
X70345791Y-151130000D01*
X70290986Y-151159294D01*
X70064866Y-151344866D01*
X69879294Y-151570986D01*
X69741401Y-151828966D01*
X69656487Y-152108889D01*
X69627815Y-152400000D01*
X69656487Y-152691111D01*
X69741401Y-152971034D01*
X69879294Y-153229014D01*
X70064866Y-153455134D01*
X70290986Y-153640706D01*
X70345791Y-153670000D01*
X70290986Y-153699294D01*
X70064866Y-153884866D01*
X69879294Y-154110986D01*
X69741401Y-154368966D01*
X69656487Y-154648889D01*
X69627815Y-154940000D01*
X69656487Y-155231111D01*
X69741401Y-155511034D01*
X69879294Y-155769014D01*
X70064866Y-155995134D01*
X70290986Y-156180706D01*
X70345791Y-156210000D01*
X70290986Y-156239294D01*
X70064866Y-156424866D01*
X69879294Y-156650986D01*
X69741401Y-156908966D01*
X69656487Y-157188889D01*
X69627815Y-157480000D01*
X69656487Y-157771111D01*
X69741401Y-158051034D01*
X69879294Y-158309014D01*
X70064866Y-158535134D01*
X70290986Y-158720706D01*
X70345791Y-158750000D01*
X70290986Y-158779294D01*
X70064866Y-158964866D01*
X69879294Y-159190986D01*
X69741401Y-159448966D01*
X69656487Y-159728889D01*
X69627815Y-160020000D01*
X69656487Y-160311111D01*
X69741401Y-160591034D01*
X69879294Y-160849014D01*
X70064866Y-161075134D01*
X70290986Y-161260706D01*
X70345791Y-161290000D01*
X70290986Y-161319294D01*
X70064866Y-161504866D01*
X69879294Y-161730986D01*
X69741401Y-161988966D01*
X69656487Y-162268889D01*
X69627815Y-162560000D01*
X69656487Y-162851111D01*
X69741401Y-163131034D01*
X69879294Y-163389014D01*
X70064866Y-163615134D01*
X70290986Y-163800706D01*
X70345791Y-163830000D01*
X70290986Y-163859294D01*
X70064866Y-164044866D01*
X69879294Y-164270986D01*
X69741401Y-164528966D01*
X69656487Y-164808889D01*
X69627815Y-165100000D01*
X69656487Y-165391111D01*
X69741401Y-165671034D01*
X69879294Y-165929014D01*
X70064866Y-166155134D01*
X70094687Y-166179607D01*
X70025820Y-166200498D01*
X69915506Y-166259463D01*
X69818815Y-166338815D01*
X69739463Y-166435506D01*
X69680498Y-166545820D01*
X69644188Y-166665518D01*
X69631928Y-166790000D01*
X69631928Y-168490000D01*
X69644188Y-168614482D01*
X69680498Y-168734180D01*
X69739463Y-168844494D01*
X69818815Y-168941185D01*
X69915506Y-169020537D01*
X70025820Y-169079502D01*
X70145518Y-169115812D01*
X70270000Y-169128072D01*
X71970000Y-169128072D01*
X72094482Y-169115812D01*
X72214180Y-169079502D01*
X72324494Y-169020537D01*
X72421185Y-168941185D01*
X72500537Y-168844494D01*
X72559502Y-168734180D01*
X72595812Y-168614482D01*
X72608072Y-168490000D01*
X72608072Y-166790000D01*
X72595812Y-166665518D01*
X72559502Y-166545820D01*
X72500537Y-166435506D01*
X72421185Y-166338815D01*
X72324494Y-166259463D01*
X72214180Y-166200498D01*
X72145313Y-166179607D01*
X72175134Y-166155134D01*
X72360706Y-165929014D01*
X72498599Y-165671034D01*
X72583513Y-165391111D01*
X72612185Y-165100000D01*
X72583513Y-164808889D01*
X72498599Y-164528966D01*
X72360706Y-164270986D01*
X72175134Y-164044866D01*
X71949014Y-163859294D01*
X71894209Y-163830000D01*
X71949014Y-163800706D01*
X72175134Y-163615134D01*
X72360706Y-163389014D01*
X72498599Y-163131034D01*
X72583513Y-162851111D01*
X72612185Y-162560000D01*
X72583513Y-162268889D01*
X72498599Y-161988966D01*
X72360706Y-161730986D01*
X72175134Y-161504866D01*
X71949014Y-161319294D01*
X71894209Y-161290000D01*
X71949014Y-161260706D01*
X72175134Y-161075134D01*
X72360706Y-160849014D01*
X72498599Y-160591034D01*
X72583513Y-160311111D01*
X72612185Y-160020000D01*
X72583513Y-159728889D01*
X72498599Y-159448966D01*
X72360706Y-159190986D01*
X72175134Y-158964866D01*
X71949014Y-158779294D01*
X71894209Y-158750000D01*
X71949014Y-158720706D01*
X72175134Y-158535134D01*
X72191658Y-158515000D01*
X88849172Y-158515000D01*
X88900000Y-158520006D01*
X88950828Y-158515000D01*
X88950838Y-158515000D01*
X89102895Y-158500024D01*
X89297993Y-158440841D01*
X89477797Y-158344734D01*
X89635396Y-158215396D01*
X89667807Y-158175903D01*
X90865908Y-156977803D01*
X90905396Y-156945396D01*
X90940844Y-156902203D01*
X91034734Y-156787798D01*
X91107861Y-156650986D01*
X91130841Y-156607993D01*
X91190024Y-156412895D01*
X91205000Y-156260838D01*
X91205000Y-156260829D01*
X91210006Y-156210001D01*
X91205000Y-156159173D01*
X91205000Y-148548710D01*
X92490368Y-149834079D01*
X92487815Y-149860000D01*
X92516487Y-150151111D01*
X92601401Y-150431034D01*
X92739294Y-150689014D01*
X92924866Y-150915134D01*
X93150986Y-151100706D01*
X93205791Y-151130000D01*
X93150986Y-151159294D01*
X92924866Y-151344866D01*
X92739294Y-151570986D01*
X92601401Y-151828966D01*
X92516487Y-152108889D01*
X92487815Y-152400000D01*
X92516487Y-152691111D01*
X92601401Y-152971034D01*
X92739294Y-153229014D01*
X92924866Y-153455134D01*
X93150986Y-153640706D01*
X93205791Y-153670000D01*
X93150986Y-153699294D01*
X92924866Y-153884866D01*
X92739294Y-154110986D01*
X92601401Y-154368966D01*
X92516487Y-154648889D01*
X92487815Y-154940000D01*
X92516487Y-155231111D01*
X92601401Y-155511034D01*
X92739294Y-155769014D01*
X92924866Y-155995134D01*
X93150986Y-156180706D01*
X93205791Y-156210000D01*
X93150986Y-156239294D01*
X92924866Y-156424866D01*
X92739294Y-156650986D01*
X92601401Y-156908966D01*
X92516487Y-157188889D01*
X92487815Y-157480000D01*
X92516487Y-157771111D01*
X92601401Y-158051034D01*
X92739294Y-158309014D01*
X92924866Y-158535134D01*
X93150986Y-158720706D01*
X93205791Y-158750000D01*
X93150986Y-158779294D01*
X92924866Y-158964866D01*
X92739294Y-159190986D01*
X92601401Y-159448966D01*
X92516487Y-159728889D01*
X92487815Y-160020000D01*
X92516487Y-160311111D01*
X92601401Y-160591034D01*
X92739294Y-160849014D01*
X92924866Y-161075134D01*
X93150986Y-161260706D01*
X93205791Y-161290000D01*
X93150986Y-161319294D01*
X92924866Y-161504866D01*
X92739294Y-161730986D01*
X92601401Y-161988966D01*
X92516487Y-162268889D01*
X92487815Y-162560000D01*
X92516487Y-162851111D01*
X92601401Y-163131034D01*
X92739294Y-163389014D01*
X92924866Y-163615134D01*
X93150986Y-163800706D01*
X93205791Y-163830000D01*
X93150986Y-163859294D01*
X92924866Y-164044866D01*
X92739294Y-164270986D01*
X92601401Y-164528966D01*
X92516487Y-164808889D01*
X92487815Y-165100000D01*
X92516487Y-165391111D01*
X92601401Y-165671034D01*
X92739294Y-165929014D01*
X92924866Y-166155134D01*
X93150986Y-166340706D01*
X93205791Y-166370000D01*
X93150986Y-166399294D01*
X92924866Y-166584866D01*
X92739294Y-166810986D01*
X92601401Y-167068966D01*
X92516487Y-167348889D01*
X92487815Y-167640000D01*
X92516487Y-167931111D01*
X92601401Y-168211034D01*
X92739294Y-168469014D01*
X92924866Y-168695134D01*
X93150986Y-168880706D01*
X93408966Y-169018599D01*
X93688889Y-169103513D01*
X93907050Y-169125000D01*
X94052950Y-169125000D01*
X94271111Y-169103513D01*
X94551034Y-169018599D01*
X94809014Y-168880706D01*
X95035134Y-168695134D01*
X95220706Y-168469014D01*
X95358599Y-168211034D01*
X95443513Y-167931111D01*
X95472185Y-167640000D01*
X95443513Y-167348889D01*
X95358599Y-167068966D01*
X95220706Y-166810986D01*
X95035134Y-166584866D01*
X94809014Y-166399294D01*
X94754209Y-166370000D01*
X94809014Y-166340706D01*
X95035134Y-166155134D01*
X95220706Y-165929014D01*
X95358599Y-165671034D01*
X95443513Y-165391111D01*
X95472185Y-165100000D01*
X95443513Y-164808889D01*
X95358599Y-164528966D01*
X95220706Y-164270986D01*
X95035134Y-164044866D01*
X94809014Y-163859294D01*
X94754209Y-163830000D01*
X94809014Y-163800706D01*
X95035134Y-163615134D01*
X95220706Y-163389014D01*
X95358599Y-163131034D01*
X95443513Y-162851111D01*
X95472185Y-162560000D01*
X95443513Y-162268889D01*
X95358599Y-161988966D01*
X95220706Y-161730986D01*
X95035134Y-161504866D01*
X94809014Y-161319294D01*
X94754209Y-161290000D01*
X94809014Y-161260706D01*
X95035134Y-161075134D01*
X95220706Y-160849014D01*
X95358599Y-160591034D01*
X95443513Y-160311111D01*
X95472185Y-160020000D01*
X95443513Y-159728889D01*
X95358599Y-159448966D01*
X95220706Y-159190986D01*
X95035134Y-158964866D01*
X94809014Y-158779294D01*
X94754209Y-158750000D01*
X94809014Y-158720706D01*
X95035134Y-158535134D01*
X95220706Y-158309014D01*
X95358599Y-158051034D01*
X95443513Y-157771111D01*
X95472185Y-157480000D01*
X95443513Y-157188889D01*
X95358599Y-156908966D01*
X95220706Y-156650986D01*
X95035134Y-156424866D01*
X94809014Y-156239294D01*
X94754209Y-156210000D01*
X94809014Y-156180706D01*
X95035134Y-155995134D01*
X95220706Y-155769014D01*
X95358599Y-155511034D01*
X95443513Y-155231111D01*
X95472185Y-154940000D01*
X95443513Y-154648889D01*
X95358599Y-154368966D01*
X95220706Y-154110986D01*
X95035134Y-153884866D01*
X94809014Y-153699294D01*
X94754209Y-153670000D01*
X94809014Y-153640706D01*
X95035134Y-153455134D01*
X95220706Y-153229014D01*
X95358599Y-152971034D01*
X95443513Y-152691111D01*
X95472185Y-152400000D01*
X95443513Y-152108889D01*
X95358599Y-151828966D01*
X95220706Y-151570986D01*
X95035134Y-151344866D01*
X94809014Y-151159294D01*
X94754209Y-151130000D01*
X94809014Y-151100706D01*
X95035134Y-150915134D01*
X95220706Y-150689014D01*
X95358599Y-150431034D01*
X95443513Y-150151111D01*
X95472185Y-149860000D01*
X95443513Y-149568889D01*
X95358599Y-149288966D01*
X95220706Y-149030986D01*
X95035134Y-148804866D01*
X94809014Y-148619294D01*
X94754209Y-148590000D01*
X94809014Y-148560706D01*
X95035134Y-148375134D01*
X95220706Y-148149014D01*
X95358599Y-147891034D01*
X95443513Y-147611111D01*
X95472185Y-147320000D01*
X95443513Y-147028889D01*
X95358599Y-146748966D01*
X95220706Y-146490986D01*
X95035134Y-146264866D01*
X94809014Y-146079294D01*
X94754209Y-146050000D01*
X94809014Y-146020706D01*
X95035134Y-145835134D01*
X95220706Y-145609014D01*
X95358599Y-145351034D01*
X95443513Y-145071111D01*
X95472185Y-144780000D01*
X95443513Y-144488889D01*
X95358599Y-144208966D01*
X95220706Y-143950986D01*
X95035134Y-143724866D01*
X94809014Y-143539294D01*
X94754209Y-143510000D01*
X94809014Y-143480706D01*
X94928739Y-143382450D01*
X95485000Y-143938711D01*
X95485001Y-152349162D01*
X95479994Y-152400000D01*
X95499977Y-152602895D01*
X95559160Y-152797993D01*
X95655266Y-152977797D01*
X95749157Y-153092203D01*
X95784605Y-153135396D01*
X95824092Y-153167802D01*
X97570368Y-154914079D01*
X97567815Y-154940000D01*
X97596487Y-155231111D01*
X97681401Y-155511034D01*
X97819294Y-155769014D01*
X98004866Y-155995134D01*
X98230986Y-156180706D01*
X98285791Y-156210000D01*
X98230986Y-156239294D01*
X98004866Y-156424866D01*
X97819294Y-156650986D01*
X97681401Y-156908966D01*
X97596487Y-157188889D01*
X97567815Y-157480000D01*
X97596487Y-157771111D01*
X97681401Y-158051034D01*
X97819294Y-158309014D01*
X98004866Y-158535134D01*
X98034687Y-158559607D01*
X97965820Y-158580498D01*
X97855506Y-158639463D01*
X97758815Y-158718815D01*
X97679463Y-158815506D01*
X97620498Y-158925820D01*
X97584188Y-159045518D01*
X97571928Y-159170000D01*
X97571928Y-160870000D01*
X97584188Y-160994482D01*
X97620498Y-161114180D01*
X97679463Y-161224494D01*
X97758815Y-161321185D01*
X97855506Y-161400537D01*
X97965820Y-161459502D01*
X98085518Y-161495812D01*
X98210000Y-161508072D01*
X99910000Y-161508072D01*
X100034482Y-161495812D01*
X100154180Y-161459502D01*
X100264494Y-161400537D01*
X100361185Y-161321185D01*
X100440537Y-161224494D01*
X100499502Y-161114180D01*
X100535812Y-160994482D01*
X100548072Y-160870000D01*
X100548072Y-159170000D01*
X100535812Y-159045518D01*
X100499502Y-158925820D01*
X100440537Y-158815506D01*
X100361185Y-158718815D01*
X100264494Y-158639463D01*
X100154180Y-158580498D01*
X100085313Y-158559607D01*
X100115134Y-158535134D01*
X100300706Y-158309014D01*
X100438599Y-158051034D01*
X100523513Y-157771111D01*
X100552185Y-157480000D01*
X100523513Y-157188889D01*
X100438599Y-156908966D01*
X100300706Y-156650986D01*
X100115134Y-156424866D01*
X99889014Y-156239294D01*
X99834209Y-156210000D01*
X99889014Y-156180706D01*
X100115134Y-155995134D01*
X100300706Y-155769014D01*
X100438599Y-155511034D01*
X100501143Y-155304854D01*
X100565001Y-155368712D01*
X100565000Y-170129172D01*
X100559994Y-170180000D01*
X100565000Y-170230828D01*
X100565000Y-170230837D01*
X100579976Y-170382894D01*
X100639159Y-170577992D01*
X100735266Y-170757797D01*
X100864604Y-170915396D01*
X100904097Y-170947807D01*
X103372197Y-173415908D01*
X103404604Y-173455396D01*
X103444092Y-173487803D01*
X103562202Y-173584734D01*
X103658309Y-173636104D01*
X103742007Y-173680841D01*
X103937105Y-173740024D01*
X104089162Y-173755000D01*
X104089171Y-173755000D01*
X104139999Y-173760006D01*
X104190827Y-173755000D01*
X108148342Y-173755000D01*
X108164866Y-173775134D01*
X108390986Y-173960706D01*
X108445791Y-173990000D01*
X108390986Y-174019294D01*
X108164866Y-174204866D01*
X107979294Y-174430986D01*
X107841401Y-174688966D01*
X107756487Y-174968889D01*
X107727815Y-175260000D01*
X107756487Y-175551111D01*
X107841401Y-175831034D01*
X107979294Y-176089014D01*
X108164866Y-176315134D01*
X108194687Y-176339607D01*
X108125820Y-176360498D01*
X108015506Y-176419463D01*
X107918815Y-176498815D01*
X107839463Y-176595506D01*
X107780498Y-176705820D01*
X107744188Y-176825518D01*
X107731928Y-176950000D01*
X107731928Y-178650000D01*
X107744188Y-178774482D01*
X107780498Y-178894180D01*
X107839463Y-179004494D01*
X107918815Y-179101185D01*
X108015506Y-179180537D01*
X108125820Y-179239502D01*
X108245518Y-179275812D01*
X108370000Y-179288072D01*
X110070000Y-179288072D01*
X110194482Y-179275812D01*
X110314180Y-179239502D01*
X110424494Y-179180537D01*
X110521185Y-179101185D01*
X110600537Y-179004494D01*
X110659502Y-178894180D01*
X110695812Y-178774482D01*
X110708072Y-178650000D01*
X110708072Y-176950000D01*
X110695812Y-176825518D01*
X110659502Y-176705820D01*
X110600537Y-176595506D01*
X110521185Y-176498815D01*
X110424494Y-176419463D01*
X110314180Y-176360498D01*
X110245313Y-176339607D01*
X110275134Y-176315134D01*
X110460706Y-176089014D01*
X110598599Y-175831034D01*
X110683513Y-175551111D01*
X110712185Y-175260000D01*
X110683513Y-174968889D01*
X110598599Y-174688966D01*
X110460706Y-174430986D01*
X110275134Y-174204866D01*
X110049014Y-174019294D01*
X109994209Y-173990000D01*
X110049014Y-173960706D01*
X110275134Y-173775134D01*
X110460706Y-173549014D01*
X110598599Y-173291034D01*
X110683513Y-173011111D01*
X110712185Y-172720000D01*
X110683513Y-172428889D01*
X110598599Y-172148966D01*
X110460706Y-171890986D01*
X110275134Y-171664866D01*
X110049014Y-171479294D01*
X109994209Y-171450000D01*
X110049014Y-171420706D01*
X110275134Y-171235134D01*
X110460706Y-171009014D01*
X110598599Y-170751034D01*
X110683513Y-170471111D01*
X110712185Y-170180000D01*
X110683513Y-169888889D01*
X110598599Y-169608966D01*
X110460706Y-169350986D01*
X110275134Y-169124866D01*
X110049014Y-168939294D01*
X109984477Y-168904799D01*
X110101355Y-168835178D01*
X110317588Y-168640269D01*
X110491641Y-168406920D01*
X110616825Y-168144099D01*
X110661476Y-167996890D01*
X110540155Y-167767000D01*
X109347000Y-167767000D01*
X109347000Y-167787000D01*
X109093000Y-167787000D01*
X109093000Y-167767000D01*
X107899845Y-167767000D01*
X107778524Y-167996890D01*
X107823175Y-168144099D01*
X107948359Y-168406920D01*
X108122412Y-168640269D01*
X108338645Y-168835178D01*
X108455523Y-168904799D01*
X108390986Y-168939294D01*
X108164866Y-169124866D01*
X107979294Y-169350986D01*
X107841401Y-169608966D01*
X107756487Y-169888889D01*
X107727815Y-170180000D01*
X107756487Y-170471111D01*
X107841401Y-170751034D01*
X107979294Y-171009014D01*
X108164866Y-171235134D01*
X108390986Y-171420706D01*
X108445791Y-171450000D01*
X108390986Y-171479294D01*
X108164866Y-171664866D01*
X108148342Y-171685000D01*
X104568711Y-171685000D01*
X102635000Y-169751290D01*
X102635000Y-167283110D01*
X107778524Y-167283110D01*
X107899845Y-167513000D01*
X109093000Y-167513000D01*
X109093000Y-166319186D01*
X109347000Y-166319186D01*
X109347000Y-167513000D01*
X110540155Y-167513000D01*
X110661476Y-167283110D01*
X110616825Y-167135901D01*
X110491641Y-166873080D01*
X110317588Y-166639731D01*
X110101355Y-166444822D01*
X109851252Y-166295843D01*
X109576891Y-166198519D01*
X109347000Y-166319186D01*
X109093000Y-166319186D01*
X108863109Y-166198519D01*
X108588748Y-166295843D01*
X108338645Y-166444822D01*
X108122412Y-166639731D01*
X107948359Y-166873080D01*
X107823175Y-167135901D01*
X107778524Y-167283110D01*
X102635000Y-167283110D01*
X102635000Y-154990827D01*
X102640006Y-154939999D01*
X102635000Y-154889171D01*
X102635000Y-154889162D01*
X102620024Y-154737105D01*
X102560841Y-154542007D01*
X102468349Y-154368966D01*
X102464734Y-154362202D01*
X102367803Y-154244092D01*
X102335396Y-154204604D01*
X102295908Y-154172197D01*
X100549632Y-152425922D01*
X100552185Y-152400000D01*
X100523513Y-152108889D01*
X100438599Y-151828966D01*
X100300706Y-151570986D01*
X100115134Y-151344866D01*
X99889014Y-151159294D01*
X99834209Y-151130000D01*
X99889014Y-151100706D01*
X100115134Y-150915134D01*
X100300706Y-150689014D01*
X100438599Y-150431034D01*
X100523513Y-150151111D01*
X100552185Y-149860000D01*
X100523513Y-149568889D01*
X100438599Y-149288966D01*
X100300706Y-149030986D01*
X100115134Y-148804866D01*
X99889014Y-148619294D01*
X99824477Y-148584799D01*
X99941355Y-148515178D01*
X100157588Y-148320269D01*
X100331641Y-148086920D01*
X100456825Y-147824099D01*
X100501476Y-147676890D01*
X100380155Y-147447000D01*
X99187000Y-147447000D01*
X99187000Y-147467000D01*
X98933000Y-147467000D01*
X98933000Y-147447000D01*
X97739845Y-147447000D01*
X97618524Y-147676890D01*
X97663175Y-147824099D01*
X97788359Y-148086920D01*
X97962412Y-148320269D01*
X98178645Y-148515178D01*
X98295523Y-148584799D01*
X98230986Y-148619294D01*
X98004866Y-148804866D01*
X97819294Y-149030986D01*
X97681401Y-149288966D01*
X97596487Y-149568889D01*
X97567815Y-149860000D01*
X97596487Y-150151111D01*
X97681401Y-150431034D01*
X97819294Y-150689014D01*
X98004866Y-150915134D01*
X98230986Y-151100706D01*
X98285791Y-151130000D01*
X98230986Y-151159294D01*
X98004866Y-151344866D01*
X97819294Y-151570986D01*
X97681401Y-151828966D01*
X97618857Y-152035146D01*
X97555000Y-151971290D01*
X97555000Y-146963110D01*
X97618524Y-146963110D01*
X97739845Y-147193000D01*
X98933000Y-147193000D01*
X98933000Y-145999186D01*
X99187000Y-145999186D01*
X99187000Y-147193000D01*
X100380155Y-147193000D01*
X100501476Y-146963110D01*
X100456825Y-146815901D01*
X100331641Y-146553080D01*
X100157588Y-146319731D01*
X99941355Y-146124822D01*
X99691252Y-145975843D01*
X99416891Y-145878519D01*
X99187000Y-145999186D01*
X98933000Y-145999186D01*
X98703109Y-145878519D01*
X98428748Y-145975843D01*
X98178645Y-146124822D01*
X97962412Y-146319731D01*
X97788359Y-146553080D01*
X97663175Y-146815901D01*
X97618524Y-146963110D01*
X97555000Y-146963110D01*
X97555000Y-143560827D01*
X97560006Y-143509999D01*
X97555000Y-143459171D01*
X97555000Y-143459162D01*
X97540024Y-143307105D01*
X97480841Y-143112007D01*
X97469079Y-143090000D01*
X97571928Y-143090000D01*
X97584188Y-143214482D01*
X97620498Y-143334180D01*
X97679463Y-143444494D01*
X97758815Y-143541185D01*
X97855506Y-143620537D01*
X97965820Y-143679502D01*
X98085518Y-143715812D01*
X98210000Y-143728072D01*
X98774250Y-143725000D01*
X98933000Y-143566250D01*
X98933000Y-142367000D01*
X99187000Y-142367000D01*
X99187000Y-143566250D01*
X99345750Y-143725000D01*
X99910000Y-143728072D01*
X100034482Y-143715812D01*
X100154180Y-143679502D01*
X100264494Y-143620537D01*
X100361185Y-143541185D01*
X100440537Y-143444494D01*
X100499502Y-143334180D01*
X100535812Y-143214482D01*
X100548072Y-143090000D01*
X100545000Y-142525750D01*
X100386250Y-142367000D01*
X99187000Y-142367000D01*
X98933000Y-142367000D01*
X97733750Y-142367000D01*
X97575000Y-142525750D01*
X97571928Y-143090000D01*
X97469079Y-143090000D01*
X97386714Y-142935907D01*
X97384734Y-142932202D01*
X97287803Y-142814092D01*
X97255396Y-142774604D01*
X97215908Y-142742197D01*
X96713711Y-142240000D01*
X97215908Y-141737803D01*
X97255396Y-141705396D01*
X97290844Y-141662202D01*
X97384734Y-141547798D01*
X97469078Y-141390000D01*
X97480841Y-141367993D01*
X97540024Y-141172895D01*
X97555000Y-141020838D01*
X97555000Y-141020829D01*
X97560006Y-140970001D01*
X97555000Y-140919173D01*
X97555000Y-138858710D01*
X98111261Y-138302450D01*
X98230986Y-138400706D01*
X98285791Y-138430000D01*
X98230986Y-138459294D01*
X98004866Y-138644866D01*
X97819294Y-138870986D01*
X97681401Y-139128966D01*
X97596487Y-139408889D01*
X97567815Y-139700000D01*
X97596487Y-139991111D01*
X97681401Y-140271034D01*
X97819294Y-140529014D01*
X98004866Y-140755134D01*
X98034687Y-140779607D01*
X97965820Y-140800498D01*
X97855506Y-140859463D01*
X97758815Y-140938815D01*
X97679463Y-141035506D01*
X97620498Y-141145820D01*
X97584188Y-141265518D01*
X97571928Y-141390000D01*
X97575000Y-141954250D01*
X97733750Y-142113000D01*
X98933000Y-142113000D01*
X98933000Y-142093000D01*
X99187000Y-142093000D01*
X99187000Y-142113000D01*
X100386250Y-142113000D01*
X100545000Y-141954250D01*
X100548072Y-141390000D01*
X100535812Y-141265518D01*
X100499502Y-141145820D01*
X100440537Y-141035506D01*
X100361185Y-140938815D01*
X100264494Y-140859463D01*
X100154180Y-140800498D01*
X100085313Y-140779607D01*
X100115134Y-140755134D01*
X100300706Y-140529014D01*
X100438599Y-140271034D01*
X100523513Y-139991111D01*
X100552185Y-139700000D01*
X100523513Y-139408889D01*
X100438599Y-139128966D01*
X100300706Y-138870986D01*
X100115134Y-138644866D01*
X99889014Y-138459294D01*
X99834209Y-138430000D01*
X99889014Y-138400706D01*
X100115134Y-138215134D01*
X100300706Y-137989014D01*
X100438599Y-137731034D01*
X100523513Y-137451111D01*
X100552185Y-137160000D01*
X100523513Y-136868889D01*
X100438599Y-136588966D01*
X100300706Y-136330986D01*
X100115134Y-136104866D01*
X99889014Y-135919294D01*
X99834209Y-135890000D01*
X99889014Y-135860706D01*
X100115134Y-135675134D01*
X100300706Y-135449014D01*
X100438599Y-135191034D01*
X100523513Y-134911111D01*
X100552185Y-134620000D01*
X100523513Y-134328889D01*
X100438599Y-134048966D01*
X100300706Y-133790986D01*
X100115134Y-133564866D01*
X99889014Y-133379294D01*
X99834209Y-133350000D01*
X99889014Y-133320706D01*
X100115134Y-133135134D01*
X100300706Y-132909014D01*
X100438599Y-132651034D01*
X100523513Y-132371111D01*
X100552185Y-132080000D01*
X100523513Y-131788889D01*
X100438599Y-131508966D01*
X100300706Y-131250986D01*
X100115134Y-131024866D01*
X99889014Y-130839294D01*
X99824477Y-130804799D01*
X99941355Y-130735178D01*
X100157588Y-130540269D01*
X100331641Y-130306920D01*
X100456825Y-130044099D01*
X100501476Y-129896890D01*
X100380155Y-129667000D01*
X99187000Y-129667000D01*
X99187000Y-129687000D01*
X98933000Y-129687000D01*
X98933000Y-129667000D01*
X97739845Y-129667000D01*
X97618524Y-129896890D01*
X97663175Y-130044099D01*
X97788359Y-130306920D01*
X97962412Y-130540269D01*
X98178645Y-130735178D01*
X98295523Y-130804799D01*
X98230986Y-130839294D01*
X98004866Y-131024866D01*
X97819294Y-131250986D01*
X97681401Y-131508966D01*
X97596487Y-131788889D01*
X97567815Y-132080000D01*
X97596487Y-132371111D01*
X97681401Y-132651034D01*
X97819294Y-132909014D01*
X98004866Y-133135134D01*
X98230986Y-133320706D01*
X98285791Y-133350000D01*
X98230986Y-133379294D01*
X98004866Y-133564866D01*
X97988342Y-133585000D01*
X95051658Y-133585000D01*
X95035134Y-133564866D01*
X94809014Y-133379294D01*
X94754209Y-133350000D01*
X94809014Y-133320706D01*
X95035134Y-133135134D01*
X95220706Y-132909014D01*
X95358599Y-132651034D01*
X95443513Y-132371111D01*
X95472185Y-132080000D01*
X95443513Y-131788889D01*
X95358599Y-131508966D01*
X95220706Y-131250986D01*
X95035134Y-131024866D01*
X95005313Y-131000393D01*
X95074180Y-130979502D01*
X95184494Y-130920537D01*
X95281185Y-130841185D01*
X95360537Y-130744494D01*
X95419502Y-130634180D01*
X95455812Y-130514482D01*
X95468072Y-130390000D01*
X95468072Y-129183110D01*
X97618524Y-129183110D01*
X97739845Y-129413000D01*
X98933000Y-129413000D01*
X98933000Y-128219186D01*
X99187000Y-128219186D01*
X99187000Y-129413000D01*
X100380155Y-129413000D01*
X100501476Y-129183110D01*
X100456825Y-129035901D01*
X100331641Y-128773080D01*
X100157588Y-128539731D01*
X99941355Y-128344822D01*
X99691252Y-128195843D01*
X99416891Y-128098519D01*
X99187000Y-128219186D01*
X98933000Y-128219186D01*
X98703109Y-128098519D01*
X98428748Y-128195843D01*
X98178645Y-128344822D01*
X97962412Y-128539731D01*
X97788359Y-128773080D01*
X97663175Y-129035901D01*
X97618524Y-129183110D01*
X95468072Y-129183110D01*
X95468072Y-128690000D01*
X95455812Y-128565518D01*
X95419502Y-128445820D01*
X95360537Y-128335506D01*
X95281185Y-128238815D01*
X95184494Y-128159463D01*
X95074180Y-128100498D01*
X94954482Y-128064188D01*
X94830000Y-128051928D01*
X93130000Y-128051928D01*
X93120885Y-128052826D01*
X93138711Y-128035000D01*
X93929172Y-128035000D01*
X93980000Y-128040006D01*
X94030828Y-128035000D01*
X94030838Y-128035000D01*
X94182895Y-128020024D01*
X94377993Y-127960841D01*
X94557797Y-127864734D01*
X94715396Y-127735396D01*
X94747807Y-127695903D01*
X97215908Y-125227803D01*
X97255396Y-125195396D01*
X97290844Y-125152203D01*
X97384734Y-125037798D01*
X97436104Y-124941691D01*
X97480841Y-124857993D01*
X97540024Y-124662895D01*
X97555000Y-124510838D01*
X97555000Y-124510829D01*
X97560006Y-124460001D01*
X97555000Y-124409173D01*
X97555000Y-112831658D01*
X97575134Y-112815134D01*
X97760706Y-112589014D01*
X97898599Y-112331034D01*
X97983513Y-112051111D01*
X98012185Y-111760000D01*
X97983513Y-111468889D01*
X97898599Y-111188966D01*
X97760706Y-110930986D01*
X97575134Y-110704866D01*
X97349014Y-110519294D01*
X97091034Y-110381401D01*
X96811111Y-110296487D01*
X96592950Y-110275000D01*
X96447050Y-110275000D01*
X96228889Y-110296487D01*
X95948966Y-110381401D01*
X95690986Y-110519294D01*
X95464866Y-110704866D01*
X95279294Y-110930986D01*
X95250000Y-110985791D01*
X95220706Y-110930986D01*
X95035134Y-110704866D01*
X94809014Y-110519294D01*
X94551034Y-110381401D01*
X94271111Y-110296487D01*
X94052950Y-110275000D01*
X93907050Y-110275000D01*
X93688889Y-110296487D01*
X93408966Y-110381401D01*
X93150986Y-110519294D01*
X92924866Y-110704866D01*
X92739294Y-110930986D01*
X92710000Y-110985791D01*
X92680706Y-110930986D01*
X92495134Y-110704866D01*
X92269014Y-110519294D01*
X92011034Y-110381401D01*
X91731111Y-110296487D01*
X91512950Y-110275000D01*
X91367050Y-110275000D01*
X91148889Y-110296487D01*
X90868966Y-110381401D01*
X90610986Y-110519294D01*
X90384866Y-110704866D01*
X90199294Y-110930986D01*
X90170000Y-110985791D01*
X90140706Y-110930986D01*
X89955134Y-110704866D01*
X89729014Y-110519294D01*
X89471034Y-110381401D01*
X89191111Y-110296487D01*
X88972950Y-110275000D01*
X88827050Y-110275000D01*
X88608889Y-110296487D01*
X88328966Y-110381401D01*
X88070986Y-110519294D01*
X87844866Y-110704866D01*
X87659294Y-110930986D01*
X87630000Y-110985791D01*
X87600706Y-110930986D01*
X87415134Y-110704866D01*
X87189014Y-110519294D01*
X86931034Y-110381401D01*
X86651111Y-110296487D01*
X86432950Y-110275000D01*
X86287050Y-110275000D01*
X86068889Y-110296487D01*
X85788966Y-110381401D01*
X85530986Y-110519294D01*
X85304866Y-110704866D01*
X85119294Y-110930986D01*
X85084799Y-110995523D01*
X85015178Y-110878645D01*
X84820269Y-110662412D01*
X84586920Y-110488359D01*
X84324099Y-110363175D01*
X84176890Y-110318524D01*
X83947000Y-110439845D01*
X83947000Y-111633000D01*
X83967000Y-111633000D01*
X83967000Y-111887000D01*
X83947000Y-111887000D01*
X83947000Y-113080155D01*
X84176890Y-113201476D01*
X84324099Y-113156825D01*
X84586920Y-113031641D01*
X84820269Y-112857588D01*
X85015178Y-112641355D01*
X85084799Y-112524477D01*
X85119294Y-112589014D01*
X85304866Y-112815134D01*
X85530986Y-113000706D01*
X85788966Y-113138599D01*
X86068889Y-113223513D01*
X86287050Y-113245000D01*
X86432950Y-113245000D01*
X86651111Y-113223513D01*
X86931034Y-113138599D01*
X87189014Y-113000706D01*
X87415134Y-112815134D01*
X87600706Y-112589014D01*
X87630000Y-112534209D01*
X87659294Y-112589014D01*
X87844866Y-112815134D01*
X88070986Y-113000706D01*
X88328966Y-113138599D01*
X88608889Y-113223513D01*
X88827050Y-113245000D01*
X88972950Y-113245000D01*
X89191111Y-113223513D01*
X89471034Y-113138599D01*
X89729014Y-113000706D01*
X89955134Y-112815134D01*
X90140706Y-112589014D01*
X90170000Y-112534209D01*
X90199294Y-112589014D01*
X90384866Y-112815134D01*
X90405000Y-112831658D01*
X90405001Y-121491288D01*
X86934097Y-124962193D01*
X86894604Y-124994604D01*
X86765266Y-125152203D01*
X86669159Y-125332008D01*
X86609976Y-125527106D01*
X86595000Y-125679163D01*
X86595000Y-125679172D01*
X86589994Y-125730000D01*
X86595000Y-125780828D01*
X86595001Y-153241288D01*
X85931290Y-153905000D01*
X72191658Y-153905000D01*
X72175134Y-153884866D01*
X71949014Y-153699294D01*
X71894209Y-153670000D01*
X71949014Y-153640706D01*
X72175134Y-153455134D01*
X72360706Y-153229014D01*
X72498599Y-152971034D01*
X72583513Y-152691111D01*
X72612185Y-152400000D01*
X72583513Y-152108889D01*
X72498599Y-151828966D01*
X72360706Y-151570986D01*
X72175134Y-151344866D01*
X71949014Y-151159294D01*
X71894209Y-151130000D01*
X71949014Y-151100706D01*
X72175134Y-150915134D01*
X72360706Y-150689014D01*
X72498599Y-150431034D01*
X72583513Y-150151111D01*
X72612185Y-149860000D01*
X72583513Y-149568889D01*
X72498599Y-149288966D01*
X72360706Y-149030986D01*
X72175134Y-148804866D01*
X71949014Y-148619294D01*
X71894209Y-148590000D01*
X71949014Y-148560706D01*
X72175134Y-148375134D01*
X72360706Y-148149014D01*
X72498599Y-147891034D01*
X72583513Y-147611111D01*
X72612185Y-147320000D01*
X72583513Y-147028889D01*
X72498599Y-146748966D01*
X72360706Y-146490986D01*
X72175134Y-146264866D01*
X71949014Y-146079294D01*
X71894209Y-146050000D01*
X71949014Y-146020706D01*
X72175134Y-145835134D01*
X72360706Y-145609014D01*
X72498599Y-145351034D01*
X72583513Y-145071111D01*
X72612185Y-144780000D01*
X72583513Y-144488889D01*
X72498599Y-144208966D01*
X72360706Y-143950986D01*
X72175134Y-143724866D01*
X71949014Y-143539294D01*
X71894209Y-143510000D01*
X71949014Y-143480706D01*
X72175134Y-143295134D01*
X72360706Y-143069014D01*
X72498599Y-142811034D01*
X72583513Y-142531111D01*
X72612185Y-142240000D01*
X72583513Y-141948889D01*
X72498599Y-141668966D01*
X72360706Y-141410986D01*
X72175134Y-141184866D01*
X71949014Y-140999294D01*
X71894209Y-140970000D01*
X71949014Y-140940706D01*
X72175134Y-140755134D01*
X72360706Y-140529014D01*
X72498599Y-140271034D01*
X72583513Y-139991111D01*
X72612185Y-139700000D01*
X72583513Y-139408889D01*
X72498599Y-139128966D01*
X72360706Y-138870986D01*
X72175134Y-138644866D01*
X71949014Y-138459294D01*
X71894209Y-138430000D01*
X71949014Y-138400706D01*
X72175134Y-138215134D01*
X72360706Y-137989014D01*
X72498599Y-137731034D01*
X72583513Y-137451111D01*
X72612185Y-137160000D01*
X72583513Y-136868889D01*
X72498599Y-136588966D01*
X72360706Y-136330986D01*
X72175134Y-136104866D01*
X71949014Y-135919294D01*
X71894209Y-135890000D01*
X71949014Y-135860706D01*
X72175134Y-135675134D01*
X72360706Y-135449014D01*
X72498599Y-135191034D01*
X72583513Y-134911111D01*
X72612185Y-134620000D01*
X72583513Y-134328889D01*
X72498599Y-134048966D01*
X72360706Y-133790986D01*
X72175134Y-133564866D01*
X71949014Y-133379294D01*
X71894209Y-133350000D01*
X71949014Y-133320706D01*
X72175134Y-133135134D01*
X72360706Y-132909014D01*
X72498599Y-132651034D01*
X72583513Y-132371111D01*
X72612185Y-132080000D01*
X72583513Y-131788889D01*
X72498599Y-131508966D01*
X72360706Y-131250986D01*
X72175134Y-131024866D01*
X71949014Y-130839294D01*
X71884477Y-130804799D01*
X72001355Y-130735178D01*
X72217588Y-130540269D01*
X72391641Y-130306920D01*
X72516825Y-130044099D01*
X72561476Y-129896890D01*
X72440155Y-129667000D01*
X71247000Y-129667000D01*
X71247000Y-129687000D01*
X70993000Y-129687000D01*
X70993000Y-129667000D01*
X69799845Y-129667000D01*
X69678524Y-129896890D01*
X69723175Y-130044099D01*
X69848359Y-130306920D01*
X70022412Y-130540269D01*
X70238645Y-130735178D01*
X70355523Y-130804799D01*
X70290986Y-130839294D01*
X70064866Y-131024866D01*
X69879294Y-131250986D01*
X69741401Y-131508966D01*
X69656487Y-131788889D01*
X69627815Y-132080000D01*
X69656487Y-132371111D01*
X69741401Y-132651034D01*
X69879294Y-132909014D01*
X70064866Y-133135134D01*
X70290986Y-133320706D01*
X70345791Y-133350000D01*
X70290986Y-133379294D01*
X70064866Y-133564866D01*
X69879294Y-133790986D01*
X69741401Y-134048966D01*
X69656487Y-134328889D01*
X69627815Y-134620000D01*
X69656487Y-134911111D01*
X69741401Y-135191034D01*
X69879294Y-135449014D01*
X70064866Y-135675134D01*
X70290986Y-135860706D01*
X70345791Y-135890000D01*
X70290986Y-135919294D01*
X70064866Y-136104866D01*
X69879294Y-136330986D01*
X69741401Y-136588966D01*
X69656487Y-136868889D01*
X69627815Y-137160000D01*
X69656487Y-137451111D01*
X69741401Y-137731034D01*
X69879294Y-137989014D01*
X70064866Y-138215134D01*
X70290986Y-138400706D01*
X70345791Y-138430000D01*
X70290986Y-138459294D01*
X70064866Y-138644866D01*
X69879294Y-138870986D01*
X69741401Y-139128966D01*
X69656487Y-139408889D01*
X69627815Y-139700000D01*
X69656487Y-139991111D01*
X69741401Y-140271034D01*
X69879294Y-140529014D01*
X70064866Y-140755134D01*
X70290986Y-140940706D01*
X70345791Y-140970000D01*
X70290986Y-140999294D01*
X70064866Y-141184866D01*
X70048342Y-141205000D01*
X69008711Y-141205000D01*
X68345000Y-140541290D01*
X68345000Y-129183110D01*
X69678524Y-129183110D01*
X69799845Y-129413000D01*
X70993000Y-129413000D01*
X70993000Y-128219186D01*
X71247000Y-128219186D01*
X71247000Y-129413000D01*
X72440155Y-129413000D01*
X72561476Y-129183110D01*
X72516825Y-129035901D01*
X72391641Y-128773080D01*
X72217588Y-128539731D01*
X72001355Y-128344822D01*
X71751252Y-128195843D01*
X71476891Y-128098519D01*
X71247000Y-128219186D01*
X70993000Y-128219186D01*
X70763109Y-128098519D01*
X70488748Y-128195843D01*
X70238645Y-128344822D01*
X70022412Y-128539731D01*
X69848359Y-128773080D01*
X69723175Y-129035901D01*
X69678524Y-129183110D01*
X68345000Y-129183110D01*
X68345000Y-121778665D01*
X69685000Y-121778665D01*
X69685000Y-122061335D01*
X69740147Y-122338574D01*
X69848320Y-122599727D01*
X70005363Y-122834759D01*
X70205241Y-123034637D01*
X70440273Y-123191680D01*
X70701426Y-123299853D01*
X70978665Y-123355000D01*
X71261335Y-123355000D01*
X71538574Y-123299853D01*
X71799727Y-123191680D01*
X72034759Y-123034637D01*
X72234637Y-122834759D01*
X72391680Y-122599727D01*
X72499853Y-122338574D01*
X72555000Y-122061335D01*
X72555000Y-121778665D01*
X72499853Y-121501426D01*
X72391680Y-121240273D01*
X72234637Y-121005241D01*
X72034759Y-120805363D01*
X71799727Y-120648320D01*
X71538574Y-120540147D01*
X71261335Y-120485000D01*
X70978665Y-120485000D01*
X70701426Y-120540147D01*
X70440273Y-120648320D01*
X70205241Y-120805363D01*
X70005363Y-121005241D01*
X69848320Y-121240273D01*
X69740147Y-121501426D01*
X69685000Y-121778665D01*
X68345000Y-121778665D01*
X68345000Y-114278665D01*
X69685000Y-114278665D01*
X69685000Y-114561335D01*
X69740147Y-114838574D01*
X69848320Y-115099727D01*
X70005363Y-115334759D01*
X70205241Y-115534637D01*
X70440273Y-115691680D01*
X70701426Y-115799853D01*
X70978665Y-115855000D01*
X71261335Y-115855000D01*
X71538574Y-115799853D01*
X71799727Y-115691680D01*
X72034759Y-115534637D01*
X72234637Y-115334759D01*
X72391680Y-115099727D01*
X72499853Y-114838574D01*
X72555000Y-114561335D01*
X72555000Y-114278665D01*
X72499853Y-114001426D01*
X72391680Y-113740273D01*
X72234637Y-113505241D01*
X72034759Y-113305363D01*
X71799727Y-113148320D01*
X71538574Y-113040147D01*
X71261335Y-112985000D01*
X70978665Y-112985000D01*
X70701426Y-113040147D01*
X70440273Y-113148320D01*
X70205241Y-113305363D01*
X70005363Y-113505241D01*
X69848320Y-113740273D01*
X69740147Y-114001426D01*
X69685000Y-114278665D01*
X68345000Y-114278665D01*
X68345000Y-113458710D01*
X70893710Y-110910000D01*
X79791928Y-110910000D01*
X79791928Y-112610000D01*
X79804188Y-112734482D01*
X79840498Y-112854180D01*
X79899463Y-112964494D01*
X79978815Y-113061185D01*
X80075506Y-113140537D01*
X80185820Y-113199502D01*
X80305518Y-113235812D01*
X80430000Y-113248072D01*
X82130000Y-113248072D01*
X82254482Y-113235812D01*
X82374180Y-113199502D01*
X82484494Y-113140537D01*
X82581185Y-113061185D01*
X82660537Y-112964494D01*
X82719502Y-112854180D01*
X82743966Y-112773534D01*
X82819731Y-112857588D01*
X83053080Y-113031641D01*
X83315901Y-113156825D01*
X83463110Y-113201476D01*
X83693000Y-113080155D01*
X83693000Y-111887000D01*
X83673000Y-111887000D01*
X83673000Y-111633000D01*
X83693000Y-111633000D01*
X83693000Y-110439845D01*
X83463110Y-110318524D01*
X83315901Y-110363175D01*
X83053080Y-110488359D01*
X82819731Y-110662412D01*
X82743966Y-110746466D01*
X82719502Y-110665820D01*
X82660537Y-110555506D01*
X82581185Y-110458815D01*
X82484494Y-110379463D01*
X82374180Y-110320498D01*
X82254482Y-110284188D01*
X82130000Y-110271928D01*
X80430000Y-110271928D01*
X80305518Y-110284188D01*
X80185820Y-110320498D01*
X80075506Y-110379463D01*
X79978815Y-110458815D01*
X79899463Y-110555506D01*
X79840498Y-110665820D01*
X79804188Y-110785518D01*
X79791928Y-110910000D01*
X70893710Y-110910000D01*
X71095639Y-110708072D01*
X71970000Y-110708072D01*
X72094482Y-110695812D01*
X72214180Y-110659502D01*
X72324494Y-110600537D01*
X72421185Y-110521185D01*
X72500537Y-110424494D01*
X72559502Y-110314180D01*
X72580393Y-110245313D01*
X72604866Y-110275134D01*
X72830986Y-110460706D01*
X73088966Y-110598599D01*
X73368889Y-110683513D01*
X73587050Y-110705000D01*
X73732950Y-110705000D01*
X73951111Y-110683513D01*
X74231034Y-110598599D01*
X74489014Y-110460706D01*
X74715134Y-110275134D01*
X74900706Y-110049014D01*
X74930000Y-109994209D01*
X74959294Y-110049014D01*
X75144866Y-110275134D01*
X75370986Y-110460706D01*
X75628966Y-110598599D01*
X75908889Y-110683513D01*
X76127050Y-110705000D01*
X76272950Y-110705000D01*
X76491111Y-110683513D01*
X76771034Y-110598599D01*
X77029014Y-110460706D01*
X77255134Y-110275134D01*
X77440706Y-110049014D01*
X77470000Y-109994209D01*
X77499294Y-110049014D01*
X77684866Y-110275134D01*
X77910986Y-110460706D01*
X78168966Y-110598599D01*
X78448889Y-110683513D01*
X78667050Y-110705000D01*
X78812950Y-110705000D01*
X79031111Y-110683513D01*
X79311034Y-110598599D01*
X79569014Y-110460706D01*
X79795134Y-110275134D01*
X79980706Y-110049014D01*
X80118599Y-109791034D01*
X80203513Y-109511111D01*
X80232185Y-109220000D01*
X80203513Y-108928889D01*
X80118599Y-108648966D01*
X79980706Y-108390986D01*
X79795134Y-108164866D01*
X79569014Y-107979294D01*
X79311034Y-107841401D01*
X79031111Y-107756487D01*
X78812950Y-107735000D01*
X78667050Y-107735000D01*
X78448889Y-107756487D01*
X78168966Y-107841401D01*
X77910986Y-107979294D01*
X77684866Y-108164866D01*
X77499294Y-108390986D01*
X77470000Y-108445791D01*
X77440706Y-108390986D01*
X77255134Y-108164866D01*
X77029014Y-107979294D01*
X76771034Y-107841401D01*
X76491111Y-107756487D01*
X76272950Y-107735000D01*
X76127050Y-107735000D01*
X75908889Y-107756487D01*
X75628966Y-107841401D01*
X75370986Y-107979294D01*
X75144866Y-108164866D01*
X74959294Y-108390986D01*
X74930000Y-108445791D01*
X74900706Y-108390986D01*
X74715134Y-108164866D01*
X74489014Y-107979294D01*
X74231034Y-107841401D01*
X73951111Y-107756487D01*
X73732950Y-107735000D01*
X73587050Y-107735000D01*
X73368889Y-107756487D01*
X73088966Y-107841401D01*
X72830986Y-107979294D01*
X72604866Y-108164866D01*
X72580393Y-108194687D01*
X72559502Y-108125820D01*
X72500537Y-108015506D01*
X72421185Y-107918815D01*
X72324494Y-107839463D01*
X72214180Y-107780498D01*
X72094482Y-107744188D01*
X71970000Y-107731928D01*
X70270000Y-107731928D01*
X70145518Y-107744188D01*
X70025820Y-107780498D01*
X69915506Y-107839463D01*
X69818815Y-107918815D01*
X69739463Y-108015506D01*
X69680498Y-108125820D01*
X69644188Y-108245518D01*
X69631928Y-108370000D01*
X69631928Y-109244361D01*
X66725000Y-112151290D01*
X66725000Y-107365000D01*
X111075001Y-107365000D01*
X111075000Y-179655000D01*
M02*
