G04 #@! TF.GenerationSoftware,KiCad,Pcbnew,(5.1.0)-1*
G04 #@! TF.CreationDate,2019-04-29T20:29:36+02:00*
G04 #@! TF.ProjectId,diyaltimeter.de,64697961-6c74-4696-9d65-7465722e6465,rev?*
G04 #@! TF.SameCoordinates,Original*
G04 #@! TF.FileFunction,Copper,L1,Top*
G04 #@! TF.FilePolarity,Positive*
%FSLAX46Y46*%
G04 Gerber Fmt 4.6, Leading zero omitted, Abs format (unit mm)*
G04 Created by KiCad (PCBNEW (5.1.0)-1) date 2019-04-29 20:29:36*
%MOMM*%
%LPD*%
G04 APERTURE LIST*
%ADD10O,1.727200X3.048000*%
%ADD11R,1.700000X1.700000*%
%ADD12O,1.700000X1.700000*%
%ADD13C,1.600000*%
%ADD14C,0.800000*%
%ADD15C,0.800000*%
%ADD16C,0.254000*%
G04 APERTURE END LIST*
D10*
X78740000Y-85290000D03*
X73740000Y-85290000D03*
X78740000Y-97790000D03*
X73740000Y-97790000D03*
X104140000Y-85290000D03*
X99140000Y-85290000D03*
X104140000Y-97790000D03*
X99140000Y-97790000D03*
X86440000Y-97790000D03*
X91440000Y-97790000D03*
X86440000Y-85290000D03*
X91440000Y-85290000D03*
D11*
X71120000Y-109220000D03*
D12*
X73660000Y-109220000D03*
X76200000Y-109220000D03*
X78740000Y-109220000D03*
D11*
X81280000Y-111760000D03*
D12*
X83820000Y-111760000D03*
X86360000Y-111760000D03*
X88900000Y-111760000D03*
X91440000Y-111760000D03*
X93980000Y-111760000D03*
X96520000Y-111760000D03*
X71120000Y-129540000D03*
X71120000Y-132080000D03*
X71120000Y-134620000D03*
X71120000Y-137160000D03*
X71120000Y-139700000D03*
X71120000Y-142240000D03*
X71120000Y-144780000D03*
X71120000Y-147320000D03*
X71120000Y-149860000D03*
X71120000Y-152400000D03*
X71120000Y-154940000D03*
X71120000Y-157480000D03*
X71120000Y-160020000D03*
X71120000Y-162560000D03*
X71120000Y-165100000D03*
D11*
X71120000Y-167640000D03*
X93980000Y-129540000D03*
D12*
X93980000Y-132080000D03*
X93980000Y-134620000D03*
X93980000Y-137160000D03*
X93980000Y-139700000D03*
X93980000Y-142240000D03*
X93980000Y-144780000D03*
X93980000Y-147320000D03*
X93980000Y-149860000D03*
X93980000Y-152400000D03*
X93980000Y-154940000D03*
X93980000Y-157480000D03*
X93980000Y-160020000D03*
X93980000Y-162560000D03*
X93980000Y-165100000D03*
X93980000Y-167640000D03*
D11*
X99060000Y-160020000D03*
D12*
X99060000Y-157480000D03*
X99060000Y-154940000D03*
X99060000Y-152400000D03*
X99060000Y-149860000D03*
X99060000Y-147320000D03*
X99060000Y-129540000D03*
X99060000Y-132080000D03*
X99060000Y-134620000D03*
X99060000Y-137160000D03*
X99060000Y-139700000D03*
D11*
X99060000Y-142240000D03*
X109220000Y-177800000D03*
D12*
X109220000Y-175260000D03*
X109220000Y-172720000D03*
X109220000Y-170180000D03*
X109220000Y-167640000D03*
D13*
X71120000Y-121920000D03*
X71120000Y-114420000D03*
D11*
X78740000Y-101600000D03*
D12*
X76200000Y-101600000D03*
X73660000Y-101600000D03*
X71120000Y-101600000D03*
D14*
X83820000Y-111760000D03*
D15*
X76200000Y-139700000D02*
X71120000Y-144780000D01*
X76200000Y-109220000D02*
X76200000Y-139700000D01*
X78740000Y-139700000D02*
X71120000Y-147320000D01*
X78740000Y-109220000D02*
X78740000Y-139700000D01*
X83820000Y-111760000D02*
X83820000Y-111760000D01*
X93980000Y-147320000D02*
X87630000Y-147320000D01*
X87630000Y-147320000D02*
X86360000Y-146050000D01*
X86360000Y-146050000D02*
X86360000Y-111760000D01*
X88900000Y-111760000D02*
X88900000Y-130810000D01*
X88900000Y-130810000D02*
X90170000Y-132080000D01*
X90170000Y-132080000D02*
X93980000Y-132080000D01*
X71120000Y-121920000D02*
X68580000Y-124460000D01*
X68580000Y-124460000D02*
X68580000Y-130810000D01*
X68580000Y-130810000D02*
X69850000Y-132080000D01*
X69850000Y-132080000D02*
X71120000Y-132080000D01*
X99060000Y-152400000D02*
X100330000Y-152400000D01*
X100330000Y-152400000D02*
X101600000Y-151130000D01*
X101600000Y-151130000D02*
X101600000Y-135890000D01*
X101600000Y-135890000D02*
X100330000Y-134620000D01*
X100330000Y-134620000D02*
X99060000Y-134620000D01*
X109220000Y-170180000D02*
X97790000Y-170180000D01*
X97790000Y-170180000D02*
X96520000Y-168910000D01*
X96520000Y-168910000D02*
X96520000Y-156210000D01*
X96520000Y-156210000D02*
X97790000Y-154940000D01*
X97790000Y-154940000D02*
X99060000Y-154940000D01*
X99140000Y-97590000D02*
X99140000Y-85090000D01*
X99140000Y-100250000D02*
X99140000Y-97590000D01*
X78740000Y-101600000D02*
X97790000Y-101600000D01*
X97790000Y-101600000D02*
X99140000Y-100250000D01*
X86440000Y-96929600D02*
X86360000Y-96849600D01*
X86440000Y-97590000D02*
X86440000Y-96929600D01*
X86360000Y-96849600D02*
X86360000Y-96520000D01*
X86440000Y-97590000D02*
X86440000Y-85090000D01*
X86440000Y-95266000D02*
X86440000Y-97590000D01*
X85154000Y-93980000D02*
X86440000Y-95266000D01*
X77470000Y-93980000D02*
X85154000Y-93980000D01*
X76200000Y-95250000D02*
X77470000Y-93980000D01*
X76200000Y-101600000D02*
X76200000Y-95250000D01*
X72476400Y-97590000D02*
X73740000Y-97590000D01*
X71120000Y-98946400D02*
X72476400Y-97590000D01*
X71120000Y-101600000D02*
X71120000Y-98946400D01*
X73740000Y-97590000D02*
X73740000Y-85090000D01*
D16*
G36*
X111075000Y-179655000D02*
G01*
X66725000Y-179655000D01*
X66725000Y-178650000D01*
X107731928Y-178650000D01*
X107744188Y-178774482D01*
X107780498Y-178894180D01*
X107839463Y-179004494D01*
X107918815Y-179101185D01*
X108015506Y-179180537D01*
X108125820Y-179239502D01*
X108245518Y-179275812D01*
X108370000Y-179288072D01*
X108934250Y-179285000D01*
X109093000Y-179126250D01*
X109093000Y-177927000D01*
X109347000Y-177927000D01*
X109347000Y-179126250D01*
X109505750Y-179285000D01*
X110070000Y-179288072D01*
X110194482Y-179275812D01*
X110314180Y-179239502D01*
X110424494Y-179180537D01*
X110521185Y-179101185D01*
X110600537Y-179004494D01*
X110659502Y-178894180D01*
X110695812Y-178774482D01*
X110708072Y-178650000D01*
X110705000Y-178085750D01*
X110546250Y-177927000D01*
X109347000Y-177927000D01*
X109093000Y-177927000D01*
X107893750Y-177927000D01*
X107735000Y-178085750D01*
X107731928Y-178650000D01*
X66725000Y-178650000D01*
X66725000Y-124460000D01*
X67539994Y-124460000D01*
X67545000Y-124510828D01*
X67545001Y-130759162D01*
X67539994Y-130810000D01*
X67559977Y-131012895D01*
X67619160Y-131207993D01*
X67715266Y-131387797D01*
X67809157Y-131502203D01*
X67844605Y-131545396D01*
X67884092Y-131577802D01*
X69082197Y-132775908D01*
X69114604Y-132815396D01*
X69154092Y-132847803D01*
X69272202Y-132944734D01*
X69368309Y-132996104D01*
X69452007Y-133040841D01*
X69647105Y-133100024D01*
X69799162Y-133115000D01*
X69799171Y-133115000D01*
X69849999Y-133120006D01*
X69900827Y-133115000D01*
X70048342Y-133115000D01*
X70064866Y-133135134D01*
X70290986Y-133320706D01*
X70345791Y-133350000D01*
X70290986Y-133379294D01*
X70064866Y-133564866D01*
X69879294Y-133790986D01*
X69741401Y-134048966D01*
X69656487Y-134328889D01*
X69627815Y-134620000D01*
X69656487Y-134911111D01*
X69741401Y-135191034D01*
X69879294Y-135449014D01*
X70064866Y-135675134D01*
X70290986Y-135860706D01*
X70345791Y-135890000D01*
X70290986Y-135919294D01*
X70064866Y-136104866D01*
X69879294Y-136330986D01*
X69741401Y-136588966D01*
X69656487Y-136868889D01*
X69627815Y-137160000D01*
X69656487Y-137451111D01*
X69741401Y-137731034D01*
X69879294Y-137989014D01*
X70064866Y-138215134D01*
X70290986Y-138400706D01*
X70345791Y-138430000D01*
X70290986Y-138459294D01*
X70064866Y-138644866D01*
X69879294Y-138870986D01*
X69741401Y-139128966D01*
X69656487Y-139408889D01*
X69627815Y-139700000D01*
X69656487Y-139991111D01*
X69741401Y-140271034D01*
X69879294Y-140529014D01*
X70064866Y-140755134D01*
X70290986Y-140940706D01*
X70345791Y-140970000D01*
X70290986Y-140999294D01*
X70064866Y-141184866D01*
X69879294Y-141410986D01*
X69741401Y-141668966D01*
X69656487Y-141948889D01*
X69627815Y-142240000D01*
X69656487Y-142531111D01*
X69741401Y-142811034D01*
X69879294Y-143069014D01*
X70064866Y-143295134D01*
X70290986Y-143480706D01*
X70345791Y-143510000D01*
X70290986Y-143539294D01*
X70064866Y-143724866D01*
X69879294Y-143950986D01*
X69741401Y-144208966D01*
X69656487Y-144488889D01*
X69627815Y-144780000D01*
X69656487Y-145071111D01*
X69741401Y-145351034D01*
X69879294Y-145609014D01*
X70064866Y-145835134D01*
X70290986Y-146020706D01*
X70345791Y-146050000D01*
X70290986Y-146079294D01*
X70064866Y-146264866D01*
X69879294Y-146490986D01*
X69741401Y-146748966D01*
X69656487Y-147028889D01*
X69627815Y-147320000D01*
X69656487Y-147611111D01*
X69741401Y-147891034D01*
X69879294Y-148149014D01*
X70064866Y-148375134D01*
X70290986Y-148560706D01*
X70345791Y-148590000D01*
X70290986Y-148619294D01*
X70064866Y-148804866D01*
X69879294Y-149030986D01*
X69741401Y-149288966D01*
X69656487Y-149568889D01*
X69627815Y-149860000D01*
X69656487Y-150151111D01*
X69741401Y-150431034D01*
X69879294Y-150689014D01*
X70064866Y-150915134D01*
X70290986Y-151100706D01*
X70345791Y-151130000D01*
X70290986Y-151159294D01*
X70064866Y-151344866D01*
X69879294Y-151570986D01*
X69741401Y-151828966D01*
X69656487Y-152108889D01*
X69627815Y-152400000D01*
X69656487Y-152691111D01*
X69741401Y-152971034D01*
X69879294Y-153229014D01*
X70064866Y-153455134D01*
X70290986Y-153640706D01*
X70345791Y-153670000D01*
X70290986Y-153699294D01*
X70064866Y-153884866D01*
X69879294Y-154110986D01*
X69741401Y-154368966D01*
X69656487Y-154648889D01*
X69627815Y-154940000D01*
X69656487Y-155231111D01*
X69741401Y-155511034D01*
X69879294Y-155769014D01*
X70064866Y-155995134D01*
X70290986Y-156180706D01*
X70345791Y-156210000D01*
X70290986Y-156239294D01*
X70064866Y-156424866D01*
X69879294Y-156650986D01*
X69741401Y-156908966D01*
X69656487Y-157188889D01*
X69627815Y-157480000D01*
X69656487Y-157771111D01*
X69741401Y-158051034D01*
X69879294Y-158309014D01*
X70064866Y-158535134D01*
X70290986Y-158720706D01*
X70345791Y-158750000D01*
X70290986Y-158779294D01*
X70064866Y-158964866D01*
X69879294Y-159190986D01*
X69741401Y-159448966D01*
X69656487Y-159728889D01*
X69627815Y-160020000D01*
X69656487Y-160311111D01*
X69741401Y-160591034D01*
X69879294Y-160849014D01*
X70064866Y-161075134D01*
X70290986Y-161260706D01*
X70345791Y-161290000D01*
X70290986Y-161319294D01*
X70064866Y-161504866D01*
X69879294Y-161730986D01*
X69741401Y-161988966D01*
X69656487Y-162268889D01*
X69627815Y-162560000D01*
X69656487Y-162851111D01*
X69741401Y-163131034D01*
X69879294Y-163389014D01*
X70064866Y-163615134D01*
X70290986Y-163800706D01*
X70345791Y-163830000D01*
X70290986Y-163859294D01*
X70064866Y-164044866D01*
X69879294Y-164270986D01*
X69741401Y-164528966D01*
X69656487Y-164808889D01*
X69627815Y-165100000D01*
X69656487Y-165391111D01*
X69741401Y-165671034D01*
X69879294Y-165929014D01*
X70064866Y-166155134D01*
X70094687Y-166179607D01*
X70025820Y-166200498D01*
X69915506Y-166259463D01*
X69818815Y-166338815D01*
X69739463Y-166435506D01*
X69680498Y-166545820D01*
X69644188Y-166665518D01*
X69631928Y-166790000D01*
X69631928Y-168490000D01*
X69644188Y-168614482D01*
X69680498Y-168734180D01*
X69739463Y-168844494D01*
X69818815Y-168941185D01*
X69915506Y-169020537D01*
X70025820Y-169079502D01*
X70145518Y-169115812D01*
X70270000Y-169128072D01*
X71970000Y-169128072D01*
X72094482Y-169115812D01*
X72214180Y-169079502D01*
X72324494Y-169020537D01*
X72421185Y-168941185D01*
X72500537Y-168844494D01*
X72559502Y-168734180D01*
X72595812Y-168614482D01*
X72608072Y-168490000D01*
X72608072Y-167996890D01*
X92538524Y-167996890D01*
X92583175Y-168144099D01*
X92708359Y-168406920D01*
X92882412Y-168640269D01*
X93098645Y-168835178D01*
X93348748Y-168984157D01*
X93623109Y-169081481D01*
X93853000Y-168960814D01*
X93853000Y-167767000D01*
X94107000Y-167767000D01*
X94107000Y-168960814D01*
X94336891Y-169081481D01*
X94611252Y-168984157D01*
X94861355Y-168835178D01*
X95077588Y-168640269D01*
X95251641Y-168406920D01*
X95376825Y-168144099D01*
X95421476Y-167996890D01*
X95300155Y-167767000D01*
X94107000Y-167767000D01*
X93853000Y-167767000D01*
X92659845Y-167767000D01*
X92538524Y-167996890D01*
X72608072Y-167996890D01*
X72608072Y-166790000D01*
X72595812Y-166665518D01*
X72559502Y-166545820D01*
X72500537Y-166435506D01*
X72421185Y-166338815D01*
X72324494Y-166259463D01*
X72214180Y-166200498D01*
X72145313Y-166179607D01*
X72175134Y-166155134D01*
X72360706Y-165929014D01*
X72498599Y-165671034D01*
X72583513Y-165391111D01*
X72612185Y-165100000D01*
X72583513Y-164808889D01*
X72498599Y-164528966D01*
X72360706Y-164270986D01*
X72175134Y-164044866D01*
X71949014Y-163859294D01*
X71894209Y-163830000D01*
X71949014Y-163800706D01*
X72175134Y-163615134D01*
X72360706Y-163389014D01*
X72498599Y-163131034D01*
X72583513Y-162851111D01*
X72612185Y-162560000D01*
X72583513Y-162268889D01*
X72498599Y-161988966D01*
X72360706Y-161730986D01*
X72175134Y-161504866D01*
X71949014Y-161319294D01*
X71894209Y-161290000D01*
X71949014Y-161260706D01*
X72175134Y-161075134D01*
X72360706Y-160849014D01*
X72498599Y-160591034D01*
X72583513Y-160311111D01*
X72612185Y-160020000D01*
X72583513Y-159728889D01*
X72498599Y-159448966D01*
X72360706Y-159190986D01*
X72175134Y-158964866D01*
X71949014Y-158779294D01*
X71894209Y-158750000D01*
X71949014Y-158720706D01*
X72175134Y-158535134D01*
X72360706Y-158309014D01*
X72498599Y-158051034D01*
X72583513Y-157771111D01*
X72612185Y-157480000D01*
X72583513Y-157188889D01*
X72498599Y-156908966D01*
X72360706Y-156650986D01*
X72175134Y-156424866D01*
X71949014Y-156239294D01*
X71894209Y-156210000D01*
X71949014Y-156180706D01*
X72175134Y-155995134D01*
X72360706Y-155769014D01*
X72498599Y-155511034D01*
X72583513Y-155231111D01*
X72612185Y-154940000D01*
X72583513Y-154648889D01*
X72498599Y-154368966D01*
X72360706Y-154110986D01*
X72175134Y-153884866D01*
X71949014Y-153699294D01*
X71894209Y-153670000D01*
X71949014Y-153640706D01*
X72175134Y-153455134D01*
X72360706Y-153229014D01*
X72498599Y-152971034D01*
X72583513Y-152691111D01*
X72612185Y-152400000D01*
X72583513Y-152108889D01*
X72498599Y-151828966D01*
X72360706Y-151570986D01*
X72175134Y-151344866D01*
X71949014Y-151159294D01*
X71894209Y-151130000D01*
X71949014Y-151100706D01*
X72175134Y-150915134D01*
X72360706Y-150689014D01*
X72498599Y-150431034D01*
X72583513Y-150151111D01*
X72612185Y-149860000D01*
X72583513Y-149568889D01*
X72498599Y-149288966D01*
X72360706Y-149030986D01*
X72175134Y-148804866D01*
X71949014Y-148619294D01*
X71894209Y-148590000D01*
X71949014Y-148560706D01*
X72175134Y-148375134D01*
X72360706Y-148149014D01*
X72498599Y-147891034D01*
X72583513Y-147611111D01*
X72612185Y-147320000D01*
X72609632Y-147294078D01*
X79435908Y-140467803D01*
X79475396Y-140435396D01*
X79507803Y-140395908D01*
X79604734Y-140277798D01*
X79700840Y-140097994D01*
X79700841Y-140097993D01*
X79760024Y-139902895D01*
X79775000Y-139750838D01*
X79775000Y-139750829D01*
X79780006Y-139700001D01*
X79775000Y-139649173D01*
X79775000Y-112610000D01*
X79791928Y-112610000D01*
X79804188Y-112734482D01*
X79840498Y-112854180D01*
X79899463Y-112964494D01*
X79978815Y-113061185D01*
X80075506Y-113140537D01*
X80185820Y-113199502D01*
X80305518Y-113235812D01*
X80430000Y-113248072D01*
X80994250Y-113245000D01*
X81153000Y-113086250D01*
X81153000Y-111887000D01*
X79953750Y-111887000D01*
X79795000Y-112045750D01*
X79791928Y-112610000D01*
X79775000Y-112610000D01*
X79775000Y-110910000D01*
X79791928Y-110910000D01*
X79795000Y-111474250D01*
X79953750Y-111633000D01*
X81153000Y-111633000D01*
X81153000Y-110433750D01*
X81407000Y-110433750D01*
X81407000Y-111633000D01*
X81427000Y-111633000D01*
X81427000Y-111887000D01*
X81407000Y-111887000D01*
X81407000Y-113086250D01*
X81565750Y-113245000D01*
X82130000Y-113248072D01*
X82254482Y-113235812D01*
X82374180Y-113199502D01*
X82484494Y-113140537D01*
X82581185Y-113061185D01*
X82660537Y-112964494D01*
X82719502Y-112854180D01*
X82740393Y-112785313D01*
X82764866Y-112815134D01*
X82990986Y-113000706D01*
X83248966Y-113138599D01*
X83528889Y-113223513D01*
X83747050Y-113245000D01*
X83892950Y-113245000D01*
X84111111Y-113223513D01*
X84391034Y-113138599D01*
X84649014Y-113000706D01*
X84875134Y-112815134D01*
X85060706Y-112589014D01*
X85090000Y-112534209D01*
X85119294Y-112589014D01*
X85304866Y-112815134D01*
X85325001Y-112831658D01*
X85325000Y-145999172D01*
X85319994Y-146050000D01*
X85325000Y-146100828D01*
X85325000Y-146100837D01*
X85339976Y-146252894D01*
X85399159Y-146447992D01*
X85495266Y-146627797D01*
X85624604Y-146785396D01*
X85664097Y-146817807D01*
X86862197Y-148015908D01*
X86894604Y-148055396D01*
X86934092Y-148087803D01*
X87052202Y-148184734D01*
X87148309Y-148236104D01*
X87232007Y-148280841D01*
X87427105Y-148340024D01*
X87579162Y-148355000D01*
X87579171Y-148355000D01*
X87629999Y-148360006D01*
X87680827Y-148355000D01*
X92908342Y-148355000D01*
X92924866Y-148375134D01*
X93150986Y-148560706D01*
X93205791Y-148590000D01*
X93150986Y-148619294D01*
X92924866Y-148804866D01*
X92739294Y-149030986D01*
X92601401Y-149288966D01*
X92516487Y-149568889D01*
X92487815Y-149860000D01*
X92516487Y-150151111D01*
X92601401Y-150431034D01*
X92739294Y-150689014D01*
X92924866Y-150915134D01*
X93150986Y-151100706D01*
X93205791Y-151130000D01*
X93150986Y-151159294D01*
X92924866Y-151344866D01*
X92739294Y-151570986D01*
X92601401Y-151828966D01*
X92516487Y-152108889D01*
X92487815Y-152400000D01*
X92516487Y-152691111D01*
X92601401Y-152971034D01*
X92739294Y-153229014D01*
X92924866Y-153455134D01*
X93150986Y-153640706D01*
X93205791Y-153670000D01*
X93150986Y-153699294D01*
X92924866Y-153884866D01*
X92739294Y-154110986D01*
X92601401Y-154368966D01*
X92516487Y-154648889D01*
X92487815Y-154940000D01*
X92516487Y-155231111D01*
X92601401Y-155511034D01*
X92739294Y-155769014D01*
X92924866Y-155995134D01*
X93150986Y-156180706D01*
X93205791Y-156210000D01*
X93150986Y-156239294D01*
X92924866Y-156424866D01*
X92739294Y-156650986D01*
X92601401Y-156908966D01*
X92516487Y-157188889D01*
X92487815Y-157480000D01*
X92516487Y-157771111D01*
X92601401Y-158051034D01*
X92739294Y-158309014D01*
X92924866Y-158535134D01*
X93150986Y-158720706D01*
X93205791Y-158750000D01*
X93150986Y-158779294D01*
X92924866Y-158964866D01*
X92739294Y-159190986D01*
X92601401Y-159448966D01*
X92516487Y-159728889D01*
X92487815Y-160020000D01*
X92516487Y-160311111D01*
X92601401Y-160591034D01*
X92739294Y-160849014D01*
X92924866Y-161075134D01*
X93150986Y-161260706D01*
X93205791Y-161290000D01*
X93150986Y-161319294D01*
X92924866Y-161504866D01*
X92739294Y-161730986D01*
X92601401Y-161988966D01*
X92516487Y-162268889D01*
X92487815Y-162560000D01*
X92516487Y-162851111D01*
X92601401Y-163131034D01*
X92739294Y-163389014D01*
X92924866Y-163615134D01*
X93150986Y-163800706D01*
X93205791Y-163830000D01*
X93150986Y-163859294D01*
X92924866Y-164044866D01*
X92739294Y-164270986D01*
X92601401Y-164528966D01*
X92516487Y-164808889D01*
X92487815Y-165100000D01*
X92516487Y-165391111D01*
X92601401Y-165671034D01*
X92739294Y-165929014D01*
X92924866Y-166155134D01*
X93150986Y-166340706D01*
X93215523Y-166375201D01*
X93098645Y-166444822D01*
X92882412Y-166639731D01*
X92708359Y-166873080D01*
X92583175Y-167135901D01*
X92538524Y-167283110D01*
X92659845Y-167513000D01*
X93853000Y-167513000D01*
X93853000Y-167493000D01*
X94107000Y-167493000D01*
X94107000Y-167513000D01*
X95300155Y-167513000D01*
X95421476Y-167283110D01*
X95376825Y-167135901D01*
X95251641Y-166873080D01*
X95077588Y-166639731D01*
X94861355Y-166444822D01*
X94744477Y-166375201D01*
X94809014Y-166340706D01*
X95035134Y-166155134D01*
X95220706Y-165929014D01*
X95358599Y-165671034D01*
X95443513Y-165391111D01*
X95472185Y-165100000D01*
X95443513Y-164808889D01*
X95358599Y-164528966D01*
X95220706Y-164270986D01*
X95035134Y-164044866D01*
X94809014Y-163859294D01*
X94754209Y-163830000D01*
X94809014Y-163800706D01*
X95035134Y-163615134D01*
X95220706Y-163389014D01*
X95358599Y-163131034D01*
X95443513Y-162851111D01*
X95472185Y-162560000D01*
X95443513Y-162268889D01*
X95358599Y-161988966D01*
X95220706Y-161730986D01*
X95035134Y-161504866D01*
X94809014Y-161319294D01*
X94754209Y-161290000D01*
X94809014Y-161260706D01*
X95035134Y-161075134D01*
X95220706Y-160849014D01*
X95358599Y-160591034D01*
X95443513Y-160311111D01*
X95472185Y-160020000D01*
X95443513Y-159728889D01*
X95358599Y-159448966D01*
X95220706Y-159190986D01*
X95035134Y-158964866D01*
X94809014Y-158779294D01*
X94754209Y-158750000D01*
X94809014Y-158720706D01*
X95035134Y-158535134D01*
X95220706Y-158309014D01*
X95358599Y-158051034D01*
X95443513Y-157771111D01*
X95472185Y-157480000D01*
X95443513Y-157188889D01*
X95358599Y-156908966D01*
X95220706Y-156650986D01*
X95035134Y-156424866D01*
X94809014Y-156239294D01*
X94754209Y-156210000D01*
X95479994Y-156210000D01*
X95485001Y-156260838D01*
X95485000Y-168859172D01*
X95479994Y-168910000D01*
X95485000Y-168960828D01*
X95485000Y-168960837D01*
X95499976Y-169112894D01*
X95559159Y-169307992D01*
X95655266Y-169487797D01*
X95784604Y-169645396D01*
X95824097Y-169677807D01*
X97022197Y-170875908D01*
X97054604Y-170915396D01*
X97094092Y-170947803D01*
X97212202Y-171044734D01*
X97308309Y-171096104D01*
X97392007Y-171140841D01*
X97587105Y-171200024D01*
X97739162Y-171215000D01*
X97739171Y-171215000D01*
X97789999Y-171220006D01*
X97840827Y-171215000D01*
X108148342Y-171215000D01*
X108164866Y-171235134D01*
X108390986Y-171420706D01*
X108445791Y-171450000D01*
X108390986Y-171479294D01*
X108164866Y-171664866D01*
X107979294Y-171890986D01*
X107841401Y-172148966D01*
X107756487Y-172428889D01*
X107727815Y-172720000D01*
X107756487Y-173011111D01*
X107841401Y-173291034D01*
X107979294Y-173549014D01*
X108164866Y-173775134D01*
X108390986Y-173960706D01*
X108445791Y-173990000D01*
X108390986Y-174019294D01*
X108164866Y-174204866D01*
X107979294Y-174430986D01*
X107841401Y-174688966D01*
X107756487Y-174968889D01*
X107727815Y-175260000D01*
X107756487Y-175551111D01*
X107841401Y-175831034D01*
X107979294Y-176089014D01*
X108164866Y-176315134D01*
X108194687Y-176339607D01*
X108125820Y-176360498D01*
X108015506Y-176419463D01*
X107918815Y-176498815D01*
X107839463Y-176595506D01*
X107780498Y-176705820D01*
X107744188Y-176825518D01*
X107731928Y-176950000D01*
X107735000Y-177514250D01*
X107893750Y-177673000D01*
X109093000Y-177673000D01*
X109093000Y-177653000D01*
X109347000Y-177653000D01*
X109347000Y-177673000D01*
X110546250Y-177673000D01*
X110705000Y-177514250D01*
X110708072Y-176950000D01*
X110695812Y-176825518D01*
X110659502Y-176705820D01*
X110600537Y-176595506D01*
X110521185Y-176498815D01*
X110424494Y-176419463D01*
X110314180Y-176360498D01*
X110245313Y-176339607D01*
X110275134Y-176315134D01*
X110460706Y-176089014D01*
X110598599Y-175831034D01*
X110683513Y-175551111D01*
X110712185Y-175260000D01*
X110683513Y-174968889D01*
X110598599Y-174688966D01*
X110460706Y-174430986D01*
X110275134Y-174204866D01*
X110049014Y-174019294D01*
X109994209Y-173990000D01*
X110049014Y-173960706D01*
X110275134Y-173775134D01*
X110460706Y-173549014D01*
X110598599Y-173291034D01*
X110683513Y-173011111D01*
X110712185Y-172720000D01*
X110683513Y-172428889D01*
X110598599Y-172148966D01*
X110460706Y-171890986D01*
X110275134Y-171664866D01*
X110049014Y-171479294D01*
X109994209Y-171450000D01*
X110049014Y-171420706D01*
X110275134Y-171235134D01*
X110460706Y-171009014D01*
X110598599Y-170751034D01*
X110683513Y-170471111D01*
X110712185Y-170180000D01*
X110683513Y-169888889D01*
X110598599Y-169608966D01*
X110460706Y-169350986D01*
X110275134Y-169124866D01*
X110049014Y-168939294D01*
X109994209Y-168910000D01*
X110049014Y-168880706D01*
X110275134Y-168695134D01*
X110460706Y-168469014D01*
X110598599Y-168211034D01*
X110683513Y-167931111D01*
X110712185Y-167640000D01*
X110683513Y-167348889D01*
X110598599Y-167068966D01*
X110460706Y-166810986D01*
X110275134Y-166584866D01*
X110049014Y-166399294D01*
X109791034Y-166261401D01*
X109511111Y-166176487D01*
X109292950Y-166155000D01*
X109147050Y-166155000D01*
X108928889Y-166176487D01*
X108648966Y-166261401D01*
X108390986Y-166399294D01*
X108164866Y-166584866D01*
X107979294Y-166810986D01*
X107841401Y-167068966D01*
X107756487Y-167348889D01*
X107727815Y-167640000D01*
X107756487Y-167931111D01*
X107841401Y-168211034D01*
X107979294Y-168469014D01*
X108164866Y-168695134D01*
X108390986Y-168880706D01*
X108445791Y-168910000D01*
X108390986Y-168939294D01*
X108164866Y-169124866D01*
X108148342Y-169145000D01*
X98218711Y-169145000D01*
X97555000Y-168481290D01*
X97555000Y-156638710D01*
X98111261Y-156082450D01*
X98230986Y-156180706D01*
X98285791Y-156210000D01*
X98230986Y-156239294D01*
X98004866Y-156424866D01*
X97819294Y-156650986D01*
X97681401Y-156908966D01*
X97596487Y-157188889D01*
X97567815Y-157480000D01*
X97596487Y-157771111D01*
X97681401Y-158051034D01*
X97819294Y-158309014D01*
X98004866Y-158535134D01*
X98034687Y-158559607D01*
X97965820Y-158580498D01*
X97855506Y-158639463D01*
X97758815Y-158718815D01*
X97679463Y-158815506D01*
X97620498Y-158925820D01*
X97584188Y-159045518D01*
X97571928Y-159170000D01*
X97571928Y-160870000D01*
X97584188Y-160994482D01*
X97620498Y-161114180D01*
X97679463Y-161224494D01*
X97758815Y-161321185D01*
X97855506Y-161400537D01*
X97965820Y-161459502D01*
X98085518Y-161495812D01*
X98210000Y-161508072D01*
X99910000Y-161508072D01*
X100034482Y-161495812D01*
X100154180Y-161459502D01*
X100264494Y-161400537D01*
X100361185Y-161321185D01*
X100440537Y-161224494D01*
X100499502Y-161114180D01*
X100535812Y-160994482D01*
X100548072Y-160870000D01*
X100548072Y-159170000D01*
X100535812Y-159045518D01*
X100499502Y-158925820D01*
X100440537Y-158815506D01*
X100361185Y-158718815D01*
X100264494Y-158639463D01*
X100154180Y-158580498D01*
X100085313Y-158559607D01*
X100115134Y-158535134D01*
X100300706Y-158309014D01*
X100438599Y-158051034D01*
X100523513Y-157771111D01*
X100552185Y-157480000D01*
X100523513Y-157188889D01*
X100438599Y-156908966D01*
X100300706Y-156650986D01*
X100115134Y-156424866D01*
X99889014Y-156239294D01*
X99834209Y-156210000D01*
X99889014Y-156180706D01*
X100115134Y-155995134D01*
X100300706Y-155769014D01*
X100438599Y-155511034D01*
X100523513Y-155231111D01*
X100552185Y-154940000D01*
X100523513Y-154648889D01*
X100438599Y-154368966D01*
X100300706Y-154110986D01*
X100115134Y-153884866D01*
X99889014Y-153699294D01*
X99834209Y-153670000D01*
X99889014Y-153640706D01*
X100115134Y-153455134D01*
X100131658Y-153435000D01*
X100279172Y-153435000D01*
X100330000Y-153440006D01*
X100380828Y-153435000D01*
X100380838Y-153435000D01*
X100532895Y-153420024D01*
X100727993Y-153360841D01*
X100907797Y-153264734D01*
X101065396Y-153135396D01*
X101097807Y-153095903D01*
X102295908Y-151897803D01*
X102335396Y-151865396D01*
X102370844Y-151822203D01*
X102464734Y-151707798D01*
X102537861Y-151570986D01*
X102560841Y-151527993D01*
X102620024Y-151332895D01*
X102635000Y-151180838D01*
X102635000Y-151180829D01*
X102640006Y-151130001D01*
X102635000Y-151079173D01*
X102635000Y-135940827D01*
X102640006Y-135889999D01*
X102635000Y-135839171D01*
X102635000Y-135839162D01*
X102620024Y-135687105D01*
X102560841Y-135492007D01*
X102466714Y-135315907D01*
X102464734Y-135312202D01*
X102367803Y-135194092D01*
X102335396Y-135154604D01*
X102295908Y-135122197D01*
X101097807Y-133924097D01*
X101065396Y-133884604D01*
X100907797Y-133755266D01*
X100727993Y-133659159D01*
X100532895Y-133599976D01*
X100380838Y-133585000D01*
X100380828Y-133585000D01*
X100330000Y-133579994D01*
X100279172Y-133585000D01*
X100131658Y-133585000D01*
X100115134Y-133564866D01*
X99889014Y-133379294D01*
X99824477Y-133344799D01*
X99941355Y-133275178D01*
X100157588Y-133080269D01*
X100331641Y-132846920D01*
X100456825Y-132584099D01*
X100501476Y-132436890D01*
X100380155Y-132207000D01*
X99187000Y-132207000D01*
X99187000Y-132227000D01*
X98933000Y-132227000D01*
X98933000Y-132207000D01*
X97739845Y-132207000D01*
X97618524Y-132436890D01*
X97663175Y-132584099D01*
X97788359Y-132846920D01*
X97962412Y-133080269D01*
X98178645Y-133275178D01*
X98295523Y-133344799D01*
X98230986Y-133379294D01*
X98004866Y-133564866D01*
X97819294Y-133790986D01*
X97681401Y-134048966D01*
X97596487Y-134328889D01*
X97567815Y-134620000D01*
X97596487Y-134911111D01*
X97681401Y-135191034D01*
X97819294Y-135449014D01*
X98004866Y-135675134D01*
X98230986Y-135860706D01*
X98285791Y-135890000D01*
X98230986Y-135919294D01*
X98004866Y-136104866D01*
X97819294Y-136330986D01*
X97681401Y-136588966D01*
X97596487Y-136868889D01*
X97567815Y-137160000D01*
X97596487Y-137451111D01*
X97681401Y-137731034D01*
X97819294Y-137989014D01*
X98004866Y-138215134D01*
X98230986Y-138400706D01*
X98285791Y-138430000D01*
X98230986Y-138459294D01*
X98004866Y-138644866D01*
X97819294Y-138870986D01*
X97681401Y-139128966D01*
X97596487Y-139408889D01*
X97567815Y-139700000D01*
X97596487Y-139991111D01*
X97681401Y-140271034D01*
X97819294Y-140529014D01*
X98004866Y-140755134D01*
X98034687Y-140779607D01*
X97965820Y-140800498D01*
X97855506Y-140859463D01*
X97758815Y-140938815D01*
X97679463Y-141035506D01*
X97620498Y-141145820D01*
X97584188Y-141265518D01*
X97571928Y-141390000D01*
X97571928Y-143090000D01*
X97584188Y-143214482D01*
X97620498Y-143334180D01*
X97679463Y-143444494D01*
X97758815Y-143541185D01*
X97855506Y-143620537D01*
X97965820Y-143679502D01*
X98085518Y-143715812D01*
X98210000Y-143728072D01*
X99910000Y-143728072D01*
X100034482Y-143715812D01*
X100154180Y-143679502D01*
X100264494Y-143620537D01*
X100361185Y-143541185D01*
X100440537Y-143444494D01*
X100499502Y-143334180D01*
X100535812Y-143214482D01*
X100548072Y-143090000D01*
X100548072Y-141390000D01*
X100535812Y-141265518D01*
X100499502Y-141145820D01*
X100440537Y-141035506D01*
X100361185Y-140938815D01*
X100264494Y-140859463D01*
X100154180Y-140800498D01*
X100085313Y-140779607D01*
X100115134Y-140755134D01*
X100300706Y-140529014D01*
X100438599Y-140271034D01*
X100523513Y-139991111D01*
X100552185Y-139700000D01*
X100523513Y-139408889D01*
X100438599Y-139128966D01*
X100300706Y-138870986D01*
X100115134Y-138644866D01*
X99889014Y-138459294D01*
X99834209Y-138430000D01*
X99889014Y-138400706D01*
X100115134Y-138215134D01*
X100300706Y-137989014D01*
X100438599Y-137731034D01*
X100523513Y-137451111D01*
X100552185Y-137160000D01*
X100523513Y-136868889D01*
X100438599Y-136588966D01*
X100300706Y-136330986D01*
X100115134Y-136104866D01*
X99889014Y-135919294D01*
X99834209Y-135890000D01*
X99889014Y-135860706D01*
X100008739Y-135762450D01*
X100565001Y-136318712D01*
X100565000Y-150701289D01*
X100008739Y-151257550D01*
X99889014Y-151159294D01*
X99824477Y-151124799D01*
X99941355Y-151055178D01*
X100157588Y-150860269D01*
X100331641Y-150626920D01*
X100456825Y-150364099D01*
X100501476Y-150216890D01*
X100380155Y-149987000D01*
X99187000Y-149987000D01*
X99187000Y-150007000D01*
X98933000Y-150007000D01*
X98933000Y-149987000D01*
X97739845Y-149987000D01*
X97618524Y-150216890D01*
X97663175Y-150364099D01*
X97788359Y-150626920D01*
X97962412Y-150860269D01*
X98178645Y-151055178D01*
X98295523Y-151124799D01*
X98230986Y-151159294D01*
X98004866Y-151344866D01*
X97819294Y-151570986D01*
X97681401Y-151828966D01*
X97596487Y-152108889D01*
X97567815Y-152400000D01*
X97596487Y-152691111D01*
X97681401Y-152971034D01*
X97819294Y-153229014D01*
X98004866Y-153455134D01*
X98230986Y-153640706D01*
X98285791Y-153670000D01*
X98230986Y-153699294D01*
X98004866Y-153884866D01*
X97988342Y-153905000D01*
X97840827Y-153905000D01*
X97789999Y-153899994D01*
X97739171Y-153905000D01*
X97739162Y-153905000D01*
X97587105Y-153919976D01*
X97392007Y-153979159D01*
X97308309Y-154023896D01*
X97212202Y-154075266D01*
X97094092Y-154172197D01*
X97054604Y-154204604D01*
X97022197Y-154244092D01*
X95824092Y-155442198D01*
X95784605Y-155474604D01*
X95752198Y-155514092D01*
X95752197Y-155514093D01*
X95655266Y-155632203D01*
X95559160Y-155812007D01*
X95499977Y-156007105D01*
X95479994Y-156210000D01*
X94754209Y-156210000D01*
X94809014Y-156180706D01*
X95035134Y-155995134D01*
X95220706Y-155769014D01*
X95358599Y-155511034D01*
X95443513Y-155231111D01*
X95472185Y-154940000D01*
X95443513Y-154648889D01*
X95358599Y-154368966D01*
X95220706Y-154110986D01*
X95035134Y-153884866D01*
X94809014Y-153699294D01*
X94754209Y-153670000D01*
X94809014Y-153640706D01*
X95035134Y-153455134D01*
X95220706Y-153229014D01*
X95358599Y-152971034D01*
X95443513Y-152691111D01*
X95472185Y-152400000D01*
X95443513Y-152108889D01*
X95358599Y-151828966D01*
X95220706Y-151570986D01*
X95035134Y-151344866D01*
X94809014Y-151159294D01*
X94754209Y-151130000D01*
X94809014Y-151100706D01*
X95035134Y-150915134D01*
X95220706Y-150689014D01*
X95358599Y-150431034D01*
X95443513Y-150151111D01*
X95472185Y-149860000D01*
X95443513Y-149568889D01*
X95358599Y-149288966D01*
X95220706Y-149030986D01*
X95035134Y-148804866D01*
X94809014Y-148619294D01*
X94754209Y-148590000D01*
X94809014Y-148560706D01*
X95035134Y-148375134D01*
X95220706Y-148149014D01*
X95358599Y-147891034D01*
X95443513Y-147611111D01*
X95472185Y-147320000D01*
X97567815Y-147320000D01*
X97596487Y-147611111D01*
X97681401Y-147891034D01*
X97819294Y-148149014D01*
X98004866Y-148375134D01*
X98230986Y-148560706D01*
X98295523Y-148595201D01*
X98178645Y-148664822D01*
X97962412Y-148859731D01*
X97788359Y-149093080D01*
X97663175Y-149355901D01*
X97618524Y-149503110D01*
X97739845Y-149733000D01*
X98933000Y-149733000D01*
X98933000Y-149713000D01*
X99187000Y-149713000D01*
X99187000Y-149733000D01*
X100380155Y-149733000D01*
X100501476Y-149503110D01*
X100456825Y-149355901D01*
X100331641Y-149093080D01*
X100157588Y-148859731D01*
X99941355Y-148664822D01*
X99824477Y-148595201D01*
X99889014Y-148560706D01*
X100115134Y-148375134D01*
X100300706Y-148149014D01*
X100438599Y-147891034D01*
X100523513Y-147611111D01*
X100552185Y-147320000D01*
X100523513Y-147028889D01*
X100438599Y-146748966D01*
X100300706Y-146490986D01*
X100115134Y-146264866D01*
X99889014Y-146079294D01*
X99631034Y-145941401D01*
X99351111Y-145856487D01*
X99132950Y-145835000D01*
X98987050Y-145835000D01*
X98768889Y-145856487D01*
X98488966Y-145941401D01*
X98230986Y-146079294D01*
X98004866Y-146264866D01*
X97819294Y-146490986D01*
X97681401Y-146748966D01*
X97596487Y-147028889D01*
X97567815Y-147320000D01*
X95472185Y-147320000D01*
X95443513Y-147028889D01*
X95358599Y-146748966D01*
X95220706Y-146490986D01*
X95035134Y-146264866D01*
X94809014Y-146079294D01*
X94754209Y-146050000D01*
X94809014Y-146020706D01*
X95035134Y-145835134D01*
X95220706Y-145609014D01*
X95358599Y-145351034D01*
X95443513Y-145071111D01*
X95472185Y-144780000D01*
X95443513Y-144488889D01*
X95358599Y-144208966D01*
X95220706Y-143950986D01*
X95035134Y-143724866D01*
X94809014Y-143539294D01*
X94754209Y-143510000D01*
X94809014Y-143480706D01*
X95035134Y-143295134D01*
X95220706Y-143069014D01*
X95358599Y-142811034D01*
X95443513Y-142531111D01*
X95472185Y-142240000D01*
X95443513Y-141948889D01*
X95358599Y-141668966D01*
X95220706Y-141410986D01*
X95035134Y-141184866D01*
X94809014Y-140999294D01*
X94754209Y-140970000D01*
X94809014Y-140940706D01*
X95035134Y-140755134D01*
X95220706Y-140529014D01*
X95358599Y-140271034D01*
X95443513Y-139991111D01*
X95472185Y-139700000D01*
X95443513Y-139408889D01*
X95358599Y-139128966D01*
X95220706Y-138870986D01*
X95035134Y-138644866D01*
X94809014Y-138459294D01*
X94754209Y-138430000D01*
X94809014Y-138400706D01*
X95035134Y-138215134D01*
X95220706Y-137989014D01*
X95358599Y-137731034D01*
X95443513Y-137451111D01*
X95472185Y-137160000D01*
X95443513Y-136868889D01*
X95358599Y-136588966D01*
X95220706Y-136330986D01*
X95035134Y-136104866D01*
X94809014Y-135919294D01*
X94754209Y-135890000D01*
X94809014Y-135860706D01*
X95035134Y-135675134D01*
X95220706Y-135449014D01*
X95358599Y-135191034D01*
X95443513Y-134911111D01*
X95472185Y-134620000D01*
X95443513Y-134328889D01*
X95358599Y-134048966D01*
X95220706Y-133790986D01*
X95035134Y-133564866D01*
X94809014Y-133379294D01*
X94754209Y-133350000D01*
X94809014Y-133320706D01*
X95035134Y-133135134D01*
X95220706Y-132909014D01*
X95358599Y-132651034D01*
X95443513Y-132371111D01*
X95472185Y-132080000D01*
X95443513Y-131788889D01*
X95358599Y-131508966D01*
X95220706Y-131250986D01*
X95035134Y-131024866D01*
X95005313Y-131000393D01*
X95074180Y-130979502D01*
X95184494Y-130920537D01*
X95281185Y-130841185D01*
X95360537Y-130744494D01*
X95419502Y-130634180D01*
X95455812Y-130514482D01*
X95468072Y-130390000D01*
X95465000Y-129825750D01*
X95306252Y-129667002D01*
X95465000Y-129667002D01*
X95465000Y-129540000D01*
X97567815Y-129540000D01*
X97596487Y-129831111D01*
X97681401Y-130111034D01*
X97819294Y-130369014D01*
X98004866Y-130595134D01*
X98230986Y-130780706D01*
X98295523Y-130815201D01*
X98178645Y-130884822D01*
X97962412Y-131079731D01*
X97788359Y-131313080D01*
X97663175Y-131575901D01*
X97618524Y-131723110D01*
X97739845Y-131953000D01*
X98933000Y-131953000D01*
X98933000Y-131933000D01*
X99187000Y-131933000D01*
X99187000Y-131953000D01*
X100380155Y-131953000D01*
X100501476Y-131723110D01*
X100456825Y-131575901D01*
X100331641Y-131313080D01*
X100157588Y-131079731D01*
X99941355Y-130884822D01*
X99824477Y-130815201D01*
X99889014Y-130780706D01*
X100115134Y-130595134D01*
X100300706Y-130369014D01*
X100438599Y-130111034D01*
X100523513Y-129831111D01*
X100552185Y-129540000D01*
X100523513Y-129248889D01*
X100438599Y-128968966D01*
X100300706Y-128710986D01*
X100115134Y-128484866D01*
X99889014Y-128299294D01*
X99631034Y-128161401D01*
X99351111Y-128076487D01*
X99132950Y-128055000D01*
X98987050Y-128055000D01*
X98768889Y-128076487D01*
X98488966Y-128161401D01*
X98230986Y-128299294D01*
X98004866Y-128484866D01*
X97819294Y-128710986D01*
X97681401Y-128968966D01*
X97596487Y-129248889D01*
X97567815Y-129540000D01*
X95465000Y-129540000D01*
X95465000Y-129412998D01*
X95306252Y-129412998D01*
X95465000Y-129254250D01*
X95468072Y-128690000D01*
X95455812Y-128565518D01*
X95419502Y-128445820D01*
X95360537Y-128335506D01*
X95281185Y-128238815D01*
X95184494Y-128159463D01*
X95074180Y-128100498D01*
X94954482Y-128064188D01*
X94830000Y-128051928D01*
X94265750Y-128055000D01*
X94107000Y-128213750D01*
X94107000Y-129413000D01*
X94127000Y-129413000D01*
X94127000Y-129667000D01*
X94107000Y-129667000D01*
X94107000Y-129687000D01*
X93853000Y-129687000D01*
X93853000Y-129667000D01*
X93833000Y-129667000D01*
X93833000Y-129413000D01*
X93853000Y-129413000D01*
X93853000Y-128213750D01*
X93694250Y-128055000D01*
X93130000Y-128051928D01*
X93005518Y-128064188D01*
X92885820Y-128100498D01*
X92775506Y-128159463D01*
X92678815Y-128238815D01*
X92599463Y-128335506D01*
X92540498Y-128445820D01*
X92504188Y-128565518D01*
X92491928Y-128690000D01*
X92495000Y-129254250D01*
X92653748Y-129412998D01*
X92495000Y-129412998D01*
X92495000Y-129667002D01*
X92653748Y-129667002D01*
X92495000Y-129825750D01*
X92491928Y-130390000D01*
X92504188Y-130514482D01*
X92540498Y-130634180D01*
X92599463Y-130744494D01*
X92678815Y-130841185D01*
X92775506Y-130920537D01*
X92885820Y-130979502D01*
X92954687Y-131000393D01*
X92924866Y-131024866D01*
X92908342Y-131045000D01*
X90598711Y-131045000D01*
X89935000Y-130381290D01*
X89935000Y-112831658D01*
X89955134Y-112815134D01*
X90140706Y-112589014D01*
X90170000Y-112534209D01*
X90199294Y-112589014D01*
X90384866Y-112815134D01*
X90610986Y-113000706D01*
X90868966Y-113138599D01*
X91148889Y-113223513D01*
X91367050Y-113245000D01*
X91512950Y-113245000D01*
X91731111Y-113223513D01*
X92011034Y-113138599D01*
X92269014Y-113000706D01*
X92495134Y-112815134D01*
X92680706Y-112589014D01*
X92710000Y-112534209D01*
X92739294Y-112589014D01*
X92924866Y-112815134D01*
X93150986Y-113000706D01*
X93408966Y-113138599D01*
X93688889Y-113223513D01*
X93907050Y-113245000D01*
X94052950Y-113245000D01*
X94271111Y-113223513D01*
X94551034Y-113138599D01*
X94809014Y-113000706D01*
X95035134Y-112815134D01*
X95220706Y-112589014D01*
X95250000Y-112534209D01*
X95279294Y-112589014D01*
X95464866Y-112815134D01*
X95690986Y-113000706D01*
X95948966Y-113138599D01*
X96228889Y-113223513D01*
X96447050Y-113245000D01*
X96592950Y-113245000D01*
X96811111Y-113223513D01*
X97091034Y-113138599D01*
X97349014Y-113000706D01*
X97575134Y-112815134D01*
X97760706Y-112589014D01*
X97898599Y-112331034D01*
X97983513Y-112051111D01*
X98012185Y-111760000D01*
X97983513Y-111468889D01*
X97898599Y-111188966D01*
X97760706Y-110930986D01*
X97575134Y-110704866D01*
X97349014Y-110519294D01*
X97091034Y-110381401D01*
X96811111Y-110296487D01*
X96592950Y-110275000D01*
X96447050Y-110275000D01*
X96228889Y-110296487D01*
X95948966Y-110381401D01*
X95690986Y-110519294D01*
X95464866Y-110704866D01*
X95279294Y-110930986D01*
X95250000Y-110985791D01*
X95220706Y-110930986D01*
X95035134Y-110704866D01*
X94809014Y-110519294D01*
X94551034Y-110381401D01*
X94271111Y-110296487D01*
X94052950Y-110275000D01*
X93907050Y-110275000D01*
X93688889Y-110296487D01*
X93408966Y-110381401D01*
X93150986Y-110519294D01*
X92924866Y-110704866D01*
X92739294Y-110930986D01*
X92710000Y-110985791D01*
X92680706Y-110930986D01*
X92495134Y-110704866D01*
X92269014Y-110519294D01*
X92011034Y-110381401D01*
X91731111Y-110296487D01*
X91512950Y-110275000D01*
X91367050Y-110275000D01*
X91148889Y-110296487D01*
X90868966Y-110381401D01*
X90610986Y-110519294D01*
X90384866Y-110704866D01*
X90199294Y-110930986D01*
X90170000Y-110985791D01*
X90140706Y-110930986D01*
X89955134Y-110704866D01*
X89729014Y-110519294D01*
X89471034Y-110381401D01*
X89191111Y-110296487D01*
X88972950Y-110275000D01*
X88827050Y-110275000D01*
X88608889Y-110296487D01*
X88328966Y-110381401D01*
X88070986Y-110519294D01*
X87844866Y-110704866D01*
X87659294Y-110930986D01*
X87630000Y-110985791D01*
X87600706Y-110930986D01*
X87415134Y-110704866D01*
X87189014Y-110519294D01*
X86931034Y-110381401D01*
X86651111Y-110296487D01*
X86432950Y-110275000D01*
X86287050Y-110275000D01*
X86068889Y-110296487D01*
X85788966Y-110381401D01*
X85530986Y-110519294D01*
X85304866Y-110704866D01*
X85119294Y-110930986D01*
X85090000Y-110985791D01*
X85060706Y-110930986D01*
X84875134Y-110704866D01*
X84649014Y-110519294D01*
X84391034Y-110381401D01*
X84111111Y-110296487D01*
X83892950Y-110275000D01*
X83747050Y-110275000D01*
X83528889Y-110296487D01*
X83248966Y-110381401D01*
X82990986Y-110519294D01*
X82764866Y-110704866D01*
X82740393Y-110734687D01*
X82719502Y-110665820D01*
X82660537Y-110555506D01*
X82581185Y-110458815D01*
X82484494Y-110379463D01*
X82374180Y-110320498D01*
X82254482Y-110284188D01*
X82130000Y-110271928D01*
X81565750Y-110275000D01*
X81407000Y-110433750D01*
X81153000Y-110433750D01*
X80994250Y-110275000D01*
X80430000Y-110271928D01*
X80305518Y-110284188D01*
X80185820Y-110320498D01*
X80075506Y-110379463D01*
X79978815Y-110458815D01*
X79899463Y-110555506D01*
X79840498Y-110665820D01*
X79804188Y-110785518D01*
X79791928Y-110910000D01*
X79775000Y-110910000D01*
X79775000Y-110291658D01*
X79795134Y-110275134D01*
X79980706Y-110049014D01*
X80118599Y-109791034D01*
X80203513Y-109511111D01*
X80232185Y-109220000D01*
X80203513Y-108928889D01*
X80118599Y-108648966D01*
X79980706Y-108390986D01*
X79795134Y-108164866D01*
X79569014Y-107979294D01*
X79311034Y-107841401D01*
X79031111Y-107756487D01*
X78812950Y-107735000D01*
X78667050Y-107735000D01*
X78448889Y-107756487D01*
X78168966Y-107841401D01*
X77910986Y-107979294D01*
X77684866Y-108164866D01*
X77499294Y-108390986D01*
X77470000Y-108445791D01*
X77440706Y-108390986D01*
X77255134Y-108164866D01*
X77029014Y-107979294D01*
X76771034Y-107841401D01*
X76491111Y-107756487D01*
X76272950Y-107735000D01*
X76127050Y-107735000D01*
X75908889Y-107756487D01*
X75628966Y-107841401D01*
X75370986Y-107979294D01*
X75144866Y-108164866D01*
X74959294Y-108390986D01*
X74924799Y-108455523D01*
X74855178Y-108338645D01*
X74660269Y-108122412D01*
X74426920Y-107948359D01*
X74164099Y-107823175D01*
X74016890Y-107778524D01*
X73787000Y-107899845D01*
X73787000Y-109093000D01*
X73807000Y-109093000D01*
X73807000Y-109347000D01*
X73787000Y-109347000D01*
X73787000Y-110540155D01*
X74016890Y-110661476D01*
X74164099Y-110616825D01*
X74426920Y-110491641D01*
X74660269Y-110317588D01*
X74855178Y-110101355D01*
X74924799Y-109984477D01*
X74959294Y-110049014D01*
X75144866Y-110275134D01*
X75165000Y-110291658D01*
X75165001Y-139271288D01*
X72561143Y-141875146D01*
X72498599Y-141668966D01*
X72360706Y-141410986D01*
X72175134Y-141184866D01*
X71949014Y-140999294D01*
X71894209Y-140970000D01*
X71949014Y-140940706D01*
X72175134Y-140755134D01*
X72360706Y-140529014D01*
X72498599Y-140271034D01*
X72583513Y-139991111D01*
X72612185Y-139700000D01*
X72583513Y-139408889D01*
X72498599Y-139128966D01*
X72360706Y-138870986D01*
X72175134Y-138644866D01*
X71949014Y-138459294D01*
X71894209Y-138430000D01*
X71949014Y-138400706D01*
X72175134Y-138215134D01*
X72360706Y-137989014D01*
X72498599Y-137731034D01*
X72583513Y-137451111D01*
X72612185Y-137160000D01*
X72583513Y-136868889D01*
X72498599Y-136588966D01*
X72360706Y-136330986D01*
X72175134Y-136104866D01*
X71949014Y-135919294D01*
X71894209Y-135890000D01*
X71949014Y-135860706D01*
X72175134Y-135675134D01*
X72360706Y-135449014D01*
X72498599Y-135191034D01*
X72583513Y-134911111D01*
X72612185Y-134620000D01*
X72583513Y-134328889D01*
X72498599Y-134048966D01*
X72360706Y-133790986D01*
X72175134Y-133564866D01*
X71949014Y-133379294D01*
X71894209Y-133350000D01*
X71949014Y-133320706D01*
X72175134Y-133135134D01*
X72360706Y-132909014D01*
X72498599Y-132651034D01*
X72583513Y-132371111D01*
X72612185Y-132080000D01*
X72583513Y-131788889D01*
X72498599Y-131508966D01*
X72360706Y-131250986D01*
X72175134Y-131024866D01*
X71949014Y-130839294D01*
X71894209Y-130810000D01*
X71949014Y-130780706D01*
X72175134Y-130595134D01*
X72360706Y-130369014D01*
X72498599Y-130111034D01*
X72583513Y-129831111D01*
X72612185Y-129540000D01*
X72583513Y-129248889D01*
X72498599Y-128968966D01*
X72360706Y-128710986D01*
X72175134Y-128484866D01*
X71949014Y-128299294D01*
X71691034Y-128161401D01*
X71411111Y-128076487D01*
X71192950Y-128055000D01*
X71047050Y-128055000D01*
X70828889Y-128076487D01*
X70548966Y-128161401D01*
X70290986Y-128299294D01*
X70064866Y-128484866D01*
X69879294Y-128710986D01*
X69741401Y-128968966D01*
X69656487Y-129248889D01*
X69627815Y-129540000D01*
X69656487Y-129831111D01*
X69741401Y-130111034D01*
X69879294Y-130369014D01*
X70064866Y-130595134D01*
X70290986Y-130780706D01*
X70345791Y-130810000D01*
X70290986Y-130839294D01*
X70171261Y-130937550D01*
X69615000Y-130381290D01*
X69615000Y-124888710D01*
X71148711Y-123355000D01*
X71261335Y-123355000D01*
X71538574Y-123299853D01*
X71799727Y-123191680D01*
X72034759Y-123034637D01*
X72234637Y-122834759D01*
X72391680Y-122599727D01*
X72499853Y-122338574D01*
X72555000Y-122061335D01*
X72555000Y-121778665D01*
X72499853Y-121501426D01*
X72391680Y-121240273D01*
X72234637Y-121005241D01*
X72034759Y-120805363D01*
X71799727Y-120648320D01*
X71538574Y-120540147D01*
X71261335Y-120485000D01*
X70978665Y-120485000D01*
X70701426Y-120540147D01*
X70440273Y-120648320D01*
X70205241Y-120805363D01*
X70005363Y-121005241D01*
X69848320Y-121240273D01*
X69740147Y-121501426D01*
X69685000Y-121778665D01*
X69685000Y-121891289D01*
X67884097Y-123692193D01*
X67844604Y-123724604D01*
X67715266Y-123882203D01*
X67619159Y-124062008D01*
X67559976Y-124257106D01*
X67545000Y-124409163D01*
X67545000Y-124409172D01*
X67539994Y-124460000D01*
X66725000Y-124460000D01*
X66725000Y-115412702D01*
X70306903Y-115412702D01*
X70378486Y-115656671D01*
X70633996Y-115777571D01*
X70908184Y-115846300D01*
X71190512Y-115860217D01*
X71470130Y-115818787D01*
X71736292Y-115723603D01*
X71861514Y-115656671D01*
X71933097Y-115412702D01*
X71120000Y-114599605D01*
X70306903Y-115412702D01*
X66725000Y-115412702D01*
X66725000Y-114490512D01*
X69679783Y-114490512D01*
X69721213Y-114770130D01*
X69816397Y-115036292D01*
X69883329Y-115161514D01*
X70127298Y-115233097D01*
X70940395Y-114420000D01*
X71299605Y-114420000D01*
X72112702Y-115233097D01*
X72356671Y-115161514D01*
X72477571Y-114906004D01*
X72546300Y-114631816D01*
X72560217Y-114349488D01*
X72518787Y-114069870D01*
X72423603Y-113803708D01*
X72356671Y-113678486D01*
X72112702Y-113606903D01*
X71299605Y-114420000D01*
X70940395Y-114420000D01*
X70127298Y-113606903D01*
X69883329Y-113678486D01*
X69762429Y-113933996D01*
X69693700Y-114208184D01*
X69679783Y-114490512D01*
X66725000Y-114490512D01*
X66725000Y-113427298D01*
X70306903Y-113427298D01*
X71120000Y-114240395D01*
X71933097Y-113427298D01*
X71861514Y-113183329D01*
X71606004Y-113062429D01*
X71331816Y-112993700D01*
X71049488Y-112979783D01*
X70769870Y-113021213D01*
X70503708Y-113116397D01*
X70378486Y-113183329D01*
X70306903Y-113427298D01*
X66725000Y-113427298D01*
X66725000Y-108370000D01*
X69631928Y-108370000D01*
X69631928Y-110070000D01*
X69644188Y-110194482D01*
X69680498Y-110314180D01*
X69739463Y-110424494D01*
X69818815Y-110521185D01*
X69915506Y-110600537D01*
X70025820Y-110659502D01*
X70145518Y-110695812D01*
X70270000Y-110708072D01*
X71970000Y-110708072D01*
X72094482Y-110695812D01*
X72214180Y-110659502D01*
X72324494Y-110600537D01*
X72421185Y-110521185D01*
X72500537Y-110424494D01*
X72559502Y-110314180D01*
X72583966Y-110233534D01*
X72659731Y-110317588D01*
X72893080Y-110491641D01*
X73155901Y-110616825D01*
X73303110Y-110661476D01*
X73533000Y-110540155D01*
X73533000Y-109347000D01*
X73513000Y-109347000D01*
X73513000Y-109093000D01*
X73533000Y-109093000D01*
X73533000Y-107899845D01*
X73303110Y-107778524D01*
X73155901Y-107823175D01*
X72893080Y-107948359D01*
X72659731Y-108122412D01*
X72583966Y-108206466D01*
X72559502Y-108125820D01*
X72500537Y-108015506D01*
X72421185Y-107918815D01*
X72324494Y-107839463D01*
X72214180Y-107780498D01*
X72094482Y-107744188D01*
X71970000Y-107731928D01*
X70270000Y-107731928D01*
X70145518Y-107744188D01*
X70025820Y-107780498D01*
X69915506Y-107839463D01*
X69818815Y-107918815D01*
X69739463Y-108015506D01*
X69680498Y-108125820D01*
X69644188Y-108245518D01*
X69631928Y-108370000D01*
X66725000Y-108370000D01*
X66725000Y-107365000D01*
X111075001Y-107365000D01*
X111075000Y-179655000D01*
X111075000Y-179655000D01*
G37*
X111075000Y-179655000D02*
X66725000Y-179655000D01*
X66725000Y-178650000D01*
X107731928Y-178650000D01*
X107744188Y-178774482D01*
X107780498Y-178894180D01*
X107839463Y-179004494D01*
X107918815Y-179101185D01*
X108015506Y-179180537D01*
X108125820Y-179239502D01*
X108245518Y-179275812D01*
X108370000Y-179288072D01*
X108934250Y-179285000D01*
X109093000Y-179126250D01*
X109093000Y-177927000D01*
X109347000Y-177927000D01*
X109347000Y-179126250D01*
X109505750Y-179285000D01*
X110070000Y-179288072D01*
X110194482Y-179275812D01*
X110314180Y-179239502D01*
X110424494Y-179180537D01*
X110521185Y-179101185D01*
X110600537Y-179004494D01*
X110659502Y-178894180D01*
X110695812Y-178774482D01*
X110708072Y-178650000D01*
X110705000Y-178085750D01*
X110546250Y-177927000D01*
X109347000Y-177927000D01*
X109093000Y-177927000D01*
X107893750Y-177927000D01*
X107735000Y-178085750D01*
X107731928Y-178650000D01*
X66725000Y-178650000D01*
X66725000Y-124460000D01*
X67539994Y-124460000D01*
X67545000Y-124510828D01*
X67545001Y-130759162D01*
X67539994Y-130810000D01*
X67559977Y-131012895D01*
X67619160Y-131207993D01*
X67715266Y-131387797D01*
X67809157Y-131502203D01*
X67844605Y-131545396D01*
X67884092Y-131577802D01*
X69082197Y-132775908D01*
X69114604Y-132815396D01*
X69154092Y-132847803D01*
X69272202Y-132944734D01*
X69368309Y-132996104D01*
X69452007Y-133040841D01*
X69647105Y-133100024D01*
X69799162Y-133115000D01*
X69799171Y-133115000D01*
X69849999Y-133120006D01*
X69900827Y-133115000D01*
X70048342Y-133115000D01*
X70064866Y-133135134D01*
X70290986Y-133320706D01*
X70345791Y-133350000D01*
X70290986Y-133379294D01*
X70064866Y-133564866D01*
X69879294Y-133790986D01*
X69741401Y-134048966D01*
X69656487Y-134328889D01*
X69627815Y-134620000D01*
X69656487Y-134911111D01*
X69741401Y-135191034D01*
X69879294Y-135449014D01*
X70064866Y-135675134D01*
X70290986Y-135860706D01*
X70345791Y-135890000D01*
X70290986Y-135919294D01*
X70064866Y-136104866D01*
X69879294Y-136330986D01*
X69741401Y-136588966D01*
X69656487Y-136868889D01*
X69627815Y-137160000D01*
X69656487Y-137451111D01*
X69741401Y-137731034D01*
X69879294Y-137989014D01*
X70064866Y-138215134D01*
X70290986Y-138400706D01*
X70345791Y-138430000D01*
X70290986Y-138459294D01*
X70064866Y-138644866D01*
X69879294Y-138870986D01*
X69741401Y-139128966D01*
X69656487Y-139408889D01*
X69627815Y-139700000D01*
X69656487Y-139991111D01*
X69741401Y-140271034D01*
X69879294Y-140529014D01*
X70064866Y-140755134D01*
X70290986Y-140940706D01*
X70345791Y-140970000D01*
X70290986Y-140999294D01*
X70064866Y-141184866D01*
X69879294Y-141410986D01*
X69741401Y-141668966D01*
X69656487Y-141948889D01*
X69627815Y-142240000D01*
X69656487Y-142531111D01*
X69741401Y-142811034D01*
X69879294Y-143069014D01*
X70064866Y-143295134D01*
X70290986Y-143480706D01*
X70345791Y-143510000D01*
X70290986Y-143539294D01*
X70064866Y-143724866D01*
X69879294Y-143950986D01*
X69741401Y-144208966D01*
X69656487Y-144488889D01*
X69627815Y-144780000D01*
X69656487Y-145071111D01*
X69741401Y-145351034D01*
X69879294Y-145609014D01*
X70064866Y-145835134D01*
X70290986Y-146020706D01*
X70345791Y-146050000D01*
X70290986Y-146079294D01*
X70064866Y-146264866D01*
X69879294Y-146490986D01*
X69741401Y-146748966D01*
X69656487Y-147028889D01*
X69627815Y-147320000D01*
X69656487Y-147611111D01*
X69741401Y-147891034D01*
X69879294Y-148149014D01*
X70064866Y-148375134D01*
X70290986Y-148560706D01*
X70345791Y-148590000D01*
X70290986Y-148619294D01*
X70064866Y-148804866D01*
X69879294Y-149030986D01*
X69741401Y-149288966D01*
X69656487Y-149568889D01*
X69627815Y-149860000D01*
X69656487Y-150151111D01*
X69741401Y-150431034D01*
X69879294Y-150689014D01*
X70064866Y-150915134D01*
X70290986Y-151100706D01*
X70345791Y-151130000D01*
X70290986Y-151159294D01*
X70064866Y-151344866D01*
X69879294Y-151570986D01*
X69741401Y-151828966D01*
X69656487Y-152108889D01*
X69627815Y-152400000D01*
X69656487Y-152691111D01*
X69741401Y-152971034D01*
X69879294Y-153229014D01*
X70064866Y-153455134D01*
X70290986Y-153640706D01*
X70345791Y-153670000D01*
X70290986Y-153699294D01*
X70064866Y-153884866D01*
X69879294Y-154110986D01*
X69741401Y-154368966D01*
X69656487Y-154648889D01*
X69627815Y-154940000D01*
X69656487Y-155231111D01*
X69741401Y-155511034D01*
X69879294Y-155769014D01*
X70064866Y-155995134D01*
X70290986Y-156180706D01*
X70345791Y-156210000D01*
X70290986Y-156239294D01*
X70064866Y-156424866D01*
X69879294Y-156650986D01*
X69741401Y-156908966D01*
X69656487Y-157188889D01*
X69627815Y-157480000D01*
X69656487Y-157771111D01*
X69741401Y-158051034D01*
X69879294Y-158309014D01*
X70064866Y-158535134D01*
X70290986Y-158720706D01*
X70345791Y-158750000D01*
X70290986Y-158779294D01*
X70064866Y-158964866D01*
X69879294Y-159190986D01*
X69741401Y-159448966D01*
X69656487Y-159728889D01*
X69627815Y-160020000D01*
X69656487Y-160311111D01*
X69741401Y-160591034D01*
X69879294Y-160849014D01*
X70064866Y-161075134D01*
X70290986Y-161260706D01*
X70345791Y-161290000D01*
X70290986Y-161319294D01*
X70064866Y-161504866D01*
X69879294Y-161730986D01*
X69741401Y-161988966D01*
X69656487Y-162268889D01*
X69627815Y-162560000D01*
X69656487Y-162851111D01*
X69741401Y-163131034D01*
X69879294Y-163389014D01*
X70064866Y-163615134D01*
X70290986Y-163800706D01*
X70345791Y-163830000D01*
X70290986Y-163859294D01*
X70064866Y-164044866D01*
X69879294Y-164270986D01*
X69741401Y-164528966D01*
X69656487Y-164808889D01*
X69627815Y-165100000D01*
X69656487Y-165391111D01*
X69741401Y-165671034D01*
X69879294Y-165929014D01*
X70064866Y-166155134D01*
X70094687Y-166179607D01*
X70025820Y-166200498D01*
X69915506Y-166259463D01*
X69818815Y-166338815D01*
X69739463Y-166435506D01*
X69680498Y-166545820D01*
X69644188Y-166665518D01*
X69631928Y-166790000D01*
X69631928Y-168490000D01*
X69644188Y-168614482D01*
X69680498Y-168734180D01*
X69739463Y-168844494D01*
X69818815Y-168941185D01*
X69915506Y-169020537D01*
X70025820Y-169079502D01*
X70145518Y-169115812D01*
X70270000Y-169128072D01*
X71970000Y-169128072D01*
X72094482Y-169115812D01*
X72214180Y-169079502D01*
X72324494Y-169020537D01*
X72421185Y-168941185D01*
X72500537Y-168844494D01*
X72559502Y-168734180D01*
X72595812Y-168614482D01*
X72608072Y-168490000D01*
X72608072Y-167996890D01*
X92538524Y-167996890D01*
X92583175Y-168144099D01*
X92708359Y-168406920D01*
X92882412Y-168640269D01*
X93098645Y-168835178D01*
X93348748Y-168984157D01*
X93623109Y-169081481D01*
X93853000Y-168960814D01*
X93853000Y-167767000D01*
X94107000Y-167767000D01*
X94107000Y-168960814D01*
X94336891Y-169081481D01*
X94611252Y-168984157D01*
X94861355Y-168835178D01*
X95077588Y-168640269D01*
X95251641Y-168406920D01*
X95376825Y-168144099D01*
X95421476Y-167996890D01*
X95300155Y-167767000D01*
X94107000Y-167767000D01*
X93853000Y-167767000D01*
X92659845Y-167767000D01*
X92538524Y-167996890D01*
X72608072Y-167996890D01*
X72608072Y-166790000D01*
X72595812Y-166665518D01*
X72559502Y-166545820D01*
X72500537Y-166435506D01*
X72421185Y-166338815D01*
X72324494Y-166259463D01*
X72214180Y-166200498D01*
X72145313Y-166179607D01*
X72175134Y-166155134D01*
X72360706Y-165929014D01*
X72498599Y-165671034D01*
X72583513Y-165391111D01*
X72612185Y-165100000D01*
X72583513Y-164808889D01*
X72498599Y-164528966D01*
X72360706Y-164270986D01*
X72175134Y-164044866D01*
X71949014Y-163859294D01*
X71894209Y-163830000D01*
X71949014Y-163800706D01*
X72175134Y-163615134D01*
X72360706Y-163389014D01*
X72498599Y-163131034D01*
X72583513Y-162851111D01*
X72612185Y-162560000D01*
X72583513Y-162268889D01*
X72498599Y-161988966D01*
X72360706Y-161730986D01*
X72175134Y-161504866D01*
X71949014Y-161319294D01*
X71894209Y-161290000D01*
X71949014Y-161260706D01*
X72175134Y-161075134D01*
X72360706Y-160849014D01*
X72498599Y-160591034D01*
X72583513Y-160311111D01*
X72612185Y-160020000D01*
X72583513Y-159728889D01*
X72498599Y-159448966D01*
X72360706Y-159190986D01*
X72175134Y-158964866D01*
X71949014Y-158779294D01*
X71894209Y-158750000D01*
X71949014Y-158720706D01*
X72175134Y-158535134D01*
X72360706Y-158309014D01*
X72498599Y-158051034D01*
X72583513Y-157771111D01*
X72612185Y-157480000D01*
X72583513Y-157188889D01*
X72498599Y-156908966D01*
X72360706Y-156650986D01*
X72175134Y-156424866D01*
X71949014Y-156239294D01*
X71894209Y-156210000D01*
X71949014Y-156180706D01*
X72175134Y-155995134D01*
X72360706Y-155769014D01*
X72498599Y-155511034D01*
X72583513Y-155231111D01*
X72612185Y-154940000D01*
X72583513Y-154648889D01*
X72498599Y-154368966D01*
X72360706Y-154110986D01*
X72175134Y-153884866D01*
X71949014Y-153699294D01*
X71894209Y-153670000D01*
X71949014Y-153640706D01*
X72175134Y-153455134D01*
X72360706Y-153229014D01*
X72498599Y-152971034D01*
X72583513Y-152691111D01*
X72612185Y-152400000D01*
X72583513Y-152108889D01*
X72498599Y-151828966D01*
X72360706Y-151570986D01*
X72175134Y-151344866D01*
X71949014Y-151159294D01*
X71894209Y-151130000D01*
X71949014Y-151100706D01*
X72175134Y-150915134D01*
X72360706Y-150689014D01*
X72498599Y-150431034D01*
X72583513Y-150151111D01*
X72612185Y-149860000D01*
X72583513Y-149568889D01*
X72498599Y-149288966D01*
X72360706Y-149030986D01*
X72175134Y-148804866D01*
X71949014Y-148619294D01*
X71894209Y-148590000D01*
X71949014Y-148560706D01*
X72175134Y-148375134D01*
X72360706Y-148149014D01*
X72498599Y-147891034D01*
X72583513Y-147611111D01*
X72612185Y-147320000D01*
X72609632Y-147294078D01*
X79435908Y-140467803D01*
X79475396Y-140435396D01*
X79507803Y-140395908D01*
X79604734Y-140277798D01*
X79700840Y-140097994D01*
X79700841Y-140097993D01*
X79760024Y-139902895D01*
X79775000Y-139750838D01*
X79775000Y-139750829D01*
X79780006Y-139700001D01*
X79775000Y-139649173D01*
X79775000Y-112610000D01*
X79791928Y-112610000D01*
X79804188Y-112734482D01*
X79840498Y-112854180D01*
X79899463Y-112964494D01*
X79978815Y-113061185D01*
X80075506Y-113140537D01*
X80185820Y-113199502D01*
X80305518Y-113235812D01*
X80430000Y-113248072D01*
X80994250Y-113245000D01*
X81153000Y-113086250D01*
X81153000Y-111887000D01*
X79953750Y-111887000D01*
X79795000Y-112045750D01*
X79791928Y-112610000D01*
X79775000Y-112610000D01*
X79775000Y-110910000D01*
X79791928Y-110910000D01*
X79795000Y-111474250D01*
X79953750Y-111633000D01*
X81153000Y-111633000D01*
X81153000Y-110433750D01*
X81407000Y-110433750D01*
X81407000Y-111633000D01*
X81427000Y-111633000D01*
X81427000Y-111887000D01*
X81407000Y-111887000D01*
X81407000Y-113086250D01*
X81565750Y-113245000D01*
X82130000Y-113248072D01*
X82254482Y-113235812D01*
X82374180Y-113199502D01*
X82484494Y-113140537D01*
X82581185Y-113061185D01*
X82660537Y-112964494D01*
X82719502Y-112854180D01*
X82740393Y-112785313D01*
X82764866Y-112815134D01*
X82990986Y-113000706D01*
X83248966Y-113138599D01*
X83528889Y-113223513D01*
X83747050Y-113245000D01*
X83892950Y-113245000D01*
X84111111Y-113223513D01*
X84391034Y-113138599D01*
X84649014Y-113000706D01*
X84875134Y-112815134D01*
X85060706Y-112589014D01*
X85090000Y-112534209D01*
X85119294Y-112589014D01*
X85304866Y-112815134D01*
X85325001Y-112831658D01*
X85325000Y-145999172D01*
X85319994Y-146050000D01*
X85325000Y-146100828D01*
X85325000Y-146100837D01*
X85339976Y-146252894D01*
X85399159Y-146447992D01*
X85495266Y-146627797D01*
X85624604Y-146785396D01*
X85664097Y-146817807D01*
X86862197Y-148015908D01*
X86894604Y-148055396D01*
X86934092Y-148087803D01*
X87052202Y-148184734D01*
X87148309Y-148236104D01*
X87232007Y-148280841D01*
X87427105Y-148340024D01*
X87579162Y-148355000D01*
X87579171Y-148355000D01*
X87629999Y-148360006D01*
X87680827Y-148355000D01*
X92908342Y-148355000D01*
X92924866Y-148375134D01*
X93150986Y-148560706D01*
X93205791Y-148590000D01*
X93150986Y-148619294D01*
X92924866Y-148804866D01*
X92739294Y-149030986D01*
X92601401Y-149288966D01*
X92516487Y-149568889D01*
X92487815Y-149860000D01*
X92516487Y-150151111D01*
X92601401Y-150431034D01*
X92739294Y-150689014D01*
X92924866Y-150915134D01*
X93150986Y-151100706D01*
X93205791Y-151130000D01*
X93150986Y-151159294D01*
X92924866Y-151344866D01*
X92739294Y-151570986D01*
X92601401Y-151828966D01*
X92516487Y-152108889D01*
X92487815Y-152400000D01*
X92516487Y-152691111D01*
X92601401Y-152971034D01*
X92739294Y-153229014D01*
X92924866Y-153455134D01*
X93150986Y-153640706D01*
X93205791Y-153670000D01*
X93150986Y-153699294D01*
X92924866Y-153884866D01*
X92739294Y-154110986D01*
X92601401Y-154368966D01*
X92516487Y-154648889D01*
X92487815Y-154940000D01*
X92516487Y-155231111D01*
X92601401Y-155511034D01*
X92739294Y-155769014D01*
X92924866Y-155995134D01*
X93150986Y-156180706D01*
X93205791Y-156210000D01*
X93150986Y-156239294D01*
X92924866Y-156424866D01*
X92739294Y-156650986D01*
X92601401Y-156908966D01*
X92516487Y-157188889D01*
X92487815Y-157480000D01*
X92516487Y-157771111D01*
X92601401Y-158051034D01*
X92739294Y-158309014D01*
X92924866Y-158535134D01*
X93150986Y-158720706D01*
X93205791Y-158750000D01*
X93150986Y-158779294D01*
X92924866Y-158964866D01*
X92739294Y-159190986D01*
X92601401Y-159448966D01*
X92516487Y-159728889D01*
X92487815Y-160020000D01*
X92516487Y-160311111D01*
X92601401Y-160591034D01*
X92739294Y-160849014D01*
X92924866Y-161075134D01*
X93150986Y-161260706D01*
X93205791Y-161290000D01*
X93150986Y-161319294D01*
X92924866Y-161504866D01*
X92739294Y-161730986D01*
X92601401Y-161988966D01*
X92516487Y-162268889D01*
X92487815Y-162560000D01*
X92516487Y-162851111D01*
X92601401Y-163131034D01*
X92739294Y-163389014D01*
X92924866Y-163615134D01*
X93150986Y-163800706D01*
X93205791Y-163830000D01*
X93150986Y-163859294D01*
X92924866Y-164044866D01*
X92739294Y-164270986D01*
X92601401Y-164528966D01*
X92516487Y-164808889D01*
X92487815Y-165100000D01*
X92516487Y-165391111D01*
X92601401Y-165671034D01*
X92739294Y-165929014D01*
X92924866Y-166155134D01*
X93150986Y-166340706D01*
X93215523Y-166375201D01*
X93098645Y-166444822D01*
X92882412Y-166639731D01*
X92708359Y-166873080D01*
X92583175Y-167135901D01*
X92538524Y-167283110D01*
X92659845Y-167513000D01*
X93853000Y-167513000D01*
X93853000Y-167493000D01*
X94107000Y-167493000D01*
X94107000Y-167513000D01*
X95300155Y-167513000D01*
X95421476Y-167283110D01*
X95376825Y-167135901D01*
X95251641Y-166873080D01*
X95077588Y-166639731D01*
X94861355Y-166444822D01*
X94744477Y-166375201D01*
X94809014Y-166340706D01*
X95035134Y-166155134D01*
X95220706Y-165929014D01*
X95358599Y-165671034D01*
X95443513Y-165391111D01*
X95472185Y-165100000D01*
X95443513Y-164808889D01*
X95358599Y-164528966D01*
X95220706Y-164270986D01*
X95035134Y-164044866D01*
X94809014Y-163859294D01*
X94754209Y-163830000D01*
X94809014Y-163800706D01*
X95035134Y-163615134D01*
X95220706Y-163389014D01*
X95358599Y-163131034D01*
X95443513Y-162851111D01*
X95472185Y-162560000D01*
X95443513Y-162268889D01*
X95358599Y-161988966D01*
X95220706Y-161730986D01*
X95035134Y-161504866D01*
X94809014Y-161319294D01*
X94754209Y-161290000D01*
X94809014Y-161260706D01*
X95035134Y-161075134D01*
X95220706Y-160849014D01*
X95358599Y-160591034D01*
X95443513Y-160311111D01*
X95472185Y-160020000D01*
X95443513Y-159728889D01*
X95358599Y-159448966D01*
X95220706Y-159190986D01*
X95035134Y-158964866D01*
X94809014Y-158779294D01*
X94754209Y-158750000D01*
X94809014Y-158720706D01*
X95035134Y-158535134D01*
X95220706Y-158309014D01*
X95358599Y-158051034D01*
X95443513Y-157771111D01*
X95472185Y-157480000D01*
X95443513Y-157188889D01*
X95358599Y-156908966D01*
X95220706Y-156650986D01*
X95035134Y-156424866D01*
X94809014Y-156239294D01*
X94754209Y-156210000D01*
X95479994Y-156210000D01*
X95485001Y-156260838D01*
X95485000Y-168859172D01*
X95479994Y-168910000D01*
X95485000Y-168960828D01*
X95485000Y-168960837D01*
X95499976Y-169112894D01*
X95559159Y-169307992D01*
X95655266Y-169487797D01*
X95784604Y-169645396D01*
X95824097Y-169677807D01*
X97022197Y-170875908D01*
X97054604Y-170915396D01*
X97094092Y-170947803D01*
X97212202Y-171044734D01*
X97308309Y-171096104D01*
X97392007Y-171140841D01*
X97587105Y-171200024D01*
X97739162Y-171215000D01*
X97739171Y-171215000D01*
X97789999Y-171220006D01*
X97840827Y-171215000D01*
X108148342Y-171215000D01*
X108164866Y-171235134D01*
X108390986Y-171420706D01*
X108445791Y-171450000D01*
X108390986Y-171479294D01*
X108164866Y-171664866D01*
X107979294Y-171890986D01*
X107841401Y-172148966D01*
X107756487Y-172428889D01*
X107727815Y-172720000D01*
X107756487Y-173011111D01*
X107841401Y-173291034D01*
X107979294Y-173549014D01*
X108164866Y-173775134D01*
X108390986Y-173960706D01*
X108445791Y-173990000D01*
X108390986Y-174019294D01*
X108164866Y-174204866D01*
X107979294Y-174430986D01*
X107841401Y-174688966D01*
X107756487Y-174968889D01*
X107727815Y-175260000D01*
X107756487Y-175551111D01*
X107841401Y-175831034D01*
X107979294Y-176089014D01*
X108164866Y-176315134D01*
X108194687Y-176339607D01*
X108125820Y-176360498D01*
X108015506Y-176419463D01*
X107918815Y-176498815D01*
X107839463Y-176595506D01*
X107780498Y-176705820D01*
X107744188Y-176825518D01*
X107731928Y-176950000D01*
X107735000Y-177514250D01*
X107893750Y-177673000D01*
X109093000Y-177673000D01*
X109093000Y-177653000D01*
X109347000Y-177653000D01*
X109347000Y-177673000D01*
X110546250Y-177673000D01*
X110705000Y-177514250D01*
X110708072Y-176950000D01*
X110695812Y-176825518D01*
X110659502Y-176705820D01*
X110600537Y-176595506D01*
X110521185Y-176498815D01*
X110424494Y-176419463D01*
X110314180Y-176360498D01*
X110245313Y-176339607D01*
X110275134Y-176315134D01*
X110460706Y-176089014D01*
X110598599Y-175831034D01*
X110683513Y-175551111D01*
X110712185Y-175260000D01*
X110683513Y-174968889D01*
X110598599Y-174688966D01*
X110460706Y-174430986D01*
X110275134Y-174204866D01*
X110049014Y-174019294D01*
X109994209Y-173990000D01*
X110049014Y-173960706D01*
X110275134Y-173775134D01*
X110460706Y-173549014D01*
X110598599Y-173291034D01*
X110683513Y-173011111D01*
X110712185Y-172720000D01*
X110683513Y-172428889D01*
X110598599Y-172148966D01*
X110460706Y-171890986D01*
X110275134Y-171664866D01*
X110049014Y-171479294D01*
X109994209Y-171450000D01*
X110049014Y-171420706D01*
X110275134Y-171235134D01*
X110460706Y-171009014D01*
X110598599Y-170751034D01*
X110683513Y-170471111D01*
X110712185Y-170180000D01*
X110683513Y-169888889D01*
X110598599Y-169608966D01*
X110460706Y-169350986D01*
X110275134Y-169124866D01*
X110049014Y-168939294D01*
X109994209Y-168910000D01*
X110049014Y-168880706D01*
X110275134Y-168695134D01*
X110460706Y-168469014D01*
X110598599Y-168211034D01*
X110683513Y-167931111D01*
X110712185Y-167640000D01*
X110683513Y-167348889D01*
X110598599Y-167068966D01*
X110460706Y-166810986D01*
X110275134Y-166584866D01*
X110049014Y-166399294D01*
X109791034Y-166261401D01*
X109511111Y-166176487D01*
X109292950Y-166155000D01*
X109147050Y-166155000D01*
X108928889Y-166176487D01*
X108648966Y-166261401D01*
X108390986Y-166399294D01*
X108164866Y-166584866D01*
X107979294Y-166810986D01*
X107841401Y-167068966D01*
X107756487Y-167348889D01*
X107727815Y-167640000D01*
X107756487Y-167931111D01*
X107841401Y-168211034D01*
X107979294Y-168469014D01*
X108164866Y-168695134D01*
X108390986Y-168880706D01*
X108445791Y-168910000D01*
X108390986Y-168939294D01*
X108164866Y-169124866D01*
X108148342Y-169145000D01*
X98218711Y-169145000D01*
X97555000Y-168481290D01*
X97555000Y-156638710D01*
X98111261Y-156082450D01*
X98230986Y-156180706D01*
X98285791Y-156210000D01*
X98230986Y-156239294D01*
X98004866Y-156424866D01*
X97819294Y-156650986D01*
X97681401Y-156908966D01*
X97596487Y-157188889D01*
X97567815Y-157480000D01*
X97596487Y-157771111D01*
X97681401Y-158051034D01*
X97819294Y-158309014D01*
X98004866Y-158535134D01*
X98034687Y-158559607D01*
X97965820Y-158580498D01*
X97855506Y-158639463D01*
X97758815Y-158718815D01*
X97679463Y-158815506D01*
X97620498Y-158925820D01*
X97584188Y-159045518D01*
X97571928Y-159170000D01*
X97571928Y-160870000D01*
X97584188Y-160994482D01*
X97620498Y-161114180D01*
X97679463Y-161224494D01*
X97758815Y-161321185D01*
X97855506Y-161400537D01*
X97965820Y-161459502D01*
X98085518Y-161495812D01*
X98210000Y-161508072D01*
X99910000Y-161508072D01*
X100034482Y-161495812D01*
X100154180Y-161459502D01*
X100264494Y-161400537D01*
X100361185Y-161321185D01*
X100440537Y-161224494D01*
X100499502Y-161114180D01*
X100535812Y-160994482D01*
X100548072Y-160870000D01*
X100548072Y-159170000D01*
X100535812Y-159045518D01*
X100499502Y-158925820D01*
X100440537Y-158815506D01*
X100361185Y-158718815D01*
X100264494Y-158639463D01*
X100154180Y-158580498D01*
X100085313Y-158559607D01*
X100115134Y-158535134D01*
X100300706Y-158309014D01*
X100438599Y-158051034D01*
X100523513Y-157771111D01*
X100552185Y-157480000D01*
X100523513Y-157188889D01*
X100438599Y-156908966D01*
X100300706Y-156650986D01*
X100115134Y-156424866D01*
X99889014Y-156239294D01*
X99834209Y-156210000D01*
X99889014Y-156180706D01*
X100115134Y-155995134D01*
X100300706Y-155769014D01*
X100438599Y-155511034D01*
X100523513Y-155231111D01*
X100552185Y-154940000D01*
X100523513Y-154648889D01*
X100438599Y-154368966D01*
X100300706Y-154110986D01*
X100115134Y-153884866D01*
X99889014Y-153699294D01*
X99834209Y-153670000D01*
X99889014Y-153640706D01*
X100115134Y-153455134D01*
X100131658Y-153435000D01*
X100279172Y-153435000D01*
X100330000Y-153440006D01*
X100380828Y-153435000D01*
X100380838Y-153435000D01*
X100532895Y-153420024D01*
X100727993Y-153360841D01*
X100907797Y-153264734D01*
X101065396Y-153135396D01*
X101097807Y-153095903D01*
X102295908Y-151897803D01*
X102335396Y-151865396D01*
X102370844Y-151822203D01*
X102464734Y-151707798D01*
X102537861Y-151570986D01*
X102560841Y-151527993D01*
X102620024Y-151332895D01*
X102635000Y-151180838D01*
X102635000Y-151180829D01*
X102640006Y-151130001D01*
X102635000Y-151079173D01*
X102635000Y-135940827D01*
X102640006Y-135889999D01*
X102635000Y-135839171D01*
X102635000Y-135839162D01*
X102620024Y-135687105D01*
X102560841Y-135492007D01*
X102466714Y-135315907D01*
X102464734Y-135312202D01*
X102367803Y-135194092D01*
X102335396Y-135154604D01*
X102295908Y-135122197D01*
X101097807Y-133924097D01*
X101065396Y-133884604D01*
X100907797Y-133755266D01*
X100727993Y-133659159D01*
X100532895Y-133599976D01*
X100380838Y-133585000D01*
X100380828Y-133585000D01*
X100330000Y-133579994D01*
X100279172Y-133585000D01*
X100131658Y-133585000D01*
X100115134Y-133564866D01*
X99889014Y-133379294D01*
X99824477Y-133344799D01*
X99941355Y-133275178D01*
X100157588Y-133080269D01*
X100331641Y-132846920D01*
X100456825Y-132584099D01*
X100501476Y-132436890D01*
X100380155Y-132207000D01*
X99187000Y-132207000D01*
X99187000Y-132227000D01*
X98933000Y-132227000D01*
X98933000Y-132207000D01*
X97739845Y-132207000D01*
X97618524Y-132436890D01*
X97663175Y-132584099D01*
X97788359Y-132846920D01*
X97962412Y-133080269D01*
X98178645Y-133275178D01*
X98295523Y-133344799D01*
X98230986Y-133379294D01*
X98004866Y-133564866D01*
X97819294Y-133790986D01*
X97681401Y-134048966D01*
X97596487Y-134328889D01*
X97567815Y-134620000D01*
X97596487Y-134911111D01*
X97681401Y-135191034D01*
X97819294Y-135449014D01*
X98004866Y-135675134D01*
X98230986Y-135860706D01*
X98285791Y-135890000D01*
X98230986Y-135919294D01*
X98004866Y-136104866D01*
X97819294Y-136330986D01*
X97681401Y-136588966D01*
X97596487Y-136868889D01*
X97567815Y-137160000D01*
X97596487Y-137451111D01*
X97681401Y-137731034D01*
X97819294Y-137989014D01*
X98004866Y-138215134D01*
X98230986Y-138400706D01*
X98285791Y-138430000D01*
X98230986Y-138459294D01*
X98004866Y-138644866D01*
X97819294Y-138870986D01*
X97681401Y-139128966D01*
X97596487Y-139408889D01*
X97567815Y-139700000D01*
X97596487Y-139991111D01*
X97681401Y-140271034D01*
X97819294Y-140529014D01*
X98004866Y-140755134D01*
X98034687Y-140779607D01*
X97965820Y-140800498D01*
X97855506Y-140859463D01*
X97758815Y-140938815D01*
X97679463Y-141035506D01*
X97620498Y-141145820D01*
X97584188Y-141265518D01*
X97571928Y-141390000D01*
X97571928Y-143090000D01*
X97584188Y-143214482D01*
X97620498Y-143334180D01*
X97679463Y-143444494D01*
X97758815Y-143541185D01*
X97855506Y-143620537D01*
X97965820Y-143679502D01*
X98085518Y-143715812D01*
X98210000Y-143728072D01*
X99910000Y-143728072D01*
X100034482Y-143715812D01*
X100154180Y-143679502D01*
X100264494Y-143620537D01*
X100361185Y-143541185D01*
X100440537Y-143444494D01*
X100499502Y-143334180D01*
X100535812Y-143214482D01*
X100548072Y-143090000D01*
X100548072Y-141390000D01*
X100535812Y-141265518D01*
X100499502Y-141145820D01*
X100440537Y-141035506D01*
X100361185Y-140938815D01*
X100264494Y-140859463D01*
X100154180Y-140800498D01*
X100085313Y-140779607D01*
X100115134Y-140755134D01*
X100300706Y-140529014D01*
X100438599Y-140271034D01*
X100523513Y-139991111D01*
X100552185Y-139700000D01*
X100523513Y-139408889D01*
X100438599Y-139128966D01*
X100300706Y-138870986D01*
X100115134Y-138644866D01*
X99889014Y-138459294D01*
X99834209Y-138430000D01*
X99889014Y-138400706D01*
X100115134Y-138215134D01*
X100300706Y-137989014D01*
X100438599Y-137731034D01*
X100523513Y-137451111D01*
X100552185Y-137160000D01*
X100523513Y-136868889D01*
X100438599Y-136588966D01*
X100300706Y-136330986D01*
X100115134Y-136104866D01*
X99889014Y-135919294D01*
X99834209Y-135890000D01*
X99889014Y-135860706D01*
X100008739Y-135762450D01*
X100565001Y-136318712D01*
X100565000Y-150701289D01*
X100008739Y-151257550D01*
X99889014Y-151159294D01*
X99824477Y-151124799D01*
X99941355Y-151055178D01*
X100157588Y-150860269D01*
X100331641Y-150626920D01*
X100456825Y-150364099D01*
X100501476Y-150216890D01*
X100380155Y-149987000D01*
X99187000Y-149987000D01*
X99187000Y-150007000D01*
X98933000Y-150007000D01*
X98933000Y-149987000D01*
X97739845Y-149987000D01*
X97618524Y-150216890D01*
X97663175Y-150364099D01*
X97788359Y-150626920D01*
X97962412Y-150860269D01*
X98178645Y-151055178D01*
X98295523Y-151124799D01*
X98230986Y-151159294D01*
X98004866Y-151344866D01*
X97819294Y-151570986D01*
X97681401Y-151828966D01*
X97596487Y-152108889D01*
X97567815Y-152400000D01*
X97596487Y-152691111D01*
X97681401Y-152971034D01*
X97819294Y-153229014D01*
X98004866Y-153455134D01*
X98230986Y-153640706D01*
X98285791Y-153670000D01*
X98230986Y-153699294D01*
X98004866Y-153884866D01*
X97988342Y-153905000D01*
X97840827Y-153905000D01*
X97789999Y-153899994D01*
X97739171Y-153905000D01*
X97739162Y-153905000D01*
X97587105Y-153919976D01*
X97392007Y-153979159D01*
X97308309Y-154023896D01*
X97212202Y-154075266D01*
X97094092Y-154172197D01*
X97054604Y-154204604D01*
X97022197Y-154244092D01*
X95824092Y-155442198D01*
X95784605Y-155474604D01*
X95752198Y-155514092D01*
X95752197Y-155514093D01*
X95655266Y-155632203D01*
X95559160Y-155812007D01*
X95499977Y-156007105D01*
X95479994Y-156210000D01*
X94754209Y-156210000D01*
X94809014Y-156180706D01*
X95035134Y-155995134D01*
X95220706Y-155769014D01*
X95358599Y-155511034D01*
X95443513Y-155231111D01*
X95472185Y-154940000D01*
X95443513Y-154648889D01*
X95358599Y-154368966D01*
X95220706Y-154110986D01*
X95035134Y-153884866D01*
X94809014Y-153699294D01*
X94754209Y-153670000D01*
X94809014Y-153640706D01*
X95035134Y-153455134D01*
X95220706Y-153229014D01*
X95358599Y-152971034D01*
X95443513Y-152691111D01*
X95472185Y-152400000D01*
X95443513Y-152108889D01*
X95358599Y-151828966D01*
X95220706Y-151570986D01*
X95035134Y-151344866D01*
X94809014Y-151159294D01*
X94754209Y-151130000D01*
X94809014Y-151100706D01*
X95035134Y-150915134D01*
X95220706Y-150689014D01*
X95358599Y-150431034D01*
X95443513Y-150151111D01*
X95472185Y-149860000D01*
X95443513Y-149568889D01*
X95358599Y-149288966D01*
X95220706Y-149030986D01*
X95035134Y-148804866D01*
X94809014Y-148619294D01*
X94754209Y-148590000D01*
X94809014Y-148560706D01*
X95035134Y-148375134D01*
X95220706Y-148149014D01*
X95358599Y-147891034D01*
X95443513Y-147611111D01*
X95472185Y-147320000D01*
X97567815Y-147320000D01*
X97596487Y-147611111D01*
X97681401Y-147891034D01*
X97819294Y-148149014D01*
X98004866Y-148375134D01*
X98230986Y-148560706D01*
X98295523Y-148595201D01*
X98178645Y-148664822D01*
X97962412Y-148859731D01*
X97788359Y-149093080D01*
X97663175Y-149355901D01*
X97618524Y-149503110D01*
X97739845Y-149733000D01*
X98933000Y-149733000D01*
X98933000Y-149713000D01*
X99187000Y-149713000D01*
X99187000Y-149733000D01*
X100380155Y-149733000D01*
X100501476Y-149503110D01*
X100456825Y-149355901D01*
X100331641Y-149093080D01*
X100157588Y-148859731D01*
X99941355Y-148664822D01*
X99824477Y-148595201D01*
X99889014Y-148560706D01*
X100115134Y-148375134D01*
X100300706Y-148149014D01*
X100438599Y-147891034D01*
X100523513Y-147611111D01*
X100552185Y-147320000D01*
X100523513Y-147028889D01*
X100438599Y-146748966D01*
X100300706Y-146490986D01*
X100115134Y-146264866D01*
X99889014Y-146079294D01*
X99631034Y-145941401D01*
X99351111Y-145856487D01*
X99132950Y-145835000D01*
X98987050Y-145835000D01*
X98768889Y-145856487D01*
X98488966Y-145941401D01*
X98230986Y-146079294D01*
X98004866Y-146264866D01*
X97819294Y-146490986D01*
X97681401Y-146748966D01*
X97596487Y-147028889D01*
X97567815Y-147320000D01*
X95472185Y-147320000D01*
X95443513Y-147028889D01*
X95358599Y-146748966D01*
X95220706Y-146490986D01*
X95035134Y-146264866D01*
X94809014Y-146079294D01*
X94754209Y-146050000D01*
X94809014Y-146020706D01*
X95035134Y-145835134D01*
X95220706Y-145609014D01*
X95358599Y-145351034D01*
X95443513Y-145071111D01*
X95472185Y-144780000D01*
X95443513Y-144488889D01*
X95358599Y-144208966D01*
X95220706Y-143950986D01*
X95035134Y-143724866D01*
X94809014Y-143539294D01*
X94754209Y-143510000D01*
X94809014Y-143480706D01*
X95035134Y-143295134D01*
X95220706Y-143069014D01*
X95358599Y-142811034D01*
X95443513Y-142531111D01*
X95472185Y-142240000D01*
X95443513Y-141948889D01*
X95358599Y-141668966D01*
X95220706Y-141410986D01*
X95035134Y-141184866D01*
X94809014Y-140999294D01*
X94754209Y-140970000D01*
X94809014Y-140940706D01*
X95035134Y-140755134D01*
X95220706Y-140529014D01*
X95358599Y-140271034D01*
X95443513Y-139991111D01*
X95472185Y-139700000D01*
X95443513Y-139408889D01*
X95358599Y-139128966D01*
X95220706Y-138870986D01*
X95035134Y-138644866D01*
X94809014Y-138459294D01*
X94754209Y-138430000D01*
X94809014Y-138400706D01*
X95035134Y-138215134D01*
X95220706Y-137989014D01*
X95358599Y-137731034D01*
X95443513Y-137451111D01*
X95472185Y-137160000D01*
X95443513Y-136868889D01*
X95358599Y-136588966D01*
X95220706Y-136330986D01*
X95035134Y-136104866D01*
X94809014Y-135919294D01*
X94754209Y-135890000D01*
X94809014Y-135860706D01*
X95035134Y-135675134D01*
X95220706Y-135449014D01*
X95358599Y-135191034D01*
X95443513Y-134911111D01*
X95472185Y-134620000D01*
X95443513Y-134328889D01*
X95358599Y-134048966D01*
X95220706Y-133790986D01*
X95035134Y-133564866D01*
X94809014Y-133379294D01*
X94754209Y-133350000D01*
X94809014Y-133320706D01*
X95035134Y-133135134D01*
X95220706Y-132909014D01*
X95358599Y-132651034D01*
X95443513Y-132371111D01*
X95472185Y-132080000D01*
X95443513Y-131788889D01*
X95358599Y-131508966D01*
X95220706Y-131250986D01*
X95035134Y-131024866D01*
X95005313Y-131000393D01*
X95074180Y-130979502D01*
X95184494Y-130920537D01*
X95281185Y-130841185D01*
X95360537Y-130744494D01*
X95419502Y-130634180D01*
X95455812Y-130514482D01*
X95468072Y-130390000D01*
X95465000Y-129825750D01*
X95306252Y-129667002D01*
X95465000Y-129667002D01*
X95465000Y-129540000D01*
X97567815Y-129540000D01*
X97596487Y-129831111D01*
X97681401Y-130111034D01*
X97819294Y-130369014D01*
X98004866Y-130595134D01*
X98230986Y-130780706D01*
X98295523Y-130815201D01*
X98178645Y-130884822D01*
X97962412Y-131079731D01*
X97788359Y-131313080D01*
X97663175Y-131575901D01*
X97618524Y-131723110D01*
X97739845Y-131953000D01*
X98933000Y-131953000D01*
X98933000Y-131933000D01*
X99187000Y-131933000D01*
X99187000Y-131953000D01*
X100380155Y-131953000D01*
X100501476Y-131723110D01*
X100456825Y-131575901D01*
X100331641Y-131313080D01*
X100157588Y-131079731D01*
X99941355Y-130884822D01*
X99824477Y-130815201D01*
X99889014Y-130780706D01*
X100115134Y-130595134D01*
X100300706Y-130369014D01*
X100438599Y-130111034D01*
X100523513Y-129831111D01*
X100552185Y-129540000D01*
X100523513Y-129248889D01*
X100438599Y-128968966D01*
X100300706Y-128710986D01*
X100115134Y-128484866D01*
X99889014Y-128299294D01*
X99631034Y-128161401D01*
X99351111Y-128076487D01*
X99132950Y-128055000D01*
X98987050Y-128055000D01*
X98768889Y-128076487D01*
X98488966Y-128161401D01*
X98230986Y-128299294D01*
X98004866Y-128484866D01*
X97819294Y-128710986D01*
X97681401Y-128968966D01*
X97596487Y-129248889D01*
X97567815Y-129540000D01*
X95465000Y-129540000D01*
X95465000Y-129412998D01*
X95306252Y-129412998D01*
X95465000Y-129254250D01*
X95468072Y-128690000D01*
X95455812Y-128565518D01*
X95419502Y-128445820D01*
X95360537Y-128335506D01*
X95281185Y-128238815D01*
X95184494Y-128159463D01*
X95074180Y-128100498D01*
X94954482Y-128064188D01*
X94830000Y-128051928D01*
X94265750Y-128055000D01*
X94107000Y-128213750D01*
X94107000Y-129413000D01*
X94127000Y-129413000D01*
X94127000Y-129667000D01*
X94107000Y-129667000D01*
X94107000Y-129687000D01*
X93853000Y-129687000D01*
X93853000Y-129667000D01*
X93833000Y-129667000D01*
X93833000Y-129413000D01*
X93853000Y-129413000D01*
X93853000Y-128213750D01*
X93694250Y-128055000D01*
X93130000Y-128051928D01*
X93005518Y-128064188D01*
X92885820Y-128100498D01*
X92775506Y-128159463D01*
X92678815Y-128238815D01*
X92599463Y-128335506D01*
X92540498Y-128445820D01*
X92504188Y-128565518D01*
X92491928Y-128690000D01*
X92495000Y-129254250D01*
X92653748Y-129412998D01*
X92495000Y-129412998D01*
X92495000Y-129667002D01*
X92653748Y-129667002D01*
X92495000Y-129825750D01*
X92491928Y-130390000D01*
X92504188Y-130514482D01*
X92540498Y-130634180D01*
X92599463Y-130744494D01*
X92678815Y-130841185D01*
X92775506Y-130920537D01*
X92885820Y-130979502D01*
X92954687Y-131000393D01*
X92924866Y-131024866D01*
X92908342Y-131045000D01*
X90598711Y-131045000D01*
X89935000Y-130381290D01*
X89935000Y-112831658D01*
X89955134Y-112815134D01*
X90140706Y-112589014D01*
X90170000Y-112534209D01*
X90199294Y-112589014D01*
X90384866Y-112815134D01*
X90610986Y-113000706D01*
X90868966Y-113138599D01*
X91148889Y-113223513D01*
X91367050Y-113245000D01*
X91512950Y-113245000D01*
X91731111Y-113223513D01*
X92011034Y-113138599D01*
X92269014Y-113000706D01*
X92495134Y-112815134D01*
X92680706Y-112589014D01*
X92710000Y-112534209D01*
X92739294Y-112589014D01*
X92924866Y-112815134D01*
X93150986Y-113000706D01*
X93408966Y-113138599D01*
X93688889Y-113223513D01*
X93907050Y-113245000D01*
X94052950Y-113245000D01*
X94271111Y-113223513D01*
X94551034Y-113138599D01*
X94809014Y-113000706D01*
X95035134Y-112815134D01*
X95220706Y-112589014D01*
X95250000Y-112534209D01*
X95279294Y-112589014D01*
X95464866Y-112815134D01*
X95690986Y-113000706D01*
X95948966Y-113138599D01*
X96228889Y-113223513D01*
X96447050Y-113245000D01*
X96592950Y-113245000D01*
X96811111Y-113223513D01*
X97091034Y-113138599D01*
X97349014Y-113000706D01*
X97575134Y-112815134D01*
X97760706Y-112589014D01*
X97898599Y-112331034D01*
X97983513Y-112051111D01*
X98012185Y-111760000D01*
X97983513Y-111468889D01*
X97898599Y-111188966D01*
X97760706Y-110930986D01*
X97575134Y-110704866D01*
X97349014Y-110519294D01*
X97091034Y-110381401D01*
X96811111Y-110296487D01*
X96592950Y-110275000D01*
X96447050Y-110275000D01*
X96228889Y-110296487D01*
X95948966Y-110381401D01*
X95690986Y-110519294D01*
X95464866Y-110704866D01*
X95279294Y-110930986D01*
X95250000Y-110985791D01*
X95220706Y-110930986D01*
X95035134Y-110704866D01*
X94809014Y-110519294D01*
X94551034Y-110381401D01*
X94271111Y-110296487D01*
X94052950Y-110275000D01*
X93907050Y-110275000D01*
X93688889Y-110296487D01*
X93408966Y-110381401D01*
X93150986Y-110519294D01*
X92924866Y-110704866D01*
X92739294Y-110930986D01*
X92710000Y-110985791D01*
X92680706Y-110930986D01*
X92495134Y-110704866D01*
X92269014Y-110519294D01*
X92011034Y-110381401D01*
X91731111Y-110296487D01*
X91512950Y-110275000D01*
X91367050Y-110275000D01*
X91148889Y-110296487D01*
X90868966Y-110381401D01*
X90610986Y-110519294D01*
X90384866Y-110704866D01*
X90199294Y-110930986D01*
X90170000Y-110985791D01*
X90140706Y-110930986D01*
X89955134Y-110704866D01*
X89729014Y-110519294D01*
X89471034Y-110381401D01*
X89191111Y-110296487D01*
X88972950Y-110275000D01*
X88827050Y-110275000D01*
X88608889Y-110296487D01*
X88328966Y-110381401D01*
X88070986Y-110519294D01*
X87844866Y-110704866D01*
X87659294Y-110930986D01*
X87630000Y-110985791D01*
X87600706Y-110930986D01*
X87415134Y-110704866D01*
X87189014Y-110519294D01*
X86931034Y-110381401D01*
X86651111Y-110296487D01*
X86432950Y-110275000D01*
X86287050Y-110275000D01*
X86068889Y-110296487D01*
X85788966Y-110381401D01*
X85530986Y-110519294D01*
X85304866Y-110704866D01*
X85119294Y-110930986D01*
X85090000Y-110985791D01*
X85060706Y-110930986D01*
X84875134Y-110704866D01*
X84649014Y-110519294D01*
X84391034Y-110381401D01*
X84111111Y-110296487D01*
X83892950Y-110275000D01*
X83747050Y-110275000D01*
X83528889Y-110296487D01*
X83248966Y-110381401D01*
X82990986Y-110519294D01*
X82764866Y-110704866D01*
X82740393Y-110734687D01*
X82719502Y-110665820D01*
X82660537Y-110555506D01*
X82581185Y-110458815D01*
X82484494Y-110379463D01*
X82374180Y-110320498D01*
X82254482Y-110284188D01*
X82130000Y-110271928D01*
X81565750Y-110275000D01*
X81407000Y-110433750D01*
X81153000Y-110433750D01*
X80994250Y-110275000D01*
X80430000Y-110271928D01*
X80305518Y-110284188D01*
X80185820Y-110320498D01*
X80075506Y-110379463D01*
X79978815Y-110458815D01*
X79899463Y-110555506D01*
X79840498Y-110665820D01*
X79804188Y-110785518D01*
X79791928Y-110910000D01*
X79775000Y-110910000D01*
X79775000Y-110291658D01*
X79795134Y-110275134D01*
X79980706Y-110049014D01*
X80118599Y-109791034D01*
X80203513Y-109511111D01*
X80232185Y-109220000D01*
X80203513Y-108928889D01*
X80118599Y-108648966D01*
X79980706Y-108390986D01*
X79795134Y-108164866D01*
X79569014Y-107979294D01*
X79311034Y-107841401D01*
X79031111Y-107756487D01*
X78812950Y-107735000D01*
X78667050Y-107735000D01*
X78448889Y-107756487D01*
X78168966Y-107841401D01*
X77910986Y-107979294D01*
X77684866Y-108164866D01*
X77499294Y-108390986D01*
X77470000Y-108445791D01*
X77440706Y-108390986D01*
X77255134Y-108164866D01*
X77029014Y-107979294D01*
X76771034Y-107841401D01*
X76491111Y-107756487D01*
X76272950Y-107735000D01*
X76127050Y-107735000D01*
X75908889Y-107756487D01*
X75628966Y-107841401D01*
X75370986Y-107979294D01*
X75144866Y-108164866D01*
X74959294Y-108390986D01*
X74924799Y-108455523D01*
X74855178Y-108338645D01*
X74660269Y-108122412D01*
X74426920Y-107948359D01*
X74164099Y-107823175D01*
X74016890Y-107778524D01*
X73787000Y-107899845D01*
X73787000Y-109093000D01*
X73807000Y-109093000D01*
X73807000Y-109347000D01*
X73787000Y-109347000D01*
X73787000Y-110540155D01*
X74016890Y-110661476D01*
X74164099Y-110616825D01*
X74426920Y-110491641D01*
X74660269Y-110317588D01*
X74855178Y-110101355D01*
X74924799Y-109984477D01*
X74959294Y-110049014D01*
X75144866Y-110275134D01*
X75165000Y-110291658D01*
X75165001Y-139271288D01*
X72561143Y-141875146D01*
X72498599Y-141668966D01*
X72360706Y-141410986D01*
X72175134Y-141184866D01*
X71949014Y-140999294D01*
X71894209Y-140970000D01*
X71949014Y-140940706D01*
X72175134Y-140755134D01*
X72360706Y-140529014D01*
X72498599Y-140271034D01*
X72583513Y-139991111D01*
X72612185Y-139700000D01*
X72583513Y-139408889D01*
X72498599Y-139128966D01*
X72360706Y-138870986D01*
X72175134Y-138644866D01*
X71949014Y-138459294D01*
X71894209Y-138430000D01*
X71949014Y-138400706D01*
X72175134Y-138215134D01*
X72360706Y-137989014D01*
X72498599Y-137731034D01*
X72583513Y-137451111D01*
X72612185Y-137160000D01*
X72583513Y-136868889D01*
X72498599Y-136588966D01*
X72360706Y-136330986D01*
X72175134Y-136104866D01*
X71949014Y-135919294D01*
X71894209Y-135890000D01*
X71949014Y-135860706D01*
X72175134Y-135675134D01*
X72360706Y-135449014D01*
X72498599Y-135191034D01*
X72583513Y-134911111D01*
X72612185Y-134620000D01*
X72583513Y-134328889D01*
X72498599Y-134048966D01*
X72360706Y-133790986D01*
X72175134Y-133564866D01*
X71949014Y-133379294D01*
X71894209Y-133350000D01*
X71949014Y-133320706D01*
X72175134Y-133135134D01*
X72360706Y-132909014D01*
X72498599Y-132651034D01*
X72583513Y-132371111D01*
X72612185Y-132080000D01*
X72583513Y-131788889D01*
X72498599Y-131508966D01*
X72360706Y-131250986D01*
X72175134Y-131024866D01*
X71949014Y-130839294D01*
X71894209Y-130810000D01*
X71949014Y-130780706D01*
X72175134Y-130595134D01*
X72360706Y-130369014D01*
X72498599Y-130111034D01*
X72583513Y-129831111D01*
X72612185Y-129540000D01*
X72583513Y-129248889D01*
X72498599Y-128968966D01*
X72360706Y-128710986D01*
X72175134Y-128484866D01*
X71949014Y-128299294D01*
X71691034Y-128161401D01*
X71411111Y-128076487D01*
X71192950Y-128055000D01*
X71047050Y-128055000D01*
X70828889Y-128076487D01*
X70548966Y-128161401D01*
X70290986Y-128299294D01*
X70064866Y-128484866D01*
X69879294Y-128710986D01*
X69741401Y-128968966D01*
X69656487Y-129248889D01*
X69627815Y-129540000D01*
X69656487Y-129831111D01*
X69741401Y-130111034D01*
X69879294Y-130369014D01*
X70064866Y-130595134D01*
X70290986Y-130780706D01*
X70345791Y-130810000D01*
X70290986Y-130839294D01*
X70171261Y-130937550D01*
X69615000Y-130381290D01*
X69615000Y-124888710D01*
X71148711Y-123355000D01*
X71261335Y-123355000D01*
X71538574Y-123299853D01*
X71799727Y-123191680D01*
X72034759Y-123034637D01*
X72234637Y-122834759D01*
X72391680Y-122599727D01*
X72499853Y-122338574D01*
X72555000Y-122061335D01*
X72555000Y-121778665D01*
X72499853Y-121501426D01*
X72391680Y-121240273D01*
X72234637Y-121005241D01*
X72034759Y-120805363D01*
X71799727Y-120648320D01*
X71538574Y-120540147D01*
X71261335Y-120485000D01*
X70978665Y-120485000D01*
X70701426Y-120540147D01*
X70440273Y-120648320D01*
X70205241Y-120805363D01*
X70005363Y-121005241D01*
X69848320Y-121240273D01*
X69740147Y-121501426D01*
X69685000Y-121778665D01*
X69685000Y-121891289D01*
X67884097Y-123692193D01*
X67844604Y-123724604D01*
X67715266Y-123882203D01*
X67619159Y-124062008D01*
X67559976Y-124257106D01*
X67545000Y-124409163D01*
X67545000Y-124409172D01*
X67539994Y-124460000D01*
X66725000Y-124460000D01*
X66725000Y-115412702D01*
X70306903Y-115412702D01*
X70378486Y-115656671D01*
X70633996Y-115777571D01*
X70908184Y-115846300D01*
X71190512Y-115860217D01*
X71470130Y-115818787D01*
X71736292Y-115723603D01*
X71861514Y-115656671D01*
X71933097Y-115412702D01*
X71120000Y-114599605D01*
X70306903Y-115412702D01*
X66725000Y-115412702D01*
X66725000Y-114490512D01*
X69679783Y-114490512D01*
X69721213Y-114770130D01*
X69816397Y-115036292D01*
X69883329Y-115161514D01*
X70127298Y-115233097D01*
X70940395Y-114420000D01*
X71299605Y-114420000D01*
X72112702Y-115233097D01*
X72356671Y-115161514D01*
X72477571Y-114906004D01*
X72546300Y-114631816D01*
X72560217Y-114349488D01*
X72518787Y-114069870D01*
X72423603Y-113803708D01*
X72356671Y-113678486D01*
X72112702Y-113606903D01*
X71299605Y-114420000D01*
X70940395Y-114420000D01*
X70127298Y-113606903D01*
X69883329Y-113678486D01*
X69762429Y-113933996D01*
X69693700Y-114208184D01*
X69679783Y-114490512D01*
X66725000Y-114490512D01*
X66725000Y-113427298D01*
X70306903Y-113427298D01*
X71120000Y-114240395D01*
X71933097Y-113427298D01*
X71861514Y-113183329D01*
X71606004Y-113062429D01*
X71331816Y-112993700D01*
X71049488Y-112979783D01*
X70769870Y-113021213D01*
X70503708Y-113116397D01*
X70378486Y-113183329D01*
X70306903Y-113427298D01*
X66725000Y-113427298D01*
X66725000Y-108370000D01*
X69631928Y-108370000D01*
X69631928Y-110070000D01*
X69644188Y-110194482D01*
X69680498Y-110314180D01*
X69739463Y-110424494D01*
X69818815Y-110521185D01*
X69915506Y-110600537D01*
X70025820Y-110659502D01*
X70145518Y-110695812D01*
X70270000Y-110708072D01*
X71970000Y-110708072D01*
X72094482Y-110695812D01*
X72214180Y-110659502D01*
X72324494Y-110600537D01*
X72421185Y-110521185D01*
X72500537Y-110424494D01*
X72559502Y-110314180D01*
X72583966Y-110233534D01*
X72659731Y-110317588D01*
X72893080Y-110491641D01*
X73155901Y-110616825D01*
X73303110Y-110661476D01*
X73533000Y-110540155D01*
X73533000Y-109347000D01*
X73513000Y-109347000D01*
X73513000Y-109093000D01*
X73533000Y-109093000D01*
X73533000Y-107899845D01*
X73303110Y-107778524D01*
X73155901Y-107823175D01*
X72893080Y-107948359D01*
X72659731Y-108122412D01*
X72583966Y-108206466D01*
X72559502Y-108125820D01*
X72500537Y-108015506D01*
X72421185Y-107918815D01*
X72324494Y-107839463D01*
X72214180Y-107780498D01*
X72094482Y-107744188D01*
X71970000Y-107731928D01*
X70270000Y-107731928D01*
X70145518Y-107744188D01*
X70025820Y-107780498D01*
X69915506Y-107839463D01*
X69818815Y-107918815D01*
X69739463Y-108015506D01*
X69680498Y-108125820D01*
X69644188Y-108245518D01*
X69631928Y-108370000D01*
X66725000Y-108370000D01*
X66725000Y-107365000D01*
X111075001Y-107365000D01*
X111075000Y-179655000D01*
M02*
