G04 #@! TF.GenerationSoftware,KiCad,Pcbnew,(5.1.0)-1*
G04 #@! TF.CreationDate,2019-04-29T20:29:36+02:00*
G04 #@! TF.ProjectId,diyaltimeter.de,64697961-6c74-4696-9d65-7465722e6465,rev?*
G04 #@! TF.SameCoordinates,Original*
G04 #@! TF.FileFunction,Legend,Bot*
G04 #@! TF.FilePolarity,Positive*
%FSLAX46Y46*%
G04 Gerber Fmt 4.6, Leading zero omitted, Abs format (unit mm)*
G04 Created by KiCad (PCBNEW (5.1.0)-1) date 2019-04-29 20:29:36*
%MOMM*%
%LPD*%
G04 APERTURE LIST*
%ADD10C,0.120000*%
%ADD11C,0.150000*%
G04 APERTURE END LIST*
D10*
X82390000Y-97690000D02*
X82390000Y-85390000D01*
X77810000Y-85390000D02*
X74670000Y-85390000D01*
X70090000Y-85390000D02*
X70090000Y-97690000D01*
X79670000Y-97690000D02*
X82390000Y-97690000D01*
X80779050Y-91440000D02*
G75*
G03X80779050Y-91440000I-4579050J0D01*
G01*
X70090000Y-97690000D02*
X72810000Y-97690000D01*
X74670000Y-97690000D02*
X77810000Y-97690000D01*
X72810000Y-85390000D02*
X70090000Y-85390000D01*
X82390000Y-85390000D02*
X79670000Y-85390000D01*
X107790000Y-97690000D02*
X107790000Y-85390000D01*
X103210000Y-85390000D02*
X100070000Y-85390000D01*
X95490000Y-85390000D02*
X95490000Y-97690000D01*
X105070000Y-97690000D02*
X107790000Y-97690000D01*
X106179050Y-91440000D02*
G75*
G03X106179050Y-91440000I-4579050J0D01*
G01*
X95490000Y-97690000D02*
X98210000Y-97690000D01*
X100070000Y-97690000D02*
X103210000Y-97690000D01*
X98210000Y-85390000D02*
X95490000Y-85390000D01*
X107790000Y-85390000D02*
X105070000Y-85390000D01*
X95090000Y-85390000D02*
X92370000Y-85390000D01*
X85510000Y-85390000D02*
X82790000Y-85390000D01*
X87370000Y-97690000D02*
X90510000Y-97690000D01*
X82790000Y-97690000D02*
X85510000Y-97690000D01*
X93479050Y-91440000D02*
G75*
G03X93479050Y-91440000I-4579050J0D01*
G01*
X92370000Y-97690000D02*
X95090000Y-97690000D01*
X82790000Y-85390000D02*
X82790000Y-97690000D01*
X90510000Y-85390000D02*
X87370000Y-85390000D01*
X95090000Y-97690000D02*
X95090000Y-85390000D01*
D11*
X76604761Y-90376666D02*
X76652380Y-90519523D01*
X76652380Y-90757619D01*
X76604761Y-90852857D01*
X76557142Y-90900476D01*
X76461904Y-90948095D01*
X76366666Y-90948095D01*
X76271428Y-90900476D01*
X76223809Y-90852857D01*
X76176190Y-90757619D01*
X76128571Y-90567142D01*
X76080952Y-90471904D01*
X76033333Y-90424285D01*
X75938095Y-90376666D01*
X75842857Y-90376666D01*
X75747619Y-90424285D01*
X75700000Y-90471904D01*
X75652380Y-90567142D01*
X75652380Y-90805238D01*
X75700000Y-90948095D01*
X75652380Y-91281428D02*
X76652380Y-91519523D01*
X75938095Y-91710000D01*
X76652380Y-91900476D01*
X75652380Y-92138571D01*
X75652380Y-92424285D02*
X75652380Y-93043333D01*
X76033333Y-92710000D01*
X76033333Y-92852857D01*
X76080952Y-92948095D01*
X76128571Y-92995714D01*
X76223809Y-93043333D01*
X76461904Y-93043333D01*
X76557142Y-92995714D01*
X76604761Y-92948095D01*
X76652380Y-92852857D01*
X76652380Y-92567142D01*
X76604761Y-92471904D01*
X76557142Y-92424285D01*
X102004761Y-90376666D02*
X102052380Y-90519523D01*
X102052380Y-90757619D01*
X102004761Y-90852857D01*
X101957142Y-90900476D01*
X101861904Y-90948095D01*
X101766666Y-90948095D01*
X101671428Y-90900476D01*
X101623809Y-90852857D01*
X101576190Y-90757619D01*
X101528571Y-90567142D01*
X101480952Y-90471904D01*
X101433333Y-90424285D01*
X101338095Y-90376666D01*
X101242857Y-90376666D01*
X101147619Y-90424285D01*
X101100000Y-90471904D01*
X101052380Y-90567142D01*
X101052380Y-90805238D01*
X101100000Y-90948095D01*
X101052380Y-91281428D02*
X102052380Y-91519523D01*
X101338095Y-91710000D01*
X102052380Y-91900476D01*
X101052380Y-92138571D01*
X102052380Y-93043333D02*
X102052380Y-92471904D01*
X102052380Y-92757619D02*
X101052380Y-92757619D01*
X101195238Y-92662380D01*
X101290476Y-92567142D01*
X101338095Y-92471904D01*
X89304761Y-90376666D02*
X89352380Y-90519523D01*
X89352380Y-90757619D01*
X89304761Y-90852857D01*
X89257142Y-90900476D01*
X89161904Y-90948095D01*
X89066666Y-90948095D01*
X88971428Y-90900476D01*
X88923809Y-90852857D01*
X88876190Y-90757619D01*
X88828571Y-90567142D01*
X88780952Y-90471904D01*
X88733333Y-90424285D01*
X88638095Y-90376666D01*
X88542857Y-90376666D01*
X88447619Y-90424285D01*
X88400000Y-90471904D01*
X88352380Y-90567142D01*
X88352380Y-90805238D01*
X88400000Y-90948095D01*
X88352380Y-91281428D02*
X89352380Y-91519523D01*
X88638095Y-91710000D01*
X89352380Y-91900476D01*
X88352380Y-92138571D01*
X88447619Y-92471904D02*
X88400000Y-92519523D01*
X88352380Y-92614761D01*
X88352380Y-92852857D01*
X88400000Y-92948095D01*
X88447619Y-92995714D01*
X88542857Y-93043333D01*
X88638095Y-93043333D01*
X88780952Y-92995714D01*
X89352380Y-92424285D01*
X89352380Y-93043333D01*
M02*
