G04 #@! TF.GenerationSoftware,KiCad,Pcbnew,(5.1.0)-1*
G04 #@! TF.CreationDate,2019-05-02T23:13:58+02:00*
G04 #@! TF.ProjectId,diyaltimeter.de,64697961-6c74-4696-9d65-7465722e6465,rev?*
G04 #@! TF.SameCoordinates,Original*
G04 #@! TF.FileFunction,Legend,Top*
G04 #@! TF.FilePolarity,Positive*
%FSLAX46Y46*%
G04 Gerber Fmt 4.6, Leading zero omitted, Abs format (unit mm)*
G04 Created by KiCad (PCBNEW (5.1.0)-1) date 2019-05-02 23:13:58*
%MOMM*%
%LPD*%
G04 APERTURE LIST*
%ADD10C,0.150000*%
%ADD11C,0.120000*%
G04 APERTURE END LIST*
D10*
X122642380Y-147700476D02*
X122642380Y-147033809D01*
X123642380Y-147462380D01*
X122642380Y-146748095D02*
X122642380Y-146129047D01*
X123023333Y-146462380D01*
X123023333Y-146319523D01*
X123070952Y-146224285D01*
X123118571Y-146176666D01*
X123213809Y-146129047D01*
X123451904Y-146129047D01*
X123547142Y-146176666D01*
X123594761Y-146224285D01*
X123642380Y-146319523D01*
X123642380Y-146605238D01*
X123594761Y-146700476D01*
X123547142Y-146748095D01*
X123594761Y-145652857D02*
X123642380Y-145652857D01*
X123737619Y-145700476D01*
X123785238Y-145748095D01*
X122642380Y-144795714D02*
X122642380Y-144986190D01*
X122690000Y-145081428D01*
X122737619Y-145129047D01*
X122880476Y-145224285D01*
X123070952Y-145271904D01*
X123451904Y-145271904D01*
X123547142Y-145224285D01*
X123594761Y-145176666D01*
X123642380Y-145081428D01*
X123642380Y-144890952D01*
X123594761Y-144795714D01*
X123547142Y-144748095D01*
X123451904Y-144700476D01*
X123213809Y-144700476D01*
X123118571Y-144748095D01*
X123070952Y-144795714D01*
X123023333Y-144890952D01*
X123023333Y-145081428D01*
X123070952Y-145176666D01*
X123118571Y-145224285D01*
X123213809Y-145271904D01*
X122642380Y-143843333D02*
X122642380Y-144033809D01*
X122690000Y-144129047D01*
X122737619Y-144176666D01*
X122880476Y-144271904D01*
X123070952Y-144319523D01*
X123451904Y-144319523D01*
X123547142Y-144271904D01*
X123594761Y-144224285D01*
X123642380Y-144129047D01*
X123642380Y-143938571D01*
X123594761Y-143843333D01*
X123547142Y-143795714D01*
X123451904Y-143748095D01*
X123213809Y-143748095D01*
X123118571Y-143795714D01*
X123070952Y-143843333D01*
X123023333Y-143938571D01*
X123023333Y-144129047D01*
X123070952Y-144224285D01*
X123118571Y-144271904D01*
X123213809Y-144319523D01*
X122642380Y-143129047D02*
X122642380Y-143033809D01*
X122690000Y-142938571D01*
X122737619Y-142890952D01*
X122832857Y-142843333D01*
X123023333Y-142795714D01*
X123261428Y-142795714D01*
X123451904Y-142843333D01*
X123547142Y-142890952D01*
X123594761Y-142938571D01*
X123642380Y-143033809D01*
X123642380Y-143129047D01*
X123594761Y-143224285D01*
X123547142Y-143271904D01*
X123451904Y-143319523D01*
X123261428Y-143367142D01*
X123023333Y-143367142D01*
X122832857Y-143319523D01*
X122737619Y-143271904D01*
X122690000Y-143224285D01*
X122642380Y-143129047D01*
X123642380Y-141605238D02*
X122975714Y-141605238D01*
X123070952Y-141605238D02*
X123023333Y-141557619D01*
X122975714Y-141462380D01*
X122975714Y-141319523D01*
X123023333Y-141224285D01*
X123118571Y-141176666D01*
X123642380Y-141176666D01*
X123118571Y-141176666D02*
X123023333Y-141129047D01*
X122975714Y-141033809D01*
X122975714Y-140890952D01*
X123023333Y-140795714D01*
X123118571Y-140748095D01*
X123642380Y-140748095D01*
X123642380Y-140271904D02*
X122975714Y-140271904D01*
X123070952Y-140271904D02*
X123023333Y-140224285D01*
X122975714Y-140129047D01*
X122975714Y-139986190D01*
X123023333Y-139890952D01*
X123118571Y-139843333D01*
X123642380Y-139843333D01*
X123118571Y-139843333D02*
X123023333Y-139795714D01*
X122975714Y-139700476D01*
X122975714Y-139557619D01*
X123023333Y-139462380D01*
X123118571Y-139414761D01*
X123642380Y-139414761D01*
D11*
X121920000Y-180340000D02*
X121920000Y-106680000D01*
X111760000Y-180340000D02*
X122506421Y-180340000D01*
X111760000Y-106680000D02*
X122506421Y-106680000D01*
X121920000Y-106680000D02*
X122506421Y-107806504D01*
X121920000Y-106680000D02*
X121333579Y-107806504D01*
X121920000Y-180340000D02*
X122506421Y-179213496D01*
X121920000Y-180340000D02*
X121333579Y-179213496D01*
D10*
X85233333Y-191555714D02*
X85233333Y-192222380D01*
X84995238Y-191174761D02*
X84757142Y-191889047D01*
X85376190Y-191889047D01*
X86233333Y-191222380D02*
X85757142Y-191222380D01*
X85709523Y-191698571D01*
X85757142Y-191650952D01*
X85852380Y-191603333D01*
X86090476Y-191603333D01*
X86185714Y-191650952D01*
X86233333Y-191698571D01*
X86280952Y-191793809D01*
X86280952Y-192031904D01*
X86233333Y-192127142D01*
X86185714Y-192174761D01*
X86090476Y-192222380D01*
X85852380Y-192222380D01*
X85757142Y-192174761D01*
X85709523Y-192127142D01*
X86757142Y-192174761D02*
X86757142Y-192222380D01*
X86709523Y-192317619D01*
X86661904Y-192365238D01*
X87090476Y-191222380D02*
X87757142Y-191222380D01*
X87328571Y-192222380D01*
X88090476Y-191317619D02*
X88138095Y-191270000D01*
X88233333Y-191222380D01*
X88471428Y-191222380D01*
X88566666Y-191270000D01*
X88614285Y-191317619D01*
X88661904Y-191412857D01*
X88661904Y-191508095D01*
X88614285Y-191650952D01*
X88042857Y-192222380D01*
X88661904Y-192222380D01*
X89280952Y-191222380D02*
X89376190Y-191222380D01*
X89471428Y-191270000D01*
X89519047Y-191317619D01*
X89566666Y-191412857D01*
X89614285Y-191603333D01*
X89614285Y-191841428D01*
X89566666Y-192031904D01*
X89519047Y-192127142D01*
X89471428Y-192174761D01*
X89376190Y-192222380D01*
X89280952Y-192222380D01*
X89185714Y-192174761D01*
X89138095Y-192127142D01*
X89090476Y-192031904D01*
X89042857Y-191841428D01*
X89042857Y-191603333D01*
X89090476Y-191412857D01*
X89138095Y-191317619D01*
X89185714Y-191270000D01*
X89280952Y-191222380D01*
X90804761Y-192222380D02*
X90804761Y-191555714D01*
X90804761Y-191650952D02*
X90852380Y-191603333D01*
X90947619Y-191555714D01*
X91090476Y-191555714D01*
X91185714Y-191603333D01*
X91233333Y-191698571D01*
X91233333Y-192222380D01*
X91233333Y-191698571D02*
X91280952Y-191603333D01*
X91376190Y-191555714D01*
X91519047Y-191555714D01*
X91614285Y-191603333D01*
X91661904Y-191698571D01*
X91661904Y-192222380D01*
X92138095Y-192222380D02*
X92138095Y-191555714D01*
X92138095Y-191650952D02*
X92185714Y-191603333D01*
X92280952Y-191555714D01*
X92423809Y-191555714D01*
X92519047Y-191603333D01*
X92566666Y-191698571D01*
X92566666Y-192222380D01*
X92566666Y-191698571D02*
X92614285Y-191603333D01*
X92709523Y-191555714D01*
X92852380Y-191555714D01*
X92947619Y-191603333D01*
X92995238Y-191698571D01*
X92995238Y-192222380D01*
D11*
X66040000Y-190500000D02*
X111760000Y-190500000D01*
X66040000Y-180340000D02*
X66040000Y-191086421D01*
X111760000Y-180340000D02*
X111760000Y-191086421D01*
X111760000Y-190500000D02*
X110633496Y-191086421D01*
X111760000Y-190500000D02*
X110633496Y-189913579D01*
X66040000Y-190500000D02*
X67166504Y-191086421D01*
X66040000Y-190500000D02*
X67166504Y-189913579D01*
D10*
X71572380Y-116349880D02*
X71572380Y-116921309D01*
X71572380Y-116635595D02*
X70572380Y-116635595D01*
X70715238Y-116730833D01*
X70810476Y-116826071D01*
X70858095Y-116921309D01*
X70905714Y-115492738D02*
X71572380Y-115492738D01*
X70905714Y-115921309D02*
X71429523Y-115921309D01*
X71524761Y-115873690D01*
X71572380Y-115778452D01*
X71572380Y-115635595D01*
X71524761Y-115540357D01*
X71477142Y-115492738D01*
X71048571Y-114683214D02*
X71048571Y-115016547D01*
X71572380Y-115016547D02*
X70572380Y-115016547D01*
X70572380Y-114540357D01*
X96631428Y-144708571D02*
X96774285Y-144756190D01*
X96821904Y-144803809D01*
X96869523Y-144899047D01*
X96869523Y-145041904D01*
X96821904Y-145137142D01*
X96774285Y-145184761D01*
X96679047Y-145232380D01*
X96298095Y-145232380D01*
X96298095Y-144232380D01*
X96631428Y-144232380D01*
X96726666Y-144280000D01*
X96774285Y-144327619D01*
X96821904Y-144422857D01*
X96821904Y-144518095D01*
X96774285Y-144613333D01*
X96726666Y-144660952D01*
X96631428Y-144708571D01*
X96298095Y-144708571D01*
X97298095Y-145232380D02*
X97298095Y-144232380D01*
X97631428Y-144946666D01*
X97964761Y-144232380D01*
X97964761Y-145232380D01*
X98440952Y-145232380D02*
X98440952Y-144232380D01*
X98821904Y-144232380D01*
X98917142Y-144280000D01*
X98964761Y-144327619D01*
X99012380Y-144422857D01*
X99012380Y-144565714D01*
X98964761Y-144660952D01*
X98917142Y-144708571D01*
X98821904Y-144756190D01*
X98440952Y-144756190D01*
X99393333Y-144327619D02*
X99440952Y-144280000D01*
X99536190Y-144232380D01*
X99774285Y-144232380D01*
X99869523Y-144280000D01*
X99917142Y-144327619D01*
X99964761Y-144422857D01*
X99964761Y-144518095D01*
X99917142Y-144660952D01*
X99345714Y-145232380D01*
X99964761Y-145232380D01*
X100536190Y-144660952D02*
X100440952Y-144613333D01*
X100393333Y-144565714D01*
X100345714Y-144470476D01*
X100345714Y-144422857D01*
X100393333Y-144327619D01*
X100440952Y-144280000D01*
X100536190Y-144232380D01*
X100726666Y-144232380D01*
X100821904Y-144280000D01*
X100869523Y-144327619D01*
X100917142Y-144422857D01*
X100917142Y-144470476D01*
X100869523Y-144565714D01*
X100821904Y-144613333D01*
X100726666Y-144660952D01*
X100536190Y-144660952D01*
X100440952Y-144708571D01*
X100393333Y-144756190D01*
X100345714Y-144851428D01*
X100345714Y-145041904D01*
X100393333Y-145137142D01*
X100440952Y-145184761D01*
X100536190Y-145232380D01*
X100726666Y-145232380D01*
X100821904Y-145184761D01*
X100869523Y-145137142D01*
X100917142Y-145041904D01*
X100917142Y-144851428D01*
X100869523Y-144756190D01*
X100821904Y-144708571D01*
X100726666Y-144660952D01*
X101536190Y-144232380D02*
X101631428Y-144232380D01*
X101726666Y-144280000D01*
X101774285Y-144327619D01*
X101821904Y-144422857D01*
X101869523Y-144613333D01*
X101869523Y-144851428D01*
X101821904Y-145041904D01*
X101774285Y-145137142D01*
X101726666Y-145184761D01*
X101631428Y-145232380D01*
X101536190Y-145232380D01*
X101440952Y-145184761D01*
X101393333Y-145137142D01*
X101345714Y-145041904D01*
X101298095Y-144851428D01*
X101298095Y-144613333D01*
X101345714Y-144422857D01*
X101393333Y-144327619D01*
X101440952Y-144280000D01*
X101536190Y-144232380D01*
X96631428Y-126928571D02*
X96774285Y-126976190D01*
X96821904Y-127023809D01*
X96869523Y-127119047D01*
X96869523Y-127261904D01*
X96821904Y-127357142D01*
X96774285Y-127404761D01*
X96679047Y-127452380D01*
X96298095Y-127452380D01*
X96298095Y-126452380D01*
X96631428Y-126452380D01*
X96726666Y-126500000D01*
X96774285Y-126547619D01*
X96821904Y-126642857D01*
X96821904Y-126738095D01*
X96774285Y-126833333D01*
X96726666Y-126880952D01*
X96631428Y-126928571D01*
X96298095Y-126928571D01*
X97298095Y-127452380D02*
X97298095Y-126452380D01*
X97631428Y-127166666D01*
X97964761Y-126452380D01*
X97964761Y-127452380D01*
X98440952Y-127452380D02*
X98440952Y-126452380D01*
X98821904Y-126452380D01*
X98917142Y-126500000D01*
X98964761Y-126547619D01*
X99012380Y-126642857D01*
X99012380Y-126785714D01*
X98964761Y-126880952D01*
X98917142Y-126928571D01*
X98821904Y-126976190D01*
X98440952Y-126976190D01*
X99393333Y-126547619D02*
X99440952Y-126500000D01*
X99536190Y-126452380D01*
X99774285Y-126452380D01*
X99869523Y-126500000D01*
X99917142Y-126547619D01*
X99964761Y-126642857D01*
X99964761Y-126738095D01*
X99917142Y-126880952D01*
X99345714Y-127452380D01*
X99964761Y-127452380D01*
X100536190Y-126880952D02*
X100440952Y-126833333D01*
X100393333Y-126785714D01*
X100345714Y-126690476D01*
X100345714Y-126642857D01*
X100393333Y-126547619D01*
X100440952Y-126500000D01*
X100536190Y-126452380D01*
X100726666Y-126452380D01*
X100821904Y-126500000D01*
X100869523Y-126547619D01*
X100917142Y-126642857D01*
X100917142Y-126690476D01*
X100869523Y-126785714D01*
X100821904Y-126833333D01*
X100726666Y-126880952D01*
X100536190Y-126880952D01*
X100440952Y-126928571D01*
X100393333Y-126976190D01*
X100345714Y-127071428D01*
X100345714Y-127261904D01*
X100393333Y-127357142D01*
X100440952Y-127404761D01*
X100536190Y-127452380D01*
X100726666Y-127452380D01*
X100821904Y-127404761D01*
X100869523Y-127357142D01*
X100917142Y-127261904D01*
X100917142Y-127071428D01*
X100869523Y-126976190D01*
X100821904Y-126928571D01*
X100726666Y-126880952D01*
X101536190Y-126452380D02*
X101631428Y-126452380D01*
X101726666Y-126500000D01*
X101774285Y-126547619D01*
X101821904Y-126642857D01*
X101869523Y-126833333D01*
X101869523Y-127071428D01*
X101821904Y-127261904D01*
X101774285Y-127357142D01*
X101726666Y-127404761D01*
X101631428Y-127452380D01*
X101536190Y-127452380D01*
X101440952Y-127404761D01*
X101393333Y-127357142D01*
X101345714Y-127261904D01*
X101298095Y-127071428D01*
X101298095Y-126833333D01*
X101345714Y-126642857D01*
X101393333Y-126547619D01*
X101440952Y-126500000D01*
X101536190Y-126452380D01*
X78335238Y-111688571D02*
X78478095Y-111736190D01*
X78525714Y-111783809D01*
X78573333Y-111879047D01*
X78573333Y-112021904D01*
X78525714Y-112117142D01*
X78478095Y-112164761D01*
X78382857Y-112212380D01*
X78001904Y-112212380D01*
X78001904Y-111212380D01*
X78335238Y-111212380D01*
X78430476Y-111260000D01*
X78478095Y-111307619D01*
X78525714Y-111402857D01*
X78525714Y-111498095D01*
X78478095Y-111593333D01*
X78430476Y-111640952D01*
X78335238Y-111688571D01*
X78001904Y-111688571D01*
X78906666Y-111212380D02*
X79525714Y-111212380D01*
X79192380Y-111593333D01*
X79335238Y-111593333D01*
X79430476Y-111640952D01*
X79478095Y-111688571D01*
X79525714Y-111783809D01*
X79525714Y-112021904D01*
X79478095Y-112117142D01*
X79430476Y-112164761D01*
X79335238Y-112212380D01*
X79049523Y-112212380D01*
X78954285Y-112164761D01*
X78906666Y-112117142D01*
X73255238Y-111688571D02*
X73398095Y-111736190D01*
X73445714Y-111783809D01*
X73493333Y-111879047D01*
X73493333Y-112021904D01*
X73445714Y-112117142D01*
X73398095Y-112164761D01*
X73302857Y-112212380D01*
X72921904Y-112212380D01*
X72921904Y-111212380D01*
X73255238Y-111212380D01*
X73350476Y-111260000D01*
X73398095Y-111307619D01*
X73445714Y-111402857D01*
X73445714Y-111498095D01*
X73398095Y-111593333D01*
X73350476Y-111640952D01*
X73255238Y-111688571D01*
X72921904Y-111688571D01*
X73874285Y-111307619D02*
X73921904Y-111260000D01*
X74017142Y-111212380D01*
X74255238Y-111212380D01*
X74350476Y-111260000D01*
X74398095Y-111307619D01*
X74445714Y-111402857D01*
X74445714Y-111498095D01*
X74398095Y-111640952D01*
X73826666Y-112212380D01*
X74445714Y-112212380D01*
X70715238Y-111688571D02*
X70858095Y-111736190D01*
X70905714Y-111783809D01*
X70953333Y-111879047D01*
X70953333Y-112021904D01*
X70905714Y-112117142D01*
X70858095Y-112164761D01*
X70762857Y-112212380D01*
X70381904Y-112212380D01*
X70381904Y-111212380D01*
X70715238Y-111212380D01*
X70810476Y-111260000D01*
X70858095Y-111307619D01*
X70905714Y-111402857D01*
X70905714Y-111498095D01*
X70858095Y-111593333D01*
X70810476Y-111640952D01*
X70715238Y-111688571D01*
X70381904Y-111688571D01*
X71905714Y-112212380D02*
X71334285Y-112212380D01*
X71620000Y-112212380D02*
X71620000Y-111212380D01*
X71524761Y-111355238D01*
X71429523Y-111450476D01*
X71334285Y-111498095D01*
X81780000Y-115159404D02*
X81827619Y-115064166D01*
X81827619Y-114921309D01*
X81780000Y-114778452D01*
X81684761Y-114683214D01*
X81589523Y-114635595D01*
X81399047Y-114587976D01*
X81256190Y-114587976D01*
X81065714Y-114635595D01*
X80970476Y-114683214D01*
X80875238Y-114778452D01*
X80827619Y-114921309D01*
X80827619Y-115016547D01*
X80875238Y-115159404D01*
X80922857Y-115207023D01*
X81256190Y-115207023D01*
X81256190Y-115016547D01*
X80827619Y-115635595D02*
X81827619Y-115635595D01*
X80827619Y-116207023D01*
X81827619Y-116207023D01*
X80827619Y-116683214D02*
X81827619Y-116683214D01*
X81827619Y-116921309D01*
X81780000Y-117064166D01*
X81684761Y-117159404D01*
X81589523Y-117207023D01*
X81399047Y-117254642D01*
X81256190Y-117254642D01*
X81065714Y-117207023D01*
X80970476Y-117159404D01*
X80875238Y-117064166D01*
X80827619Y-116921309D01*
X80827619Y-116683214D01*
X84367619Y-114492738D02*
X83367619Y-114826071D01*
X84367619Y-115159404D01*
X83462857Y-116064166D02*
X83415238Y-116016547D01*
X83367619Y-115873690D01*
X83367619Y-115778452D01*
X83415238Y-115635595D01*
X83510476Y-115540357D01*
X83605714Y-115492738D01*
X83796190Y-115445119D01*
X83939047Y-115445119D01*
X84129523Y-115492738D01*
X84224761Y-115540357D01*
X84320000Y-115635595D01*
X84367619Y-115778452D01*
X84367619Y-115873690D01*
X84320000Y-116016547D01*
X84272380Y-116064166D01*
X83462857Y-117064166D02*
X83415238Y-117016547D01*
X83367619Y-116873690D01*
X83367619Y-116778452D01*
X83415238Y-116635595D01*
X83510476Y-116540357D01*
X83605714Y-116492738D01*
X83796190Y-116445119D01*
X83939047Y-116445119D01*
X84129523Y-116492738D01*
X84224761Y-116540357D01*
X84320000Y-116635595D01*
X84367619Y-116778452D01*
X84367619Y-116873690D01*
X84320000Y-117016547D01*
X84272380Y-117064166D01*
X85955238Y-114587976D02*
X85907619Y-114730833D01*
X85907619Y-114968928D01*
X85955238Y-115064166D01*
X86002857Y-115111785D01*
X86098095Y-115159404D01*
X86193333Y-115159404D01*
X86288571Y-115111785D01*
X86336190Y-115064166D01*
X86383809Y-114968928D01*
X86431428Y-114778452D01*
X86479047Y-114683214D01*
X86526666Y-114635595D01*
X86621904Y-114587976D01*
X86717142Y-114587976D01*
X86812380Y-114635595D01*
X86860000Y-114683214D01*
X86907619Y-114778452D01*
X86907619Y-115016547D01*
X86860000Y-115159404D01*
X86002857Y-116159404D02*
X85955238Y-116111785D01*
X85907619Y-115968928D01*
X85907619Y-115873690D01*
X85955238Y-115730833D01*
X86050476Y-115635595D01*
X86145714Y-115587976D01*
X86336190Y-115540357D01*
X86479047Y-115540357D01*
X86669523Y-115587976D01*
X86764761Y-115635595D01*
X86860000Y-115730833D01*
X86907619Y-115873690D01*
X86907619Y-115968928D01*
X86860000Y-116111785D01*
X86812380Y-116159404D01*
X85907619Y-117064166D02*
X85907619Y-116587976D01*
X86907619Y-116587976D01*
X88495238Y-114587976D02*
X88447619Y-114730833D01*
X88447619Y-114968928D01*
X88495238Y-115064166D01*
X88542857Y-115111785D01*
X88638095Y-115159404D01*
X88733333Y-115159404D01*
X88828571Y-115111785D01*
X88876190Y-115064166D01*
X88923809Y-114968928D01*
X88971428Y-114778452D01*
X89019047Y-114683214D01*
X89066666Y-114635595D01*
X89161904Y-114587976D01*
X89257142Y-114587976D01*
X89352380Y-114635595D01*
X89400000Y-114683214D01*
X89447619Y-114778452D01*
X89447619Y-115016547D01*
X89400000Y-115159404D01*
X88447619Y-115587976D02*
X89447619Y-115587976D01*
X89447619Y-115826071D01*
X89400000Y-115968928D01*
X89304761Y-116064166D01*
X89209523Y-116111785D01*
X89019047Y-116159404D01*
X88876190Y-116159404D01*
X88685714Y-116111785D01*
X88590476Y-116064166D01*
X88495238Y-115968928D01*
X88447619Y-115826071D01*
X88447619Y-115587976D01*
X88733333Y-116540357D02*
X88733333Y-117016547D01*
X88447619Y-116445119D02*
X89447619Y-116778452D01*
X88447619Y-117111785D01*
X90987619Y-115207023D02*
X91463809Y-114873690D01*
X90987619Y-114635595D02*
X91987619Y-114635595D01*
X91987619Y-115016547D01*
X91940000Y-115111785D01*
X91892380Y-115159404D01*
X91797142Y-115207023D01*
X91654285Y-115207023D01*
X91559047Y-115159404D01*
X91511428Y-115111785D01*
X91463809Y-115016547D01*
X91463809Y-114635595D01*
X91511428Y-115635595D02*
X91511428Y-115968928D01*
X90987619Y-116111785D02*
X90987619Y-115635595D01*
X91987619Y-115635595D01*
X91987619Y-116111785D01*
X91035238Y-116492738D02*
X90987619Y-116635595D01*
X90987619Y-116873690D01*
X91035238Y-116968928D01*
X91082857Y-117016547D01*
X91178095Y-117064166D01*
X91273333Y-117064166D01*
X91368571Y-117016547D01*
X91416190Y-116968928D01*
X91463809Y-116873690D01*
X91511428Y-116683214D01*
X91559047Y-116587976D01*
X91606666Y-116540357D01*
X91701904Y-116492738D01*
X91797142Y-116492738D01*
X91892380Y-116540357D01*
X91940000Y-116587976D01*
X91987619Y-116683214D01*
X91987619Y-116921309D01*
X91940000Y-117064166D01*
X93527619Y-114635595D02*
X94527619Y-114635595D01*
X94527619Y-114873690D01*
X94480000Y-115016547D01*
X94384761Y-115111785D01*
X94289523Y-115159404D01*
X94099047Y-115207023D01*
X93956190Y-115207023D01*
X93765714Y-115159404D01*
X93670476Y-115111785D01*
X93575238Y-115016547D01*
X93527619Y-114873690D01*
X93527619Y-114635595D01*
X93622857Y-116207023D02*
X93575238Y-116159404D01*
X93527619Y-116016547D01*
X93527619Y-115921309D01*
X93575238Y-115778452D01*
X93670476Y-115683214D01*
X93765714Y-115635595D01*
X93956190Y-115587976D01*
X94099047Y-115587976D01*
X94289523Y-115635595D01*
X94384761Y-115683214D01*
X94480000Y-115778452D01*
X94527619Y-115921309D01*
X94527619Y-116016547D01*
X94480000Y-116159404D01*
X94432380Y-116207023D01*
X96162857Y-115207023D02*
X96115238Y-115159404D01*
X96067619Y-115016547D01*
X96067619Y-114921309D01*
X96115238Y-114778452D01*
X96210476Y-114683214D01*
X96305714Y-114635595D01*
X96496190Y-114587976D01*
X96639047Y-114587976D01*
X96829523Y-114635595D01*
X96924761Y-114683214D01*
X97020000Y-114778452D01*
X97067619Y-114921309D01*
X97067619Y-115016547D01*
X97020000Y-115159404D01*
X96972380Y-115207023D01*
X96115238Y-115587976D02*
X96067619Y-115730833D01*
X96067619Y-115968928D01*
X96115238Y-116064166D01*
X96162857Y-116111785D01*
X96258095Y-116159404D01*
X96353333Y-116159404D01*
X96448571Y-116111785D01*
X96496190Y-116064166D01*
X96543809Y-115968928D01*
X96591428Y-115778452D01*
X96639047Y-115683214D01*
X96686666Y-115635595D01*
X96781904Y-115587976D01*
X96877142Y-115587976D01*
X96972380Y-115635595D01*
X97020000Y-115683214D01*
X97067619Y-115778452D01*
X97067619Y-116016547D01*
X97020000Y-116159404D01*
X89408095Y-167140000D02*
X89312857Y-167092380D01*
X89170000Y-167092380D01*
X89027142Y-167140000D01*
X88931904Y-167235238D01*
X88884285Y-167330476D01*
X88836666Y-167520952D01*
X88836666Y-167663809D01*
X88884285Y-167854285D01*
X88931904Y-167949523D01*
X89027142Y-168044761D01*
X89170000Y-168092380D01*
X89265238Y-168092380D01*
X89408095Y-168044761D01*
X89455714Y-167997142D01*
X89455714Y-167663809D01*
X89265238Y-167663809D01*
X89884285Y-168092380D02*
X89884285Y-167092380D01*
X90455714Y-168092380D01*
X90455714Y-167092380D01*
X90931904Y-168092380D02*
X90931904Y-167092380D01*
X91170000Y-167092380D01*
X91312857Y-167140000D01*
X91408095Y-167235238D01*
X91455714Y-167330476D01*
X91503333Y-167520952D01*
X91503333Y-167663809D01*
X91455714Y-167854285D01*
X91408095Y-167949523D01*
X91312857Y-168044761D01*
X91170000Y-168092380D01*
X90931904Y-168092380D01*
X74191904Y-167568571D02*
X74334761Y-167616190D01*
X74382380Y-167663809D01*
X74430000Y-167759047D01*
X74430000Y-167901904D01*
X74382380Y-167997142D01*
X74334761Y-168044761D01*
X74239523Y-168092380D01*
X73858571Y-168092380D01*
X73858571Y-167092380D01*
X74191904Y-167092380D01*
X74287142Y-167140000D01*
X74334761Y-167187619D01*
X74382380Y-167282857D01*
X74382380Y-167378095D01*
X74334761Y-167473333D01*
X74287142Y-167520952D01*
X74191904Y-167568571D01*
X73858571Y-167568571D01*
X74810952Y-167806666D02*
X75287142Y-167806666D01*
X74715714Y-168092380D02*
X75049047Y-167092380D01*
X75382380Y-168092380D01*
X75572857Y-167092380D02*
X76144285Y-167092380D01*
X75858571Y-168092380D02*
X75858571Y-167092380D01*
X73596666Y-128992380D02*
X73930000Y-129992380D01*
X74263333Y-128992380D01*
X75168095Y-129897142D02*
X75120476Y-129944761D01*
X74977619Y-129992380D01*
X74882380Y-129992380D01*
X74739523Y-129944761D01*
X74644285Y-129849523D01*
X74596666Y-129754285D01*
X74549047Y-129563809D01*
X74549047Y-129420952D01*
X74596666Y-129230476D01*
X74644285Y-129135238D01*
X74739523Y-129040000D01*
X74882380Y-128992380D01*
X74977619Y-128992380D01*
X75120476Y-129040000D01*
X75168095Y-129087619D01*
X76168095Y-129897142D02*
X76120476Y-129944761D01*
X75977619Y-129992380D01*
X75882380Y-129992380D01*
X75739523Y-129944761D01*
X75644285Y-129849523D01*
X75596666Y-129754285D01*
X75549047Y-129563809D01*
X75549047Y-129420952D01*
X75596666Y-129230476D01*
X75644285Y-129135238D01*
X75739523Y-129040000D01*
X75882380Y-128992380D01*
X75977619Y-128992380D01*
X76120476Y-129040000D01*
X76168095Y-129087619D01*
X89408095Y-129040000D02*
X89312857Y-128992380D01*
X89170000Y-128992380D01*
X89027142Y-129040000D01*
X88931904Y-129135238D01*
X88884285Y-129230476D01*
X88836666Y-129420952D01*
X88836666Y-129563809D01*
X88884285Y-129754285D01*
X88931904Y-129849523D01*
X89027142Y-129944761D01*
X89170000Y-129992380D01*
X89265238Y-129992380D01*
X89408095Y-129944761D01*
X89455714Y-129897142D01*
X89455714Y-129563809D01*
X89265238Y-129563809D01*
X89884285Y-129992380D02*
X89884285Y-128992380D01*
X90455714Y-129992380D01*
X90455714Y-128992380D01*
X90931904Y-129992380D02*
X90931904Y-128992380D01*
X91170000Y-128992380D01*
X91312857Y-129040000D01*
X91408095Y-129135238D01*
X91455714Y-129230476D01*
X91503333Y-129420952D01*
X91503333Y-129563809D01*
X91455714Y-129754285D01*
X91408095Y-129849523D01*
X91312857Y-129944761D01*
X91170000Y-129992380D01*
X90931904Y-129992380D01*
X108847380Y-127134285D02*
X107847380Y-127134285D01*
X108561666Y-126800952D01*
X107847380Y-126467619D01*
X108847380Y-126467619D01*
X108847380Y-125562857D02*
X108323571Y-125562857D01*
X108228333Y-125610476D01*
X108180714Y-125705714D01*
X108180714Y-125896190D01*
X108228333Y-125991428D01*
X108799761Y-125562857D02*
X108847380Y-125658095D01*
X108847380Y-125896190D01*
X108799761Y-125991428D01*
X108704523Y-126039047D01*
X108609285Y-126039047D01*
X108514047Y-125991428D01*
X108466428Y-125896190D01*
X108466428Y-125658095D01*
X108418809Y-125562857D01*
X108847380Y-125086666D02*
X108180714Y-125086666D01*
X108371190Y-125086666D02*
X108275952Y-125039047D01*
X108228333Y-124991428D01*
X108180714Y-124896190D01*
X108180714Y-124800952D01*
X108799761Y-124039047D02*
X108847380Y-124134285D01*
X108847380Y-124324761D01*
X108799761Y-124420000D01*
X108752142Y-124467619D01*
X108656904Y-124515238D01*
X108371190Y-124515238D01*
X108275952Y-124467619D01*
X108228333Y-124420000D01*
X108180714Y-124324761D01*
X108180714Y-124134285D01*
X108228333Y-124039047D01*
X108799761Y-123229523D02*
X108847380Y-123324761D01*
X108847380Y-123515238D01*
X108799761Y-123610476D01*
X108704523Y-123658095D01*
X108323571Y-123658095D01*
X108228333Y-123610476D01*
X108180714Y-123515238D01*
X108180714Y-123324761D01*
X108228333Y-123229523D01*
X108323571Y-123181904D01*
X108418809Y-123181904D01*
X108514047Y-123658095D01*
X108847380Y-122610476D02*
X108799761Y-122705714D01*
X108704523Y-122753333D01*
X107847380Y-122753333D01*
X107847380Y-121610476D02*
X108847380Y-121277142D01*
X107847380Y-120943809D01*
X108799761Y-120229523D02*
X108847380Y-120324761D01*
X108847380Y-120515238D01*
X108799761Y-120610476D01*
X108704523Y-120658095D01*
X108323571Y-120658095D01*
X108228333Y-120610476D01*
X108180714Y-120515238D01*
X108180714Y-120324761D01*
X108228333Y-120229523D01*
X108323571Y-120181904D01*
X108418809Y-120181904D01*
X108514047Y-120658095D01*
X108847380Y-119753333D02*
X108180714Y-119753333D01*
X108371190Y-119753333D02*
X108275952Y-119705714D01*
X108228333Y-119658095D01*
X108180714Y-119562857D01*
X108180714Y-119467619D01*
X108847380Y-118705714D02*
X107847380Y-118705714D01*
X108799761Y-118705714D02*
X108847380Y-118800952D01*
X108847380Y-118991428D01*
X108799761Y-119086666D01*
X108752142Y-119134285D01*
X108656904Y-119181904D01*
X108371190Y-119181904D01*
X108275952Y-119134285D01*
X108228333Y-119086666D01*
X108180714Y-118991428D01*
X108180714Y-118800952D01*
X108228333Y-118705714D01*
X108180714Y-117800952D02*
X108847380Y-117800952D01*
X108180714Y-118229523D02*
X108704523Y-118229523D01*
X108799761Y-118181904D01*
X108847380Y-118086666D01*
X108847380Y-117943809D01*
X108799761Y-117848571D01*
X108752142Y-117800952D01*
X108847380Y-117181904D02*
X108799761Y-117277142D01*
X108704523Y-117324761D01*
X107847380Y-117324761D01*
X108180714Y-116943809D02*
X108180714Y-116562857D01*
X107847380Y-116800952D02*
X108704523Y-116800952D01*
X108799761Y-116753333D01*
X108847380Y-116658095D01*
X108847380Y-116562857D01*
X110497380Y-131539047D02*
X109497380Y-131539047D01*
X110449761Y-131539047D02*
X110497380Y-131634285D01*
X110497380Y-131824761D01*
X110449761Y-131920000D01*
X110402142Y-131967619D01*
X110306904Y-132015238D01*
X110021190Y-132015238D01*
X109925952Y-131967619D01*
X109878333Y-131920000D01*
X109830714Y-131824761D01*
X109830714Y-131634285D01*
X109878333Y-131539047D01*
X110497380Y-131062857D02*
X109830714Y-131062857D01*
X109497380Y-131062857D02*
X109545000Y-131110476D01*
X109592619Y-131062857D01*
X109545000Y-131015238D01*
X109497380Y-131062857D01*
X109592619Y-131062857D01*
X109830714Y-130681904D02*
X110497380Y-130443809D01*
X109830714Y-130205714D02*
X110497380Y-130443809D01*
X110735476Y-130539047D01*
X110783095Y-130586666D01*
X110830714Y-130681904D01*
X110497380Y-129396190D02*
X109973571Y-129396190D01*
X109878333Y-129443809D01*
X109830714Y-129539047D01*
X109830714Y-129729523D01*
X109878333Y-129824761D01*
X110449761Y-129396190D02*
X110497380Y-129491428D01*
X110497380Y-129729523D01*
X110449761Y-129824761D01*
X110354523Y-129872380D01*
X110259285Y-129872380D01*
X110164047Y-129824761D01*
X110116428Y-129729523D01*
X110116428Y-129491428D01*
X110068809Y-129396190D01*
X110497380Y-128777142D02*
X110449761Y-128872380D01*
X110354523Y-128920000D01*
X109497380Y-128920000D01*
X109830714Y-128539047D02*
X109830714Y-128158095D01*
X109497380Y-128396190D02*
X110354523Y-128396190D01*
X110449761Y-128348571D01*
X110497380Y-128253333D01*
X110497380Y-128158095D01*
X110497380Y-127824761D02*
X109830714Y-127824761D01*
X109497380Y-127824761D02*
X109545000Y-127872380D01*
X109592619Y-127824761D01*
X109545000Y-127777142D01*
X109497380Y-127824761D01*
X109592619Y-127824761D01*
X110497380Y-127348571D02*
X109830714Y-127348571D01*
X109925952Y-127348571D02*
X109878333Y-127300952D01*
X109830714Y-127205714D01*
X109830714Y-127062857D01*
X109878333Y-126967619D01*
X109973571Y-126920000D01*
X110497380Y-126920000D01*
X109973571Y-126920000D02*
X109878333Y-126872380D01*
X109830714Y-126777142D01*
X109830714Y-126634285D01*
X109878333Y-126539047D01*
X109973571Y-126491428D01*
X110497380Y-126491428D01*
X110449761Y-125634285D02*
X110497380Y-125729523D01*
X110497380Y-125920000D01*
X110449761Y-126015238D01*
X110354523Y-126062857D01*
X109973571Y-126062857D01*
X109878333Y-126015238D01*
X109830714Y-125920000D01*
X109830714Y-125729523D01*
X109878333Y-125634285D01*
X109973571Y-125586666D01*
X110068809Y-125586666D01*
X110164047Y-126062857D01*
X109830714Y-125300952D02*
X109830714Y-124920000D01*
X109497380Y-125158095D02*
X110354523Y-125158095D01*
X110449761Y-125110476D01*
X110497380Y-125015238D01*
X110497380Y-124920000D01*
X110449761Y-124205714D02*
X110497380Y-124300952D01*
X110497380Y-124491428D01*
X110449761Y-124586666D01*
X110354523Y-124634285D01*
X109973571Y-124634285D01*
X109878333Y-124586666D01*
X109830714Y-124491428D01*
X109830714Y-124300952D01*
X109878333Y-124205714D01*
X109973571Y-124158095D01*
X110068809Y-124158095D01*
X110164047Y-124634285D01*
X110497380Y-123729523D02*
X109830714Y-123729523D01*
X110021190Y-123729523D02*
X109925952Y-123681904D01*
X109878333Y-123634285D01*
X109830714Y-123539047D01*
X109830714Y-123443809D01*
X110402142Y-123110476D02*
X110449761Y-123062857D01*
X110497380Y-123110476D01*
X110449761Y-123158095D01*
X110402142Y-123110476D01*
X110497380Y-123110476D01*
X110497380Y-122205714D02*
X109497380Y-122205714D01*
X110449761Y-122205714D02*
X110497380Y-122300952D01*
X110497380Y-122491428D01*
X110449761Y-122586666D01*
X110402142Y-122634285D01*
X110306904Y-122681904D01*
X110021190Y-122681904D01*
X109925952Y-122634285D01*
X109878333Y-122586666D01*
X109830714Y-122491428D01*
X109830714Y-122300952D01*
X109878333Y-122205714D01*
X110449761Y-121348571D02*
X110497380Y-121443809D01*
X110497380Y-121634285D01*
X110449761Y-121729523D01*
X110354523Y-121777142D01*
X109973571Y-121777142D01*
X109878333Y-121729523D01*
X109830714Y-121634285D01*
X109830714Y-121443809D01*
X109878333Y-121348571D01*
X109973571Y-121300952D01*
X110068809Y-121300952D01*
X110164047Y-121777142D01*
X110116428Y-120110476D02*
X110116428Y-119348571D01*
X110497380Y-117539047D02*
X110021190Y-117872380D01*
X110497380Y-118110476D02*
X109497380Y-118110476D01*
X109497380Y-117729523D01*
X109545000Y-117634285D01*
X109592619Y-117586666D01*
X109687857Y-117539047D01*
X109830714Y-117539047D01*
X109925952Y-117586666D01*
X109973571Y-117634285D01*
X110021190Y-117729523D01*
X110021190Y-118110476D01*
X110449761Y-116729523D02*
X110497380Y-116824761D01*
X110497380Y-117015238D01*
X110449761Y-117110476D01*
X110354523Y-117158095D01*
X109973571Y-117158095D01*
X109878333Y-117110476D01*
X109830714Y-117015238D01*
X109830714Y-116824761D01*
X109878333Y-116729523D01*
X109973571Y-116681904D01*
X110068809Y-116681904D01*
X110164047Y-117158095D01*
X109830714Y-116348571D02*
X110497380Y-116110476D01*
X109830714Y-115872380D01*
X110497380Y-114205714D02*
X110497380Y-114777142D01*
X110497380Y-114491428D02*
X109497380Y-114491428D01*
X109640238Y-114586666D01*
X109735476Y-114681904D01*
X109783095Y-114777142D01*
X110402142Y-113777142D02*
X110449761Y-113729523D01*
X110497380Y-113777142D01*
X110449761Y-113824761D01*
X110402142Y-113777142D01*
X110497380Y-113777142D01*
X109497380Y-113110476D02*
X109497380Y-113015238D01*
X109545000Y-112920000D01*
X109592619Y-112872380D01*
X109687857Y-112824761D01*
X109878333Y-112777142D01*
X110116428Y-112777142D01*
X110306904Y-112824761D01*
X110402142Y-112872380D01*
X110449761Y-112920000D01*
X110497380Y-113015238D01*
X110497380Y-113110476D01*
X110449761Y-113205714D01*
X110402142Y-113253333D01*
X110306904Y-113300952D01*
X110116428Y-113348571D01*
X109878333Y-113348571D01*
X109687857Y-113300952D01*
X109592619Y-113253333D01*
X109545000Y-113205714D01*
X109497380Y-113110476D01*
X109592619Y-112396190D02*
X109545000Y-112348571D01*
X109497380Y-112253333D01*
X109497380Y-112015238D01*
X109545000Y-111920000D01*
X109592619Y-111872380D01*
X109687857Y-111824761D01*
X109783095Y-111824761D01*
X109925952Y-111872380D01*
X110497380Y-112443809D01*
X110497380Y-111824761D01*
X75788095Y-162012380D02*
X76026190Y-163012380D01*
X76216666Y-162298095D01*
X76407142Y-163012380D01*
X76645238Y-162012380D01*
X77026190Y-162488571D02*
X77359523Y-162488571D01*
X77502380Y-163012380D02*
X77026190Y-163012380D01*
X77026190Y-162012380D01*
X77502380Y-162012380D01*
X77930952Y-163012380D02*
X77930952Y-162012380D01*
X78264285Y-162726666D01*
X78597619Y-162012380D01*
X78597619Y-163012380D01*
X79264285Y-162012380D02*
X79454761Y-162012380D01*
X79550000Y-162060000D01*
X79645238Y-162155238D01*
X79692857Y-162345714D01*
X79692857Y-162679047D01*
X79645238Y-162869523D01*
X79550000Y-162964761D01*
X79454761Y-163012380D01*
X79264285Y-163012380D01*
X79169047Y-162964761D01*
X79073809Y-162869523D01*
X79026190Y-162679047D01*
X79026190Y-162345714D01*
X79073809Y-162155238D01*
X79169047Y-162060000D01*
X79264285Y-162012380D01*
X80073809Y-162964761D02*
X80216666Y-163012380D01*
X80454761Y-163012380D01*
X80550000Y-162964761D01*
X80597619Y-162917142D01*
X80645238Y-162821904D01*
X80645238Y-162726666D01*
X80597619Y-162631428D01*
X80550000Y-162583809D01*
X80454761Y-162536190D01*
X80264285Y-162488571D01*
X80169047Y-162440952D01*
X80121428Y-162393333D01*
X80073809Y-162298095D01*
X80073809Y-162202857D01*
X80121428Y-162107619D01*
X80169047Y-162060000D01*
X80264285Y-162012380D01*
X80502380Y-162012380D01*
X80645238Y-162060000D01*
X82311904Y-163012380D02*
X81835714Y-163012380D01*
X81835714Y-162012380D01*
X82835714Y-162012380D02*
X83026190Y-162012380D01*
X83121428Y-162060000D01*
X83216666Y-162155238D01*
X83264285Y-162345714D01*
X83264285Y-162679047D01*
X83216666Y-162869523D01*
X83121428Y-162964761D01*
X83026190Y-163012380D01*
X82835714Y-163012380D01*
X82740476Y-162964761D01*
X82645238Y-162869523D01*
X82597619Y-162679047D01*
X82597619Y-162345714D01*
X82645238Y-162155238D01*
X82740476Y-162060000D01*
X82835714Y-162012380D01*
X84169047Y-163012380D02*
X83692857Y-163012380D01*
X83692857Y-162012380D01*
X84502380Y-163012380D02*
X84502380Y-162012380D01*
X84978571Y-163012380D02*
X84978571Y-162012380D01*
X85550000Y-163012380D01*
X85550000Y-162012380D01*
X86788095Y-163012380D02*
X86788095Y-162012380D01*
X87026190Y-162012380D01*
X87169047Y-162060000D01*
X87264285Y-162155238D01*
X87311904Y-162250476D01*
X87359523Y-162440952D01*
X87359523Y-162583809D01*
X87311904Y-162774285D01*
X87264285Y-162869523D01*
X87169047Y-162964761D01*
X87026190Y-163012380D01*
X86788095Y-163012380D01*
X87692857Y-162012380D02*
X88311904Y-162012380D01*
X87978571Y-162393333D01*
X88121428Y-162393333D01*
X88216666Y-162440952D01*
X88264285Y-162488571D01*
X88311904Y-162583809D01*
X88311904Y-162821904D01*
X88264285Y-162917142D01*
X88216666Y-162964761D01*
X88121428Y-163012380D01*
X87835714Y-163012380D01*
X87740476Y-162964761D01*
X87692857Y-162917142D01*
X88692857Y-162107619D02*
X88740476Y-162060000D01*
X88835714Y-162012380D01*
X89073809Y-162012380D01*
X89169047Y-162060000D01*
X89216666Y-162107619D01*
X89264285Y-162202857D01*
X89264285Y-162298095D01*
X89216666Y-162440952D01*
X88645238Y-163012380D01*
X89264285Y-163012380D01*
X106138690Y-165552380D02*
X106138690Y-164552380D01*
X106376785Y-164552380D01*
X106519642Y-164600000D01*
X106614880Y-164695238D01*
X106662500Y-164790476D01*
X106710119Y-164980952D01*
X106710119Y-165123809D01*
X106662500Y-165314285D01*
X106614880Y-165409523D01*
X106519642Y-165504761D01*
X106376785Y-165552380D01*
X106138690Y-165552380D01*
X107091071Y-165504761D02*
X107233928Y-165552380D01*
X107472023Y-165552380D01*
X107567261Y-165504761D01*
X107614880Y-165457142D01*
X107662500Y-165361904D01*
X107662500Y-165266666D01*
X107614880Y-165171428D01*
X107567261Y-165123809D01*
X107472023Y-165076190D01*
X107281547Y-165028571D01*
X107186309Y-164980952D01*
X107138690Y-164933333D01*
X107091071Y-164838095D01*
X107091071Y-164742857D01*
X107138690Y-164647619D01*
X107186309Y-164600000D01*
X107281547Y-164552380D01*
X107519642Y-164552380D01*
X107662500Y-164600000D01*
X107995833Y-164552380D02*
X108614880Y-164552380D01*
X108281547Y-164933333D01*
X108424404Y-164933333D01*
X108519642Y-164980952D01*
X108567261Y-165028571D01*
X108614880Y-165123809D01*
X108614880Y-165361904D01*
X108567261Y-165457142D01*
X108519642Y-165504761D01*
X108424404Y-165552380D01*
X108138690Y-165552380D01*
X108043452Y-165504761D01*
X107995833Y-165457142D01*
X108995833Y-164647619D02*
X109043452Y-164600000D01*
X109138690Y-164552380D01*
X109376785Y-164552380D01*
X109472023Y-164600000D01*
X109519642Y-164647619D01*
X109567261Y-164742857D01*
X109567261Y-164838095D01*
X109519642Y-164980952D01*
X108948214Y-165552380D01*
X109567261Y-165552380D01*
X109900595Y-164552380D02*
X110519642Y-164552380D01*
X110186309Y-164933333D01*
X110329166Y-164933333D01*
X110424404Y-164980952D01*
X110472023Y-165028571D01*
X110519642Y-165123809D01*
X110519642Y-165361904D01*
X110472023Y-165457142D01*
X110424404Y-165504761D01*
X110329166Y-165552380D01*
X110043452Y-165552380D01*
X109948214Y-165504761D01*
X109900595Y-165457142D01*
X111472023Y-165552380D02*
X110900595Y-165552380D01*
X111186309Y-165552380D02*
X111186309Y-164552380D01*
X111091071Y-164695238D01*
X110995833Y-164790476D01*
X110900595Y-164838095D01*
X104296785Y-177300000D02*
X104201547Y-177252380D01*
X104058690Y-177252380D01*
X103915833Y-177300000D01*
X103820595Y-177395238D01*
X103772976Y-177490476D01*
X103725357Y-177680952D01*
X103725357Y-177823809D01*
X103772976Y-178014285D01*
X103820595Y-178109523D01*
X103915833Y-178204761D01*
X104058690Y-178252380D01*
X104153928Y-178252380D01*
X104296785Y-178204761D01*
X104344404Y-178157142D01*
X104344404Y-177823809D01*
X104153928Y-177823809D01*
X104772976Y-178252380D02*
X104772976Y-177252380D01*
X105344404Y-178252380D01*
X105344404Y-177252380D01*
X105820595Y-178252380D02*
X105820595Y-177252380D01*
X106058690Y-177252380D01*
X106201547Y-177300000D01*
X106296785Y-177395238D01*
X106344404Y-177490476D01*
X106392023Y-177680952D01*
X106392023Y-177823809D01*
X106344404Y-178014285D01*
X106296785Y-178109523D01*
X106201547Y-178204761D01*
X106058690Y-178252380D01*
X105820595Y-178252380D01*
X104011071Y-173124761D02*
X104153928Y-173172380D01*
X104392023Y-173172380D01*
X104487261Y-173124761D01*
X104534880Y-173077142D01*
X104582500Y-172981904D01*
X104582500Y-172886666D01*
X104534880Y-172791428D01*
X104487261Y-172743809D01*
X104392023Y-172696190D01*
X104201547Y-172648571D01*
X104106309Y-172600952D01*
X104058690Y-172553333D01*
X104011071Y-172458095D01*
X104011071Y-172362857D01*
X104058690Y-172267619D01*
X104106309Y-172220000D01*
X104201547Y-172172380D01*
X104439642Y-172172380D01*
X104582500Y-172220000D01*
X105582500Y-173077142D02*
X105534880Y-173124761D01*
X105392023Y-173172380D01*
X105296785Y-173172380D01*
X105153928Y-173124761D01*
X105058690Y-173029523D01*
X105011071Y-172934285D01*
X104963452Y-172743809D01*
X104963452Y-172600952D01*
X105011071Y-172410476D01*
X105058690Y-172315238D01*
X105153928Y-172220000D01*
X105296785Y-172172380D01*
X105392023Y-172172380D01*
X105534880Y-172220000D01*
X105582500Y-172267619D01*
X106487261Y-173172380D02*
X106011071Y-173172380D01*
X106011071Y-172172380D01*
X103963452Y-170584761D02*
X104106309Y-170632380D01*
X104344404Y-170632380D01*
X104439642Y-170584761D01*
X104487261Y-170537142D01*
X104534880Y-170441904D01*
X104534880Y-170346666D01*
X104487261Y-170251428D01*
X104439642Y-170203809D01*
X104344404Y-170156190D01*
X104153928Y-170108571D01*
X104058690Y-170060952D01*
X104011071Y-170013333D01*
X103963452Y-169918095D01*
X103963452Y-169822857D01*
X104011071Y-169727619D01*
X104058690Y-169680000D01*
X104153928Y-169632380D01*
X104392023Y-169632380D01*
X104534880Y-169680000D01*
X104963452Y-170632380D02*
X104963452Y-169632380D01*
X105201547Y-169632380D01*
X105344404Y-169680000D01*
X105439642Y-169775238D01*
X105487261Y-169870476D01*
X105534880Y-170060952D01*
X105534880Y-170203809D01*
X105487261Y-170394285D01*
X105439642Y-170489523D01*
X105344404Y-170584761D01*
X105201547Y-170632380D01*
X104963452Y-170632380D01*
X105915833Y-170346666D02*
X106392023Y-170346666D01*
X105820595Y-170632380D02*
X106153928Y-169632380D01*
X106487261Y-170632380D01*
X103820595Y-167092380D02*
X104153928Y-168092380D01*
X104487261Y-167092380D01*
X105392023Y-167997142D02*
X105344404Y-168044761D01*
X105201547Y-168092380D01*
X105106309Y-168092380D01*
X104963452Y-168044761D01*
X104868214Y-167949523D01*
X104820595Y-167854285D01*
X104772976Y-167663809D01*
X104772976Y-167520952D01*
X104820595Y-167330476D01*
X104868214Y-167235238D01*
X104963452Y-167140000D01*
X105106309Y-167092380D01*
X105201547Y-167092380D01*
X105344404Y-167140000D01*
X105392023Y-167187619D01*
X106392023Y-167997142D02*
X106344404Y-168044761D01*
X106201547Y-168092380D01*
X106106309Y-168092380D01*
X105963452Y-168044761D01*
X105868214Y-167949523D01*
X105820595Y-167854285D01*
X105772976Y-167663809D01*
X105772976Y-167520952D01*
X105820595Y-167330476D01*
X105868214Y-167235238D01*
X105963452Y-167140000D01*
X106106309Y-167092380D01*
X106201547Y-167092380D01*
X106344404Y-167140000D01*
X106392023Y-167187619D01*
X102925714Y-155344761D02*
X103068571Y-155392380D01*
X103306666Y-155392380D01*
X103401904Y-155344761D01*
X103449523Y-155297142D01*
X103497142Y-155201904D01*
X103497142Y-155106666D01*
X103449523Y-155011428D01*
X103401904Y-154963809D01*
X103306666Y-154916190D01*
X103116190Y-154868571D01*
X103020952Y-154820952D01*
X102973333Y-154773333D01*
X102925714Y-154678095D01*
X102925714Y-154582857D01*
X102973333Y-154487619D01*
X103020952Y-154440000D01*
X103116190Y-154392380D01*
X103354285Y-154392380D01*
X103497142Y-154440000D01*
X103925714Y-155392380D02*
X103925714Y-154392380D01*
X104163809Y-154392380D01*
X104306666Y-154440000D01*
X104401904Y-154535238D01*
X104449523Y-154630476D01*
X104497142Y-154820952D01*
X104497142Y-154963809D01*
X104449523Y-155154285D01*
X104401904Y-155249523D01*
X104306666Y-155344761D01*
X104163809Y-155392380D01*
X103925714Y-155392380D01*
X104878095Y-155106666D02*
X105354285Y-155106666D01*
X104782857Y-155392380D02*
X105116190Y-154392380D01*
X105449523Y-155392380D01*
X102949523Y-152804761D02*
X103092380Y-152852380D01*
X103330476Y-152852380D01*
X103425714Y-152804761D01*
X103473333Y-152757142D01*
X103520952Y-152661904D01*
X103520952Y-152566666D01*
X103473333Y-152471428D01*
X103425714Y-152423809D01*
X103330476Y-152376190D01*
X103140000Y-152328571D01*
X103044761Y-152280952D01*
X102997142Y-152233333D01*
X102949523Y-152138095D01*
X102949523Y-152042857D01*
X102997142Y-151947619D01*
X103044761Y-151900000D01*
X103140000Y-151852380D01*
X103378095Y-151852380D01*
X103520952Y-151900000D01*
X104520952Y-152757142D02*
X104473333Y-152804761D01*
X104330476Y-152852380D01*
X104235238Y-152852380D01*
X104092380Y-152804761D01*
X103997142Y-152709523D01*
X103949523Y-152614285D01*
X103901904Y-152423809D01*
X103901904Y-152280952D01*
X103949523Y-152090476D01*
X103997142Y-151995238D01*
X104092380Y-151900000D01*
X104235238Y-151852380D01*
X104330476Y-151852380D01*
X104473333Y-151900000D01*
X104520952Y-151947619D01*
X105425714Y-152852380D02*
X104949523Y-152852380D01*
X104949523Y-151852380D01*
X103378095Y-149360000D02*
X103282857Y-149312380D01*
X103140000Y-149312380D01*
X102997142Y-149360000D01*
X102901904Y-149455238D01*
X102854285Y-149550476D01*
X102806666Y-149740952D01*
X102806666Y-149883809D01*
X102854285Y-150074285D01*
X102901904Y-150169523D01*
X102997142Y-150264761D01*
X103140000Y-150312380D01*
X103235238Y-150312380D01*
X103378095Y-150264761D01*
X103425714Y-150217142D01*
X103425714Y-149883809D01*
X103235238Y-149883809D01*
X103854285Y-150312380D02*
X103854285Y-149312380D01*
X104425714Y-150312380D01*
X104425714Y-149312380D01*
X104901904Y-150312380D02*
X104901904Y-149312380D01*
X105140000Y-149312380D01*
X105282857Y-149360000D01*
X105378095Y-149455238D01*
X105425714Y-149550476D01*
X105473333Y-149740952D01*
X105473333Y-149883809D01*
X105425714Y-150074285D01*
X105378095Y-150169523D01*
X105282857Y-150264761D01*
X105140000Y-150312380D01*
X104901904Y-150312380D01*
X102806666Y-146772380D02*
X103140000Y-147772380D01*
X103473333Y-146772380D01*
X104378095Y-147677142D02*
X104330476Y-147724761D01*
X104187619Y-147772380D01*
X104092380Y-147772380D01*
X103949523Y-147724761D01*
X103854285Y-147629523D01*
X103806666Y-147534285D01*
X103759047Y-147343809D01*
X103759047Y-147200952D01*
X103806666Y-147010476D01*
X103854285Y-146915238D01*
X103949523Y-146820000D01*
X104092380Y-146772380D01*
X104187619Y-146772380D01*
X104330476Y-146820000D01*
X104378095Y-146867619D01*
X105378095Y-147677142D02*
X105330476Y-147724761D01*
X105187619Y-147772380D01*
X105092380Y-147772380D01*
X104949523Y-147724761D01*
X104854285Y-147629523D01*
X104806666Y-147534285D01*
X104759047Y-147343809D01*
X104759047Y-147200952D01*
X104806666Y-147010476D01*
X104854285Y-146915238D01*
X104949523Y-146820000D01*
X105092380Y-146772380D01*
X105187619Y-146772380D01*
X105330476Y-146820000D01*
X105378095Y-146867619D01*
X102854285Y-142644761D02*
X102997142Y-142692380D01*
X103235238Y-142692380D01*
X103330476Y-142644761D01*
X103378095Y-142597142D01*
X103425714Y-142501904D01*
X103425714Y-142406666D01*
X103378095Y-142311428D01*
X103330476Y-142263809D01*
X103235238Y-142216190D01*
X103044761Y-142168571D01*
X102949523Y-142120952D01*
X102901904Y-142073333D01*
X102854285Y-141978095D01*
X102854285Y-141882857D01*
X102901904Y-141787619D01*
X102949523Y-141740000D01*
X103044761Y-141692380D01*
X103282857Y-141692380D01*
X103425714Y-141740000D01*
X103854285Y-142692380D02*
X103854285Y-141692380D01*
X104092380Y-141692380D01*
X104235238Y-141740000D01*
X104330476Y-141835238D01*
X104378095Y-141930476D01*
X104425714Y-142120952D01*
X104425714Y-142263809D01*
X104378095Y-142454285D01*
X104330476Y-142549523D01*
X104235238Y-142644761D01*
X104092380Y-142692380D01*
X103854285Y-142692380D01*
X104854285Y-142692380D02*
X104854285Y-141692380D01*
X105092380Y-141692380D01*
X105235238Y-141740000D01*
X105330476Y-141835238D01*
X105378095Y-141930476D01*
X105425714Y-142120952D01*
X105425714Y-142263809D01*
X105378095Y-142454285D01*
X105330476Y-142549523D01*
X105235238Y-142644761D01*
X105092380Y-142692380D01*
X104854285Y-142692380D01*
X102925714Y-137564761D02*
X103068571Y-137612380D01*
X103306666Y-137612380D01*
X103401904Y-137564761D01*
X103449523Y-137517142D01*
X103497142Y-137421904D01*
X103497142Y-137326666D01*
X103449523Y-137231428D01*
X103401904Y-137183809D01*
X103306666Y-137136190D01*
X103116190Y-137088571D01*
X103020952Y-137040952D01*
X102973333Y-136993333D01*
X102925714Y-136898095D01*
X102925714Y-136802857D01*
X102973333Y-136707619D01*
X103020952Y-136660000D01*
X103116190Y-136612380D01*
X103354285Y-136612380D01*
X103497142Y-136660000D01*
X103925714Y-137612380D02*
X103925714Y-136612380D01*
X104163809Y-136612380D01*
X104306666Y-136660000D01*
X104401904Y-136755238D01*
X104449523Y-136850476D01*
X104497142Y-137040952D01*
X104497142Y-137183809D01*
X104449523Y-137374285D01*
X104401904Y-137469523D01*
X104306666Y-137564761D01*
X104163809Y-137612380D01*
X103925714Y-137612380D01*
X104878095Y-137326666D02*
X105354285Y-137326666D01*
X104782857Y-137612380D02*
X105116190Y-136612380D01*
X105449523Y-137612380D01*
X102949523Y-135024761D02*
X103092380Y-135072380D01*
X103330476Y-135072380D01*
X103425714Y-135024761D01*
X103473333Y-134977142D01*
X103520952Y-134881904D01*
X103520952Y-134786666D01*
X103473333Y-134691428D01*
X103425714Y-134643809D01*
X103330476Y-134596190D01*
X103140000Y-134548571D01*
X103044761Y-134500952D01*
X102997142Y-134453333D01*
X102949523Y-134358095D01*
X102949523Y-134262857D01*
X102997142Y-134167619D01*
X103044761Y-134120000D01*
X103140000Y-134072380D01*
X103378095Y-134072380D01*
X103520952Y-134120000D01*
X104520952Y-134977142D02*
X104473333Y-135024761D01*
X104330476Y-135072380D01*
X104235238Y-135072380D01*
X104092380Y-135024761D01*
X103997142Y-134929523D01*
X103949523Y-134834285D01*
X103901904Y-134643809D01*
X103901904Y-134500952D01*
X103949523Y-134310476D01*
X103997142Y-134215238D01*
X104092380Y-134120000D01*
X104235238Y-134072380D01*
X104330476Y-134072380D01*
X104473333Y-134120000D01*
X104520952Y-134167619D01*
X105425714Y-135072380D02*
X104949523Y-135072380D01*
X104949523Y-134072380D01*
X103378095Y-131580000D02*
X103282857Y-131532380D01*
X103140000Y-131532380D01*
X102997142Y-131580000D01*
X102901904Y-131675238D01*
X102854285Y-131770476D01*
X102806666Y-131960952D01*
X102806666Y-132103809D01*
X102854285Y-132294285D01*
X102901904Y-132389523D01*
X102997142Y-132484761D01*
X103140000Y-132532380D01*
X103235238Y-132532380D01*
X103378095Y-132484761D01*
X103425714Y-132437142D01*
X103425714Y-132103809D01*
X103235238Y-132103809D01*
X103854285Y-132532380D02*
X103854285Y-131532380D01*
X104425714Y-132532380D01*
X104425714Y-131532380D01*
X104901904Y-132532380D02*
X104901904Y-131532380D01*
X105140000Y-131532380D01*
X105282857Y-131580000D01*
X105378095Y-131675238D01*
X105425714Y-131770476D01*
X105473333Y-131960952D01*
X105473333Y-132103809D01*
X105425714Y-132294285D01*
X105378095Y-132389523D01*
X105282857Y-132484761D01*
X105140000Y-132532380D01*
X104901904Y-132532380D01*
X102806666Y-128992380D02*
X103140000Y-129992380D01*
X103473333Y-128992380D01*
X104378095Y-129897142D02*
X104330476Y-129944761D01*
X104187619Y-129992380D01*
X104092380Y-129992380D01*
X103949523Y-129944761D01*
X103854285Y-129849523D01*
X103806666Y-129754285D01*
X103759047Y-129563809D01*
X103759047Y-129420952D01*
X103806666Y-129230476D01*
X103854285Y-129135238D01*
X103949523Y-129040000D01*
X104092380Y-128992380D01*
X104187619Y-128992380D01*
X104330476Y-129040000D01*
X104378095Y-129087619D01*
X105378095Y-129897142D02*
X105330476Y-129944761D01*
X105187619Y-129992380D01*
X105092380Y-129992380D01*
X104949523Y-129944761D01*
X104854285Y-129849523D01*
X104806666Y-129754285D01*
X104759047Y-129563809D01*
X104759047Y-129420952D01*
X104806666Y-129230476D01*
X104854285Y-129135238D01*
X104949523Y-129040000D01*
X105092380Y-128992380D01*
X105187619Y-128992380D01*
X105330476Y-129040000D01*
X105378095Y-129087619D01*
D11*
X80070000Y-110550000D02*
X80070000Y-107890000D01*
X72390000Y-110550000D02*
X80070000Y-110550000D01*
X72390000Y-107890000D02*
X80070000Y-107890000D01*
X72390000Y-110550000D02*
X72390000Y-107890000D01*
X71120000Y-110550000D02*
X69790000Y-110550000D01*
X69790000Y-110550000D02*
X69790000Y-109220000D01*
X97850000Y-110550000D02*
X97850000Y-107890000D01*
X82550000Y-110550000D02*
X97850000Y-110550000D01*
X82550000Y-107890000D02*
X97850000Y-107890000D01*
X82550000Y-110550000D02*
X82550000Y-107890000D01*
X81280000Y-110550000D02*
X79950000Y-110550000D01*
X79950000Y-110550000D02*
X79950000Y-109220000D01*
X72450000Y-168970000D02*
X71120000Y-168970000D01*
X72450000Y-167640000D02*
X72450000Y-168970000D01*
X72450000Y-166370000D02*
X69790000Y-166370000D01*
X69790000Y-166370000D02*
X69790000Y-128210000D01*
X72450000Y-166370000D02*
X72450000Y-128210000D01*
X72450000Y-128210000D02*
X69790000Y-128210000D01*
X92650000Y-168970000D02*
X95310000Y-168970000D01*
X92650000Y-130810000D02*
X92650000Y-168970000D01*
X95310000Y-130810000D02*
X95310000Y-168970000D01*
X92650000Y-130810000D02*
X95310000Y-130810000D01*
X92650000Y-129540000D02*
X92650000Y-128210000D01*
X92650000Y-128210000D02*
X93980000Y-128210000D01*
X100390000Y-145990000D02*
X97730000Y-145990000D01*
X100390000Y-158750000D02*
X100390000Y-145990000D01*
X97730000Y-158750000D02*
X97730000Y-145990000D01*
X100390000Y-158750000D02*
X97730000Y-158750000D01*
X100390000Y-160020000D02*
X100390000Y-161350000D01*
X100390000Y-161350000D02*
X99060000Y-161350000D01*
X100390000Y-143570000D02*
X99060000Y-143570000D01*
X100390000Y-142240000D02*
X100390000Y-143570000D01*
X100390000Y-140970000D02*
X97730000Y-140970000D01*
X97730000Y-140970000D02*
X97730000Y-128210000D01*
X100390000Y-140970000D02*
X100390000Y-128210000D01*
X100390000Y-128210000D02*
X97730000Y-128210000D01*
X110550000Y-166310000D02*
X107890000Y-166310000D01*
X110550000Y-176530000D02*
X110550000Y-166310000D01*
X107890000Y-176530000D02*
X107890000Y-166310000D01*
X110550000Y-176530000D02*
X107890000Y-176530000D01*
X110550000Y-177800000D02*
X110550000Y-179130000D01*
X110550000Y-179130000D02*
X109220000Y-179130000D01*
X69000000Y-120885000D02*
X69000000Y-111645000D01*
X73240000Y-120885000D02*
X73240000Y-111645000D01*
X69000000Y-120885000D02*
X70455000Y-120885000D01*
X71785000Y-120885000D02*
X73240000Y-120885000D01*
X69000000Y-111645000D02*
X70455000Y-111645000D01*
X71785000Y-111645000D02*
X73240000Y-111645000D01*
X70410000Y-116475252D02*
X70410000Y-115952748D01*
X71830000Y-116475252D02*
X71830000Y-115952748D01*
D10*
X69827142Y-116380666D02*
X69874761Y-116428285D01*
X69922380Y-116571142D01*
X69922380Y-116666380D01*
X69874761Y-116809238D01*
X69779523Y-116904476D01*
X69684285Y-116952095D01*
X69493809Y-116999714D01*
X69350952Y-116999714D01*
X69160476Y-116952095D01*
X69065238Y-116904476D01*
X68970000Y-116809238D01*
X68922380Y-116666380D01*
X68922380Y-116571142D01*
X68970000Y-116428285D01*
X69017619Y-116380666D01*
X69017619Y-115999714D02*
X68970000Y-115952095D01*
X68922380Y-115856857D01*
X68922380Y-115618761D01*
X68970000Y-115523523D01*
X69017619Y-115475904D01*
X69112857Y-115428285D01*
X69208095Y-115428285D01*
X69350952Y-115475904D01*
X69922380Y-116047333D01*
X69922380Y-115428285D01*
M02*
